<?xml version="1.0" encoding="utf-8"?>
<!-- Generator: Adobe Illustrator 18.1.1, SVG Export Plug-In . SVG Version: 6.00 Build 0)  -->
<svg version="1.1" id="Layer_1" xmlns="http://www.w3.org/2000/svg" xmlns:xlink="http://www.w3.org/1999/xlink" x="0px" y="0px"
	 viewBox="0 0 128.9 126.3" enable-background="new 0 0 128.9 126.3" xml:space="preserve">
<path fill-rule="evenodd" clip-rule="evenodd" fill="#CBCBCB" d="M90.4,118.7c12,0,21.8,1.7,21.8,3.8c0,2.1-9.7,3.8-21.8,3.8
	c-12,0-21.8-1.7-21.8-3.8C68.7,120.4,78.4,118.7,90.4,118.7L90.4,118.7z"/>
<path fill-rule="evenodd" clip-rule="evenodd" fill="#CBCBCB" d="M43.9,109.1c20.7,0,37.4,2.9,37.4,6.6s-16.8,6.6-37.4,6.6
	c-20.7,0-37.4-2.9-37.4-6.6S23.2,109.1,43.9,109.1L43.9,109.1z"/>
<path fill-rule="evenodd" clip-rule="evenodd" fill="#010101" d="M43.1,0c8.8,0,16.9,2.7,23.4,7.3l7.6-1c2.3-0.3,4.9-0.6,7.2-0.5
	c1.6,0.1,3.4,0.4,4.3,1.8c0.9,1.4,0.5,3.1,0,4.5c-0.6,1.8-1.4,3.5-2,5.3l0,0l-3.2,7.9c1.3,3.7,2,7.8,2,11.9c0,3.3-0.5,6.5-1.4,9.5
	l0.3,0.6c0.9-0.2,1.8-0.4,2.7-0.6l2.5-1c3.5-1.3,7.4-2.9,11.3-3.7c3.5-0.7,6.6-0.8,10,0.5c3.8,1.5,8.4,5.3,7.5,9.9
	c-0.1,0.3-0.2,0.7-0.3,1c-0.1,0.3-0.3,0.6-0.5,0.9c0,0,0,0.1-0.1,0.1c4.8,3.8,8.7,8.8,11.3,14.8c8.5,19.5-0.4,42.2-19.9,50.7
	c-12.6,5.5-26.6,3.7-37.2-3.6l-13.5,0c-2.9,0-5.5-2.1-5.4-5.2c0.1-0.9,0.2-1.7,0.5-2.4l-2.1-7.2c-1.8,0.3-3.7,0.4-5.5,0.4
	c-1.5,0-3-0.1-4.5-0.3l-2.1,7.2c0.3,0.7,0.5,1.5,0.5,2.4c0.2,3.1-2.4,5.2-5.4,5.2l-13.9,0c-0.6,0-1.2,0-1.7-0.1
	c-2.2-0.5-2.8-2.5-1.3-4.9c1.3-2,3-3.7,5-4.9l0.6-6.3c-1.9,0.4-4.1-0.2-5.9-1.8h0c-0.4-0.4-0.8-0.8-1.2-1.3c-1.1-1.4-1.8-3-2.1-4.7
	l0,0l0,0l0-0.1l0,0l0-0.1l0,0c-0.3-1.9-0.2-3.8,0.1-5.7c0.8-5.1,2.4-10,4.2-14.8c1-2.7,1.9-4.9,3.8-7.2c0.4-0.5,0.8-0.9,1.2-1.3
	c-3.3-1.7-6.3-3.9-8.8-6.6c-5.1-5.5-7.3-12.4-7.3-19.6c0-4.2,0.7-8.2,2-11.9l-3.2-7.9l0,0c-0.7-1.8-1.4-3.5-2-5.3
	c-0.5-1.4-0.9-3.1,0-4.5c0.9-1.4,2.7-1.8,4.3-1.8C7.1,5.7,9.7,6.1,12,6.4l7.6,1C26.2,2.7,34.3,0,43.1,0L43.1,0z"/>
<path fill-rule="evenodd" clip-rule="evenodd" fill="#FFFFFF" d="M20.2,98.3c-1.2,0.6-2.6,0.3-4-0.5c-0.2-0.1-0.4-0.2-0.6-0.4
	c-0.5-0.4-0.9-0.8-1.3-1.3c-0.9-1.1-1.4-2.4-1.7-3.8c-0.1-0.4-0.1-0.7-0.1-1.1c-0.1-1.6,0-3.1,0.2-4.1c0.5-3.4,1.4-6.7,2.5-10.1
	l5.8,1.5l-1,9.3c-0.3,2.6-0.4,3.8,0.7,4.6L20.2,98.3L20.2,98.3z M50.3,101.1l2.6,8.8c-0.4,0.7-0.6,1.5-0.7,2.3
	c-0.1,1.9,1.5,2.1,2.3,2.1l11.2,0c-2.6-2.2-5-4.8-7-7.8c-0.9,0.2-1.8,0.6-2.6,1.2c0.6-0.7,1.4-1.2,2.4-1.6c-1.2-1.9-2.3-3.9-3.3-6
	c-0.2-0.5-0.4-1-0.6-1.5C53.5,99.7,52.1,100.5,50.3,101.1L50.3,101.1z M53.1,94.5c-3.3,0.3-6.7,0.5-10.1,0.5
	c-6.6,0-13.2-0.7-19.7-1.7c-0.1,0-0.2,0-0.3-0.1l-1.3,12.8c3.1-0.8,6.8-0.2,8.6,1.9c-4.4-3.4-11.7-0.1-14.1,4.5c-1.1,2.2,1,2,1.7,2
	l13.9,0c0.8,0,2.4-0.2,2.3-2.1c-0.1-0.8-0.3-1.6-0.7-2.3l2.5-8.5c-2.8-0.8-4.9-2-6-3.5c3.6,1.2,7.9,1.8,12.6,1.8
	c4.2,0,8.2-0.5,11.6-1.5C53.8,96.9,53.4,95.7,53.1,94.5L53.1,94.5z"/>
<path fill-rule="evenodd" clip-rule="evenodd" fill="#E4E4E4" d="M20.2,98.3c-1.2,0.6-2.6,0.3-3.9-0.5c-0.2-0.1-0.4-0.2-0.6-0.4
	c-0.5-0.4-0.9-0.8-1.3-1.3c-0.9-1.1-1.4-2.4-1.7-3.8c-0.1-0.4-0.1-0.7-0.1-1.1c-0.1-1.6,0-3.1,0.2-4.1c0.5-3.4,1.4-6.7,2.5-10.1
	l2.6,0.7c-1,3.1-1.8,6.2-2.3,9.3c-0.2,1.1-0.3,2.5-0.2,4.1c0,0.4,0.1,0.7,0.1,1.1c0.2,1.3,0.7,2.6,1.7,3.8c0.4,0.5,0.9,0.9,1.3,1.3
	c0.2,0.1,0.4,0.3,0.6,0.4C19.5,98,19.8,98.1,20.2,98.3L20.2,98.3z M25.9,93.6c-0.8-0.1-2.1-0.3-2.8-0.4l-0.5,5.3l-0.7,7.5
	c0.9-0.2,1.9-0.3,2.9-0.3L25.9,93.6L25.9,93.6z M27.5,106.5c-4.2-0.7-9.3,2.1-11.2,5.8c-1.1,2.2,1,2,1.7,2l13.9,0c0.1,0,0.1,0,0.2,0
	l-11.2,0c-0.7,0-2.9,0.2-1.7-2C20.6,109.4,24.1,107.1,27.5,106.5L27.5,106.5z"/>
<path fill-rule="evenodd" clip-rule="evenodd" fill="#188ECE" d="M22.4,87.4l1.4-13.6c0.3-2.7,1-5.3,2.1-7.7
	c5.5,1.8,11.5,2.5,17.2,2.5c4.4,0,8.9-0.4,13.2-1.4c-3.9,7.6-5.3,16.4-3.6,25.1c-9.4,0.8-17.4,0.5-28-1.1
	C22.7,90.9,22,90.6,22.4,87.4L22.4,87.4z M21.2,76.9l-5.4-1.4c0.3-0.9,0.6-1.8,1-2.7c0.6-1.6,1.9-5.8,5.1-8.2
	c0.6,0.3,1.2,0.5,1.8,0.8c-1.1,2.6-1.9,5.3-2.2,8.2L21.2,76.9L21.2,76.9z"/>
<path fill-rule="evenodd" clip-rule="evenodd" fill="#004F7E" d="M22.4,87.4l1.4-13.6c0.3-2.7,1-5.3,2.1-7.7
	c1.4,0.4,2.8,0.8,4.2,1.1c-0.6,3.3-0.9,6.7-0.9,10.2c0,5.1,0.6,10,1.8,14.7c-2-0.2-4.2-0.5-6.4-0.8C22.7,90.9,22,90.6,22.4,87.4
	L22.4,87.4z M21.2,76.9l-5.4-1.4c0.3-0.9,0.6-1.8,1-2.7c0.6-1.6,1.9-5.8,5.1-8.2c0.6,0.3,1.2,0.5,1.8,0.8c-1.1,2.6-1.9,5.3-2.2,8.2
	L21.2,76.9L21.2,76.9z"/>
<path fill-rule="evenodd" clip-rule="evenodd" fill="#FFFFFF" d="M43.1,2.2c8.2,0,15.8,2.6,22,6.9l3.9-0.3l5.5-0.7
	c13-1.7,10.4,0.6,7.3,8.7l-2.4,6c-1.2-2.8-2.8-5.5-4.7-7.9c0.2-0.2,0.3-0.4,0.5-0.6c2.4-2.6,5.2-4.4,8-5.3c-2.6-0.4-5.8,0.8-8.4,3.2
	c-1.1,1-1.7,2-2.6,3.3c5,6,7.9,13.5,7.9,21.7c0,0.3,0,0.7,0,1l-1.1-2.6c-0.8-1.8-2.8-2.6-4.6-1.8l-10.1,4.4
	c-1.8,0.8-2.6,2.8-1.8,4.6l2,4.7c0.6,1.5,2.2,2.3,3.7,2.1l1.3,3c-2.8,1.8-5.4,4-7.6,6.5L60.3,58c-1.3-1-3.2-0.7-4.1,0.6l-1.6,2.1
	c-1,1.3-0.7,3.2,0.6,4.1l0.2,0.2c-3.9,0.9-8,1.3-12.4,1.3c-20.4,0-37-9.6-37-29c0-8.3,3-15.8,8-21.8h0c-0.6-0.8-1.1-1.6-1.8-2.3
	c-2.8-3-6.4-4.6-9.3-4.1c2.8,0.9,5.6,2.7,8,5.3c0.2,0.2,0.4,0.4,0.5,0.6c-1.9,2.4-3.5,5.1-4.7,7.9l-2.4-6c-3-8.2-5.6-10.4,7.4-8.7
	L17,8.8l4.1,0.3C27.2,4.8,34.8,2.2,43.1,2.2L43.1,2.2z"/>
<path fill-rule="evenodd" clip-rule="evenodd" fill="#E4E4E4" d="M30.1,64.9c-14-3.3-24-12.5-24-27.5c0-8.3,3-15.8,8-21.8
	c-0.6-0.8-1.1-1.6-1.8-2.3c-2.8-3-6.4-4.6-9.3-4.1c2.8,0.9,5.6,2.7,8,5.3c0.2,0.2,0.4,0.4,0.5,0.6c-1.9,2.4-3.5,5.1-4.7,7.9l-2.4-6
	c-3-8.2-5.6-10.4,7.4-8.7L17,8.8l4.1,0.3c3.9-2.7,8.4-4.8,13.2-5.9C21.1,8.9,11.9,22.2,11.9,37.6C11.9,51.3,19.2,60.3,30.1,64.9
	L30.1,64.9z"/>
<path fill="#FFFFFF" d="M26.9,75.3c0.1,0,0.1,0.1,0.2,0.1c0.1,0,0.2,0.1,0.3,0.1c0.1,0,0.2,0,0.3,0c0.1,0,0.1,0,0.2,0
	c0.1,0,0.1,0,0.2-0.1c0,0,0.1-0.1,0.1-0.1c0,0,0-0.1,0-0.2c0-0.1-0.1-0.2-0.2-0.3c-0.1-0.1-0.3-0.1-0.5-0.2c-0.1,0-0.3-0.1-0.4-0.1
	c-0.1,0-0.2-0.1-0.3-0.2c-0.1-0.1-0.2-0.2-0.2-0.3c-0.1-0.1-0.1-0.3-0.1-0.4c0-0.2,0-0.3,0.1-0.4c0.1-0.1,0.2-0.2,0.3-0.3
	c0.1-0.1,0.3-0.2,0.4-0.2s0.3-0.1,0.5-0.1c0.2,0,0.4,0,0.5,0c0.1,0,0.3,0.1,0.4,0.1c0.2,0.1,0.3,0.2,0.3,0.3c0,0.1,0,0.2-0.1,0.3
	c0,0.1-0.1,0.2-0.1,0.3c0,0-0.1-0.1-0.2-0.1c-0.1,0-0.1-0.1-0.2-0.1c-0.1,0-0.2-0.1-0.3-0.1c-0.1,0-0.2,0-0.3,0c-0.1,0-0.1,0-0.2,0
	c-0.1,0-0.1,0-0.2,0c0,0-0.1,0.1-0.1,0.1c0,0,0,0.1,0,0.2c0,0.2,0.2,0.3,0.5,0.4c0.1,0,0.3,0.1,0.4,0.1c0.1,0,0.3,0.1,0.4,0.2
	c0.1,0.1,0.2,0.2,0.3,0.3c0.1,0.1,0.1,0.3,0.1,0.5c0,0.2,0,0.4-0.1,0.5c-0.1,0.1-0.2,0.3-0.3,0.4c-0.1,0.1-0.3,0.2-0.5,0.2
	c-0.2,0.1-0.4,0.1-0.6,0.1c-0.2,0-0.4,0-0.5,0c-0.1,0-0.3-0.1-0.4-0.1c-0.1,0-0.1-0.1-0.2-0.1c-0.1-0.1-0.1-0.1-0.1-0.2
	c0-0.1,0-0.2,0.1-0.3c0-0.1,0.1-0.2,0.2-0.3C26.8,75.2,26.8,75.3,26.9,75.3L26.9,75.3z M29.9,71.5c0.3,0,0.5,0.2,0.5,0.5
	c0,0.3-0.2,0.5-0.5,0.5c-0.3,0-0.5-0.2-0.5-0.5C29.4,71.7,29.6,71.5,29.9,71.5L29.9,71.5z M39.5,72.7C39.5,72.7,39.6,72.7,39.5,72.7
	c0.1,0,0.1,0,0.2,0c0,0,0.1,0,0.1,0c0.2,0,0.3,0,0.4,0.1c0.1,0.1,0.2,0.1,0.2,0.3c0.1-0.1,0.2-0.2,0.4-0.3c0.2-0.1,0.4-0.1,0.6-0.1
	c0.2,0,0.3,0,0.5,0.1c0.2,0.1,0.3,0.2,0.4,0.3c0.1,0.1,0.2,0.3,0.3,0.5c0.1,0.2,0.1,0.5,0.1,0.8c0,0.4,0,0.7-0.1,0.9
	c-0.1,0.2-0.2,0.4-0.3,0.6c-0.1,0.1-0.3,0.2-0.5,0.3c-0.2,0.1-0.3,0.1-0.5,0.1c-0.1,0-0.3,0-0.4,0c-0.1,0-0.2-0.1-0.3-0.1
	c-0.1,0-0.1-0.1-0.2-0.1c0,0-0.1-0.1-0.1-0.1V77h-1V72.7L39.5,72.7z M40.5,75.2c0,0,0.1,0.1,0.2,0.1c0.1,0.1,0.2,0.1,0.3,0.1
	c0.2,0,0.4-0.1,0.5-0.3c0.1-0.2,0.2-0.5,0.2-0.8c0-0.1,0-0.3,0-0.4c0-0.1-0.1-0.2-0.1-0.3c-0.1-0.1-0.1-0.2-0.2-0.2
	c-0.1,0-0.2-0.1-0.3-0.1c-0.2,0-0.3,0-0.4,0.1c-0.1,0.1-0.1,0.2-0.1,0.2V75.2L40.5,75.2z M44,74.6c0,0.3,0.1,0.5,0.2,0.7
	c0.1,0.2,0.4,0.3,0.7,0.3c0.1,0,0.2,0,0.3,0c0.1,0,0.2-0.1,0.2-0.1c0.1,0,0.1-0.1,0.2-0.1c0.1,0,0.1-0.1,0.1-0.1
	c0.1,0.1,0.1,0.2,0.2,0.3c0.1,0.1,0.1,0.2,0.1,0.3c0,0.1-0.1,0.2-0.2,0.3c-0.1,0.1-0.2,0.1-0.4,0.2c-0.2,0.1-0.4,0.1-0.6,0.1
	c-0.2,0-0.4,0-0.7-0.1c-0.2-0.1-0.4-0.2-0.6-0.3c-0.2-0.1-0.3-0.3-0.4-0.6c-0.1-0.2-0.2-0.5-0.2-0.9c0-0.3,0-0.6,0.1-0.8
	c0.1-0.2,0.2-0.4,0.4-0.5s0.3-0.2,0.5-0.3c0.2-0.1,0.4-0.1,0.6-0.1c0.3,0,0.5,0,0.7,0.1c0.2,0.1,0.3,0.2,0.5,0.3
	c0.1,0.1,0.2,0.3,0.3,0.5c0.1,0.2,0.1,0.4,0.1,0.6c0,0,0,0.1,0,0.1c0,0,0,0.1,0,0.1c0,0,0,0.1,0,0.1c0,0,0,0.1,0,0.1H44L44,74.6z
	 M45.3,74.1c0-0.2,0-0.4-0.1-0.6c-0.1-0.1-0.2-0.2-0.5-0.2c-0.2,0-0.3,0.1-0.5,0.2c-0.1,0.1-0.2,0.3-0.2,0.6H45.3L45.3,74.1z
	 M47.4,74.6c0,0.3,0.1,0.5,0.2,0.7c0.1,0.2,0.4,0.3,0.7,0.3c0.1,0,0.2,0,0.3,0c0.1,0,0.2-0.1,0.2-0.1c0.1,0,0.1-0.1,0.2-0.1
	c0.1,0,0.1-0.1,0.1-0.1c0.1,0.1,0.1,0.2,0.2,0.3c0.1,0.1,0.1,0.2,0.1,0.3c0,0.1-0.1,0.2-0.2,0.3c-0.1,0.1-0.2,0.1-0.4,0.2
	c-0.2,0.1-0.4,0.1-0.6,0.1c-0.2,0-0.4,0-0.7-0.1c-0.2-0.1-0.4-0.2-0.6-0.3c-0.2-0.1-0.3-0.3-0.4-0.6c-0.1-0.2-0.2-0.5-0.2-0.9
	c0-0.3,0-0.6,0.1-0.8c0.1-0.2,0.2-0.4,0.4-0.5s0.3-0.2,0.5-0.3c0.2-0.1,0.4-0.1,0.6-0.1c0.3,0,0.5,0,0.7,0.1
	c0.2,0.1,0.3,0.2,0.5,0.3c0.1,0.1,0.2,0.3,0.3,0.5c0.1,0.2,0.1,0.4,0.1,0.6c0,0,0,0.1,0,0.1c0,0,0,0.1,0,0.1c0,0,0,0.1,0,0.1
	c0,0,0,0.1,0,0.1H47.4L47.4,74.6z M48.7,74.1c0-0.2,0-0.4-0.1-0.6c-0.1-0.1-0.2-0.2-0.5-0.2c-0.2,0-0.4,0.1-0.5,0.2
	c-0.1,0.1-0.2,0.3-0.2,0.6H48.7L48.7,74.1z M52.1,73.6c0,0-0.1-0.1-0.2-0.1c-0.1-0.1-0.2-0.1-0.3-0.1c-0.2,0-0.4,0.1-0.5,0.3
	c-0.1,0.2-0.2,0.4-0.2,0.8c0,0.2,0,0.3,0,0.5c0,0.1,0.1,0.2,0.1,0.3c0.1,0.1,0.1,0.2,0.2,0.2c0.1,0.1,0.2,0.1,0.4,0.1
	c0.1,0,0.3,0,0.4-0.1c0.1-0.1,0.1-0.1,0.1-0.2V73.6L52.1,73.6z M52.5,76.1c-0.1,0-0.1,0-0.2-0.1c0-0.1-0.1-0.1-0.1-0.2
	c-0.1,0.1-0.2,0.2-0.3,0.2c-0.2,0.1-0.4,0.1-0.6,0.1c-0.2,0-0.3,0-0.5-0.1c-0.2-0.1-0.3-0.2-0.4-0.3c-0.1-0.1-0.2-0.3-0.3-0.5
	c-0.1-0.2-0.1-0.5-0.1-0.8c0-0.3,0-0.6,0.1-0.8c0.1-0.2,0.2-0.4,0.3-0.6c0.1-0.1,0.3-0.3,0.4-0.3c0.2-0.1,0.3-0.1,0.5-0.1
	c0.2,0,0.4,0,0.5,0.1c0.1,0.1,0.2,0.1,0.3,0.2v-1.3c0,0,0.1,0,0.1,0c0.1,0,0.1,0,0.2,0c0.1,0,0.2,0,0.2,0c0.1,0,0.1,0,0.2,0.1
	c0.1,0,0.1,0.1,0.1,0.2c0,0.1,0.1,0.2,0.1,0.3v3.2c-0.1,0.2-0.1,0.5-0.2,0.7H52.5L52.5,76.1z M36.9,75.3c0.1,0,0.1,0.1,0.2,0.1
	c0.1,0,0.2,0.1,0.3,0.1c0.1,0,0.2,0,0.3,0c0.1,0,0.1,0,0.2,0c0.1,0,0.1,0,0.2-0.1c0,0,0.1-0.1,0.1-0.1c0,0,0-0.1,0-0.2
	c0-0.1-0.1-0.2-0.2-0.3c-0.1-0.1-0.3-0.1-0.5-0.2c-0.1,0-0.3-0.1-0.4-0.1c-0.1,0-0.2-0.1-0.3-0.2c-0.1-0.1-0.2-0.2-0.2-0.3
	c-0.1-0.1-0.1-0.3-0.1-0.4c0-0.2,0-0.3,0.1-0.4c0.1-0.1,0.2-0.2,0.3-0.3c0.1-0.1,0.3-0.2,0.4-0.2c0.2,0,0.3-0.1,0.5-0.1
	c0.2,0,0.4,0,0.5,0c0.1,0,0.3,0.1,0.4,0.1c0.2,0.1,0.3,0.2,0.3,0.3c0,0.1,0,0.2-0.1,0.3c0,0.1-0.1,0.2-0.1,0.3c0,0-0.1-0.1-0.2-0.1
	c-0.1,0-0.1-0.1-0.2-0.1c-0.1,0-0.2-0.1-0.3-0.1c-0.1,0-0.2,0-0.3,0c-0.1,0-0.1,0-0.2,0c-0.1,0-0.1,0-0.2,0c0,0-0.1,0.1-0.1,0.1
	c0,0,0,0.1,0,0.2c0,0.2,0.2,0.3,0.5,0.4c0.1,0,0.3,0.1,0.4,0.1c0.1,0,0.3,0.1,0.4,0.2c0.1,0.1,0.2,0.2,0.3,0.3
	c0.1,0.1,0.1,0.3,0.1,0.5c0,0.2,0,0.4-0.1,0.5c-0.1,0.1-0.2,0.3-0.3,0.4c-0.1,0.1-0.3,0.2-0.5,0.2c-0.2,0.1-0.4,0.1-0.6,0.1
	c-0.2,0-0.4,0-0.5,0c-0.1,0-0.3-0.1-0.4-0.1c-0.1,0-0.1-0.1-0.2-0.1c-0.1-0.1-0.1-0.1-0.1-0.2c0-0.1,0-0.2,0.1-0.3
	c0-0.1,0.1-0.2,0.2-0.3C36.8,75.2,36.9,75.3,36.9,75.3L36.9,75.3z M29.5,72.7c0,0,0.1,0,0.1,0c0.1,0,0.1,0,0.2,0c0.1,0,0.2,0,0.2,0
	c0.1,0,0.1,0,0.2,0.1c0.1,0,0.1,0.1,0.1,0.2c0,0.1,0.1,0.2,0.1,0.3v2.9c0,0-0.1,0-0.1,0c-0.1,0-0.1,0-0.2,0c-0.1,0-0.2,0-0.3,0
	c-0.1,0-0.1,0-0.2-0.1c-0.1,0-0.1-0.1-0.1-0.2c0-0.1,0-0.2,0-0.3V72.7L29.5,72.7z M30.9,71.7c0,0,0.1,0,0.1,0c0,0,0.1,0,0.1,0
	c0,0,0.1,0,0.1,0c0.1,0,0.2,0,0.2,0c0.1,0,0.1,0,0.2,0.1c0.1,0,0.1,0.1,0.2,0.2c0,0.1,0.1,0.2,0.1,0.3v0.5h1v0.7h-1V75
	c0,0.3,0.1,0.5,0.4,0.5c0.1,0,0.1,0,0.2,0c0.1,0,0.1,0,0.2-0.1c0,0,0.1-0.1,0.1-0.1c0,0,0.1,0,0.1-0.1c0.1,0.1,0.1,0.2,0.2,0.3
	c0,0.1,0.1,0.1,0.1,0.2c0,0.1,0,0.1-0.1,0.2c0,0.1-0.1,0.1-0.2,0.2c-0.1,0-0.2,0.1-0.3,0.1c-0.1,0-0.3,0-0.4,0
	c-0.3,0-0.5-0.1-0.7-0.2c-0.2-0.1-0.3-0.3-0.3-0.4c0-0.1-0.1-0.2-0.1-0.3c0-0.1,0-0.2,0-0.3V71.7L30.9,71.7z M34.1,74.6
	c0,0.3,0.1,0.5,0.2,0.7c0.1,0.2,0.4,0.3,0.7,0.3c0.1,0,0.2,0,0.3,0c0.1,0,0.2-0.1,0.2-0.1c0.1,0,0.1-0.1,0.2-0.1
	c0.1,0,0.1-0.1,0.1-0.1c0.1,0.1,0.1,0.2,0.2,0.3c0.1,0.1,0.1,0.2,0.1,0.3c0,0.1-0.1,0.2-0.2,0.3c-0.1,0.1-0.2,0.1-0.4,0.2
	c-0.2,0.1-0.4,0.1-0.6,0.1c-0.2,0-0.4,0-0.7-0.1c-0.2-0.1-0.4-0.2-0.6-0.3c-0.2-0.1-0.3-0.3-0.4-0.6c-0.1-0.2-0.2-0.5-0.2-0.9
	c0-0.3,0-0.6,0.1-0.8c0.1-0.2,0.2-0.4,0.4-0.5c0.2-0.1,0.3-0.2,0.5-0.3c0.2-0.1,0.4-0.1,0.6-0.1c0.3,0,0.5,0,0.7,0.1
	c0.2,0.1,0.3,0.2,0.5,0.3c0.1,0.1,0.2,0.3,0.3,0.5c0.1,0.2,0.1,0.4,0.1,0.6c0,0,0,0.1,0,0.1c0,0,0,0.1,0,0.1c0,0,0,0.1,0,0.1
	c0,0,0,0.1,0,0.1H34.1L34.1,74.6z M35.3,74.1c0-0.2,0-0.4-0.1-0.6c-0.1-0.1-0.2-0.2-0.5-0.2c-0.2,0-0.3,0.1-0.5,0.2
	c-0.1,0.1-0.2,0.3-0.2,0.6H35.3L35.3,74.1z"/>
<path fill-rule="evenodd" clip-rule="evenodd" fill="#010101" d="M58.3,29.3c-1.5,0.3-2.8,1-3.8,1.9c1.2-1.3,2.7-2.3,4.2-2.7
	c-3.8-0.8-7.3,3.5-6.5,6.5l0,0l0,0l0,0l0,0c1.5-1.9,3.8-3.3,6.6-3.9c2.8-0.6,5.6-0.4,8.1,0.6C64.9,29.6,61.6,28.6,58.3,29.3
	L58.3,29.3z M27.9,26.1c1.5,0,2.9,0.6,3.8,1.7c-0.3-0.2-0.6-0.2-0.9-0.2c-0.9,0-1.7,0.8-1.7,1.7c0,0.9,0.8,1.7,1.7,1.7
	c0.9,0,1.7-0.8,1.7-1.7c0-0.1,0-0.2,0-0.4c0.4,0.7,0.6,1.6,0.6,2.5c0,2.9-2.4,5.3-5.3,5.3s-5.3-2.4-5.3-5.3
	C22.7,28.5,25,26.1,27.9,26.1L27.9,26.1z M44,42.8c1.2-0.9,2.4-0.7,2.8-1.4c0.3-0.4,0.2-0.9-0.2-1.3c-1.1-1.3-6.1-1.3-7.2,0
	c-0.3,0.4-0.4,0.8-0.2,1.3c0.5,0.7,1.7,0.4,3,1.5c0.3,0.3,0.3,0.4,0.3,0.8v0.6c0,0.1,0,0.2,0,0.4c0,0.4,0,0.6-0.2,0.9
	c-0.2,0.3-0.6,0.6-1.2,0.9c-3.1,1.7-6.1,0.4-8.8-1.1c-1.5-0.9-1.7-0.5-0.5,0.7c3.1,2.9,5.8,6.8,11.2,6.8c5.4,0,8.1-3.8,11.2-6.8
	c1-1,1.2-1.6-0.5-0.7c-2.6,1.5-5.7,2.8-8.7,1.1c0,0,0,0,0,0c-0.5-0.3-1-0.6-1.2-0.9c-0.2-0.3-0.3-0.6-0.3-1c0-0.1,0-0.2,0-0.4v-0.6
	C43.5,43.2,43.6,43.1,44,42.8L44,42.8z"/>
<path fill-rule="evenodd" clip-rule="evenodd" fill="#F58220" d="M37.9,50c1.4,1.1,3.4,1.6,5.2,1.6c1.8,0,3.8-0.5,5.2-1.6
	c-1.4-1.1-3.4-1.6-5.2-1.6C41.2,48.4,39.2,49,37.9,50L37.9,50z"/>
<path fill-rule="evenodd" clip-rule="evenodd" fill="#BDBEC0" d="M3.1,9.1L3.1,9.1L3.1,9.1L3.1,9.1L3.1,9.1z M3.1,9.2
	c2.7,0.9,5.5,2.7,7.9,5.3c0.2,0.2,0.4,0.4,0.5,0.6c-1.1,1.4-2,2.8-2.9,4.3C7.6,15.6,6.3,12.2,3.1,9.2L3.1,9.2z"/>
<path fill-rule="evenodd" clip-rule="evenodd" fill="#CBCBCB" d="M75.9,51.6c4.2-1.8,7.5-2.3,12-2.4l6.8-0.1
	c0.7,3.6,4.2,6.5,7.5,7.8c3.2,1.2,7.8,1.7,10.7-0.5c4.6,3.6,8.4,8.3,10.8,14.1c8,18.4-0.4,39.8-18.8,47.8s-39.8-0.4-47.8-18.8
	C49.1,81,57.5,59.6,75.9,51.6L75.9,51.6z M56.5,62.2l1.6-2.1c0.2-0.2,0.5-0.3,0.8-0.1l1.4,1c-0.8,1-1.5,2-2.2,3.1L56.6,63
	C56.4,62.8,56.3,62.4,56.5,62.2L56.5,62.2z M65.2,40.5l2-0.9l2.9,6.7l-2,0.9L65.2,40.5L65.2,40.5z M67.8,39.4l2-0.9l2.9,6.7l-2,0.9
	L67.8,39.4L67.8,39.4z M70.5,38.2l2-0.9l2.9,6.7l-2,0.9L70.5,38.2L70.5,38.2z M73.1,37.1l2-0.9l2.9,6.7l-2,0.9L73.1,37.1L73.1,37.1z
	 M75.8,36.1c0.4,0.1,0.7,0.3,0.8,0.6l2,4.7c0.2,0.4,0.1,0.8-0.1,1.1L75.8,36.1L75.8,36.1z M67.4,47.3c-0.4-0.1-0.7-0.3-0.8-0.6
	l-2-4.7c-0.2-0.4-0.1-0.8,0.1-1.1L67.4,47.3L67.4,47.3z M77.8,45.6l1.1,2.5c-1.3,0.4-2.6,0.9-3.8,1.4c-1.3,0.5-2.5,1.2-3.6,1.8
	l-1.1-2.5L77.8,45.6L77.8,45.6z M78.7,58c14.8-6.5,32.1,0.3,38.6,15.2c6.5,14.8-0.3,32.1-15.2,38.6c-14.8,6.5-32.1-0.3-38.6-15.2
	C57.1,81.7,63.9,64.5,78.7,58L78.7,58z"/>
<path fill-rule="evenodd" clip-rule="evenodd" fill="#FFFFFF" d="M76.4,52.7c0.2-0.1,0.5-0.2,0.7-0.3c-17.3,8-25.1,28.4-17.5,45.9
	c7.6,17.5,27.9,25.7,45.5,18.5c-0.2,0.1-0.5,0.2-0.7,0.3c-17.8,7.7-38.5-0.4-46.2-18.2C50.5,81.1,58.6,60.4,76.4,52.7L76.4,52.7z
	 M73.6,47.4l1,2.3c-0.8,0.4-1.6,0.8-2.4,1.2l-1.1-2.5L73.6,47.4L73.6,47.4z"/>
<path fill-rule="evenodd" clip-rule="evenodd" fill="#FFFFFF" d="M79.4,59.6c13.9-6.1,30.2,0.3,36.2,14.3
	c6.1,13.9-0.3,30.2-14.3,36.2c-13.9,6.1-30.2-0.3-36.2-14.3C59.1,81.9,65.5,65.7,79.4,59.6L79.4,59.6z"/>
<path fill-rule="evenodd" clip-rule="evenodd" fill="#E84125" d="M80.9,63c0.3-0.1,0.7-0.3,1-0.4l2.3,5.3c-0.3,0.1-0.7,0.3-1,0.4
	c-0.3,0.1-0.7,0.3-1,0.5l-2.3-5.3C80.2,63.3,80.6,63.1,80.9,63L80.9,63z M92,61.1c0.7,0,1.4,0.1,2.2,0.2l-0.3,2.5
	c-0.7-0.1-1.4-0.2-2.2-0.2L92,61.1L92,61.1z M103.7,65.1c0.6,0.4,1.2,0.8,1.7,1.3l-1.5,2c-0.6-0.5-1.1-0.9-1.7-1.3L103.7,65.1
	L103.7,65.1z M111.9,74.4c0.2,0.3,0.3,0.7,0.5,1c0.1,0.3,0.3,0.7,0.4,1l-5.3,2.3c-0.1-0.3-0.3-0.7-0.4-1c-0.1-0.3-0.3-0.7-0.5-1
	L111.9,74.4L111.9,74.4z M114.3,86.5c0,0.7-0.1,1.4-0.2,2.2l-2.5-0.3c0.1-0.7,0.2-1.4,0.2-2.2L114.3,86.5L114.3,86.5z M110.3,98.2
	c-0.4,0.6-0.8,1.2-1.3,1.7l-2-1.5c0.5-0.6,0.9-1.1,1.3-1.7L110.3,98.2L110.3,98.2z M100.9,106.3c-0.3,0.2-0.7,0.3-1,0.5
	s-0.7,0.3-1,0.4l-2.3-5.3c0.3-0.1,0.7-0.3,1-0.4c0.3-0.1,0.7-0.3,1-0.5L100.9,106.3L100.9,106.3z M88.8,108.7
	c-0.7,0-1.4-0.1-2.2-0.2l0.3-2.5c0.7,0.1,1.4,0.2,2.2,0.2L88.8,108.7L88.8,108.7z M77.1,104.7c-0.6-0.4-1.2-0.8-1.7-1.3l1.5-2
	c0.6,0.5,1.1,0.9,1.7,1.3L77.1,104.7L77.1,104.7z M69,95.4c-0.2-0.3-0.3-0.7-0.5-1c-0.1-0.3-0.3-0.7-0.4-1l5.3-2.3
	c0.1,0.3,0.3,0.7,0.4,1c0.1,0.3,0.3,0.7,0.5,1L69,95.4L69,95.4z M66.6,83.3c0-0.7,0.1-1.4,0.2-2.2l2.5,0.3c-0.1,0.7-0.2,1.4-0.2,2.2
	L66.6,83.3L66.6,83.3z M70.6,71.6c0.4-0.6,0.8-1.2,1.3-1.7l2,1.5c-0.5,0.6-0.9,1.1-1.3,1.7L70.6,71.6L70.6,71.6z"/>
<path fill-rule="evenodd" clip-rule="evenodd" fill="#010101" d="M86.5,61.9l0.2,1.3c0.2,0,0.3-0.1,0.5-0.1c0.2,0,0.3,0,0.5-0.1
	l-0.2-1.3c-0.2,0-0.3,0-0.5,0.1C86.8,61.9,86.7,61.9,86.5,61.9L86.5,61.9z M98.5,63.1L98,64.2c0.3,0.1,0.6,0.2,0.9,0.4l0.5-1.2
	C99.1,63.3,98.8,63.2,98.5,63.1L98.5,63.1z M108.3,70l-1,0.8c0.2,0.2,0.4,0.5,0.6,0.8l1-0.8C108.7,70.5,108.5,70.3,108.3,70
	L108.3,70z M113.4,81l-1.3,0.2c0,0.2,0.1,0.3,0.1,0.5c0,0.2,0,0.3,0.1,0.5l1.3-0.2c0-0.2,0-0.3-0.1-0.5
	C113.4,81.3,113.4,81.1,113.4,81L113.4,81z M112.3,93l-1.2-0.5c-0.1,0.3-0.2,0.6-0.4,0.9l1.2,0.5C112,93.6,112.2,93.3,112.3,93
	L112.3,93z M105.3,102.8l-0.8-1c-0.2,0.2-0.5,0.4-0.8,0.6l0.8,1C104.8,103.2,105.1,103,105.3,102.8L105.3,102.8z M94.4,107.8
	l-0.2-1.3c-0.2,0-0.3,0.1-0.5,0.1c-0.2,0-0.3,0-0.5,0.1l0.2,1.3c0.2,0,0.3,0,0.5-0.1C94,107.9,94.2,107.9,94.4,107.8L94.4,107.8z
	 M82.4,106.7l0.5-1.2c-0.3-0.1-0.6-0.2-0.9-0.4l-0.5,1.2C81.7,106.5,82,106.6,82.4,106.7L82.4,106.7z M72.5,99.8l1-0.8
	c-0.2-0.2-0.4-0.5-0.6-0.8l-1,0.8C72.1,99.3,72.3,99.5,72.5,99.8L72.5,99.8z M67.5,88.8l1.3-0.2c0-0.2-0.1-0.3-0.1-0.5
	c0-0.2,0-0.3-0.1-0.5l-1.3,0.2c0,0.2,0,0.3,0.1,0.5C67.4,88.5,67.4,88.7,67.5,88.8L67.5,88.8z M68.6,76.8l1.2,0.5
	c0.1-0.3,0.2-0.6,0.4-0.9l-1.2-0.5C68.8,76.2,68.7,76.5,68.6,76.8L68.6,76.8z M75.5,67l0.8,1c0.2-0.2,0.5-0.4,0.8-0.6l-0.8-1
	C76.1,66.6,75.8,66.8,75.5,67L75.5,67z"/>
<path fill-rule="evenodd" clip-rule="evenodd" fill="#9F3636" d="M88.7,81c0.4-0.2,0.7-0.3,1.1-0.3l4.4-4.1l6.6-6.1L97,78.6
	l-2.5,5.1c0.6,2-0.4,4.1-2.4,5c-2.1,0.9-4.6,0-5.6-2.2C85.6,84.4,86.6,81.9,88.7,81L88.7,81z"/>
<path fill-rule="evenodd" clip-rule="evenodd" fill="#FFFFFF" d="M106.9,45c4.3,1.7,6.9,5.2,5.8,7.8c-1,2.6-5.3,3.4-9.6,1.7
	c-3-1.2-5.1-3.3-5.8-5.3c-0.5-1.5,0.6-2.3-1.5-2.5l-3.8-0.3c3.2-0.7,7.1-2.2,10.3-2.3l0,0v0C103.8,44.1,105.3,44.4,106.9,45
	L106.9,45z"/>
</svg>
