<?xml version="1.0" encoding="utf-8"?>
<!-- Generator: Adobe Illustrator 18.1.1, SVG Export Plug-In . SVG Version: 6.00 Build 0)  -->
<svg version="1.1" id="Layer_1" xmlns="http://www.w3.org/2000/svg" xmlns:xlink="http://www.w3.org/1999/xlink" x="0px" y="0px"
	 viewBox="0 0 117.8 127.9" enable-background="new 0 0 117.8 127.9" xml:space="preserve">
<path fill-rule="evenodd" clip-rule="evenodd" fill="#CBCBCB" d="M17.2,118.4c9.5,0,17.2,2.1,17.2,4.8c0,2.6-7.7,4.8-17.2,4.8
	c-9.5,0-17.2-2.1-17.2-4.8C0,120.5,7.7,118.4,17.2,118.4L17.2,118.4z"/>
<path fill-rule="evenodd" clip-rule="evenodd" fill="#CBCBCB" d="M69.2,109.1c20.7,0,37.4,2.9,37.4,6.6c0,3.6-16.8,6.6-37.4,6.6
	c-20.7,0-37.4-2.9-37.4-6.6C31.7,112,48.5,109.1,69.2,109.1L69.2,109.1z"/>
<path fill-rule="evenodd" clip-rule="evenodd" fill="#010101" d="M68.3,0c8.8,0,16.9,2.7,23.4,7.3l7.6-1c2.3-0.3,4.9-0.6,7.2-0.5
	c1.6,0.1,3.4,0.4,4.3,1.8c0.9,1.4,0.5,3.1,0,4.5c-0.6,1.8-1.4,3.5-2,5.3l0,0l-3.2,7.9c1.3,3.7,2,7.8,2,11.9c0,7-2,13.6-6.7,19
	l7.8-3.3c6.3-2.6,10.4,2.1,8.8,8.2c-1,3.7-4.1,6.2-7.4,7.9c-4.6,2.4-9.5,3.9-14.4,5.3c-1.9,0.5-3.7,1.1-5.7,1.4l1.3,12.6
	c0,0.1,0,0.1,0,0.2c4,2.4,9.4,1.6,12.4-2.1c0.3-0.4,0.6-1.1,0.8-1.6c0.3-0.7,0.6-1.3,1.1-1.9c2.2-2.7,6.2-3,8.8-0.8
	c3.1,2.5,2.7,6,0.7,9.1c-0.5,0.7-1,1.5-1.6,2.1c-3.4,4.1-8.1,6.6-13.4,7.1c-3,0.3-5.9-0.1-8.7-1.1l0.7,7.3c2,1.2,3.7,2.9,5,4.9
	c1.5,2.3,0.9,4.4-1.3,4.9c-0.6,0.1-1.1,0.1-1.7,0.1l-13.9,0c-2.9,0-5.5-2.1-5.4-5.2c0.1-0.9,0.2-1.7,0.5-2.4l-2.1-7.2
	c-1.8,0.3-3.7,0.4-5.5,0.4c-1.5,0-3-0.1-4.5-0.3l-2.1,7.2c0.3,0.7,0.5,1.5,0.5,2.4c0.2,3.1-2.4,5.2-5.4,5.2l-13.9,0
	c-0.6,0-1.2,0-1.7-0.1c-2.2-0.5-2.8-2.5-1.3-4.9c1.3-2,3-3.7,5-4.9l0.6-6.3c-1.9,0.4-4.1-0.2-6-1.9l-7,3.6c0.7,1.8,1,3.7,1,5.6
	c0,9.1-7.4,16.5-16.5,16.5c-9.1,0-16.5-7.4-16.5-16.5c0-9.1,7.4-16.5,16.5-16.5c4.5,0,8.8,1.9,11.9,5.1l7.3-3.7
	c-0.4-1.9-0.3-4,0-5.9c0.8-5.1,2.4-10,4.2-14.8c1-2.7,1.9-4.9,3.8-7.2c0.4-0.5,0.8-0.9,1.2-1.3c-3.3-1.7-6.3-3.9-8.8-6.6
	C31.2,51.5,29,44.7,29,37.4c0-4.2,0.7-8.2,2-11.9l-3.2-7.9l0,0c-0.7-1.8-1.4-3.5-2-5.3c-0.5-1.4-0.9-3.1,0-4.5
	c0.9-1.4,2.7-1.8,4.3-1.8c2.3-0.1,4.9,0.2,7.2,0.5l7.6,1C51.4,2.7,59.5,0,68.3,0L68.3,0z M7.1,107.8c0-5.3,4.3-9.6,9.6-9.6
	c5.3,0,9.6,4.3,9.6,9.6c0,5.3-4.3,9.6-9.6,9.6C11.4,117.4,7.1,113.1,7.1,107.8L7.1,107.8z"/>
<path fill-rule="evenodd" clip-rule="evenodd" fill="#FFFFFF" d="M45.4,98.3c-1.3,0.6-2.8,0.3-4.2-0.7l1.2-0.6
	c0.5,0.6,0.9,0.9,1.2,0.8c0.5-0.2,0.7-2-0.6-4.6c-1.3-2.6-2.8-3.4-3.3-3.2c-0.2,0.1-0.2,0.4-0.2,0.9l-1.7,0.9
	c-0.2-1.8,0-3.5,0.1-4.6c0.5-3.4,1.4-6.7,2.5-10.1l5.8,1.5l-1,9.3c-0.3,2.6-0.4,3.8,0.7,4.6L45.4,98.3L45.4,98.3z M96.8,60.3
	l12.7-5.3c5.2-2.2,7.1,1.8,6.1,5.8c-0.9,3.5-4.4,5.6-6.3,6.6c-3,1.6-6.2,2.8-9.6,3.8L95.7,61C96.1,60.8,96.4,60.5,96.8,60.3
	L96.8,60.3z M105.5,88c-3.5,4.3-9.4,5.5-14.2,3.2c-0.1,0.4-0.3,0.8-0.4,1l0.5,4.8c7,3.1,15.5,1.3,20.6-4.9c1.8-2.2,4.1-5.6,1.1-8.1
	c-1.7-1.4-4.2-1.2-5.7,0.5C106.5,85.5,106.5,86.8,105.5,88L105.5,88z M75.5,101.1l2.6,8.8c-0.4,0.7-0.6,1.5-0.7,2.3
	c-0.1,1.9,1.5,2.1,2.3,2.1l13.9,0c0.7,0,2.9,0.1,1.7-2c-2.5-4.5-9.7-7.9-14.1-4.5c1.8-2.1,5.5-2.6,8.6-1.9l-1.3-12.8
	c-0.2,0-0.3,0.1-0.5,0.1c-6.6,1-13.1,1.7-19.8,1.7c-6.6,0-13.2-0.7-19.7-1.7c-0.1,0-0.2,0-0.3-0.1L47,105.9c3.1-0.8,6.8-0.2,8.6,1.9
	c-4.4-3.4-11.7-0.1-14.1,4.5c-1.1,2.2,1,2,1.7,2l13.9,0c0.8,0,2.4-0.2,2.3-2.1c-0.1-0.8-0.3-1.6-0.7-2.3l2.5-8.5
	c-2.8-0.8-4.9-2-6-3.5c3.6,1.2,7.9,1.8,12.6,1.8c4.7,0,9-0.7,12.6-1.8C79.6,99.2,77.9,100.3,75.5,101.1L75.5,101.1z"/>
<path fill-rule="evenodd" clip-rule="evenodd" fill="#E4E4E4" d="M40.6,90.2c-0.4-0.2-0.7-0.3-0.9-0.2c-0.2,0.1-0.2,0.4-0.2,0.9
	l-1.7,0.9c-0.2-1.8,0-3.5,0.1-4.6c0.5-3.4,1.4-6.7,2.5-10.1l2.6,0.7c-1,3.1-1.8,6.2-2.3,9.3C40.7,87.9,40.6,89,40.6,90.2L40.6,90.2z
	 M105.5,88c-2,2.4-4.8,3.9-7.7,4.2c3.9,0.5,7.9-1,10.6-4.2c0.9-1.1,1-2.4,1.8-3.5c0.5-0.6,1-1,1.7-1.2c-1.6-0.6-3.4-0.2-4.5,1.2
	C106.5,85.5,106.5,86.8,105.5,88L105.5,88z M51.1,93.6l-2.8-0.5l-0.5,5.4l-0.7,7.5c0.9-0.2,1.9-0.3,2.9-0.3L51.1,93.6L51.1,93.6z
	 M52.7,106.5c-4.2-0.7-9.3,2.1-11.2,5.8c-1.1,2.2,1,2,1.7,2l2.8,0v0c-0.8,0-2.8,0.1-1.7-2C45.9,109.4,49.3,107.1,52.7,106.5
	L52.7,106.5z"/>
<path fill-rule="evenodd" clip-rule="evenodd" fill="#188ECE" d="M47.6,87.4L49,73.8c0.3-2.7,1-5.3,2.1-7.7
	c5.5,1.8,11.5,2.5,17.2,2.5c5.7,0,11.7-0.7,17.2-2.5c1.1,2.4,1.8,5,2.1,7.7L89,87.6c0.3,3.3-1.1,3.4-2.5,3.6c-13.7,2-23,2-36.7,0
	C48,90.9,47.3,90.6,47.6,87.4L47.6,87.4z M94.3,62l3.7,9.7c-0.9,0.3-1.8,0.5-2.7,0.8c-1,0.3-3.1,1.1-5.3,1.5l0-0.4
	c-0.3-2.9-1-5.7-2.2-8.2C90,64.4,92.2,63.3,94.3,62L94.3,62z M46.4,76.9l-5.4-1.4c0.3-0.9,0.6-1.8,1-2.7c0.6-1.6,1.9-5.8,5.1-8.2
	c0.6,0.3,1.2,0.5,1.8,0.8c-1.1,2.6-1.9,5.3-2.2,8.2L46.4,76.9L46.4,76.9z"/>
<path fill-rule="evenodd" clip-rule="evenodd" fill="#004F7E" d="M47.6,87.4L49,73.8c0.3-2.7,1-5.3,2.1-7.7c1.4,0.4,2.8,0.8,4.2,1.1
	c-0.6,3.3-0.9,6.7-0.9,10.2c0,5.1,0.6,10,1.8,14.7c-2-0.2-4.2-0.5-6.4-0.8C48,90.9,47.3,90.6,47.6,87.4L47.6,87.4z M46.4,76.9
	l-5.4-1.4c0.3-0.9,0.6-1.8,1-2.7c0.6-1.6,1.9-5.8,5.1-8.2c0.6,0.3,1.2,0.5,1.8,0.8c-1.1,2.6-1.9,5.3-2.2,8.2L46.4,76.9L46.4,76.9z"
	/>
<path fill-rule="evenodd" clip-rule="evenodd" fill="#FFFFFF" d="M68.3,2.2c8.2,0,15.8,2.6,22,6.9l3.9-0.3l5.5-0.7
	c13-1.7,10.4,0.6,7.4,8.7l-2.4,6c-1.2-2.8-2.8-5.5-4.7-7.9c0.2-0.2,0.3-0.4,0.5-0.6c2.4-2.6,5.2-4.4,8-5.3c-2.6-0.4-5.8,0.8-8.4,3.2
	c-1.1,1-1.7,2-2.6,3.3c5,6,7.9,13.5,7.9,21.7c0,19.4-16.6,29-37,29c-20.4,0-37-9.6-37-29c0-8.3,3-15.8,8-21.8l0,0
	c-0.6-0.8-1.1-1.6-1.8-2.3c-2.8-3-6.4-4.6-9.3-4.1c2.8,0.9,5.6,2.7,8,5.3c0.2,0.2,0.4,0.4,0.5,0.6c-1.9,2.4-3.5,5.1-4.7,7.9l-2.4-6
	C26.6,8.7,24,6.5,37,8.2l5.3,0.7l4.1,0.3C52.5,4.8,60.1,2.2,68.3,2.2L68.3,2.2z"/>
<path fill-rule="evenodd" clip-rule="evenodd" fill="#E4E4E4" d="M55.3,64.9c-14-3.3-24-12.5-24-27.5c0-8.3,3-15.8,8-21.8
	c-0.6-0.8-1.1-1.6-1.8-2.3c-2.8-3-6.4-4.6-9.3-4.1c2.8,0.9,5.6,2.7,8,5.3c0.2,0.2,0.4,0.4,0.5,0.6c-1.9,2.4-3.5,5.1-4.7,7.9l-2.4-6
	C26.6,8.7,24,6.5,37,8.2l5.3,0.7l4.1,0.3c3.9-2.7,8.4-4.8,13.2-5.9C46.4,8.9,37.1,22.2,37.1,37.6C37.1,51.3,44.4,60.3,55.3,64.9
	L55.3,64.9z"/>
<path fill="#FFFFFF" d="M52.1,75.3c0.1,0,0.1,0.1,0.2,0.1c0.1,0,0.2,0.1,0.3,0.1c0.1,0,0.2,0,0.3,0c0.1,0,0.1,0,0.2,0
	c0.1,0,0.1,0,0.2-0.1c0,0,0.1-0.1,0.1-0.1c0,0,0-0.1,0-0.2c0-0.1-0.1-0.2-0.2-0.3c-0.1-0.1-0.3-0.1-0.5-0.2c-0.1,0-0.3-0.1-0.4-0.1
	c-0.1,0-0.2-0.1-0.3-0.2c-0.1-0.1-0.2-0.2-0.2-0.3c-0.1-0.1-0.1-0.3-0.1-0.4c0-0.2,0-0.3,0.1-0.4c0.1-0.1,0.2-0.2,0.3-0.3
	c0.1-0.1,0.3-0.2,0.4-0.2c0.2,0,0.3-0.1,0.5-0.1c0.2,0,0.4,0,0.5,0c0.1,0,0.3,0.1,0.4,0.1c0.2,0.1,0.3,0.2,0.3,0.3
	c0,0.1,0,0.2-0.1,0.3c0,0.1-0.1,0.2-0.1,0.3c0,0-0.1-0.1-0.2-0.1c-0.1,0-0.1-0.1-0.2-0.1c-0.1,0-0.2-0.1-0.3-0.1c-0.1,0-0.2,0-0.3,0
	c-0.1,0-0.1,0-0.2,0c-0.1,0-0.1,0-0.2,0c0,0-0.1,0.1-0.1,0.1c0,0,0,0.1,0,0.2c0,0.2,0.2,0.3,0.5,0.4c0.1,0,0.3,0.1,0.4,0.1
	c0.1,0,0.3,0.1,0.4,0.2c0.1,0.1,0.2,0.2,0.3,0.3c0.1,0.1,0.1,0.3,0.1,0.5c0,0.2,0,0.4-0.1,0.5c-0.1,0.1-0.2,0.3-0.3,0.4
	c-0.1,0.1-0.3,0.2-0.5,0.2c-0.2,0.1-0.4,0.1-0.6,0.1c-0.2,0-0.4,0-0.5,0c-0.1,0-0.3-0.1-0.4-0.1c-0.1,0-0.1-0.1-0.2-0.1
	c-0.1-0.1-0.1-0.1-0.1-0.2c0-0.1,0-0.2,0.1-0.3c0-0.1,0.1-0.2,0.2-0.3C52,75.2,52.1,75.3,52.1,75.3L52.1,75.3z M55.2,71.5
	c0.3,0,0.5,0.2,0.5,0.5c0,0.3-0.2,0.5-0.5,0.5c-0.3,0-0.5-0.2-0.5-0.5C54.7,71.7,54.9,71.5,55.2,71.5L55.2,71.5z M78.9,76.1
	c-0.1-0.1-0.1-0.2-0.1-0.4c0-0.1,0-0.3,0.1-0.4c0.1-0.1,0.2-0.1,0.4-0.1c0.1,0,0.3,0,0.4,0.1c0.1,0.1,0.1,0.2,0.1,0.4
	c0,0.1,0,0.3-0.1,0.4c-0.1,0.1-0.2,0.2-0.4,0.2C79.2,76.2,79,76.2,78.9,76.1L78.9,76.1z M80.2,72.8c0,0,0.1,0,0.1,0
	c0.1,0,0.1,0,0.2,0c0.1,0,0.1,0,0.2,0c0.1,0,0.1,0,0.2,0.1c0.1,0,0.1,0.1,0.1,0.2c0,0.1,0.1,0.2,0.1,0.3v2.8c0,0-0.1,0-0.1,0
	c-0.1,0-0.1,0-0.2,0c-0.1,0-0.2,0-0.3,0c-0.1,0-0.1,0-0.2-0.1c-0.1,0-0.1-0.1-0.1-0.2c0-0.1,0-0.2,0-0.3V72.8L80.2,72.8z M80.2,72
	c0-0.1,0-0.3,0.1-0.4c0.1-0.1,0.2-0.1,0.4-0.1c0.1,0,0.3,0,0.4,0.1c0.1,0.1,0.2,0.2,0.2,0.4c0,0.2-0.1,0.3-0.2,0.4
	c-0.1,0.1-0.2,0.1-0.4,0.1c-0.1,0-0.3,0-0.4-0.1C80.3,72.3,80.2,72.2,80.2,72L80.2,72z M81.9,75.7c-0.1-0.2-0.2-0.4-0.3-0.6
	c-0.1-0.2-0.1-0.4-0.1-0.7c0-0.2,0-0.5,0.1-0.7c0.1-0.2,0.2-0.4,0.3-0.6c0.1-0.2,0.3-0.3,0.5-0.4c0.2-0.1,0.5-0.1,0.7-0.1
	c0.3,0,0.5,0,0.8,0.1c0.2,0.1,0.4,0.2,0.5,0.4c0.1,0.2,0.2,0.3,0.3,0.6c0.1,0.2,0.1,0.4,0.1,0.7c0,0.2,0,0.5-0.1,0.7
	c-0.1,0.2-0.2,0.4-0.3,0.6c-0.1,0.2-0.3,0.3-0.5,0.4c-0.2,0.1-0.5,0.1-0.8,0.1c-0.3,0-0.6,0-0.8-0.1C82.2,76,82.1,75.9,81.9,75.7
	L81.9,75.7z M82.9,75.4c0.1,0.1,0.2,0.1,0.3,0.1c0.1,0,0.3,0,0.3-0.1c0.1-0.1,0.2-0.1,0.2-0.2c0.1-0.1,0.1-0.2,0.1-0.3
	c0-0.1,0-0.3,0-0.4c0-0.1,0-0.3,0-0.4c0-0.1-0.1-0.2-0.1-0.3c-0.1-0.1-0.1-0.2-0.2-0.2c-0.1-0.1-0.2-0.1-0.3-0.1
	c-0.1,0-0.2,0-0.3,0.1c-0.1,0.1-0.2,0.1-0.2,0.2c-0.1,0.1-0.1,0.2-0.1,0.3c0,0.1,0,0.2,0,0.4c0,0.1,0,0.3,0,0.4
	c0,0.1,0.1,0.2,0.1,0.3S82.8,75.4,82.9,75.4L82.9,75.4z M64.7,72.7C64.8,72.7,64.8,72.7,64.7,72.7c0.1,0,0.1,0,0.2,0
	c0,0,0.1,0,0.1,0c0.2,0,0.3,0,0.4,0.1c0.1,0.1,0.2,0.1,0.2,0.3c0.1-0.1,0.2-0.2,0.4-0.3c0.2-0.1,0.4-0.1,0.6-0.1
	c0.2,0,0.3,0,0.5,0.1c0.2,0.1,0.3,0.2,0.4,0.3c0.1,0.1,0.2,0.3,0.3,0.5c0.1,0.2,0.1,0.5,0.1,0.8c0,0.4,0,0.7-0.1,0.9
	c-0.1,0.2-0.2,0.4-0.3,0.6c-0.1,0.1-0.3,0.2-0.5,0.3c-0.2,0.1-0.3,0.1-0.5,0.1c-0.1,0-0.3,0-0.4,0c-0.1,0-0.2-0.1-0.3-0.1
	c-0.1,0-0.1-0.1-0.2-0.1c0,0-0.1-0.1-0.1-0.1V77h-1V72.7L64.7,72.7z M65.7,75.2c0,0,0.1,0.1,0.2,0.1c0.1,0.1,0.2,0.1,0.3,0.1
	c0.2,0,0.4-0.1,0.5-0.3c0.1-0.2,0.2-0.5,0.2-0.8c0-0.1,0-0.3,0-0.4c0-0.1-0.1-0.2-0.1-0.3c-0.1-0.1-0.1-0.2-0.2-0.2
	c-0.1,0-0.2-0.1-0.3-0.1c-0.2,0-0.3,0-0.4,0.1c-0.1,0.1-0.1,0.2-0.1,0.2V75.2L65.7,75.2z M69.3,74.6c0,0.3,0.1,0.5,0.2,0.7
	c0.1,0.2,0.4,0.3,0.7,0.3c0.1,0,0.2,0,0.3,0c0.1,0,0.2-0.1,0.2-0.1c0.1,0,0.1-0.1,0.2-0.1c0.1,0,0.1-0.1,0.1-0.1
	c0.1,0.1,0.1,0.2,0.2,0.3c0.1,0.1,0.1,0.2,0.1,0.3c0,0.1-0.1,0.2-0.2,0.3c-0.1,0.1-0.2,0.1-0.4,0.2c-0.2,0.1-0.4,0.1-0.6,0.1
	c-0.2,0-0.4,0-0.7-0.1c-0.2-0.1-0.4-0.2-0.6-0.3c-0.2-0.1-0.3-0.3-0.4-0.6c-0.1-0.2-0.2-0.5-0.2-0.9c0-0.3,0-0.6,0.1-0.8
	c0.1-0.2,0.2-0.4,0.4-0.5c0.2-0.1,0.3-0.2,0.5-0.3c0.2-0.1,0.4-0.1,0.6-0.1c0.3,0,0.5,0,0.7,0.1c0.2,0.1,0.3,0.2,0.5,0.3
	c0.1,0.1,0.2,0.3,0.3,0.5c0.1,0.2,0.1,0.4,0.1,0.6c0,0,0,0.1,0,0.1c0,0,0,0.1,0,0.1c0,0,0,0.1,0,0.1c0,0,0,0.1,0,0.1H69.3L69.3,74.6
	z M70.5,74.1c0-0.2,0-0.4-0.1-0.6c-0.1-0.1-0.2-0.2-0.5-0.2c-0.2,0-0.4,0.1-0.5,0.2c-0.1,0.1-0.2,0.3-0.2,0.6H70.5L70.5,74.1z
	 M72.7,74.6c0,0.3,0.1,0.5,0.2,0.7c0.1,0.2,0.4,0.3,0.7,0.3c0.1,0,0.2,0,0.3,0c0.1,0,0.2-0.1,0.2-0.1c0.1,0,0.1-0.1,0.2-0.1
	c0.1,0,0.1-0.1,0.1-0.1c0.1,0.1,0.1,0.2,0.2,0.3c0.1,0.1,0.1,0.2,0.1,0.3c0,0.1-0.1,0.2-0.2,0.3c-0.1,0.1-0.2,0.1-0.4,0.2
	c-0.2,0.1-0.4,0.1-0.6,0.1c-0.2,0-0.4,0-0.7-0.1c-0.2-0.1-0.4-0.2-0.6-0.3c-0.2-0.1-0.3-0.3-0.4-0.6c-0.1-0.2-0.2-0.5-0.2-0.9
	c0-0.3,0-0.6,0.1-0.8c0.1-0.2,0.2-0.4,0.4-0.5c0.2-0.1,0.3-0.2,0.5-0.3c0.2-0.1,0.4-0.1,0.6-0.1c0.3,0,0.5,0,0.7,0.1
	c0.2,0.1,0.3,0.2,0.5,0.3c0.1,0.1,0.2,0.3,0.3,0.5c0.1,0.2,0.1,0.4,0.1,0.6c0,0,0,0.1,0,0.1c0,0,0,0.1,0,0.1c0,0,0,0.1,0,0.1
	c0,0,0,0.1,0,0.1H72.7L72.7,74.6z M73.9,74.1c0-0.2,0-0.4-0.1-0.6c-0.1-0.1-0.2-0.2-0.5-0.2c-0.2,0-0.4,0.1-0.5,0.2
	c-0.1,0.1-0.2,0.3-0.2,0.6H73.9L73.9,74.1z M77.4,73.6c0,0-0.1-0.1-0.2-0.1c-0.1-0.1-0.2-0.1-0.3-0.1c-0.2,0-0.4,0.1-0.5,0.3
	c-0.1,0.2-0.2,0.4-0.2,0.8c0,0.2,0,0.3,0,0.5c0,0.1,0.1,0.3,0.1,0.3c0.1,0.1,0.1,0.2,0.2,0.2c0.1,0.1,0.2,0.1,0.4,0.1
	c0.1,0,0.3,0,0.4-0.1c0.1-0.1,0.1-0.1,0.1-0.2V73.6L77.4,73.6z M77.7,76.1c-0.1,0-0.1,0-0.2-0.1c0-0.1-0.1-0.1-0.1-0.2
	c-0.1,0.1-0.2,0.2-0.3,0.2c-0.2,0.1-0.4,0.1-0.6,0.1c-0.2,0-0.3,0-0.5-0.1c-0.2-0.1-0.3-0.2-0.4-0.3c-0.1-0.1-0.2-0.3-0.3-0.5
	c-0.1-0.2-0.1-0.5-0.1-0.8c0-0.3,0-0.6,0.1-0.8c0.1-0.2,0.2-0.4,0.3-0.6c0.1-0.1,0.3-0.3,0.4-0.3c0.2-0.1,0.3-0.1,0.5-0.1
	c0.2,0,0.4,0,0.5,0.1c0.1,0.1,0.2,0.1,0.3,0.2v-1.3c0,0,0.1,0,0.1,0c0.1,0,0.1,0,0.2,0c0.1,0,0.2,0,0.2,0c0.1,0,0.1,0,0.2,0.1
	c0.1,0,0.1,0.1,0.1,0.2c0,0.1,0.1,0.2,0.1,0.3v3.9H77.7L77.7,76.1z M62.2,75.3c0.1,0,0.1,0.1,0.2,0.1c0.1,0,0.2,0.1,0.3,0.1
	s0.2,0,0.3,0c0.1,0,0.1,0,0.2,0c0.1,0,0.1,0,0.2-0.1c0,0,0.1-0.1,0.1-0.1c0,0,0-0.1,0-0.2c0-0.1-0.1-0.2-0.2-0.3
	c-0.1-0.1-0.3-0.1-0.5-0.2c-0.1,0-0.3-0.1-0.4-0.1c-0.1,0-0.2-0.1-0.3-0.2c-0.1-0.1-0.2-0.2-0.2-0.3c-0.1-0.1-0.1-0.3-0.1-0.4
	c0-0.2,0-0.3,0.1-0.4c0.1-0.1,0.2-0.2,0.3-0.3c0.1-0.1,0.3-0.2,0.4-0.2s0.3-0.1,0.5-0.1c0.2,0,0.4,0,0.5,0c0.1,0,0.3,0.1,0.4,0.1
	c0.2,0.1,0.3,0.2,0.3,0.3c0,0.1,0,0.2-0.1,0.3c0,0.1-0.1,0.2-0.1,0.3c0,0-0.1-0.1-0.2-0.1c-0.1,0-0.1-0.1-0.2-0.1
	c-0.1,0-0.2-0.1-0.3-0.1c-0.1,0-0.2,0-0.3,0c-0.1,0-0.1,0-0.2,0c-0.1,0-0.1,0-0.2,0c0,0-0.1,0.1-0.1,0.1c0,0,0,0.1,0,0.2
	c0,0.2,0.2,0.3,0.5,0.4c0.1,0,0.3,0.1,0.4,0.1c0.1,0,0.3,0.1,0.4,0.2c0.1,0.1,0.2,0.2,0.3,0.3c0.1,0.1,0.1,0.3,0.1,0.5
	c0,0.2,0,0.4-0.1,0.5c-0.1,0.1-0.2,0.3-0.3,0.4c-0.1,0.1-0.3,0.2-0.5,0.2c-0.2,0.1-0.4,0.1-0.6,0.1c-0.2,0-0.4,0-0.5,0
	c-0.1,0-0.3-0.1-0.4-0.1C62,76,62,76,61.9,75.9c-0.1-0.1-0.1-0.1-0.1-0.2c0-0.1,0-0.2,0.1-0.3c0-0.1,0.1-0.2,0.2-0.3
	C62,75.2,62.1,75.3,62.2,75.3L62.2,75.3z M54.7,72.7c0,0,0.1,0,0.1,0c0.1,0,0.1,0,0.2,0c0.1,0,0.2,0,0.2,0c0.1,0,0.1,0,0.2,0.1
	c0.1,0,0.1,0.1,0.1,0.2c0,0.1,0.1,0.2,0.1,0.3v2.9c0,0-0.1,0-0.1,0c-0.1,0-0.1,0-0.2,0c-0.1,0-0.2,0-0.3,0c-0.1,0-0.1,0-0.2-0.1
	c-0.1,0-0.1-0.1-0.1-0.2c0-0.1,0-0.2,0-0.3V72.7L54.7,72.7z M56.1,71.7c0,0,0.1,0,0.1,0c0,0,0.1,0,0.1,0c0,0,0.1,0,0.1,0
	c0.1,0,0.2,0,0.2,0c0.1,0,0.1,0,0.2,0.1c0.1,0,0.1,0.1,0.1,0.2c0,0.1,0.1,0.2,0.1,0.3v0.5h1v0.7h-1V75c0,0.3,0.1,0.5,0.4,0.5
	c0.1,0,0.1,0,0.2,0c0.1,0,0.1,0,0.2-0.1c0,0,0.1-0.1,0.1-0.1c0,0,0.1,0,0.1-0.1c0.1,0.1,0.1,0.2,0.2,0.3c0,0.1,0.1,0.1,0.1,0.2
	c0,0.1,0,0.1-0.1,0.2c0,0.1-0.1,0.1-0.2,0.2c-0.1,0-0.2,0.1-0.3,0.1c-0.1,0-0.3,0-0.4,0c-0.3,0-0.5-0.1-0.7-0.2
	c-0.2-0.1-0.3-0.3-0.3-0.4c0-0.1-0.1-0.2-0.1-0.3c0-0.1,0-0.2,0-0.3V71.7L56.1,71.7z M59.3,74.6c0,0.3,0.1,0.5,0.2,0.7
	c0.1,0.2,0.4,0.3,0.7,0.3c0.1,0,0.2,0,0.3,0c0.1,0,0.2-0.1,0.2-0.1c0.1,0,0.1-0.1,0.2-0.1c0.1,0,0.1-0.1,0.1-0.1
	c0.1,0.1,0.1,0.2,0.2,0.3c0.1,0.1,0.1,0.2,0.1,0.3c0,0.1-0.1,0.2-0.2,0.3c-0.1,0.1-0.2,0.1-0.4,0.2c-0.2,0.1-0.4,0.1-0.6,0.1
	c-0.2,0-0.4,0-0.7-0.1c-0.2-0.1-0.4-0.2-0.6-0.3c-0.2-0.1-0.3-0.3-0.4-0.6c-0.1-0.2-0.2-0.5-0.2-0.9c0-0.3,0-0.6,0.1-0.8
	c0.1-0.2,0.2-0.4,0.4-0.5c0.2-0.1,0.3-0.2,0.5-0.3c0.2-0.1,0.4-0.1,0.6-0.1c0.3,0,0.5,0,0.7,0.1c0.2,0.1,0.3,0.2,0.5,0.3
	c0.1,0.1,0.2,0.3,0.3,0.5c0.1,0.2,0.1,0.4,0.1,0.6c0,0,0,0.1,0,0.1c0,0,0,0.1,0,0.1c0,0,0,0.1,0,0.1c0,0,0,0.1,0,0.1H59.3L59.3,74.6
	z M60.6,74.1c0-0.2,0-0.4-0.1-0.6c-0.1-0.1-0.2-0.2-0.5-0.2c-0.2,0-0.4,0.1-0.5,0.2c-0.1,0.1-0.2,0.3-0.2,0.6H60.6L60.6,74.1z"/>
<path fill-rule="evenodd" clip-rule="evenodd" fill="#010101" d="M83.5,29.3c-1.5,0.3-2.8,1-3.8,1.9c1.2-1.3,2.7-2.3,4.2-2.7
	c-3.8-0.8-7.3,3.5-6.5,6.5l0,0l0,0l0,0l0,0c1.5-1.9,3.8-3.3,6.6-3.9c2.8-0.6,5.6-0.4,8.1,0.6C90.2,29.6,86.8,28.6,83.5,29.3
	L83.5,29.3z M53.2,26.1c1.5,0,2.9,0.6,3.8,1.7c-0.3-0.2-0.6-0.2-0.9-0.2c-0.9,0-1.7,0.8-1.7,1.7c0,0.9,0.8,1.7,1.7,1.7
	c0.9,0,1.7-0.8,1.7-1.7c0-0.1,0-0.2,0-0.4c0.4,0.7,0.6,1.6,0.6,2.5c0,2.9-2.4,5.3-5.3,5.3c-2.9,0-5.3-2.4-5.3-5.3
	C47.9,28.5,50.3,26.1,53.2,26.1L53.2,26.1z M69.2,42.8c1.2-0.9,2.4-0.7,2.8-1.4c0.3-0.4,0.2-0.9-0.2-1.3c-1.1-1.3-6.1-1.3-7.2,0
	c-0.3,0.4-0.4,0.8-0.2,1.3c0.5,0.7,1.7,0.4,3,1.5c0.3,0.3,0.3,0.4,0.3,0.8v0.6c0,0.1,0,0.2,0,0.4c0,0.4,0,0.6-0.2,0.9
	c-0.2,0.3-0.6,0.6-1.2,0.9c-3.1,1.7-6.1,0.4-8.8-1.1c-1.5-0.9-1.7-0.5-0.5,0.7c3.1,2.9,5.8,6.8,11.2,6.8c5.4,0,8.1-3.8,11.2-6.8
	c1-1,1.2-1.6-0.5-0.7c-2.6,1.5-5.7,2.8-8.7,1.1c0,0,0,0,0,0c-0.5-0.3-1-0.6-1.2-0.9c-0.2-0.3-0.3-0.6-0.3-1c0-0.1,0-0.2,0-0.4v-0.6
	C68.8,43.2,68.8,43.1,69.2,42.8L69.2,42.8z"/>
<path fill-rule="evenodd" clip-rule="evenodd" fill="#F58220" d="M63.1,50c1.4,1.1,3.4,1.6,5.2,1.6c1.8,0,3.8-0.5,5.2-1.6
	c-1.4-1.1-3.4-1.6-5.2-1.6C66.5,48.4,64.5,49,63.1,50L63.1,50z"/>
<path fill-rule="evenodd" clip-rule="evenodd" fill="#EC252C" d="M28.2,98.7l11.7-6c1.1,0.8,1.5,1.8,1.4,2.8l-11.5,5.9
	c1,1.9,1.5,4.1,1.5,6.5c0,8.1-6.6,14.7-14.7,14.7c-8.1,0-14.7-6.6-14.7-14.7c0-8.1,6.6-14.7,14.7-14.7
	C21.4,93.2,25.5,95.3,28.2,98.7L28.2,98.7z M5.3,107.8c0-6.3,5.1-11.4,11.4-11.4c6.3,0,11.4,5.1,11.4,11.4c0,6.3-5.1,11.4-11.4,11.4
	C10.4,119.2,5.3,114.1,5.3,107.8L5.3,107.8z"/>
<path fill-rule="evenodd" clip-rule="evenodd" fill="#A52622" d="M41.3,94.8c0,0.2,0.1,0.5,0.1,0.7l-11.5,5.9c-0.2-0.4,0,0-0.2-0.4
	L41.3,94.8L41.3,94.8z M31.4,107.1c0,0.2,0,0.5,0,0.7c0,8.1-6.6,14.7-14.7,14.7c-8.1,0-14.7-6.6-14.7-14.7c0-0.2,0-0.5,0-0.7
	C3.2,126.4,30.1,127.2,31.4,107.1L31.4,107.1z M5.4,107.1c0.4-5.9,5.3-10.7,11.4-10.7c6,0,11,4.7,11.4,10.7c0-0.2,0.1-0.5,0-0.7
	c-1.9-14.6-21.6-13.6-22.8,0C5.3,106.6,5.3,106.8,5.4,107.1L5.4,107.1z"/>
<path fill-rule="evenodd" clip-rule="evenodd" fill="#BDBEC0" d="M28.3,9.1L28.3,9.1L28.3,9.1L28.3,9.1L28.3,9.1z M28.4,9.2
	c2.7,0.9,5.5,2.7,7.9,5.3c0.2,0.2,0.4,0.4,0.5,0.6c-1.1,1.4-2.1,2.8-2.9,4.3C32.8,15.6,31.5,12.2,28.4,9.2L28.4,9.2z"/>
</svg>
