<?xml version="1.0" encoding="utf-8"?>
<!-- Generator: Adobe Illustrator 18.1.1, SVG Export Plug-In . SVG Version: 6.00 Build 0)  -->
<svg version="1.1" id="Layer_1" xmlns="http://www.w3.org/2000/svg" xmlns:xlink="http://www.w3.org/1999/xlink" x="0px" y="0px"
	 viewBox="0 0 114.6 102.8" enable-background="new 0 0 114.6 102.8" xml:space="preserve">
<path fill-rule="evenodd" clip-rule="evenodd" fill="#010101" d="M99.7,25l1.4-3.7l0,0c0.8-2.2,1.7-4.3,2.4-6.5c0.6-1.8,1-3.8,0-5.5
	c-1.1-1.7-3.1-2.2-5-2.3c-2.6-0.1-5.7,0.3-8.3,0.6l-8.8,1.2C73.9,3.3,64.5,0,54.4,0S34.9,3.3,27.3,8.9l-8.8-1.2
	c-2.6-0.4-5.6-0.8-8.3-0.6c-1.9,0.1-3.9,0.5-5,2.3c-1,1.7-0.6,3.7,0,5.5c0.7,2.2,1.6,4.3,2.4,6.5l0,0l3.7,9.6
	c-1.5,4.6-2.4,9.4-2.4,14.5c0,8.9,2.6,17.2,8.5,23.9c0.6,0.7,1.2,1.3,1.8,1.9l0,0.1c-2.9,0.3-5.9-1-7.6-3.6c-0.2-0.3-0.3-1-0.5-1.4
	c-0.2-0.6-0.4-1.2-0.8-1.8C8.7,62,5.2,61.3,2.5,63c-3,1.9-3,5.1-1.6,8.1c0.3,0.7,0.7,1.4,1.1,2c4.1,6.3,11.5,9,18.4,7.5
	c0.7,1.9,1.5,3.6,2,4.7c2,4.3,4.4,7.7,9.5,8.2c1.5,0.2,3.1,0,4.3-0.9c0.2,0.3,0.3,0.5,0.5,0.8c1.6,5.4,8.9,9.5,17.7,9.5
	c8.9,0,16.3-4.2,17.8-9.8c0.8-1.2,1.5-2.4,2.1-3.6l0-0.1c2.8-2.1,5.5-4.6,7.9-7.6c0.7,1.6,1.7,3.1,2.9,4.5c4.1,4.8,16.6,8.9,23.4,6
	c0.1-0.1,0.2-0.1,0.3-0.2c2.8-1.3,4.5-4,5.2-7c0.8-3.2,0.5-6.6-0.5-9.7c-0.9-2.6-2.3-5-4.3-6.8c-1.9-1.7-4.3-2.7-6.8-2.6
	c-0.2,0-0.4,0-0.6,0.1l-1.7-3.3c5.3-4.7,8.3-11.5,8.3-18.6C108.5,36.4,105.1,29.6,99.7,25L99.7,25z M92,68.7c0.3-0.4,0.7-0.8,1-1.3
	l2,4c-0.4,0.2-0.7,0.4-1.1,0.3C92.9,71.5,92.2,69.7,92,68.7L92,68.7z"/>
<path fill-rule="evenodd" clip-rule="evenodd" fill="#FFFFFF" d="M9.7,69c2.1,3.2,5.6,4.9,9.2,4.6c0,1.5,0.4,3.1,0.8,4.7
	c-6,1.3-12.3-1.1-15.8-6.5c-1.3-2.1-2.9-5.2-0.2-7c1.6-1,3.7-0.6,4.8,1C9.1,66.8,9,67.9,9.7,69L9.7,69z"/>
<path fill-rule="evenodd" clip-rule="evenodd" fill="#9ACA3C" d="M61.7,92.3c7.9-2,15.4-7.2,21-15.8c-5,3-10.6,4.8-16.4,5.9
	L61.7,92.3L61.7,92.3z"/>
<path fill-rule="evenodd" clip-rule="evenodd" fill="#ED2224" d="M26.1,76.5c5.6,8.5,13.1,13.8,21,15.8l-4.6-9.9
	C36.7,81.4,31.1,79.5,26.1,76.5L26.1,76.5z"/>
<path fill-rule="evenodd" clip-rule="evenodd" fill="#FFCD05" d="M48.8,92.7c3.7,0.7,7.5,0.7,11.2,0l4.6-10
	c-3.4,0.5-6.9,0.8-10.2,0.8c-3.4,0-6.8-0.2-10.2-0.8L48.8,92.7L48.8,92.7z"/>
<path fill-rule="evenodd" clip-rule="evenodd" fill="#FFFFFF" d="M54.4,2.7c9.5,0,18.3,3.1,25.4,8.4l6.8-0.6c3-0.4,6-0.9,9.1-1.1
	c9.1-0.6,6.5,2.6,3.4,11.2l-1.1,3c-1.7-1.2-3.5-2.2-5.5-2.9c-0.5-0.8-1.1-1.6-1.7-2.4c0.2-0.2,0.4-0.5,0.6-0.7
	c2.8-3.2,6.1-5.4,9.3-6.4c-5.8-0.5-9.8,3.8-12.7,7.9c0.1,0.1,0.2,0.3,0.3,0.4c-1.6-0.3-3.2-0.5-4.8-0.5C69.6,19,58.4,30.2,58.4,44
	c0,13.8,11.2,25.1,25.1,25.1c1.6,0,3.3-0.2,4.9-0.5c-7.8,8.1-20.1,12.1-34,12.1c-23.6,0-42.8-11.6-42.8-35.3c0-10,3.5-19.3,9.3-26.6
	c-2.7-4.2-7.1-8.7-12.8-7.8c3.2,1.1,6.5,3.3,9.3,6.4c0.2,0.2,0.4,0.5,0.6,0.7c-2.2,2.9-4,6.1-5.5,9.6l-2.8-7.3
	C6.6,12,4,8.8,12.8,9.3c2.7,0.2,5.5,0.6,8.2,1c2.7,0.4,5.3,0.6,7.9,0.8C36.1,5.8,44.8,2.7,54.4,2.7L54.4,2.7z M83.5,27.8
	c-9,0-16.2,7.3-16.2,16.2s7.3,16.2,16.2,16.2S99.7,53,99.7,44S92.4,27.8,83.5,27.8L83.5,27.8z"/>
<path fill-rule="evenodd" clip-rule="evenodd" fill="#E8E8E8" d="M39.3,79c-16.2-4.1-27.7-15.2-27.7-33.5c0-6.1,1.3-11.8,3.5-17l0,0
	c0.1-0.1,0.1-0.2,0.2-0.4c0.1-0.2,0.2-0.4,0.2-0.5l0.1-0.2l0.1-0.2l0.1-0.3l0,0l0.1-0.2l0.1-0.2c0.1-0.1,0.1-0.3,0.2-0.4l0.2-0.4
	c0.1-0.1,0.1-0.3,0.2-0.4l0.1-0.2l0.1-0.2l0,0c0.1-0.2,0.2-0.4,0.3-0.6l0,0l0.1-0.2l0.1-0.2l0.2-0.3c0.1-0.1,0.2-0.3,0.2-0.4
	c0.1-0.1,0.2-0.3,0.2-0.4l0.1-0.2l0.1-0.1l0.2-0.3l0.1-0.1l0.1-0.1l0,0c0.1-0.2,0.2-0.4,0.4-0.5c0.1-0.1,0.2-0.2,0.2-0.4l0.2-0.3
	c0.1-0.1,0.2-0.2,0.2-0.3l0.2-0.3c0.1-0.2,0.2-0.3,0.4-0.5l0.1-0.2c0.1-0.2,0.3-0.4,0.4-0.6l0,0c-2.7-4.2-7.1-8.7-12.8-7.8
	c3.2,1.1,6.5,3.3,9.3,6.4c0.2,0.2,0.4,0.5,0.6,0.7c-2.2,2.9-4,6.1-5.5,9.6l-2.8-7.3C6.6,12,4,8.8,12.8,9.3c2.7,0.2,5.5,0.6,8.2,1
	c2.7,0.4,5.3,0.6,7.9,0.8c0.4-0.3,0.9-0.6,1.3-0.9l0,0c4.2-2.9,8.9-5,13.9-6.2c-15.2,7-25.9,23-25.9,41.8
	C18.3,62.4,26.8,73.4,39.3,79L39.3,79z"/>
<path fill-rule="evenodd" clip-rule="evenodd" fill="#BDBEC0" d="M17.9,18.3c-1.2,1.7-2.4,3.4-3.4,5.2c-1.2-4.3-2.4-8.5-5.8-12.1
	c3,1.1,6,3.2,8.6,6.2C17.5,17.8,17.7,18,17.9,18.3L17.9,18.3z"/>
<path fill="#010101" d="M58.9,64.5c1.4,0.2,3.3-1.2,4.7-2.2c1.6-1.1,1.4-0.4,0.5,0.8c-1.2,1.5-2.5,3.1-4.5,3.4
	c-0.6,0.1-1.2,0.1-1.8,0c-0.7-0.1-1.3-0.3-1.7-0.6c-0.8-0.4-1.5-0.7-2.1-0.7c-0.6,0-1.3,0.2-2.1,0.7c-0.4,0.2-1,0.4-1.7,0.6
	c-0.5,0.1-1.1,0.1-1.8,0c-2-0.3-3.3-1.9-4.5-3.4c-1.1-1.3-0.9-1.8,0.5-0.8c1.3,1,3.3,2.4,4.7,2.2c1.4-0.2,2.5-0.4,3.3-0.9
	c0.7-0.5,1-1.2,0.8-2.4c0-0.1,0-0.3-0.1-0.4c-2.4-2.4-4.9-1.7-5.7-3.1c-0.5-0.8-0.3-1.6,0.3-2.3c1.9-2.3,10.9-2.3,12.8,0
	c0.6,0.7,0.8,1.5,0.3,2.3c-0.8,1.4-3.2,0.8-5.5,2.9c0,0.2-0.1,0.4-0.1,0.6c-0.2,1.2,0.1,1.9,0.7,2.4c0,0,0,0,0,0
	C56.5,64.1,57.6,64.4,58.9,64.5L58.9,64.5z"/>
<path fill-rule="evenodd" clip-rule="evenodd" fill="#0795D1" d="M97.9,62.2l2.2,4.3c-0.1,0.1-0.3,0.1-0.4,0.2
	c-1.5,0.7-2.6,1.7-3.5,3l-2.4-4.8c-3.1,1.5-6.6,2.4-10.2,2.4c-12.8,0-23.2-10.4-23.2-23.2c0-12.8,10.4-23.2,23.2-23.2
	c12.8,0,23.2,10.4,23.2,23.2C106.7,51.4,103.3,58,97.9,62.2L97.9,62.2z M83.5,26c10,0,18.1,8.1,18.1,18.1c0,10-8.1,18.1-18.1,18.1
	c-10,0-18.1-8.1-18.1-18.1C65.4,34.1,73.5,26,83.5,26L83.5,26z"/>
<path fill-rule="evenodd" clip-rule="evenodd" fill="#02527D" d="M96.2,69.6l-2.4-4.8c0.7-0.3,0.1,0,0.7-0.3l2.3,4.3
	C96.5,69.2,96.3,69.4,96.2,69.6L96.2,69.6z M84.7,67.2c-0.4,0-0.8,0-1.2,0c-12.8,0-23.2-10.4-23.2-23.2c0-12.8,10.4-23.2,23.2-23.2
	c0.4,0,0.8,0,1.2,0C54,22.7,52.9,65.2,84.7,67.2L84.7,67.2z M84.7,26c9.4,0.6,16.9,8.4,16.9,18c0,9.6-7.5,17.4-16.9,18
	c0.4,0,0.8,0.1,1.2,0c23.2-3.1,21.6-34.2,0-36.1C85.4,25.9,85,26,84.7,26L84.7,26z"/>
<path fill-rule="evenodd" clip-rule="evenodd" fill="#FFFFFF" d="M111,76.2c1.9,5.6,0.4,11.6-3.4,13.3c-3.8,1.7-8.4-1.4-10.2-7.1
	c-1.9-5.6-0.4-11.6,3.4-13.3C104.6,67.4,109.1,70.5,111,76.2L111,76.2z M89.5,69.8c0.9,3,2.7,4.6,4.7,4.6c-0.6,2.9-0.3,6.1,0.7,8.9
	c0.9,2.6,2.3,5,4.3,6.8c0.1,0.1,0.1,0.1,0.2,0.2c-7.8-0.9-13-5-15.2-11.2c1.2-1.7,2.2-3.4,3.2-5.3l1.6-3L89.5,69.8L89.5,69.8z"/>
<path fill-rule="evenodd" clip-rule="evenodd" fill="#D2D3D4" d="M102.7,89.3c-2.2-1.1-4.2-3.6-5.3-6.8c-1.8-5.4-0.5-11.1,2.9-13.1
	c-2.3,3.3-2.9,8.6-1.2,13.8C99.9,85.6,101.2,87.7,102.7,89.3L102.7,89.3z"/>
<path fill-rule="evenodd" clip-rule="evenodd" fill="#010101" d="M83.5,34.6c0.6,0,1.2,0.1,1.8,0.2c-1,0.5-1.7,1.6-1.7,2.8
	c0,1.7,1.4,3.1,3.1,3.1c1.7,0,3.1-1.4,3.1-3.1c0-0.2,0-0.4-0.1-0.6c1.9,1.7,3.1,4.2,3.1,7c0,5.2-4.2,9.4-9.4,9.4
	c-5.2,0-9.4-4.2-9.4-9.4C74.1,38.8,78.3,34.6,83.5,34.6L83.5,34.6z"/>
<path fill-rule="evenodd" clip-rule="evenodd" fill="#010101" d="M37.5,41.8c4.5,1.2,7.6,4.9,8.3,9.2c-2.1-3-5.2-5.4-9.1-6.4
	c-3.8-1-7.7-0.6-11.1,1C28.5,42.2,33.1,40.6,37.5,41.8L37.5,41.8z"/>
<path fill-rule="evenodd" clip-rule="evenodd" fill="#FFFFFF" d="M57.4,95.8c3.6,3.1,8,2,12-3.5C65.5,94.3,61.5,95.4,57.4,95.8
	L57.4,95.8z"/>
<path fill-rule="evenodd" clip-rule="evenodd" fill="#FFFFFF" d="M51.3,95.8c-3.6,3.1-8,2-12-3.5C43.2,94.3,47.3,95.4,51.3,95.8
	L51.3,95.8z"/>
<path fill-rule="evenodd" clip-rule="evenodd" fill="#FFFFFF" d="M32.2,90.7c-4.2-0.4-5.9-3.5-7.3-6.7c-2-4.3-2.9-7.4-3.2-9.6
	C25.3,81,29.8,86.1,35,89.7C34.7,90.5,33.9,90.9,32.2,90.7L32.2,90.7z"/>
</svg>
