<?xml version="1.0" encoding="utf-8"?>
<!-- Generator: Adobe Illustrator 18.1.1, SVG Export Plug-In . SVG Version: 6.00 Build 0)  -->
<svg version="1.1" id="Layer_1" xmlns="http://www.w3.org/2000/svg" xmlns:xlink="http://www.w3.org/1999/xlink" x="0px" y="0px"
	 viewBox="0 0 133.1 152.4" enable-background="new 0 0 133.1 152.4" xml:space="preserve">
<polygon fill-rule="evenodd" clip-rule="evenodd" fill="#9ACA3C" points="81.3,123 107.8,123 133.1,0 89.6,0 81.3,123 "/>
<polygon fill-rule="evenodd" clip-rule="evenodd" fill="#ED2224" points="25.3,123 51.8,123 43.5,0 0,0 25.3,123 "/>
<polygon fill-rule="evenodd" clip-rule="evenodd" fill="#FFCD05" points="51.8,123 81.3,123 89.6,0 43.5,0 51.8,123 "/>
<path fill-rule="evenodd" clip-rule="evenodd" fill="#010101" d="M110,55.9l1.4-3.7l0,0c0.8-2.2,1.7-4.3,2.4-6.5
	c0.6-1.8,1-3.8,0-5.5c-1.1-1.7-3.1-2.2-5-2.2c-2.6-0.1-5.7,0.3-8.3,0.6l-8.8,1.2c-7.6-5.6-16.9-8.9-27.1-8.9
	c-10.1,0-19.5,3.3-27.1,8.9l-8.8-1.2c-2.6-0.4-5.6-0.8-8.3-0.6c-1.9,0.1-3.9,0.5-5,2.2c-1,1.7-0.6,3.7,0,5.5
	c0.7,2.2,1.6,4.3,2.4,6.5l0,0l3.7,9.6c-1.5,4.6-2.4,9.4-2.4,14.5c0,8.9,2.6,17.2,8.5,23.9c0.6,0.7,1.2,1.3,1.8,1.9l0,0.1
	c-2.9,0.3-5.9-1-7.6-3.6c-0.2-0.3-0.3-1-0.5-1.4c-0.2-0.6-0.4-1.2-0.8-1.8c-1.7-2.6-5.2-3.4-7.8-1.7c-3,1.9-3,5.1-1.6,8.1
	c0.3,0.7,0.7,1.4,1.1,2c4.1,6.3,11.5,9,18.4,7.5c0.7,1.9,1.5,3.6,2,4.7c2,4.3,4.4,7.7,9.5,8.2c1.5,0.2,3.1,0,4.3-0.9
	c0.2,0.3,0.3,0.5,0.5,0.8c1.6,5.4,8.9,9.5,17.7,9.5c8.9,0,16.3-4.2,17.8-9.8c0.8-1.2,1.5-2.4,2.1-3.6l0-0.1c2.8-2.1,5.5-4.6,7.9-7.6
	c0.7,1.6,1.7,3.1,2.9,4.5c4.1,4.8,16.6,8.9,23.4,6c0.1-0.1,0.2-0.1,0.3-0.2c2.8-1.3,4.5-4,5.2-7c0.8-3.2,0.5-6.6-0.5-9.7
	c-0.9-2.6-2.3-5-4.3-6.8c-1.9-1.7-4.3-2.7-6.8-2.6c-0.2,0-0.4,0-0.6,0.1l-1.7-3.3c5.3-4.7,8.3-11.5,8.3-18.6
	C118.8,67.3,115.4,60.5,110,55.9L110,55.9z M102.3,99.6c0.3-0.4,0.7-0.8,1-1.3l2,4c-0.4,0.2-0.7,0.4-1.1,0.3
	C103.2,102.4,102.5,100.6,102.3,99.6L102.3,99.6z"/>
<path fill-rule="evenodd" clip-rule="evenodd" fill="#FFFFFF" d="M20,99.9c2.1,3.2,5.6,4.9,9.2,4.6c0,1.5,0.4,3.1,0.8,4.7
	c-6,1.3-12.3-1.1-15.8-6.5c-1.3-2.1-2.9-5.2-0.2-7c1.6-1,3.7-0.6,4.8,1C19.4,97.7,19.3,98.8,20,99.9L20,99.9z"/>
<path fill-rule="evenodd" clip-rule="evenodd" fill="#0795D1" d="M36.4,107.4c14.6,22.3,42,22.3,56.6,0c-8.4,5-18.6,6.9-28.3,6.9
	C55,114.3,44.8,112.4,36.4,107.4L36.4,107.4z"/>
<path fill-rule="evenodd" clip-rule="evenodd" fill="#02527D" d="M36.4,107.4c7,10.7,17.1,16.3,27.2,16.7c0.6,0,1.3-0.1,1.9-0.1
	c-8.5-0.9-16.8-5.4-23.2-13.7C40.2,109.5,38.2,108.5,36.4,107.4L36.4,107.4z"/>
<path fill-rule="evenodd" clip-rule="evenodd" fill="#FFFFFF" d="M64.7,33.6c9.5,0,18.3,3.1,25.4,8.4l6.8-0.6c3-0.4,6-0.9,9.1-1.1
	c9.1-0.6,6.5,2.6,3.4,11.2l-1.1,3c-1.7-1.2-3.5-2.2-5.5-2.9c-0.5-0.8-1.1-1.6-1.7-2.4c0.2-0.2,0.4-0.5,0.6-0.7
	c2.8-3.2,6.1-5.4,9.3-6.4c-5.8-0.5-9.8,3.8-12.7,7.9c0.1,0.1,0.2,0.3,0.3,0.4c-1.6-0.3-3.2-0.5-4.8-0.5c-13.8,0-25.1,11.2-25.1,25.1
	c0,13.8,11.2,25.1,25.1,25.1c1.6,0,3.3-0.2,4.9-0.5c-7.8,8.1-20.1,12.1-34,12.1c-23.6,0-42.8-11.6-42.8-35.3c0-10,3.5-19.3,9.3-26.6
	c-2.7-4.2-7.1-8.7-12.8-7.8c3.2,1.1,6.5,3.3,9.3,6.4c0.2,0.2,0.4,0.5,0.6,0.7c-2.2,2.9-4,6.1-5.5,9.6L20,51.5
	c-3-8.5-5.7-11.8,3.2-11.2c2.7,0.2,5.5,0.6,8.2,1c2.7,0.4,5.3,0.6,7.9,0.8C46.4,36.7,55.2,33.6,64.7,33.6L64.7,33.6z M93.8,58.7
	c-9,0-16.2,7.3-16.2,16.2c0,9,7.3,16.2,16.2,16.2S110,83.9,110,74.9C110,66,102.7,58.7,93.8,58.7L93.8,58.7z"/>
<path fill-rule="evenodd" clip-rule="evenodd" fill="#E8E8E8" d="M49.6,109.9c-16.2-4.1-27.7-15.2-27.7-33.5c0-4.4,0.7-8.6,1.9-12.6
	l0,0l0,0l0-0.1c0.1-0.2,0.2-0.5,0.2-0.7l0-0.1c0.1-0.2,0.1-0.4,0.2-0.6l0.1-0.3c0.1-0.2,0.1-0.4,0.2-0.5l0.1-0.3
	c0.1-0.2,0.1-0.4,0.2-0.5l0.1-0.3c0.1-0.2,0.2-0.4,0.2-0.6l0.1-0.3c0.1-0.2,0.2-0.3,0.2-0.5l0.1-0.3c0.1-0.2,0.2-0.4,0.3-0.6
	l0.1-0.2c0.1-0.2,0.2-0.4,0.3-0.6l0.1-0.2c0.1-0.2,0.2-0.4,0.3-0.6l0.1-0.1c0.1-0.2,0.2-0.4,0.3-0.5c0.1-0.1,0.1-0.2,0.2-0.4
	c0.1-0.1,0.2-0.3,0.2-0.4l0.1-0.2c0.1-0.2,0.2-0.3,0.3-0.5l0.2-0.3c0.1-0.2,0.2-0.3,0.3-0.5l0.1-0.2c0.1-0.2,0.2-0.3,0.3-0.5
	l0.2-0.3c0.1-0.2,0.2-0.3,0.3-0.5l0.1-0.2c0.1-0.2,0.2-0.3,0.4-0.5l0.2-0.2c0.1-0.2,0.3-0.4,0.4-0.5l0.1-0.1
	c0.1-0.2,0.3-0.4,0.4-0.6l0,0c-2.7-4.2-7.1-8.7-12.8-7.8c3.2,1.1,6.5,3.3,9.3,6.4c0.2,0.2,0.4,0.5,0.6,0.7c-2.2,2.9-4,6.1-5.5,9.6
	L20,51.5c-3-8.5-5.7-11.8,3.2-11.2c2.7,0.2,5.5,0.6,8.2,1c2.7,0.4,5.3,0.6,7.9,0.8c0.3-0.3,0.7-0.5,1-0.8v0c4.2-2.9,9-5.1,14.2-6.4
	c-15.2,7-25.9,23-25.9,41.8C28.6,93.2,37.1,104.3,49.6,109.9L49.6,109.9z"/>
<path fill="#010101" d="M69.2,95.4c1.4,0.2,3.3-1.2,4.7-2.2c1.6-1.1,1.4-0.4,0.5,0.8c-1.2,1.5-2.5,3.1-4.5,3.4
	c-0.6,0.1-1.2,0.1-1.8,0c-0.7-0.1-1.3-0.3-1.7-0.6c-0.8-0.4-1.5-0.7-2.1-0.7c-0.6,0-1.3,0.2-2.1,0.7c-0.4,0.2-1,0.4-1.7,0.6
	c-0.5,0.1-1.1,0.1-1.8,0c-2-0.3-3.3-1.9-4.5-3.4c-1.1-1.3-0.9-1.8,0.5-0.8c1.3,1,3.3,2.4,4.7,2.2c1.4-0.2,2.5-0.4,3.3-0.9
	c0.7-0.5,1-1.2,0.8-2.4c0-0.1,0-0.3-0.1-0.4c-2.4-2.4-4.9-1.7-5.7-3.1c-0.5-0.8-0.3-1.6,0.3-2.3c1.9-2.3,10.9-2.3,12.8,0
	c0.6,0.7,0.8,1.5,0.3,2.3c-0.8,1.4-3.2,0.8-5.5,2.9c0,0.2-0.1,0.4-0.1,0.6c-0.2,1.2,0.1,1.9,0.7,2.4c0,0,0,0,0,0
	C66.8,95,67.9,95.3,69.2,95.4L69.2,95.4z"/>
<path fill-rule="evenodd" clip-rule="evenodd" fill="#ED2224" d="M108.2,93.1l2.2,4.3c-0.1,0.1-0.3,0.1-0.4,0.2
	c-1.5,0.7-2.6,1.7-3.5,3l-2.4-4.8c-3.1,1.5-6.6,2.4-10.2,2.4c-12.8,0-23.2-10.4-23.2-23.2c0-12.8,10.4-23.2,23.2-23.2
	c12.8,0,23.2,10.4,23.2,23.2C117,82.3,113.6,88.8,108.2,93.1L108.2,93.1z M93.8,56.9c10,0,18.1,8.1,18.1,18.1
	c0,10-8.1,18.1-18.1,18.1c-10,0-18.1-8.1-18.1-18.1C75.7,65,83.8,56.9,93.8,56.9L93.8,56.9z"/>
<path fill-rule="evenodd" clip-rule="evenodd" fill="#9A1B1F" d="M106.5,100.5l-2.4-4.8c0.7-0.3,0.1,0,0.7-0.3l2.3,4.3
	C106.8,100.1,106.6,100.3,106.5,100.5L106.5,100.5z M95,98.1c-0.4,0-0.8,0-1.2,0c-12.8,0-23.2-10.4-23.2-23.2
	c0-12.8,10.4-23.2,23.2-23.2c0.4,0,0.8,0,1.2,0C64.3,53.5,63.2,96.1,95,98.1L95,98.1z M95,56.9c9.4,0.6,16.9,8.4,16.9,18
	c0,9.6-7.5,17.4-16.9,18c0.4,0,0.8,0.1,1.2,0c23.2-3.1,21.6-34.2,0-36.1C95.7,56.8,95.3,56.9,95,56.9L95,56.9z"/>
<path fill-rule="evenodd" clip-rule="evenodd" fill="#FFFFFF" d="M121.3,107.1c1.9,5.6,0.4,11.6-3.4,13.3c-3.8,1.7-8.4-1.4-10.2-7.1
	c-1.9-5.6-0.4-11.6,3.4-13.3C114.9,98.3,119.4,101.4,121.3,107.1L121.3,107.1z M99.8,100.7c0.9,3,2.7,4.6,4.7,4.6
	c-0.6,2.9-0.3,6.1,0.7,8.9c0.9,2.6,2.3,5,4.3,6.8c0.1,0.1,0.1,0.1,0.2,0.2c-7.8-0.9-13-5-15.2-11.2c1.2-1.7,2.2-3.4,3.2-5.3l1.6-3
	L99.8,100.7L99.8,100.7z"/>
<path fill-rule="evenodd" clip-rule="evenodd" fill="#D2D3D4" d="M113,120.2c-2.2-1.1-4.2-3.6-5.3-6.8c-1.8-5.4-0.5-11.1,2.9-13.1
	c-2.3,3.3-2.9,8.6-1.2,13.8C110.2,116.5,111.5,118.6,113,120.2L113,120.2z"/>
<path fill-rule="evenodd" clip-rule="evenodd" fill="#010101" d="M93.8,65.5c0.6,0,1.2,0.1,1.8,0.2c-1,0.5-1.7,1.6-1.7,2.8
	c0,1.7,1.4,3.1,3.1,3.1c1.7,0,3.1-1.4,3.1-3.1c0-0.2,0-0.4,0-0.6c1.9,1.7,3.1,4.2,3.1,7c0,5.2-4.2,9.4-9.4,9.4
	c-5.2,0-9.4-4.2-9.4-9.4C84.4,69.7,88.6,65.5,93.8,65.5L93.8,65.5z"/>
<path fill-rule="evenodd" clip-rule="evenodd" fill="#010101" d="M47.8,72.7c4.5,1.2,7.6,4.9,8.3,9.2c-2.1-3-5.2-5.4-9.1-6.4
	c-3.8-1-7.7-0.6-11.1,1C38.8,73.1,43.4,71.5,47.8,72.7L47.8,72.7z"/>
<path fill-rule="evenodd" clip-rule="evenodd" fill="#0795D1" d="M99.8,100.7c0.7,2.3,1.9,3.8,3.3,4.3c-1.1,0.2-5.1,8.1-4.8,11.1
	c-1.7-1.7-3-3.8-3.8-6.2c1.2-1.7,2.2-3.4,3.2-5.3l1.6-3L99.8,100.7L99.8,100.7z"/>
<path fill-rule="evenodd" clip-rule="evenodd" fill="#FFFFFF" d="M67.7,126.7c3.6,3.1,8,2,12-3.5C75.8,125.1,71.8,126.3,67.7,126.7
	L67.7,126.7z"/>
<path fill-rule="evenodd" clip-rule="evenodd" fill="#FFFFFF" d="M61.6,126.7c-3.6,3.1-8,2-12-3.5C53.5,125.1,57.6,126.3,61.6,126.7
	L61.6,126.7z"/>
<path fill-rule="evenodd" clip-rule="evenodd" fill="#FFFFFF" d="M42.5,121.6c-4.2-0.4-5.9-3.5-7.3-6.7c-2-4.3-2.9-7.4-3.2-9.6
	c3.6,6.6,8.2,11.7,13.3,15.3C45,121.4,44.2,121.8,42.5,121.6L42.5,121.6z"/>
<path fill-rule="evenodd" clip-rule="evenodd" fill="#0795D1" d="M35.5,115.7c-0.1-0.2-0.2-0.5-0.3-0.7c-2-4.3-2.9-7.4-3.2-9.6
	c2,3.6,4.2,6.7,6.7,9.4l-0.1,0C37.6,115.2,36.5,115.5,35.5,115.7L35.5,115.7z"/>
<path fill-rule="evenodd" clip-rule="evenodd" fill="#BDBEC0" d="M28.2,49.2c-1.2,1.7-2.4,3.4-3.4,5.2c-1.2-4.3-2.4-8.5-5.8-12.1
	c3,1.1,6,3.2,8.6,6.2C27.8,48.7,28,48.9,28.2,49.2L28.2,49.2z"/>
<path fill="#0795D1" d="M9.2,146.6c0.2,0.1,0.5,0.3,0.8,0.4c0.3,0.1,0.6,0.2,0.9,0.3c0.3,0.1,0.7,0.1,1,0.1c0.2,0,0.4,0,0.7-0.1
	c0.2,0,0.4-0.1,0.6-0.2c0.2-0.1,0.3-0.2,0.4-0.4c0.1-0.2,0.2-0.4,0.2-0.7c0-0.5-0.2-0.8-0.6-1c-0.4-0.2-0.9-0.4-1.7-0.5
	c-0.5-0.1-1-0.2-1.4-0.4c-0.5-0.2-0.9-0.4-1.2-0.7c-0.4-0.3-0.6-0.6-0.8-1c-0.2-0.4-0.3-0.9-0.3-1.5c0-0.6,0.1-1.1,0.4-1.6
	c0.3-0.5,0.6-0.8,1.1-1.2c0.4-0.3,1-0.6,1.6-0.7c0.6-0.2,1.2-0.2,1.8-0.2c0.7,0,1.3,0.1,1.8,0.2c0.5,0.1,1,0.2,1.4,0.4
	c0.7,0.3,1.1,0.7,1.2,1.2c0,0.3-0.1,0.6-0.2,0.9c-0.2,0.3-0.3,0.7-0.5,1c-0.2-0.1-0.4-0.3-0.6-0.4c-0.2-0.1-0.5-0.3-0.8-0.4
	c-0.3-0.1-0.6-0.2-0.9-0.3c-0.3-0.1-0.7-0.1-1-0.1c-0.2,0-0.4,0-0.6,0c-0.2,0-0.4,0.1-0.5,0.2c-0.2,0.1-0.3,0.2-0.4,0.3
	c-0.1,0.1-0.2,0.3-0.2,0.6c0,0.6,0.6,1,1.8,1.3c0.5,0.1,1,0.2,1.5,0.4c0.5,0.2,0.9,0.4,1.3,0.7c0.4,0.3,0.7,0.6,1,1.1
	c0.2,0.4,0.4,1,0.4,1.6c0,0.7-0.1,1.3-0.4,1.8c-0.3,0.5-0.6,1-1.1,1.3c-0.5,0.4-1,0.6-1.6,0.8c-0.6,0.2-1.3,0.3-2,0.3
	c-0.7,0-1.4-0.1-1.9-0.2c-0.5-0.1-0.9-0.2-1.3-0.4c-0.2-0.1-0.5-0.2-0.8-0.4c-0.3-0.2-0.4-0.5-0.4-0.8c0-0.3,0.1-0.6,0.3-0.9
	c0.2-0.3,0.4-0.6,0.6-1C8.8,146.3,9,146.4,9.2,146.6L9.2,146.6z M19.9,133.1c1,0,1.8,0.8,1.8,1.8c0,1-0.8,1.8-1.8,1.8
	c-1,0-1.8-0.8-1.8-1.8C18.2,133.9,19,133.1,19.9,133.1L19.9,133.1z M18.3,137.5c0.1,0,0.2,0,0.4-0.1c0.2,0,0.5,0,0.7,0
	c0.3,0,0.5,0,0.8,0.1c0.3,0.1,0.5,0.1,0.7,0.3c0.2,0.1,0.4,0.3,0.5,0.6c0.1,0.3,0.2,0.6,0.2,1v10.2c-0.1,0-0.2,0.1-0.5,0.1
	c-0.2,0-0.5,0-0.8,0c-0.3,0-0.6,0-0.9-0.1c-0.3-0.1-0.5-0.2-0.7-0.3c-0.2-0.2-0.3-0.4-0.5-0.6c-0.1-0.3-0.2-0.6-0.2-1V137.5
	L18.3,137.5z M23.4,133.7c0.1,0,0.2,0,0.4-0.1c0.1,0,0.2,0,0.4,0c0.1,0,0.3,0,0.4,0c0.3,0,0.5,0,0.8,0.1c0.3,0.1,0.5,0.2,0.7,0.3
	c0.2,0.2,0.4,0.4,0.5,0.6c0.1,0.3,0.2,0.6,0.2,1v1.8h3.5v2.6h-3.5v5.4c0,1.2,0.5,1.8,1.4,1.8c0.2,0,0.5,0,0.7-0.1
	c0.2-0.1,0.4-0.2,0.6-0.3c0.2-0.1,0.3-0.2,0.4-0.3c0.1-0.1,0.2-0.2,0.3-0.2c0.3,0.4,0.4,0.7,0.6,1c0.1,0.3,0.2,0.5,0.2,0.8
	c0,0.2-0.1,0.4-0.3,0.6c-0.2,0.2-0.4,0.4-0.7,0.6c-0.3,0.2-0.7,0.3-1.2,0.4c-0.5,0.1-1,0.2-1.5,0.2c-1,0-1.9-0.2-2.4-0.6
	c-0.6-0.4-1-0.9-1.2-1.6c-0.1-0.3-0.2-0.7-0.2-1.1c0-0.4-0.1-0.7-0.1-1.1V133.7L23.4,133.7z M34.8,144.1c0.1,0.9,0.4,1.7,0.9,2.3
	c0.5,0.6,1.3,0.9,2.4,0.9c0.4,0,0.8,0,1.1-0.1c0.3-0.1,0.6-0.2,0.9-0.3c0.3-0.1,0.5-0.3,0.7-0.4c0.2-0.2,0.4-0.3,0.5-0.4
	c0.2,0.3,0.4,0.6,0.6,1c0.2,0.4,0.3,0.7,0.3,1c0,0.4-0.2,0.7-0.6,1c-0.4,0.3-0.9,0.5-1.5,0.7c-0.6,0.2-1.4,0.3-2.3,0.3
	c-0.8,0-1.6-0.1-2.3-0.3c-0.8-0.2-1.4-0.6-2-1.1c-0.6-0.5-1.1-1.2-1.5-2c-0.4-0.9-0.6-1.9-0.6-3.2c0-1.1,0.2-2,0.5-2.7
	c0.3-0.8,0.8-1.4,1.3-1.9c0.5-0.5,1.2-0.9,1.9-1.1c0.7-0.2,1.4-0.4,2.1-0.4c0.9,0,1.7,0.1,2.4,0.4c0.7,0.3,1.2,0.7,1.6,1.2
	c0.4,0.5,0.7,1.1,0.9,1.7c0.2,0.6,0.3,1.3,0.3,2c0,0.1,0,0.2,0,0.4c0,0.1,0,0.3,0,0.4c0,0.2,0,0.3,0,0.4c0,0.1,0,0.3,0,0.3H34.8
	L34.8,144.1z M39.2,142.2c0-0.8-0.2-1.5-0.5-2c-0.3-0.5-0.9-0.8-1.7-0.8c-0.7,0-1.2,0.2-1.7,0.7c-0.4,0.5-0.6,1.1-0.6,2H39.2
	L39.2,142.2z"/>
<path fill="#02527D" d="M44.8,146.6c0.2,0.1,0.5,0.3,0.8,0.4c0.3,0.1,0.6,0.2,0.9,0.3c0.3,0.1,0.7,0.1,1,0.1c0.2,0,0.4,0,0.7-0.1
	c0.2,0,0.4-0.1,0.6-0.2c0.2-0.1,0.3-0.2,0.4-0.4c0.1-0.2,0.2-0.4,0.2-0.7c0-0.5-0.2-0.8-0.6-1c-0.4-0.2-0.9-0.4-1.7-0.5
	c-0.5-0.1-1-0.2-1.4-0.4c-0.5-0.2-0.9-0.4-1.2-0.7c-0.4-0.3-0.6-0.6-0.8-1c-0.2-0.4-0.3-0.9-0.3-1.5c0-0.6,0.1-1.1,0.4-1.6
	c0.3-0.5,0.6-0.8,1.1-1.2c0.4-0.3,1-0.6,1.6-0.7c0.6-0.2,1.2-0.2,1.8-0.2c0.7,0,1.3,0.1,1.8,0.2c0.5,0.1,1,0.2,1.4,0.4
	c0.7,0.3,1.1,0.7,1.2,1.2c0,0.3-0.1,0.6-0.2,0.9c-0.2,0.3-0.3,0.7-0.5,1c-0.2-0.1-0.4-0.3-0.6-0.4c-0.2-0.1-0.5-0.3-0.8-0.4
	c-0.3-0.1-0.6-0.2-0.9-0.3c-0.3-0.1-0.7-0.1-1-0.1c-0.2,0-0.4,0-0.6,0c-0.2,0-0.4,0.1-0.5,0.2c-0.2,0.1-0.3,0.2-0.4,0.3
	c-0.1,0.1-0.2,0.3-0.2,0.6c0,0.6,0.6,1,1.8,1.3c0.5,0.1,1,0.2,1.5,0.4c0.5,0.2,0.9,0.4,1.3,0.7c0.4,0.3,0.7,0.6,1,1.1
	c0.2,0.4,0.4,1,0.4,1.6c0,0.7-0.1,1.3-0.4,1.8c-0.3,0.5-0.6,1-1.1,1.3c-0.5,0.4-1,0.6-1.6,0.8c-0.6,0.2-1.3,0.3-2,0.3
	c-0.7,0-1.4-0.1-1.9-0.2c-0.5-0.1-0.9-0.2-1.3-0.4c-0.2-0.1-0.5-0.2-0.8-0.4c-0.3-0.2-0.4-0.5-0.4-0.8c0-0.3,0.1-0.6,0.3-0.9
	c0.2-0.3,0.4-0.6,0.6-1C44.4,146.3,44.6,146.4,44.8,146.6L44.8,146.6z M54,137.5c0.1,0,0.2,0,0.3-0.1c0.1,0,0.2,0,0.4,0
	c0.1,0,0.3,0,0.5,0c0.6,0,1,0.1,1.4,0.3c0.4,0.2,0.6,0.5,0.7,0.9c0.3-0.3,0.7-0.6,1.3-1c0.6-0.3,1.3-0.5,2.2-0.5
	c0.6,0,1.2,0.1,1.8,0.3c0.6,0.2,1.1,0.6,1.5,1c0.4,0.5,0.8,1.1,1,1.9c0.3,0.8,0.4,1.7,0.4,2.9c0,1.3-0.2,2.4-0.5,3.2
	c-0.3,0.9-0.7,1.5-1.2,2c-0.5,0.5-1,0.8-1.6,1c-0.6,0.2-1.2,0.3-1.8,0.3c-0.5,0-0.9-0.1-1.3-0.2c-0.4-0.1-0.7-0.2-0.9-0.4
	c-0.3-0.1-0.4-0.3-0.6-0.4c-0.1-0.1-0.2-0.2-0.3-0.3v3.8H54V137.5L54,137.5z M57.4,146.4c0.1,0.1,0.4,0.3,0.7,0.5
	c0.3,0.2,0.7,0.3,1.2,0.3c0.9,0,1.5-0.3,1.9-1c0.4-0.7,0.6-1.6,0.6-2.8c0-0.5,0-1-0.1-1.4c-0.1-0.4-0.2-0.8-0.4-1.1
	c-0.2-0.3-0.5-0.6-0.8-0.7c-0.3-0.2-0.7-0.3-1.2-0.3c-0.7,0-1.2,0.1-1.5,0.4c-0.3,0.3-0.4,0.6-0.4,0.9V146.4L57.4,146.4z
	 M70.1,144.1c0.1,0.9,0.4,1.7,0.9,2.3c0.5,0.6,1.3,0.9,2.4,0.9c0.4,0,0.8,0,1.1-0.1c0.3-0.1,0.6-0.2,0.9-0.3
	c0.3-0.1,0.5-0.3,0.7-0.4c0.2-0.2,0.4-0.3,0.5-0.4c0.2,0.3,0.4,0.6,0.6,1c0.2,0.4,0.3,0.7,0.3,1c0,0.4-0.2,0.7-0.6,1
	c-0.4,0.3-0.9,0.5-1.5,0.7c-0.6,0.2-1.4,0.3-2.3,0.3c-0.8,0-1.6-0.1-2.3-0.3c-0.8-0.2-1.4-0.6-2-1.1c-0.6-0.5-1.1-1.2-1.5-2
	c-0.4-0.9-0.6-1.9-0.6-3.2c0-1.1,0.2-2,0.5-2.7c0.3-0.8,0.8-1.4,1.3-1.9c0.5-0.5,1.2-0.9,1.9-1.1c0.7-0.2,1.4-0.4,2.1-0.4
	c0.9,0,1.7,0.1,2.4,0.4c0.7,0.3,1.2,0.7,1.6,1.2c0.4,0.5,0.7,1.1,0.9,1.7c0.2,0.6,0.3,1.3,0.3,2c0,0.1,0,0.2,0,0.4
	c0,0.1,0,0.3,0,0.4c0,0.2,0,0.3,0,0.4c0,0.1,0,0.3,0,0.3H70.1L70.1,144.1z M74.5,142.2c0-0.8-0.2-1.5-0.5-2
	c-0.3-0.5-0.9-0.8-1.7-0.8c-0.7,0-1.2,0.2-1.7,0.7c-0.4,0.5-0.6,1.1-0.6,2H74.5L74.5,142.2z M82,144.1c0.1,0.9,0.4,1.7,0.9,2.3
	c0.5,0.6,1.3,0.9,2.4,0.9c0.4,0,0.8,0,1.1-0.1c0.3-0.1,0.6-0.2,0.9-0.3c0.3-0.1,0.5-0.3,0.7-0.4c0.2-0.2,0.4-0.3,0.5-0.4
	c0.2,0.3,0.4,0.6,0.6,1c0.2,0.4,0.3,0.7,0.3,1c0,0.4-0.2,0.7-0.6,1c-0.4,0.3-0.9,0.5-1.5,0.7c-0.6,0.2-1.4,0.3-2.3,0.3
	c-0.8,0-1.6-0.1-2.3-0.3c-0.8-0.2-1.4-0.6-2-1.1c-0.6-0.5-1.1-1.2-1.5-2c-0.4-0.9-0.6-1.9-0.6-3.2c0-1.1,0.2-2,0.5-2.7
	c0.3-0.8,0.8-1.4,1.3-1.9c0.5-0.5,1.2-0.9,1.9-1.1c0.7-0.2,1.4-0.4,2.1-0.4c0.9,0,1.7,0.1,2.4,0.4c0.7,0.3,1.2,0.7,1.6,1.2
	c0.4,0.5,0.7,1.1,0.9,1.7c0.2,0.6,0.3,1.3,0.3,2c0,0.1,0,0.2,0,0.4c0,0.1,0,0.3,0,0.4c0,0.2,0,0.3,0,0.4c0,0.1,0,0.3,0,0.3H82
	L82,144.1z M86.4,142.2c0-0.8-0.2-1.5-0.5-2c-0.3-0.5-0.9-0.8-1.7-0.8c-0.7,0-1.2,0.2-1.7,0.7c-0.4,0.5-0.6,1.1-0.6,2H86.4
	L86.4,142.2z M98.8,140.5c-0.1-0.1-0.4-0.3-0.7-0.5c-0.3-0.2-0.7-0.3-1.2-0.3c-0.9,0-1.5,0.3-1.9,1c-0.4,0.6-0.6,1.6-0.6,2.8
	c0,0.6,0,1.1,0.1,1.6c0.1,0.5,0.2,0.9,0.4,1.2c0.2,0.3,0.5,0.6,0.8,0.8c0.3,0.2,0.8,0.3,1.3,0.3c0.5,0,0.9-0.1,1.2-0.3
	c0.3-0.2,0.5-0.5,0.5-0.9V140.5L98.8,140.5z M99.9,149.4c-0.3,0-0.5-0.1-0.7-0.3c-0.2-0.2-0.3-0.4-0.3-0.7c-0.2,0.3-0.6,0.6-1.2,0.9
	c-0.6,0.3-1.3,0.5-2.2,0.5c-0.6,0-1.2-0.1-1.8-0.3c-0.6-0.2-1.1-0.5-1.6-1c-0.5-0.5-0.8-1.1-1.1-1.9c-0.3-0.8-0.4-1.8-0.4-2.9
	c0-1.2,0.1-2.2,0.4-3c0.3-0.8,0.6-1.5,1.1-2c0.5-0.5,1-0.9,1.6-1.1c0.6-0.2,1.2-0.4,1.9-0.4c0.8,0,1.4,0.1,1.9,0.4
	c0.5,0.3,0.9,0.5,1.1,0.8v-4.7c0.1,0,0.3-0.1,0.5-0.1c0.2,0,0.4,0,0.6,0c0.3,0,0.5,0,0.8,0.1c0.3,0.1,0.5,0.2,0.7,0.3
	c0.2,0.2,0.4,0.4,0.5,0.6c0.1,0.3,0.2,0.6,0.2,1v13.9H99.9L99.9,149.4z"/>
<path fill="#ED2224" d="M104.2,149.3c-0.3-0.4-0.5-0.8-0.5-1.3c0-0.5,0.2-1,0.5-1.3c0.3-0.3,0.8-0.5,1.3-0.5c0.5,0,1,0.2,1.3,0.5
	c0.3,0.3,0.5,0.8,0.5,1.3c0,0.5-0.2,1-0.5,1.3c-0.3,0.4-0.8,0.5-1.3,0.5C105,149.9,104.6,149.7,104.2,149.3L104.2,149.3z
	 M108.8,137.7c0.1,0,0.2,0,0.4-0.1c0.2,0,0.5,0,0.7,0c0.3,0,0.5,0,0.8,0.1c0.3,0,0.5,0.1,0.7,0.3c0.2,0.1,0.4,0.3,0.5,0.6
	c0.1,0.3,0.2,0.6,0.2,1v10.1c-0.1,0-0.2,0.1-0.4,0.1c-0.2,0-0.5,0-0.7,0c-0.3,0-0.6,0-0.9-0.1c-0.3-0.1-0.5-0.2-0.7-0.3
	c-0.2-0.2-0.3-0.4-0.4-0.6c-0.1-0.3-0.2-0.6-0.2-1V137.7L108.8,137.7z M108.8,135c0-0.5,0.2-1,0.5-1.3c0.3-0.3,0.8-0.5,1.3-0.5
	c0.5,0,0.9,0.2,1.3,0.5c0.4,0.3,0.5,0.8,0.5,1.3c0,0.5-0.2,1-0.5,1.3c-0.4,0.3-0.8,0.5-1.3,0.5c-0.5,0-0.9-0.2-1.3-0.5
	C108.9,136,108.8,135.5,108.8,135L108.8,135z M114.9,148c-0.5-0.6-0.8-1.2-1-2c-0.2-0.8-0.3-1.5-0.3-2.4c0-0.8,0.1-1.6,0.4-2.4
	c0.2-0.8,0.6-1.4,1.1-2c0.5-0.6,1.1-1,1.9-1.4c0.7-0.3,1.6-0.5,2.6-0.5c1,0,1.9,0.2,2.7,0.5c0.7,0.3,1.3,0.8,1.8,1.3
	c0.5,0.6,0.8,1.2,1,2c0.2,0.7,0.3,1.5,0.3,2.4c0,0.8-0.1,1.6-0.3,2.4c-0.2,0.8-0.5,1.4-1,2c-0.5,0.6-1.1,1-1.8,1.4
	c-0.7,0.3-1.7,0.5-2.7,0.5s-2-0.2-2.7-0.5C116,149,115.4,148.6,114.9,148L114.9,148z M118.2,147c0.3,0.2,0.7,0.3,1.2,0.3
	c0.5,0,0.9-0.1,1.2-0.3c0.3-0.2,0.6-0.5,0.8-0.9c0.2-0.4,0.3-0.8,0.4-1.2c0.1-0.4,0.1-0.9,0.1-1.4c0-0.4,0-0.9-0.1-1.3
	c-0.1-0.4-0.2-0.8-0.4-1.2c-0.2-0.3-0.4-0.6-0.7-0.8c-0.3-0.2-0.7-0.3-1.2-0.3c-0.5,0-0.9,0.1-1.2,0.3c-0.3,0.2-0.6,0.5-0.8,0.8
	c-0.2,0.3-0.3,0.7-0.4,1.2c-0.1,0.4-0.1,0.9-0.1,1.3c0,0.4,0,0.9,0.1,1.3c0.1,0.4,0.2,0.9,0.4,1.2
	C117.7,146.5,117.9,146.8,118.2,147L118.2,147z"/>
</svg>
