<?xml version="1.0" encoding="utf-8"?>
<!-- Generator: Adobe Illustrator 18.1.1, SVG Export Plug-In . SVG Version: 6.00 Build 0)  -->
<svg version="1.1" id="Layer_1" xmlns="http://www.w3.org/2000/svg" xmlns:xlink="http://www.w3.org/1999/xlink" x="0px" y="0px"
	 viewBox="0 0 151.8 124.8" enable-background="new 0 0 151.8 124.8" xml:space="preserve">
<path fill-rule="evenodd" clip-rule="evenodd" fill="#CBCBCB" d="M55.2,109.1c13.1,0,24.2,1.6,28.5,3.9v0.2c5.7-0.3,12-0.4,18.6-0.4
	c27.4,0,49.5,2.7,49.5,6c0,3.3-22.2,6-49.5,6c-20.4,0-38-1.5-45.6-3.7c-0.5,0-1,0-1.5,0c-16.8,0-30.4-2.7-30.4-6
	C24.8,111.8,38.4,109.1,55.2,109.1L55.2,109.1z"/>
<path fill-rule="evenodd" clip-rule="evenodd" fill="#010101" d="M52.2,0C61,0,69,2.7,75.6,7.3l7.6-1C85.4,6,88,5.7,90.3,5.8
	c1.6,0.1,3.4,0.4,4.3,1.8c0.9,1.4,0.5,3.1,0,4.5c-0.6,1.8-1.4,3.5-2,5.3l0,0l-3.2,7.9c1.3,3.7,2,7.7,2,11.9c0,7.3-2.2,14.1-7.3,19.6
	c-0.2,0.2-0.3,0.3-0.5,0.5h8.3c3.2-1.7,6.6-3.6,10.1-4.9c3.3-1.2,6.4-1.7,10-0.9c3,0.7,6.7,2.7,8.1,5.7h26.6c1.6,0,2.9,1.3,2.9,2.9
	v56.4c0,1.6-1.3,2.9-2.9,2.9H66.3c-1.6,0-2.9-1.3-2.9-2.9v-0.4c-2.6-0.4-4.7-2.4-4.5-5.1c0.1-0.9,0.2-1.7,0.5-2.4l-2.1-7.2
	c-2.5,0.4-5,0.2-7.5-0.1v7.3c0.5,0.7,0.9,1.5,1.2,2.4c1.1,3-0.9,5.2-3.8,5.2l-13.9,0c-0.6,0-1.2,0-1.8-0.1c-2.4-0.5-3.5-2.5-2.7-4.9
	c0.7-2,2-3.7,3.6-4.9l-0.7-3.7c-0.7,0.6-1.4,1.1-2.2,1.6c-4.4,2.8-9.7,3.8-14.8,2.7c-5.1-1.1-9.6-4.2-12.4-8.6
	c-0.5-0.7-0.9-1.5-1.3-2.3c-1.6-3.3-1.6-6.8,1.8-8.9c2.9-1.9,6.8-1,8.6,1.9c0.4,0.6,0.7,1.3,0.9,2c0.1,0.5,0.3,1.2,0.6,1.7
	c2,3.2,5.7,4.7,9.2,4.3c-2.4-2.9-2.6-6.9-2-10.5c0.8-5.1,2.3-9.9,4.2-14.7c1-2.7,1.9-4.9,3.8-7.1c0.4-0.5,0.8-0.9,1.2-1.3
	c-3.3-1.7-6.3-3.8-8.8-6.6C15.2,51.3,13,44.5,13,37.2c0-4.2,0.7-8.2,2-11.9l-3.2-7.9l0,0c-0.7-1.8-1.4-3.5-2-5.3
	c-0.5-1.4-0.9-3.1,0-4.5c0.9-1.4,2.7-1.8,4.3-1.8C16.4,5.7,19,6,21.3,6.3l7.6,1C35.4,2.7,43.5,0,52.2,0L52.2,0z"/>
<path fill-rule="evenodd" clip-rule="evenodd" fill="#FFFFFF" d="M11,93.9c2.9,4.5,8.3,6.3,13.1,5c2.4,1.6,5,1.8,7,0.4l0.2,0.8
	c-0.9,0.9-1.8,1.6-2.9,2.3c-8.1,5.2-18.9,2.9-24.2-5.2c-1.6-2.4-3.4-6.1-0.2-8.1c1.9-1.2,4.3-0.7,5.5,1.2
	C10.3,91.4,10.2,92.7,11,93.9L11,93.9z M111.4,53.9c4.5,1.1,7.5,4.2,6.9,6.9c-0.7,2.8-4.8,4.1-9.3,3c-3.1-0.8-5.5-2.5-6.5-4.5
	c-0.7-1.4,0.3-2.4-1.8-2.3l-3.8,0.2c3-1.1,6.7-3.2,9.9-3.7h0l0,0C108.2,53.5,109.8,53.5,111.4,53.9L111.4,53.9z M30.6,97
	c-1.9,2.3-5,1.3-7-1.2c-2.3-2.8-1.9-6.8-1.6-9c0.5-3.4,1.4-6.6,2.5-10l5.7,1.5l-1,9.3c-0.2,2.3-0.4,3.5,0.4,4.3L30.6,97L30.6,97z
	 M63.4,114c-0.9,0-2.2-0.4-2.1-2.1c0.1-0.8,0.3-1.6,0.7-2.3l-2.6-9.1c1.1-0.6,2-1.4,2.5-2.4c-2.3,0.9-5.1,1.4-7.6,1.4h-1.8
	c-2.9-0.2-5.6-0.8-7.8-1.8c0.5,1.1,1.6,2,2.9,2.7v9.1c0.6,0.7,1,1.5,1.3,2.3c0.7,1.9-0.9,2.1-1.7,2.1l-13.9,0c-0.7,0-3,0.1-2.3-2
	c0.3-0.9,0.8-1.8,1.5-2.6c1.4-1.7,3.1-2.5,5.2-2.8c2.8-0.4,6.1,0.1,7.9,1.5c-2.1-2.5-7.1-3.3-11-2.2l-2.5-13c0.1,0,0.3,0,0.4,0.1
	c6.5,1,13,1.7,19.7,1.7c3.8,0,7.5-0.2,11.2-0.6V114L63.4,114z"/>
<path fill-rule="evenodd" clip-rule="evenodd" fill="#E4E4E4" d="M20.3,105.1c-6.2,0.5-12.5-2.3-16.1-7.9c-1.6-2.4-3.4-6.1-0.2-8.1
	c1.1-0.7,2.5-0.8,3.6-0.4c-0.3,0.1-0.5,0.2-0.7,0.4c-3.2,2.1-1.4,5.7,0.2,8.1C10.1,101.9,15.1,104.7,20.3,105.1L20.3,105.1z
	 M29.4,97.9c-1.8,0.8-4.2-0.2-5.8-2.2c-2.3-2.8-1.9-6.8-1.6-9c0.5-3.4,1.4-6.6,2.5-10l2.6,0.7c-1,3.1-1.8,6.2-2.3,9.3
	c-0.3,2.2-0.7,6.2,1.6,9C27.3,96.8,28.4,97.5,29.4,97.9L29.4,97.9z M47.4,114c-0.1,0-0.1,0-0.2,0l-13.9,0c-0.7,0-3,0.1-2.3-2
	c0.3-0.9,0.8-1.8,1.5-2.6c1.4-1.7,3.1-2.5,5.2-2.8c1.1-0.2,2.3-0.2,3.5-0.1c-0.2,0-0.4,0-0.6,0.1c-2.1,0.3-3.8,1.1-5.2,2.8
	c-0.7,0.8-1.2,1.6-1.5,2.6c-0.7,2.1,1.6,2,2.3,2L47.4,114L47.4,114z M37.4,105.4c-1,0-1.9,0.2-2.8,0.4L33,97.5l-0.9-4.6
	c0.8,0.1,2.2,0.3,3,0.4L37.4,105.4L37.4,105.4z"/>
<path fill-rule="evenodd" clip-rule="evenodd" fill="#188ECE" d="M30.4,76.6l-5.4-1.4c0.3-0.9,0.6-1.8,1-2.7
	c0.6-1.6,1.9-5.8,5.1-8.2c0.6,0.3,1.2,0.5,1.8,0.7c-1.1,2.6-1.9,5.3-2.2,8.2L30.4,76.6L30.4,76.6z M31.6,87.1L33,73.5
	c0.3-2.7,1-5.3,2.1-7.7c5.5,1.8,11.4,2.5,17.1,2.5c3.7,0,7.5-0.3,11.2-1v24.4c-10.1,1-18.4,0.7-29.6-0.9
	C32,90.6,31.3,90.3,31.6,87.1L31.6,87.1z"/>
<path fill-rule="evenodd" clip-rule="evenodd" fill="#004F7E" d="M30.4,76.6l-5.4-1.4c0.3-0.9,0.6-1.8,1-2.7
	c0.6-1.6,1.9-5.8,5.1-8.2c0.6,0.3,1.2,0.5,1.8,0.7c-1.1,2.6-1.9,5.3-2.2,8.2L30.4,76.6L30.4,76.6z M31.6,87.1L33,73.5
	c0.3-2.7,1-5.3,2.1-7.7c1.7,0.6,3.5,1,5.3,1.4c-1,4.2-1.6,8.7-1.6,13.4c0,3.8,0.4,7.5,1.1,11c-1.9-0.2-3.9-0.5-6.1-0.8
	C32,90.6,31.3,90.3,31.6,87.1L31.6,87.1z"/>
<path fill-rule="evenodd" clip-rule="evenodd" fill="#FFFFFF" d="M52.2,2.2c8.2,0,15.8,2.6,21.9,6.9L78,8.8l5.4-0.7
	c12.9-1.7,10.4,0.6,7.3,8.7l-2.4,6c-1.2-2.8-2.8-5.4-4.7-7.8c0.2-0.2,0.3-0.4,0.5-0.6c2.4-2.6,5.2-4.4,8-5.3
	c-2.9-0.4-6.5,1.1-9.3,4.1c-0.6,0.6-1.3,1.5-1.7,2.4c4.9,6,7.9,13.5,7.9,21.6c0,8.6-3.3,15.3-8.8,20.1h-14c-1.6,0-2.9,1.3-2.9,2.9
	v4.9c-3.5,0.7-7.3,1.1-11.2,1.1c-20.3,0-36.9-9.5-36.9-28.9c0-8.2,3-15.8,8-21.8l0,0c-0.6-0.8-1.1-1.6-1.8-2.3
	c-2.8-3-6.4-4.5-9.3-4.1c2.8,0.9,5.6,2.7,8,5.3c0.2,0.2,0.4,0.4,0.5,0.6c-1.9,2.4-3.5,5-4.7,7.8l-2.4-6c-3-8.1-5.6-10.4,7.3-8.7
	l5.2,0.7l4.1,0.3C36.5,4.8,44,2.2,52.2,2.2L52.2,2.2z"/>
<path fill-rule="evenodd" clip-rule="evenodd" fill="#E4E4E4" d="M39.3,64.7c-14-3.3-23.9-12.4-23.9-27.4c0-8.2,3-15.8,8-21.8
	c-0.6-0.8-1.1-1.6-1.8-2.3c-2.8-3-6.4-4.5-9.3-4.1c2.8,0.9,5.6,2.7,8,5.3c0.2,0.2,0.4,0.4,0.5,0.6c-1.9,2.4-3.5,5-4.7,7.8l-2.4-6
	c-3-8.1-5.6-10.4,7.3-8.7l5.2,0.7l4.1,0.3c3.9-2.7,8.3-4.7,13.2-5.9C30.4,8.9,21.2,22.1,21.2,37.4C21.2,51.1,28.4,60.1,39.3,64.7
	L39.3,64.7z"/>
<path fill="#FFFFFF" d="M36.1,75.1c0.1,0,0.1,0.1,0.2,0.1c0.1,0,0.2,0.1,0.3,0.1c0.1,0,0.2,0,0.3,0c0.1,0,0.1,0,0.2,0
	c0.1,0,0.1,0,0.2-0.1c0,0,0.1-0.1,0.1-0.1c0,0,0.1-0.1,0.1-0.2c0-0.1-0.1-0.2-0.2-0.3c-0.1-0.1-0.3-0.1-0.5-0.2
	c-0.1,0-0.3-0.1-0.4-0.1c-0.1,0-0.2-0.1-0.3-0.2c-0.1-0.1-0.2-0.2-0.2-0.3c-0.1-0.1-0.1-0.3-0.1-0.4c0-0.2,0-0.3,0.1-0.4
	c0.1-0.1,0.2-0.2,0.3-0.3c0.1-0.1,0.3-0.2,0.4-0.2c0.2,0,0.3-0.1,0.5-0.1c0.2,0,0.4,0,0.5,0c0.1,0,0.3,0.1,0.4,0.1
	c0.2,0.1,0.3,0.2,0.3,0.3c0,0.1,0,0.2-0.1,0.3c0,0.1-0.1,0.2-0.1,0.3c0,0-0.1-0.1-0.2-0.1c-0.1,0-0.1-0.1-0.2-0.1
	c-0.1,0-0.2-0.1-0.3-0.1c-0.1,0-0.2,0-0.3,0c-0.1,0-0.1,0-0.2,0c-0.1,0-0.1,0-0.2,0c0,0-0.1,0.1-0.1,0.1c0,0,0,0.1,0,0.2
	c0,0.2,0.2,0.3,0.5,0.4c0.1,0,0.3,0.1,0.4,0.1c0.1,0,0.3,0.1,0.4,0.2c0.1,0.1,0.2,0.2,0.3,0.3c0.1,0.1,0.1,0.3,0.1,0.5
	c0,0.2,0,0.4-0.1,0.5c-0.1,0.1-0.2,0.3-0.3,0.4c-0.1,0.1-0.3,0.2-0.5,0.2c-0.2,0.1-0.4,0.1-0.6,0.1c-0.2,0-0.4,0-0.5,0
	c-0.1,0-0.3-0.1-0.4-0.1c-0.1,0-0.1-0.1-0.2-0.1c-0.1-0.1-0.1-0.1-0.1-0.2c0-0.1,0-0.2,0.1-0.3c0-0.1,0.1-0.2,0.2-0.3
	C36,75,36,75,36.1,75.1L36.1,75.1z M39.1,71.3c0.3,0,0.5,0.2,0.5,0.5c0,0.3-0.2,0.5-0.5,0.5c-0.3,0-0.5-0.2-0.5-0.5
	C38.6,71.5,38.8,71.3,39.1,71.3L39.1,71.3z M62.8,75.8c-0.1-0.1-0.1-0.2-0.1-0.4s0-0.3,0.1-0.4c0.1-0.1,0.2-0.1,0.4-0.1
	c0.1,0,0.2,0,0.2,0v1c-0.1,0-0.1,0-0.2,0C63,76,62.9,75.9,62.8,75.8L62.8,75.8z M48.7,72.5C48.7,72.5,48.7,72.5,48.7,72.5
	c0.1,0,0.1,0,0.2,0c0,0,0.1,0,0.1,0c0.2,0,0.3,0,0.4,0.1c0.1,0.1,0.2,0.1,0.2,0.3c0.1-0.1,0.2-0.2,0.4-0.3c0.2-0.1,0.4-0.1,0.6-0.1
	c0.2,0,0.3,0,0.5,0.1c0.2,0.1,0.3,0.2,0.4,0.3c0.1,0.1,0.2,0.3,0.3,0.5c0.1,0.2,0.1,0.5,0.1,0.8c0,0.4,0,0.7-0.1,0.9
	c-0.1,0.2-0.2,0.4-0.3,0.6c-0.1,0.1-0.3,0.2-0.5,0.3c-0.2,0.1-0.3,0.1-0.5,0.1c-0.1,0-0.3,0-0.4,0c-0.1,0-0.2-0.1-0.3-0.1
	c-0.1,0-0.1-0.1-0.2-0.1c0,0-0.1-0.1-0.1-0.1v1.1h-1V72.5L48.7,72.5z M49.6,75c0,0,0.1,0.1,0.2,0.1c0.1,0.1,0.2,0.1,0.3,0.1
	c0.2,0,0.4-0.1,0.5-0.3c0.1-0.2,0.2-0.5,0.2-0.8c0-0.1,0-0.3,0-0.4c0-0.1-0.1-0.2-0.1-0.3c-0.1-0.1-0.1-0.2-0.2-0.2
	c-0.1,0-0.2-0.1-0.3-0.1c-0.2,0-0.3,0-0.4,0.1c-0.1,0.1-0.1,0.2-0.1,0.2V75L49.6,75z M53.2,74.3c0,0.3,0.1,0.5,0.2,0.6
	c0.1,0.2,0.4,0.3,0.7,0.3c0.1,0,0.2,0,0.3,0c0.1,0,0.2-0.1,0.2-0.1c0.1,0,0.1-0.1,0.2-0.1c0.1,0,0.1-0.1,0.1-0.1
	c0.1,0.1,0.1,0.2,0.2,0.3c0.1,0.1,0.1,0.2,0.1,0.3c0,0.1-0.1,0.2-0.2,0.3c-0.1,0.1-0.2,0.1-0.4,0.2C54.5,75.9,54.3,76,54,76
	c-0.2,0-0.4,0-0.7-0.1c-0.2-0.1-0.4-0.2-0.6-0.3c-0.2-0.1-0.3-0.3-0.4-0.6c-0.1-0.2-0.2-0.5-0.2-0.9c0-0.3,0-0.6,0.1-0.8
	c0.1-0.2,0.2-0.4,0.4-0.5c0.2-0.1,0.3-0.2,0.5-0.3c0.2-0.1,0.4-0.1,0.6-0.1c0.3,0,0.5,0,0.7,0.1c0.2,0.1,0.3,0.2,0.5,0.3
	c0.1,0.1,0.2,0.3,0.3,0.5c0.1,0.2,0.1,0.4,0.1,0.6c0,0,0,0.1,0,0.1c0,0,0,0.1,0,0.1c0,0,0,0.1,0,0.1c0,0,0,0.1,0,0.1H53.2L53.2,74.3
	z M54.4,73.8c0-0.2,0-0.4-0.1-0.6c-0.1-0.1-0.2-0.2-0.5-0.2c-0.2,0-0.3,0.1-0.5,0.2c-0.1,0.1-0.2,0.3-0.2,0.6H54.4L54.4,73.8z
	 M56.6,74.3c0,0.3,0.1,0.5,0.2,0.6c0.1,0.2,0.4,0.3,0.7,0.3c0.1,0,0.2,0,0.3,0c0.1,0,0.2-0.1,0.2-0.1c0.1,0,0.1-0.1,0.2-0.1
	c0.1,0,0.1-0.1,0.1-0.1c0.1,0.1,0.1,0.2,0.2,0.3c0.1,0.1,0.1,0.2,0.1,0.3c0,0.1-0.1,0.2-0.2,0.3c-0.1,0.1-0.2,0.1-0.4,0.2
	c-0.2,0.1-0.4,0.1-0.6,0.1c-0.2,0-0.4,0-0.7-0.1c-0.2-0.1-0.4-0.2-0.6-0.3c-0.2-0.1-0.3-0.3-0.4-0.6c-0.1-0.2-0.2-0.5-0.2-0.9
	c0-0.3,0-0.6,0.1-0.8c0.1-0.2,0.2-0.4,0.4-0.5c0.2-0.1,0.3-0.2,0.5-0.3c0.2-0.1,0.4-0.1,0.6-0.1c0.3,0,0.5,0,0.7,0.1
	s0.3,0.2,0.5,0.3c0.1,0.1,0.2,0.3,0.3,0.5c0.1,0.2,0.1,0.4,0.1,0.6c0,0,0,0.1,0,0.1c0,0,0,0.1,0,0.1c0,0,0,0.1,0,0.1
	c0,0,0,0.1,0,0.1H56.6L56.6,74.3z M57.8,73.8c0-0.2,0-0.4-0.1-0.6c-0.1-0.1-0.2-0.2-0.5-0.2c-0.2,0-0.3,0.1-0.5,0.2
	c-0.1,0.1-0.2,0.3-0.2,0.6H57.8L57.8,73.8z M61.3,73.3c0,0-0.1-0.1-0.2-0.1c-0.1-0.1-0.2-0.1-0.3-0.1c-0.2,0-0.4,0.1-0.5,0.3
	c-0.1,0.2-0.2,0.4-0.2,0.8c0,0.2,0,0.3,0,0.5c0,0.1,0.1,0.2,0.1,0.3c0.1,0.1,0.1,0.2,0.2,0.2c0.1,0.1,0.2,0.1,0.4,0.1
	c0.1,0,0.3,0,0.4-0.1c0.1-0.1,0.1-0.1,0.1-0.2V73.3L61.3,73.3z M61.6,75.9c-0.1,0-0.1,0-0.2-0.1c0-0.1-0.1-0.1-0.1-0.2
	c-0.1,0.1-0.2,0.2-0.3,0.2c-0.2,0.1-0.4,0.1-0.6,0.1c-0.2,0-0.3,0-0.5-0.1c-0.2-0.1-0.3-0.2-0.4-0.3c-0.1-0.1-0.2-0.3-0.3-0.5
	c-0.1-0.2-0.1-0.5-0.1-0.8c0-0.3,0-0.6,0.1-0.8c0.1-0.2,0.2-0.4,0.3-0.6c0.1-0.1,0.3-0.2,0.4-0.3c0.2-0.1,0.3-0.1,0.5-0.1
	c0.2,0,0.4,0,0.5,0.1c0.1,0.1,0.2,0.1,0.3,0.2v-1.3c0,0,0.1,0,0.1,0c0.1,0,0.1,0,0.2,0c0.1,0,0.2,0,0.2,0c0.1,0,0.1,0,0.2,0.1
	c0.1,0,0.1,0.1,0.1,0.2c0,0.1,0.1,0.2,0.1,0.3v3.9H61.6L61.6,75.9z M46.1,75.1c0.1,0,0.1,0.1,0.2,0.1c0.1,0,0.2,0.1,0.3,0.1
	c0.1,0,0.2,0,0.3,0c0.1,0,0.1,0,0.2,0c0.1,0,0.1,0,0.2-0.1c0,0,0.1-0.1,0.1-0.1c0,0,0-0.1,0-0.2c0-0.1-0.1-0.2-0.2-0.3
	c-0.1-0.1-0.3-0.1-0.5-0.2c-0.1,0-0.3-0.1-0.4-0.1c-0.1,0-0.2-0.1-0.3-0.2c-0.1-0.1-0.2-0.2-0.2-0.3c-0.1-0.1-0.1-0.3-0.1-0.4
	c0-0.2,0-0.3,0.1-0.4c0.1-0.1,0.2-0.2,0.3-0.3c0.1-0.1,0.3-0.2,0.4-0.2c0.2,0,0.3-0.1,0.5-0.1c0.2,0,0.4,0,0.5,0
	c0.1,0,0.3,0.1,0.4,0.1c0.2,0.1,0.3,0.2,0.3,0.3c0,0.1,0,0.2-0.1,0.3c0,0.1-0.1,0.2-0.1,0.3c0,0-0.1-0.1-0.2-0.1
	c-0.1,0-0.1-0.1-0.2-0.1c-0.1,0-0.2-0.1-0.3-0.1c-0.1,0-0.2,0-0.3,0c-0.1,0-0.1,0-0.2,0c-0.1,0-0.1,0-0.2,0c0,0-0.1,0.1-0.1,0.1
	c0,0,0,0.1,0,0.2c0,0.2,0.2,0.3,0.5,0.4c0.1,0,0.3,0.1,0.4,0.1c0.1,0,0.3,0.1,0.4,0.2c0.1,0.1,0.2,0.2,0.3,0.3
	c0.1,0.1,0.1,0.3,0.1,0.5c0,0.2,0,0.4-0.1,0.5c-0.1,0.1-0.2,0.3-0.3,0.4c-0.1,0.1-0.3,0.2-0.5,0.2c-0.2,0.1-0.4,0.1-0.6,0.1
	c-0.2,0-0.4,0-0.5,0c-0.1,0-0.3-0.1-0.4-0.1c-0.1,0-0.1-0.1-0.2-0.1c-0.1-0.1-0.1-0.1-0.1-0.2c0-0.1,0-0.2,0.1-0.3
	c0-0.1,0.1-0.2,0.2-0.3C46,75,46,75,46.1,75.1L46.1,75.1z M38.7,72.5c0,0,0.1,0,0.1,0c0.1,0,0.1,0,0.2,0c0.1,0,0.2,0,0.2,0
	c0.1,0,0.1,0,0.2,0.1c0.1,0,0.1,0.1,0.1,0.2c0,0.1,0.1,0.2,0.1,0.3v2.9c0,0-0.1,0-0.1,0c-0.1,0-0.1,0-0.2,0c-0.1,0-0.2,0-0.3,0
	c-0.1,0-0.1,0-0.2-0.1c-0.1,0-0.1-0.1-0.1-0.2c0-0.1,0-0.2,0-0.3V72.5L38.7,72.5z M40.1,71.4c0,0,0.1,0,0.1,0c0,0,0.1,0,0.1,0
	c0,0,0.1,0,0.1,0c0.1,0,0.2,0,0.2,0c0.1,0,0.1,0,0.2,0.1c0.1,0,0.1,0.1,0.1,0.2c0,0.1,0.1,0.2,0.1,0.3v0.5h1v0.7h-1v1.5
	c0,0.3,0.1,0.5,0.4,0.5c0.1,0,0.1,0,0.2,0c0.1,0,0.1,0,0.2-0.1c0,0,0.1-0.1,0.1-0.1c0,0,0.1,0,0.1-0.1c0.1,0.1,0.1,0.2,0.2,0.3
	c0,0.1,0.1,0.1,0.1,0.2c0,0.1,0,0.1-0.1,0.2c0,0.1-0.1,0.1-0.2,0.2c-0.1,0-0.2,0.1-0.3,0.1c-0.1,0-0.3,0-0.4,0
	c-0.3,0-0.5-0.1-0.7-0.2c-0.2-0.1-0.3-0.3-0.3-0.4c0-0.1-0.1-0.2-0.1-0.3c0-0.1,0-0.2,0-0.3V71.4L40.1,71.4z M43.3,74.3
	c0,0.3,0.1,0.5,0.2,0.6c0.1,0.2,0.4,0.3,0.7,0.3c0.1,0,0.2,0,0.3,0c0.1,0,0.2-0.1,0.2-0.1c0.1,0,0.1-0.1,0.2-0.1
	c0.1,0,0.1-0.1,0.1-0.1c0.1,0.1,0.1,0.2,0.2,0.3c0.1,0.1,0.1,0.2,0.1,0.3c0,0.1-0.1,0.2-0.2,0.3c-0.1,0.1-0.2,0.1-0.4,0.2
	c-0.2,0.1-0.4,0.1-0.6,0.1c-0.2,0-0.4,0-0.7-0.1c-0.2-0.1-0.4-0.2-0.6-0.3c-0.2-0.1-0.3-0.3-0.4-0.6c-0.1-0.2-0.2-0.5-0.2-0.9
	c0-0.3,0-0.6,0.1-0.8c0.1-0.2,0.2-0.4,0.4-0.5c0.2-0.1,0.3-0.2,0.5-0.3c0.2-0.1,0.4-0.1,0.6-0.1c0.3,0,0.5,0,0.7,0.1
	c0.2,0.1,0.3,0.2,0.5,0.3c0.1,0.1,0.2,0.3,0.3,0.5c0.1,0.2,0.1,0.4,0.1,0.6c0,0,0,0.1,0,0.1c0,0,0,0.1,0,0.1c0,0,0,0.1,0,0.1
	c0,0,0,0.1,0,0.1H43.3L43.3,74.3z M44.5,73.8c0-0.2,0-0.4-0.1-0.6c-0.1-0.1-0.2-0.2-0.5-0.2c-0.2,0-0.3,0.1-0.5,0.2
	c-0.1,0.1-0.2,0.3-0.2,0.6H44.5L44.5,73.8z"/>
<path fill-rule="evenodd" clip-rule="evenodd" fill="#010101" d="M53.1,44.9c1.2-0.9,2.4-0.7,2.8-1.4c0.3-0.4,0.2-0.9-0.2-1.3
	c-1.1-1.3-6.1-1.3-7.2,0c-0.3,0.4-0.4,0.8-0.2,1.3c0.5,0.7,1.7,0.4,3,1.5c0.3,0.3,0.3,0.4,0.3,0.8v0.6c0,0.1,0,0.2,0,0.4
	c0,0.4,0,0.6-0.2,0.9c-0.2,0.3-0.6,0.6-1.2,0.9c-3.1,1.7-6.1,0.4-8.8-1.1c-1.5-0.9-1.7-0.5-0.5,0.6c3.1,2.9,5.8,6.8,11.1,6.8
	c5.4,0,8.1-3.8,11.1-6.8c1-1,1.2-1.6-0.5-0.6c-2.6,1.5-5.7,2.8-8.7,1.1c0,0,0,0,0,0c-0.5-0.3-0.9-0.6-1.2-0.9
	c-0.2-0.3-0.3-0.6-0.3-0.9c0-0.1,0-0.2,0-0.4v-0.6C52.7,45.3,52.7,45.2,53.1,44.9L53.1,44.9z M37.1,29.8c1.5,0,2.9,0.6,3.8,1.6
	c-0.3-0.1-0.5-0.2-0.9-0.2c-0.9,0-1.7,0.7-1.7,1.6c0,0.9,0.8,1.6,1.7,1.6c0.9,0,1.7-0.7,1.7-1.6c0-0.1,0-0.2,0-0.3
	c0.4,0.7,0.6,1.5,0.6,2.4c0,2.8-2.4,5-5.2,5c-2.9,0-5.2-2.2-5.2-5C31.9,32.1,34.2,29.8,37.1,29.8L37.1,29.8z M68.7,29.8
	c1.5,0,2.9,0.6,3.8,1.6c-0.3-0.1-0.5-0.2-0.9-0.2c-0.9,0-1.7,0.7-1.7,1.6c0,0.9,0.8,1.6,1.7,1.6c0.9,0,1.7-0.7,1.7-1.6
	c0-0.1,0-0.2,0-0.3c0.4,0.7,0.6,1.5,0.6,2.4c0,2.8-2.3,5-5.2,5c-2.9,0-5.2-2.2-5.2-5C63.4,32.1,65.8,29.8,68.7,29.8L68.7,29.8z"/>
<path fill-rule="evenodd" clip-rule="evenodd" fill="#F58220" d="M47.1,52.1c1.4,1.1,3.4,1.6,5.2,1.6c1.8,0,3.8-0.5,5.2-1.6
	C56,51,54,50.5,52.2,50.5C50.4,50.5,48.4,51,47.1,52.1L47.1,52.1z"/>
<path fill="#BDBEC0" d="M12.3,9.1c2.8,0.9,5.6,2.7,8,5.3c0.2,0.2,0.4,0.4,0.5,0.6c-1.1,1.4-2,2.8-2.9,4.3
	C16.8,15.6,15.5,12.2,12.3,9.1L12.3,9.1z"/>
<polygon fill-rule="evenodd" clip-rule="evenodd" fill="#F5EB22" points="103,99.5 115.8,91.4 128.5,99.5 140.2,89.3 140.2,91.5 
	128.7,101.5 115.8,93.3 102.9,101.5 87.2,89.2 73.8,100.8 73.8,98.7 87.1,87.1 103,99.5 "/>
<polygon fill-rule="evenodd" clip-rule="evenodd" fill="#E84125" points="93.5,99.1 114.2,84.3 126.8,92 140.2,75.5 140.2,78.1 
	127.2,94.1 114.3,86.3 93.5,101.1 87.7,96.5 73.8,103 73.8,101.2 87.9,94.6 93.5,99.1 "/>
<polygon fill-rule="evenodd" clip-rule="evenodd" fill="#3188C8" points="103,79.9 115.8,70.9 128.5,78.2 140.2,67.3 140.2,69.5 
	128.7,80.2 115.8,72.8 102.9,81.9 87.2,70.6 73.8,83 73.8,80.9 87.1,68.5 103,79.9 "/>
<polygon fill-rule="evenodd" clip-rule="evenodd" fill="#FFFFFF" points="74.3,111.4 140.1,111.4 140.1,112.9 72.8,112.9 72.8,63.9 
	74.3,63.9 74.3,111.4 "/>
</svg>
