<?xml version="1.0" encoding="utf-8"?>
<!-- Generator: Adobe Illustrator 18.1.1, SVG Export Plug-In . SVG Version: 6.00 Build 0)  -->
<svg version="1.1" id="Layer_1" xmlns="http://www.w3.org/2000/svg" xmlns:xlink="http://www.w3.org/1999/xlink" x="0px" y="0px"
	 viewBox="0 0 119.5 126.6" enable-background="new 0 0 119.5 126.6" xml:space="preserve">
<path fill-rule="evenodd" clip-rule="evenodd" fill="#CBCBCB" d="M55.2,109.1c16.8,0,30.4,2.7,30.4,6s-13.6,6-30.4,6
	s-30.4-2.7-30.4-6S38.4,109.1,55.2,109.1L55.2,109.1z"/>
<path fill-rule="evenodd" clip-rule="evenodd" fill="#CBCBCB" d="M102.1,119.8c9.5,0,17.2,1.5,17.2,3.4c0,1.9-7.7,3.4-17.2,3.4
	c-9.5,0-17.2-1.5-17.2-3.4C84.9,121.3,92.6,119.8,102.1,119.8L102.1,119.8z"/>
<path fill-rule="evenodd" clip-rule="evenodd" fill="#010101" d="M52.2,0C61,0,69,2.7,75.6,7.3l7.6-1C85.4,6,88,5.7,90.3,5.8
	c1.6,0.1,3.4,0.4,4.3,1.8c0.9,1.4,0.5,3.1,0,4.5c-0.6,1.8-1.4,3.5-2,5.3l0,0l-3.2,7.9c0.1,0.3,0.2,0.6,0.3,0.9
	c0.9,0.4,1.7,0.9,2.4,1.5l3.1-14.8l2.9,5.3l6.3-14.4l-5.3,26.6l-2.5-3.5l-0.8,5.5c0.8,1.6,1.2,3.5,1.2,5.4c0,5.4-3.4,10.1-8.2,11.9
	c-1.2,2.5-2.7,4.9-4.8,7.1c-2.5,2.7-5.5,4.9-8.8,6.6c0.4,0.4,0.8,0.8,1.2,1.3c1.9,2.2,2.7,4.5,3.8,7.1c1.8,4.8,3.4,9.7,4.2,14.7
	c0.3,2.1,0.4,4.4-0.1,6.5l6.9,3.5c3.1-3.2,7.3-5.1,11.9-5.1c9.1,0,16.4,7.3,16.4,16.4c0,9.1-7.3,16.4-16.4,16.4
	c-9.1,0-16.4-7.3-16.4-16.4c0-1.9,0.3-3.8,1-5.6l-7-3.6c-1.7,1.3-3.5,1.8-5.2,1.5l0.6,6.2c2,1.2,3.7,2.9,5,4.9
	c1.5,2.3,0.9,4.3-1.3,4.9c-0.6,0.1-1.1,0.1-1.7,0.1l-13.9,0c-2.9,0-5.5-2.1-5.3-5.2c0.1-0.9,0.2-1.7,0.5-2.4l-2.1-7.2
	c-1.4,0.2-2.8,0.3-4.2,0.3c-1.1,0-2.3-0.1-3.4-0.2v7.2c0.5,0.7,0.9,1.5,1.2,2.4c1.1,3-0.9,5.2-3.8,5.2l-13.9,0c-0.6,0-1.2,0-1.8-0.1
	c-2.4-0.5-3.5-2.5-2.7-4.9c0.7-2,2-3.7,3.6-4.9l-0.7-3.7c-0.7,0.6-1.4,1.1-2.2,1.6c-4.4,2.8-9.7,3.8-14.8,2.7
	c-5.1-1.1-9.6-4.2-12.4-8.6c-0.5-0.7-0.9-1.5-1.3-2.3c-1.6-3.3-1.6-6.8,1.8-8.9c2.9-1.9,6.8-1,8.6,1.9c0.4,0.6,0.7,1.3,0.9,2
	c0.1,0.5,0.3,1.2,0.6,1.7c2,3.2,5.7,4.7,9.2,4.3c-2.4-2.9-2.6-6.9-2-10.5c0.8-5.1,2.3-9.9,4.2-14.7c1-2.7,1.9-4.9,3.8-7.1
	c0.4-0.5,0.8-0.9,1.2-1.3c-3.3-1.7-6.3-3.8-8.8-6.6c-2-2.2-3.6-4.6-4.8-7.1c-4.8-1.8-8.2-6.5-8.2-11.9c0-1.9,0.4-3.8,1.2-5.4
	l-0.8-5.5l-2.5,3.5L0,3.8l6.3,14.4l2.9-5.3l3.1,14.8c0.7-0.6,1.5-1.1,2.4-1.5c0.1-0.3,0.2-0.6,0.3-0.9l-3.2-7.9l0,0
	c-0.7-1.8-1.4-3.5-2-5.3C9.4,10.7,9,9,9.9,7.7c0.9-1.4,2.7-1.8,4.3-1.8C16.4,5.7,19,6,21.3,6.3l7.6,1C35.4,2.7,43.5,0,52.2,0L52.2,0
	z M112.7,107.9c0-5.3-4.3-9.6-9.6-9.6c-5.3,0-9.6,4.3-9.6,9.6c0,5.3,4.3,9.6,9.6,9.6C108.4,117.4,112.7,113.2,112.7,107.9
	L112.7,107.9z"/>
<path fill-rule="evenodd" clip-rule="evenodd" fill="#FEC909" d="M90.4,28.7c3,2,4.9,5.3,4.9,9.1c0,4-2.2,7.6-5.4,9.4
	c1.1-3.2,1.6-6.5,1.6-10C91.4,34.3,91.1,31.4,90.4,28.7L90.4,28.7z M94.9,30.7l1.1-6.9l2.6,3.7l3.6-16.4l-3.9,9.8l-2.6-4.7
	l-2.6,12.3C93.8,29.2,94.4,29.9,94.9,30.7L94.9,30.7z"/>
<path fill-rule="evenodd" clip-rule="evenodd" fill="#FFFFFF" d="M30.6,97c-1.9,2.3-5,1.3-7-1.2c-2.3-2.8-1.9-6.8-1.6-9
	c0.5-3.4,1.4-6.6,2.5-10l5.8,1.5l-1,9.3c-0.2,2.3-0.4,3.5,0.4,4.3L30.6,97L30.6,97z M75.3,98c1,0.4,2.2,0.2,3.3-0.4L77.5,97
	c-0.5,0.6-0.9,0.9-1.2,0.8c-0.5-0.2-0.7-2,0.6-4.6c1.3-2.6,2.8-3.4,3.2-3.1c0.2,0.1,0.2,0.4,0.2,0.9l2.1,1.1c0.4-2,0.2-4,0-5.3
	c-0.5-3.4-1.4-6.6-2.5-10l-5.8,1.5l1,9.8c0.2,2,0,3.1-0.5,3.7L75.3,98L75.3,98z M32.2,92.8l2.5,13c3.8-1,8.8-0.3,11,2.2
	c-1.8-1.5-5.3-1.9-8.2-1.4c-1.8,0.3-3.1,0.9-4.3,2.2c-0.9,0.9-1.6,2-2,3.1c-0.7,2.1,1.6,2,2.3,2l13.9,0c0.8,0,2.4-0.2,1.7-2.1
	c-0.3-0.8-0.8-1.6-1.3-2.3v-9.1c-1.4-0.7-2.4-1.7-2.9-2.7c3.1,1.4,6.3,1.8,9.6,1.8c2.5,0,5.2-0.5,7.6-1.4c-0.5,0.9-1.3,1.7-2.5,2.4
	l2.6,9.1c-0.4,0.7-0.6,1.5-0.7,2.3c-0.1,1.9,1.5,2.1,2.3,2.1l13.9,0c0.7,0,3,0.1,1.7-2c-0.8-1.3-2-2.5-3.3-3.4
	c-1.4-0.9-2.8-1.7-4.5-1.9c-2.3-0.4-4.9-0.1-6.3,1.1c1.8-2.1,5.6-2.6,8.7-1.8l-1.3-13c-0.2,0-0.3,0.1-0.5,0.1
	c-6.5,1-13.1,1.7-19.7,1.7c-6.6,0-13.1-0.7-19.7-1.7C32.4,92.9,32.3,92.9,32.2,92.8L32.2,92.8z M11,93.9c2.9,4.5,8.3,6.3,13.1,5
	c2.4,1.6,5,1.8,7,0.4l0.2,0.8c-0.9,0.9-1.8,1.6-2.9,2.3c-8.1,5.2-18.9,2.9-24.2-5.2c-1.6-2.4-3.4-6.1-0.2-8.1
	c1.9-1.2,4.3-0.7,5.5,1.2C10.3,91.4,10.2,92.7,11,93.9L11,93.9z"/>
<path fill-rule="evenodd" clip-rule="evenodd" fill="#E84125" d="M74,76.6l5.4-1.4c-0.3-0.9-0.6-1.8-1-2.7c-0.6-1.6-1.9-5.8-5.1-8.2
	c-0.6,0.3-1.2,0.5-1.8,0.8c1.1,2.6,1.9,5.3,2.2,8.2L74,76.6L74,76.6z M30.5,76.6l-5.4-1.4c0.3-0.9,0.6-1.8,1-2.7
	c0.6-1.6,1.9-5.8,5.1-8.2c0.6,0.3,1.2,0.5,1.8,0.7c-1.1,2.6-1.9,5.3-2.2,8.2L30.5,76.6L30.5,76.6z M31.6,87.1L33,73.5
	c0.3-2.7,1-5.3,2.1-7.7c5.5,1.8,11.4,2.5,17.1,2.5c5.7,0,11.6-0.7,17.1-2.5c1.1,2.4,1.8,5,2.1,7.7l1.4,13.8c0.3,3.2-1.1,3.4-2.5,3.6
	c-13.6,2-22.9,2-36.6,0C32,90.6,31.3,90.3,31.6,87.1L31.6,87.1z"/>
<path fill-rule="evenodd" clip-rule="evenodd" fill="#EC252C" d="M91.7,98.8l-11.7-6c-1.1,0.8-1.4,1.8-1.4,2.8l11.4,5.9
	c-1,1.9-1.5,4.1-1.5,6.4c0,8.1,6.5,14.6,14.6,14.6c8.1,0,14.6-6.5,14.6-14.6c0-8.1-6.5-14.6-14.6-14.6
	C98.5,93.3,94.4,95.4,91.7,98.8L91.7,98.8z M114.5,107.9c0-6.3-5.1-11.4-11.4-11.4c-6.3,0-11.4,5.1-11.4,11.4
	c0,6.3,5.1,11.4,11.4,11.4C109.4,119.2,114.5,114.1,114.5,107.9L114.5,107.9z"/>
<path fill-rule="evenodd" clip-rule="evenodd" fill="#A52622" d="M78.6,94.9c0,0.2-0.1,0.5-0.1,0.7l11.4,5.9c0.2-0.4,0,0,0.2-0.4
	L78.6,94.9L78.6,94.9z M88.5,107.1c0,0.2,0,0.5,0,0.7c0,8.1,6.5,14.6,14.6,14.6c8.1,0,14.6-6.5,14.6-14.6c0-0.2,0-0.5,0-0.7
	C116.6,126.4,89.8,127.1,88.5,107.1L88.5,107.1z M114.5,107.1c-0.4-5.9-5.3-10.6-11.3-10.6c-6,0-11,4.7-11.3,10.6
	c0-0.2-0.1-0.5,0-0.7c1.9-14.6,21.5-13.6,22.7,0C114.5,106.6,114.5,106.9,114.5,107.1L114.5,107.1z"/>
<path fill-rule="evenodd" clip-rule="evenodd" fill="#010101" d="M52.2,70.4c2.6,0,4.9,1,6.7,2.6l5-4.8l-3.6,6.5
	c1,1.5,1.6,3.4,1.6,5.4c0,5.4-4.4,9.7-9.7,9.7c-2.7,0-5.2-1.1-7-3l-4.6,4.4l3.4-5.9c-1-1.5-1.5-3.3-1.5-5.2
	C42.5,74.7,46.9,70.4,52.2,70.4L52.2,70.4z"/>
<path fill-rule="evenodd" clip-rule="evenodd" fill="#FFFFFF" d="M52.2,71.5c2.3,0,4.3,0.9,5.9,2.3l-4.3,4.1L51,73.2l-6.3,10.9
	c-0.7-1.2-1-2.6-1-4.1C43.6,75.3,47.5,71.5,52.2,71.5L52.2,71.5z M59.7,75.8c0.7,1.3,1.1,2.7,1.1,4.3c0,4.8-3.9,8.6-8.6,8.6
	c-2.4,0-4.6-1-6.2-2.6l4.8-4.6l2.8,5.4L59.7,75.8L59.7,75.8z"/>
<polygon fill-rule="evenodd" clip-rule="evenodd" fill="#FEC909" points="59.3,74.1 53.6,79.7 51,75.4 45.4,85.1 51.1,79.7 
	53.7,84.5 59.3,74.1 "/>
<path fill-rule="evenodd" clip-rule="evenodd" fill="#E84125" d="M52.2,2.2c8.2,0,15.8,2.6,21.9,6.9L78,8.8l5.4-0.7
	c12.9-1.7,10.4,0.6,7.3,8.7l-2.4,6c-1.2-2.8-2.8-5.4-4.7-7.8c0.2-0.2,0.3-0.4,0.5-0.6c2.4-2.6,5.2-4.4,8-5.3
	c-2.9-0.4-6.5,1.1-9.3,4.1c-0.6,0.6-1.2,1.6-1.7,2.4c0,0,0.1,0.1,0.1,0.1c4.9,5.9,7.8,13.4,7.8,21.5c0,7.2-2.3,13.1-6.3,17.6
	l-3.3-9.7l-16.2-3c-3-3.1-6.4-5.7-10.3-7.6l-0.8-0.4l-0.8,0.4c-3.9,1.9-7.3,4.4-10.3,7.6l-16.2,3l-3.3,9.7c-4-4.5-6.3-10.4-6.3-17.6
	c0-8.2,3-15.8,8-21.8l0,0c-0.6-0.8-1.1-1.6-1.8-2.3c-2.8-3-6.4-4.5-9.3-4.1c2.8,0.9,5.6,2.7,8,5.3c0.2,0.2,0.4,0.4,0.5,0.6
	c-1.9,2.4-3.5,5-4.7,7.8l-2.4-6c-3-8.1-5.6-10.4,7.3-8.7l5.2,0.7l4.1,0.3C36.5,4.8,44,2.2,52.2,2.2L52.2,2.2z"/>
<path fill-rule="evenodd" clip-rule="evenodd" fill="#BA3B26" d="M21.6,13.2c-2.8-3-6.4-4.5-9.3-4.1c2.8,0.9,5.6,2.7,8,5.3
	c0.2,0.2,0.4,0.4,0.5,0.6c-1.9,2.4-3.5,5-4.7,7.8l-2.4-6c-3-8.1-5.6-10.4,7.3-8.7l5.2,0.7l4.1,0.3c3.9-2.7,8.3-4.7,13.2-5.9
	C30.4,8.9,21.2,22.1,21.2,37.4c0,4.5,0.8,8.6,2.3,12.1l-1.8,5.3c-4-4.5-6.3-10.4-6.3-17.6c0-8.2,3-15.8,8-21.8
	C22.8,14.7,22.2,13.9,21.6,13.2L21.6,13.2z"/>
<path fill-rule="evenodd" clip-rule="evenodd" fill="#FFFFFF" d="M81.4,56.3c-6.7,6.6-17.3,9.8-29.2,9.8c-11.9,0-22.5-3.3-29.2-9.8
	l3.3-9.6l15.8-3c2.6-2.9,5.9-5.6,10.1-7.6c4.2,2,7.5,4.7,10.1,7.6l15.8,3L81.4,56.3L81.4,56.3z"/>
<path fill-rule="evenodd" clip-rule="evenodd" fill="#E4E4E4" d="M31.9,62.2L31.9,62.2c-0.3-0.1-0.4-0.2-0.6-0.3l0,0
	c-0.2-0.1-0.4-0.2-0.5-0.3l-0.1-0.1c-0.1-0.1-0.3-0.1-0.4-0.2l-0.2-0.1c-0.1-0.1-0.2-0.1-0.3-0.2l-0.2-0.1c-0.2-0.1-0.3-0.2-0.5-0.3
	l-0.1,0c-0.1-0.1-0.3-0.2-0.4-0.2l-0.1-0.1c-0.1-0.1-0.2-0.1-0.3-0.2L28,60.2c-0.1-0.1-0.2-0.1-0.3-0.2c-0.1-0.1-0.2-0.1-0.3-0.2
	c-0.1,0-0.1-0.1-0.2-0.1c-0.1-0.1-0.2-0.1-0.2-0.2l-0.2-0.1c-0.1-0.1-0.2-0.1-0.3-0.2l-0.1-0.1c-0.2-0.1-0.4-0.3-0.5-0.4l-0.1-0.1
	c-0.1-0.1-0.2-0.1-0.3-0.2l-0.1-0.1c-0.3-0.3-0.6-0.5-1-0.8l0,0c-0.4-0.4-0.9-0.8-1.3-1.2l0,0l1.5-4.4c3.1,5.9,8.3,10.1,14.7,12.8
	C36.7,64.1,34.2,63.2,31.9,62.2L31.9,62.2z"/>
<path fill-rule="evenodd" clip-rule="evenodd" fill="#010101" d="M37,29.8c2.9,0,5.2,2.3,5.2,5.2c0,2.9-2.4,5.2-5.2,5.2
	c-2.9,0-5.2-2.3-5.2-5.2C31.8,32.2,34.1,29.8,37,29.8L37,29.8z M67.4,29.8c2.9,0,5.2,2.3,5.2,5.2c0,2.9-2.4,5.2-5.2,5.2
	c-2.9,0-5.2-2.3-5.2-5.2C62.2,32.2,64.5,29.8,67.4,29.8L67.4,29.8z"/>
<path fill-rule="evenodd" clip-rule="evenodd" fill="#FFFFFF" d="M39.8,31.3c0.9,0,1.7,0.8,1.7,1.7c0,0.9-0.8,1.7-1.7,1.7
	c-0.9,0-1.7-0.8-1.7-1.7C38.1,32,38.9,31.3,39.8,31.3L39.8,31.3z M70.2,31.3c0.9,0,1.7,0.8,1.7,1.7c0,0.9-0.8,1.7-1.7,1.7
	c-0.9,0-1.7-0.8-1.7-1.7C68.6,32,69.3,31.3,70.2,31.3L70.2,31.3z"/>
<path fill-rule="evenodd" clip-rule="evenodd" fill="#010101" d="M53.2,45.2c1.2-0.9,2.4-0.7,2.8-1.4c0.3-0.4,0.2-0.9-0.2-1.3
	c-1.1-1.3-6.1-1.3-7.2,0c-0.3,0.4-0.4,0.8-0.2,1.3c0.5,0.7,1.7,0.4,3,1.5c0.3,0.3,0.3,0.4,0.3,0.8v0.6c0,0.1,0,0.2,0,0.4
	c0,0.4,0,0.6-0.2,0.9c-0.2,0.3-0.6,0.6-1.2,0.9c-3.1,1.7-6.1,0.4-8.8-1.1c-1.5-0.9-1.7-0.5-0.5,0.6c3.1,2.9,5.8,6.8,11.1,6.8
	c5.4,0,8.1-3.8,11.1-6.8c1-1,1.2-1.6-0.5-0.6c-2.6,1.5-5.7,2.8-8.7,1.1c0,0,0,0,0,0c-0.5-0.3-0.9-0.6-1.2-0.9
	c-0.2-0.3-0.3-0.6-0.3-0.9c0-0.1,0-0.2,0-0.4v-0.6C52.7,45.6,52.8,45.5,53.2,45.2L53.2,45.2z"/>
<path fill-rule="evenodd" clip-rule="evenodd" fill="#F58220" d="M47.1,52.5c1.4,1.1,3.4,1.6,5.2,1.6c1.8,0,3.8-0.5,5.2-1.6
	c-1.4-1.1-3.4-1.6-5.2-1.6C50.4,50.9,48.4,51.4,47.1,52.5L47.1,52.5z"/>
<path fill="#AC2931" d="M12.9,9c-0.1,0-0.2,0-0.2,0l-0.1-0.1C12.7,9,12.8,9,12.9,9L12.9,9z M12.9,9.3c2.6,0.9,5.2,2.7,7.4,5.1
	c0.2,0.2,0.4,0.4,0.5,0.6c-1.1,1.4-2,2.8-2.9,4.3C16.9,15.7,15.8,12.3,12.9,9.3L12.9,9.3z"/>
<path fill-rule="evenodd" clip-rule="evenodd" fill="#E3AD24" d="M9.5,30.7l-1.1-6.9l-2.6,3.7L2.2,11.1l3.9,9.8l2.6-4.7l2.6,12.3
	C10.7,29.2,10.1,29.9,9.5,30.7L9.5,30.7z M14.6,47.2c-3.2-1.9-5.4-5.4-5.4-9.4c0-3.8,1.9-7.2,4.9-9.1c-0.7,2.8-1,5.6-1,8.6
	C13,40.7,13.5,44.1,14.6,47.2L14.6,47.2z"/>
<path fill-rule="evenodd" clip-rule="evenodd" fill="#BA3B26" d="M30.5,76.6l-5.4-1.4c0.3-0.9,0.6-1.8,1-2.7
	c0.6-1.6,1.9-5.8,5.1-8.2c0.6,0.3,1.2,0.5,1.8,0.7c-1.1,2.6-1.9,5.3-2.2,8.2L30.5,76.6L30.5,76.6z M31.6,87.1L33,73.5
	c0.3-2.7,1-5.3,2.1-7.7c1.7,0.6,3.5,1,5.3,1.4c-1,4.2-1.6,8.7-1.6,13.4c0,3.8,0.4,7.5,1.1,11c-1.9-0.2-3.9-0.5-6.1-0.8
	C32,90.6,31.3,90.3,31.6,87.1L31.6,87.1z"/>
<path fill-rule="evenodd" clip-rule="evenodd" fill="#E4E4E4" d="M20.3,105.1c-6.2,0.5-12.5-2.3-16.1-7.9c-1.6-2.4-3.4-6.1-0.2-8.1
	c1.1-0.7,2.5-0.8,3.6-0.4c-0.3,0.1-0.5,0.2-0.7,0.4c-3.2,2.1-1.4,5.7,0.2,8.1C10.1,101.9,15.1,104.7,20.3,105.1L20.3,105.1z
	 M29.4,97.9c-1.8,0.8-4.1-0.2-5.8-2.2c-2.3-2.8-1.9-6.8-1.6-9c0.5-3.4,1.4-6.6,2.5-10l2.6,0.7c-1,3.1-1.8,6.2-2.3,9.3
	c-0.3,2.2-0.7,6.2,1.6,9C27.4,96.8,28.4,97.5,29.4,97.9L29.4,97.9z M47.4,114c-0.1,0-0.1,0-0.2,0l-13.9,0c-0.7,0-3,0.1-2.3-2
	c0.3-0.9,0.8-1.8,1.5-2.6c1.4-1.7,3.1-2.5,5.2-2.8c1.1-0.2,2.3-0.2,3.5-0.1c-0.2,0-0.4,0-0.6,0.1c-2.1,0.3-3.8,1.1-5.2,2.8
	c-0.7,0.8-1.2,1.6-1.5,2.6c-0.7,2.1,1.6,2,2.3,2L47.4,114L47.4,114z M37.4,105.4c-1,0-1.9,0.2-2.8,0.4l-1.6-8.3l-0.9-4.6
	c0.8,0.1,2.2,0.3,3,0.4L37.4,105.4L37.4,105.4z"/>
</svg>
