<?xml version="1.0" encoding="utf-8"?>
<!-- Generator: Adobe Illustrator 18.1.1, SVG Export Plug-In . SVG Version: 6.00 Build 0)  -->
<svg version="1.1" id="Layer_1" xmlns="http://www.w3.org/2000/svg" xmlns:xlink="http://www.w3.org/1999/xlink" x="0px" y="0px"
	 viewBox="0 0 57.2 56.5" enable-background="new 0 0 57.2 56.5" xml:space="preserve">
<path fill-rule="evenodd" clip-rule="evenodd" fill="#010101" d="M39.6,51.1c-0.8,3-4.9,5.4-9.8,5.4c-4.8,0-8.9-2.3-9.7-5.2
	c-0.1-0.2-0.3-0.4-0.4-0.6c-0.7,0.7-1.6,0.8-2.6,0.7c-2.8-0.3-4.1-2.2-5.2-4.5c-0.3-0.6-0.8-1.7-1.2-2.8c-3.7,0.7-7.6-0.8-9.7-4.2
	c-0.2-0.4-0.4-0.7-0.6-1.1c-0.8-1.6-0.8-3.4,0.9-4.4c1.4-0.9,3.4-0.5,4.3,0.9c0.2,0.3,0.3,0.6,0.4,1c0.1,0.2,0.1,0.6,0.2,0.7
	c0.9,1.4,2.4,2.1,3.9,2c-0.3-0.3-0.5-0.5-0.7-0.8C6.3,34.4,4.9,29.8,4.9,25c0-2.8,0.5-5.5,1.3-8l-2-5.3l0,0
	c-0.4-1.2-0.9-2.4-1.3-3.5c-0.3-1-0.6-2.1,0-3c0.6-1,1.7-1.2,2.7-1.2C7,3.8,8.7,4,10.1,4.2L15,4.9C19.1,1.8,24.3,0,29.9,0
	c5.6,0,10.7,1.8,14.9,4.9l4.9-0.7C51,4,52.7,3.8,54.1,3.9c1,0,2.2,0.3,2.7,1.2c0.6,0.9,0.3,2.1,0,3c-0.4,1.2-0.9,2.4-1.3,3.5l0,0
	l-2,5.3c0.8,2.5,1.3,5.2,1.3,8c0,4.9-1.4,9.4-4.7,13.1c-0.3,0.3-0.5,0.6-0.8,0.8c0.9,2.2-1,6.3-1.7,7.9c-1.1,2.4-2.4,4.2-5.2,4.5
	c-0.9,0.1-1.9,0-2.6-0.7C39.8,50.8,39.7,50.9,39.6,51.1L39.6,51.1z"/>
<path fill-rule="evenodd" clip-rule="evenodd" fill="#FFFFFF" d="M17.4,49.8c-2.3-0.2-3.2-1.9-4-3.7c-1.3-2.8-1.8-4.7-1.8-5.9
	l0.1,0.2c1.9,3.7,4.5,6.6,7.3,8.6C18.9,49.6,18.4,49.9,17.4,49.8L17.4,49.8z"/>
<path fill-rule="evenodd" clip-rule="evenodd" fill="#FFFFFF" d="M42.3,49.8c2.3-0.2,3.2-1.9,4-3.7c1.3-2.8,1.8-4.7,1.8-5.9L48,40.5
	c-1.9,3.7-4.5,6.6-7.3,8.6C40.8,49.6,41.3,49.9,42.3,49.8L42.3,49.8z"/>
<path fill-rule="evenodd" clip-rule="evenodd" fill="#FFFFFF" d="M31.5,52.6c2,1.7,4.4,1.1,6.6-1.9C36,51.8,33.8,52.4,31.5,52.6
	L31.5,52.6z"/>
<path fill-rule="evenodd" clip-rule="evenodd" fill="#FFFFFF" d="M28.2,52.6c-2,1.7-4.4,1.1-6.6-1.9C23.7,51.8,26,52.4,28.2,52.6
	L28.2,52.6z"/>
<path fill-rule="evenodd" clip-rule="evenodd" fill="#0795D1" d="M14.3,42c8,12.2,23.1,12.2,31.1,0c-4.6,2.7-10.2,3.8-15.5,3.8
	C24.6,45.8,18.9,44.8,14.3,42L14.3,42z"/>
<path fill-rule="evenodd" clip-rule="evenodd" fill="#02527D" d="M14.3,42c3.9,5.9,9.4,9,14.9,9.2c0.3,0,0.7,0,1-0.1
	c-4.7-0.5-9.3-3-12.8-7.5C16.4,43.2,15.3,42.6,14.3,42L14.3,42z"/>
<path fill-rule="evenodd" clip-rule="evenodd" fill="#FFFFFF" d="M29.9,1.5c5.2,0,10.1,1.7,14,4.6c2-0.1,4-0.4,5.9-0.6
	c8.2-1.1,6.6,0.4,4.7,5.8l-1.5,4c-0.8-1.9-1.8-3.6-3-5.3c0.1-0.1,0.2-0.3,0.3-0.4c1.5-1.7,3.3-2.9,5.1-3.5c-1.6-0.2-3.6,0.5-5.3,2.1
	c-0.7,0.7-1.2,1.3-1.7,2.2c3.1,4,5,9,5,14.5c0,13-10.5,19.4-23.5,19.4S6.4,37.9,6.4,25c0-5.5,1.9-10.6,5.1-14.6
	c-0.5-0.8-1-1.4-1.6-2.1C8.1,6.6,6.1,5.8,4.4,6.1C6.2,6.7,8,7.9,9.5,9.6C9.6,9.8,9.7,9.9,9.8,10c-1.2,1.6-2.2,3.4-3,5.3l-1.5-4
	c-1.9-5.5-3.6-7,4.7-5.8c2,0.3,3.9,0.5,5.9,0.6C19.8,3.2,24.6,1.5,29.9,1.5L29.9,1.5z"/>
<path fill-rule="evenodd" clip-rule="evenodd" fill="#E5E5E5" d="M21.6,43.4C12.7,41.1,6.4,35,6.4,25c0-5.5,1.9-10.6,5.1-14.6
	c-0.5-0.8-1-1.4-1.6-2.1C8.1,6.6,6.1,5.8,4.4,6.1C6.2,6.7,8,7.9,9.5,9.6C9.6,9.8,9.7,9.9,9.8,10c-1.2,1.6-2.2,3.4-3,5.3l-1.5-4
	c-1.9-5.5-3.6-7,4.7-5.8c2,0.3,3.9,0.5,5.9,0.6l0,0c2.5-1.8,5.3-3.2,8.4-3.9C15.9,6,10.1,14.8,10.1,25.1
	C10.1,34.2,14.7,40.3,21.6,43.4L21.6,43.4z"/>
<path fill-rule="evenodd" clip-rule="evenodd" fill="#B3B3B3" d="M4.6,6c0.1,0,0.1,0,0.2,0.1C4.8,6.1,4.7,6.1,4.6,6L4.6,6L4.6,6z
	 M8,12.9c-0.6-2.4-1.3-4.7-3.2-6.7C6.4,6.9,8.1,8,9.5,9.6C9.6,9.8,9.7,9.9,9.8,10C9.2,10.9,8.5,11.9,8,12.9L8,12.9z"/>
<path fill-rule="evenodd" clip-rule="evenodd" fill="#010101" d="M31.2,32.8c1-0.5,1.9-0.4,2.3-1.1c0.3-0.4,0.1-0.9-0.2-1.3
	c-1-1.3-6-1.3-7,0c-0.3,0.4-0.4,0.8-0.2,1.3c0.4,0.7,1.4,0.5,2.5,1.2c0.3,0.2,0.6,0.4,0.7,0.7c0.1,0.4,0,0.7-0.1,1
	c-0.2,0.3-0.4,0.4-0.7,0.5c-1.1,0.3-2.1,0.6-3,1.2c-0.4,0.3-0.7,0.7-1,1.1c-0.5,0.6-0.6,1,0.2,0.4c0.4-0.3,0.8-0.6,1.3-0.9
	c0.5-0.3,1.5-0.6,2.4-0.8c0.8-0.2,1.5-0.3,2.3-0.1c1,0.2,2.4,0.6,2.9,0.9c0.5,0.2,0.9,0.6,1.3,0.9c0.9,0.6,0.8,0.2,0.2-0.4
	c-0.3-0.4-0.6-0.8-1-1.1c-0.8-0.6-1.8-0.9-2.9-1.2C31,35,30.7,35,30.5,34.6c-0.2-0.2-0.2-0.6-0.1-1C30.5,33.1,30.7,33,31.2,32.8
	L31.2,32.8z"/>
<path fill-rule="evenodd" clip-rule="evenodd" fill="#FFFFFF" d="M5.3,37.6c1.1,1.7,2.9,2.6,4.8,2.6c0,0.8,0.1,1.7,0.4,2.7
	C7.3,43.3,4,42,2.1,39.1C1.4,38,0.5,36.2,2,35.3c0.9-0.6,2-0.3,2.6,0.6C5,36.4,5,37,5.3,37.6L5.3,37.6z"/>
<path fill-rule="evenodd" clip-rule="evenodd" fill="#0795D1" d="M46.3,46.3l0.1-0.1c1.3-2.8,1.8-4.7,1.8-5.9L48,40.5
	c-1,2-2.2,3.7-3.6,5.2C45.1,45.9,45.7,46.1,46.3,46.3L46.3,46.3z"/>
<path fill-rule="evenodd" clip-rule="evenodd" fill="#0795D1" d="M13.4,46.3l-0.1-0.1c-1.3-2.8-1.8-4.7-1.8-5.9l0.1,0.2
	c1,2,2.2,3.7,3.6,5.2C14.6,45.9,14,46.1,13.4,46.3L13.4,46.3z"/>
<path fill-rule="evenodd" clip-rule="evenodd" fill="#010101" d="M43,24.1c0.2,0.5,0.2,1,0.2,1.5c0,2.2-1.6,4-3.5,4
	c-1.9,0-3.5-1.8-3.5-4c0-1.3,0.5-2.5,1.4-3.2C39.1,23.3,40.9,24,43,24.1L43,24.1z M22.1,22.4c0.8,0.7,1.4,1.9,1.4,3.2
	c0,2.2-1.6,4-3.5,4s-3.5-1.8-3.5-4c0-0.5,0.1-1,0.2-1.5C18.8,24,20.6,23.3,22.1,22.4L22.1,22.4z M22.1,24.7c0.6,0,1.1,0.5,1.1,1.1
	c0,0.6-0.5,1.1-1.1,1.1c-0.6,0-1.1-0.5-1.1-1.1C21,25.2,21.5,24.7,22.1,24.7L22.1,24.7z M41.9,24.7c0.6,0,1.1,0.5,1.1,1.1
	c0,0.6-0.5,1.1-1.1,1.1c-0.6,0-1.1-0.5-1.1-1.1C40.7,25.2,41.2,24.7,41.9,24.7L41.9,24.7z"/>
</svg>
