<?xml version="1.0" encoding="utf-8"?>
<!-- Generator: Adobe Illustrator 18.1.1, SVG Export Plug-In . SVG Version: 6.00 Build 0)  -->
<svg version="1.1" id="Layer_1" xmlns="http://www.w3.org/2000/svg" xmlns:xlink="http://www.w3.org/1999/xlink" x="0px" y="0px"
	 viewBox="0 0 71.5 112.3" enable-background="new 0 0 71.5 112.3" xml:space="preserve">
<path fill-rule="evenodd" clip-rule="evenodd" fill="#010101" d="M30.8,45.8c-6.5-0.6-13-2.3-18.6-5.5C6.7,37.3,1.5,32.4,0.3,26
	C0.1,25,0,24,0,23c0-1,0.1-2,0.3-2.9C1.5,13.7,6.7,8.8,12.2,5.7c7-4,15.5-5.7,23.6-5.7c8,0,16.5,1.7,23.6,5.7
	c5.5,3.1,10.7,8,11.9,14.4c0.2,1,0.3,1.9,0.3,2.9c0,1-0.1,2-0.3,2.9c-1.3,6.4-6.4,11.3-11.9,14.4c-5.6,3.1-12.1,4.9-18.6,5.5l-5,6.8
	L30.8,45.8L30.8,45.8z"/>
<path fill-rule="evenodd" clip-rule="evenodd" fill="#EC252C" d="M35.8,1.2C54.9,1.2,70.4,11,70.4,23c0,10.9-12.6,19.9-29.1,21.6
	c0.5-0.7,1.1-2,1.2-3.1c-2.2,3.1-4.5,6.1-6.7,9.2l-4.3-5.9C14.4,43.4,1.2,34.2,1.2,23C1.2,11,16.7,1.2,35.8,1.2L35.8,1.2z"/>
<path fill-rule="evenodd" clip-rule="evenodd" fill="#010101" d="M49.3,26.8c0.5,0.1,1,0.3,1.4,0.7c0.6,0.5,0.9,1.2,0.9,2
	c0,0.9-0.3,1.6-1,2.2c-0.7,0.6-1.6,0.9-2.6,0.9c-0.5,0-0.9-0.1-1.3-0.3c-0.3-0.2-0.6-0.4-0.9-0.7l0,0l0,0c-0.5-0.6-0.7-1.2-0.7-2
	c0-1.2,0.6-2.2,1.7-2.7c0,0,0.1,0,0.1,0l0.3-1c0.5-1.8,0.9-3.6,1.4-5.5c0.4-1.8,0.9-3.7,1.4-5.5l0.1-0.5l0.5-0.1
	c0.3-0.1,0.7-0.1,1-0.1c0.4-0.1,0.7-0.1,1.1-0.2c0.4-0.1,0.7-0.1,1.1-0.2c0.3,0,0.6-0.1,0.8-0.1l1.4-0.3l-0.6,1.4
	c-0.8,1.9-1.5,3.7-2.2,5.6c-0.7,1.9-1.3,3.8-2,5.8l-0.2,0.5h-0.6C50.2,26.7,49.8,26.8,49.3,26.8C49.3,26.8,49.3,26.8,49.3,26.8
	L49.3,26.8z M37.2,22.1c0.1-0.3,0.1-0.6,0.2-1c0.4-1.9,0.7-3.9,1-5.9l0.1-0.6l0.6-0.1c0.7-0.1,1.3-0.2,2-0.3
	c0.7-0.1,1.5-0.2,2.3-0.2c0.8,0,1.6,0.1,2.3,0.5c0.7,0.3,1.2,0.7,1.7,1.3c0.9,1.1,1.2,2.6,1.2,4c0,1.9-0.5,3.7-1.4,5.4
	c-0.9,1.9-2.1,3.5-3.7,4.8l0,0c-1.7,1.3-3.6,2.1-5.8,2.1c-0.5,0-0.9-0.1-1.4-0.1L35.3,32l0.1-0.4c-0.2,0-0.3,0.1-0.5,0.1
	c-0.4,0.1-0.9,0.1-1.3,0.2c-0.4,0.1-0.8,0.1-1.2,0.2l-1,0.2l0.1-1c0.1-1,0.2-1.9,0.3-2.9h-0.5l-0.9,3.2l-0.5,0.1
	c-0.4,0.1-0.8,0.1-1.2,0.2c-0.4,0.1-0.9,0.1-1.3,0.2c-0.5,0.1-0.9,0.1-1.4,0.2l-1.2,0.2l0.4-1.2c0.1-0.3,0.2-0.7,0.3-1
	c-0.3,0.3-0.7,0.5-1.1,0.7c-0.6,0.3-1.3,0.6-2,0.9c-1.3,0.5-2.7,0.7-4.1,0.7c-0.6,0-1.1,0-1.7-0.1l-0.8-0.2L16,31
	c0.7-2.6,1.3-5.2,1.7-7.8c0.4-2.7,0.8-5.4,1.2-8l0.1-0.5l0.5-0.1c1.7-0.3,3.5-0.7,5.2-0.7c1.6,0,3.1,0.5,3.9,2
	c0.3,0.6,0.5,1.2,0.5,1.9c0,0,0,0.1,0,0.1c0-0.2,0.1-0.3,0.1-0.5c0.2-0.7,0.4-1.5,0.6-2.2l0.2-0.5l0.6,0c2-0.1,4.1-0.3,6.1-0.7
	l1-0.2l-0.1,1.1c-0.2,1.7-0.2,3.4-0.3,5.1C37.3,20.6,37.2,21.3,37.2,22.1L37.2,22.1z M27.3,23.7c0.1-0.4,0.2-0.8,0.4-1.2
	c0.2-0.6,0.4-1.2,0.5-1.8c-0.1,0.2-0.2,0.3-0.3,0.5l0,0c-0.4,0.5-0.8,1-1.4,1.4C26.9,22.8,27.1,23.2,27.3,23.7L27.3,23.7z
	 M22.1,25.8c0.5-0.1,0.9-0.3,1.2-0.7c0.1-0.1,0.2-0.2,0.2-0.4c0-0.1,0-0.2,0-0.3c-0.1-0.1-0.2-0.2-0.3-0.2c-0.2-0.1-0.5-0.2-0.8-0.2
	c0,0.1,0,0.2-0.1,0.3c0,0.3-0.1,0.5-0.1,0.8C22.2,25.4,22.2,25.6,22.1,25.8L22.1,25.8z M23.3,19.4c0.4-0.1,0.8-0.3,0.9-0.5
	c-0.1-0.1-0.6-0.2-0.7-0.3l0,0c0,0,0,0-0.1,0c0,0.2-0.1,0.4-0.1,0.6C23.3,19.3,23.3,19.4,23.3,19.4L23.3,19.4z M41.5,25.8
	c0.3-0.6,0.6-1.2,0.8-1.7c0.4-0.9,0.7-1.8,0.9-2.8c0.1-0.5,0.2-1.2,0.2-1.7c0-0.2-0.1-0.4-0.2-0.6C43.1,19,43,19,42.9,18.9
	c-0.2,1.1-0.5,2.2-0.7,3.4C41.9,23.4,41.7,24.6,41.5,25.8L41.5,25.8z"/>
<path fill="#FFFFFF" d="M26.9,25.7c0,0.5-0.1,1.1-0.4,1.6c-0.3,0.5-0.6,1-1,1.4c-0.4,0.4-0.9,0.8-1.5,1.1c-0.6,0.3-1.2,0.6-1.8,0.8
	c-1.3,0.4-2.5,0.7-3.9,0.7c-0.6,0-1.1,0-1.6-0.1c0.7-2.6,1.3-5.3,1.7-7.9c0.4-2.7,0.8-5.3,1.2-8c2.1-0.4,3.7-0.6,5-0.6
	c1.5,0,2.6,0.5,3.2,1.6c0.2,0.4,0.3,0.9,0.3,1.5c0,0.6-0.1,1.1-0.3,1.6c-0.2,0.5-0.4,1-0.7,1.4c-0.6,0.8-1.3,1.4-2.2,1.7
	C26.3,23.1,26.9,24.2,26.9,25.7L26.9,25.7z M21.2,26.8c1.3-0.1,2.3-0.5,2.8-1.1c0.2-0.3,0.4-0.6,0.4-0.9c0-0.3-0.1-0.6-0.2-0.8
	c-0.1-0.2-0.3-0.3-0.5-0.4c-0.4-0.2-0.9-0.4-1.4-0.4H22c-0.1,0-0.1,0-0.2,0c-0.1,0.4-0.1,0.7-0.2,1c-0.1,0.3-0.1,0.5-0.1,0.8
	c0,0.3-0.1,0.5-0.1,0.8C21.3,26.1,21.2,26.5,21.2,26.8L21.2,26.8z M22.3,20.5c1.8-0.4,2.7-0.9,2.7-1.5c0-0.6-0.5-0.9-1.4-1.1
	c-0.2,0-0.4-0.1-0.6-0.1h-0.2c0,0.2-0.1,0.4-0.1,0.6c0,0.2-0.1,0.5-0.1,0.7c0,0.2-0.1,0.5-0.1,0.7C22.4,20.1,22.3,20.3,22.3,20.5
	L22.3,20.5z M30.7,27.4l-0.9,3.2c-0.3,0-0.7,0.1-1.2,0.2c-0.4,0.1-0.9,0.1-1.3,0.2c-0.4,0.1-0.9,0.1-1.4,0.2c0.6-2,1.1-3.7,1.5-5.1
	c0.4-1.4,0.8-2.5,1-3.4c0.3-0.9,0.5-1.8,0.8-2.6c0.3-0.9,0.5-1.7,0.7-2.5c0.2-0.8,0.5-1.6,0.6-2.2c2.7-0.2,4.8-0.4,6.2-0.7
	c-0.1,1.4-0.2,3.2-0.3,5.1c-0.2,3.9-0.3,7.6-0.5,10.9c-0.4,0.1-0.9,0.1-1.3,0.2c-0.4,0.1-0.9,0.1-1.3,0.2c-0.4,0.1-0.9,0.1-1.2,0.2
	c0.2-1.4,0.3-2.7,0.4-3.8H30.7L30.7,27.4z M31.2,25.2l1.6-0.1c0-0.1,0-0.2,0-0.4c0-0.2,0-0.5,0.1-0.7c0.1-1.6,0.2-3,0.4-4.4l0.2-2
	l-0.4,0L31.2,25.2L31.2,25.2z M40.1,28.6c1-0.7,2-2,2.8-4.1c0.5-1.2,0.8-2.1,1-2.9c0.2-0.8,0.2-1.4,0.2-1.9c0-0.5-0.2-0.8-0.5-1.2
	c-0.3-0.3-0.8-0.5-1.4-0.5c-0.3,1.3-0.5,2.6-0.9,4.1C40.9,24.6,40.5,26.7,40.1,28.6L40.1,28.6z M36.2,31.3c1.6-8,2.6-13.4,2.9-15.9
	c0.6-0.1,1.3-0.2,2-0.3c0.7-0.1,1.4-0.2,2.1-0.2c0.8,0,1.4,0.1,2,0.4c0.6,0.3,1,0.6,1.4,1.1c0.7,0.9,1,2,1,3.5
	c0,1.6-0.4,3.3-1.3,5.1c-0.9,1.9-2.1,3.4-3.5,4.5c-1.7,1.3-3.4,2-5.3,2C37.1,31.4,36.7,31.4,36.2,31.3L36.2,31.3z M54.8,14.5
	c-0.8,1.9-1.5,3.8-2.2,5.7c-0.7,1.9-1.3,3.8-2,5.8c-0.4,0-0.9,0-1.3,0c-0.4,0-0.9,0.1-1.3,0.1c0.5-1.8,0.9-3.7,1.4-5.5
	c0.4-1.8,0.9-3.7,1.4-5.5c0.3,0,0.6-0.1,1-0.1c0.4-0.1,0.7-0.1,1.1-0.2c0.4-0.1,0.7-0.1,1.1-0.2C54.3,14.6,54.6,14.5,54.8,14.5
	L54.8,14.5z M48.1,31.8c-0.4,0-0.7-0.1-1-0.2c-0.2-0.1-0.5-0.3-0.6-0.5c-0.3-0.4-0.5-0.9-0.5-1.5c0-1,0.4-1.6,1.3-2
	c0.3-0.1,0.6-0.2,1-0.2c0.9,0,1.5,0.2,2,0.6c0.4,0.4,0.6,0.9,0.6,1.4c0,0.6-0.2,1.2-0.7,1.6C49.6,31.6,48.9,31.8,48.1,31.8
	L48.1,31.8z"/>
<path fill-rule="evenodd" clip-rule="evenodd" fill="#010101" d="M46.8,107c-0.8,3-4.9,5.4-9.8,5.4c-4.8,0-8.9-2.3-9.7-5.2
	c-0.1-0.2-0.3-0.4-0.4-0.6c-0.7,0.7-1.6,0.8-2.6,0.7c-2.8-0.3-4.1-2.2-5.2-4.5c-0.3-0.6-0.8-1.7-1.2-2.8c-3.7,0.7-7.6-0.8-9.7-4.2
	c-0.2-0.4-0.4-0.7-0.6-1.1c-0.8-1.6-0.8-3.4,0.9-4.4c1.4-0.9,3.4-0.5,4.3,0.9c0.2,0.3,0.3,0.6,0.4,1c0.1,0.2,0.1,0.6,0.2,0.7
	c0.9,1.4,2.4,2.1,3.9,2c-0.3-0.3-0.5-0.5-0.7-0.8c-3.2-3.7-4.7-8.3-4.7-13.1c0-2.8,0.5-5.5,1.3-8l-2-5.3l0,0
	c-0.4-1.2-0.9-2.4-1.3-3.5c-0.3-1-0.6-2.1,0-3c0.6-1,1.7-1.2,2.7-1.2c1.5-0.1,3.1,0.2,4.5,0.4l4.9,0.7c4.2-3.1,9.3-4.9,14.9-4.9
	c5.6,0,10.7,1.8,14.9,4.9l4.9-0.7c1.4-0.2,3.1-0.4,4.5-0.4c1,0,2.2,0.3,2.7,1.2c0.6,0.9,0.3,2.1,0,3c-0.4,1.2-0.9,2.4-1.3,3.5l0,0
	l-2,5.3c0.8,2.5,1.3,5.2,1.3,8c0,4.9-1.4,9.4-4.7,13.1c-0.3,0.3-0.5,0.6-0.8,0.8c0.9,2.2-1,6.3-1.7,7.9c-1.1,2.4-2.4,4.2-5.2,4.5
	c-0.9,0.1-1.9,0-2.6-0.7C47,106.7,46.9,106.8,46.8,107L46.8,107z"/>
<path fill-rule="evenodd" clip-rule="evenodd" fill="#FFFFFF" d="M24.6,105.7c-2.3-0.2-3.2-1.9-4-3.7c-1.3-2.8-1.8-4.7-1.8-5.9
	l0.1,0.2c1.9,3.7,4.5,6.6,7.3,8.6C26.1,105.5,25.6,105.8,24.6,105.7L24.6,105.7z"/>
<path fill-rule="evenodd" clip-rule="evenodd" fill="#FFFFFF" d="M49.5,105.7c2.3-0.2,3.2-1.9,4-3.7c1.3-2.8,1.8-4.7,1.8-5.9
	l-0.1,0.2c-1.9,3.7-4.5,6.6-7.3,8.6C48,105.5,48.4,105.8,49.5,105.7L49.5,105.7z"/>
<path fill-rule="evenodd" clip-rule="evenodd" fill="#FFFFFF" d="M38.7,108.5c2,1.7,4.4,1.1,6.6-1.9
	C43.1,107.6,40.9,108.3,38.7,108.5L38.7,108.5z"/>
<path fill-rule="evenodd" clip-rule="evenodd" fill="#FFFFFF" d="M35.4,108.5c-2,1.7-4.4,1.1-6.6-1.9
	C30.9,107.6,33.1,108.3,35.4,108.5L35.4,108.5z"/>
<path fill-rule="evenodd" clip-rule="evenodd" fill="#0795D1" d="M21.5,97.9c8,12.2,23.1,12.2,31.1,0c-4.6,2.7-10.2,3.8-15.5,3.8
	C31.7,101.7,26.1,100.6,21.5,97.9L21.5,97.9z"/>
<path fill-rule="evenodd" clip-rule="evenodd" fill="#02527D" d="M21.5,97.9c3.9,5.9,9.4,9,14.9,9.2c0.3,0,0.7,0,1-0.1
	c-4.7-0.5-9.3-3-12.8-7.5C23.6,99,22.5,98.5,21.5,97.9L21.5,97.9z"/>
<path fill-rule="evenodd" clip-rule="evenodd" fill="#FFFFFF" d="M37,57.4c5.2,0,10.1,1.7,14,4.6c2-0.1,4-0.4,5.9-0.6
	c8.2-1.1,6.6,0.4,4.7,5.8l-1.5,4c-0.8-1.9-1.8-3.6-3-5.3c0.1-0.1,0.2-0.3,0.3-0.4c1.5-1.7,3.3-2.9,5.1-3.5c-1.6-0.2-3.6,0.5-5.3,2.1
	c-0.7,0.7-1.2,1.3-1.7,2.2c3.1,4,5,9,5,14.5c0,13-10.5,19.4-23.5,19.4s-23.5-6.4-23.5-19.4c0-5.5,1.9-10.6,5.1-14.6
	c-0.5-0.8-1-1.4-1.6-2.1c-1.7-1.7-3.8-2.5-5.4-2.2c1.8,0.6,3.6,1.8,5.1,3.5c0.1,0.1,0.2,0.3,0.3,0.4c-1.2,1.6-2.2,3.4-3,5.3l-1.5-4
	c-1.9-5.5-3.6-7,4.7-5.8c2,0.3,3.9,0.5,5.9,0.6C27,59.1,31.8,57.4,37,57.4L37,57.4z"/>
<path fill-rule="evenodd" clip-rule="evenodd" fill="#E5E5E5" d="M28.8,99.2c-8.9-2.2-15.2-8.3-15.2-18.4c0-5.5,1.9-10.6,5.1-14.6
	c-0.5-0.8-1-1.4-1.6-2.1c-1.7-1.7-3.8-2.5-5.4-2.2c1.8,0.6,3.6,1.8,5.1,3.5c0.1,0.1,0.2,0.3,0.3,0.4c-1.2,1.6-2.2,3.4-3,5.3l-1.5-4
	c-1.9-5.5-3.6-7,4.7-5.8c2,0.3,3.9,0.5,5.9,0.6l0,0c2.5-1.8,5.3-3.2,8.4-3.9C23.1,61.9,17.2,70.7,17.2,81
	C17.2,90.1,21.9,96.2,28.8,99.2L28.8,99.2z"/>
<path fill-rule="evenodd" clip-rule="evenodd" fill="#B3B3B3" d="M11.8,61.9c0.1,0,0.1,0,0.2,0.1C11.9,61.9,11.9,61.9,11.8,61.9
	L11.8,61.9L11.8,61.9z M15.2,68.8c-0.6-2.4-1.3-4.7-3.2-6.7c1.6,0.6,3.3,1.8,4.7,3.4c0.1,0.1,0.2,0.3,0.3,0.4
	C16.3,66.8,15.7,67.8,15.2,68.8L15.2,68.8z"/>
<path fill-rule="evenodd" clip-rule="evenodd" fill="#010101" d="M38.4,88.6c1-0.5,1.9-0.4,2.3-1.1c0.3-0.4,0.1-0.9-0.2-1.3
	c-1-1.3-6-1.3-7,0c-0.3,0.4-0.4,0.8-0.2,1.3c0.4,0.7,1.4,0.5,2.5,1.2c0.3,0.2,0.6,0.4,0.7,0.7c0.1,0.4,0,0.7-0.1,1
	c-0.2,0.3-0.4,0.4-0.7,0.5c-1.1,0.3-2.1,0.6-3,1.2c-0.4,0.3-0.7,0.7-1,1.1c-0.5,0.6-0.6,1,0.2,0.4c0.4-0.3,0.8-0.6,1.3-0.9
	c0.5-0.3,1.5-0.6,2.4-0.8c0.8-0.2,1.5-0.3,2.3-0.1c1,0.2,2.4,0.6,2.9,0.9c0.5,0.2,0.9,0.6,1.3,0.9c0.9,0.6,0.8,0.2,0.2-0.4
	c-0.3-0.4-0.6-0.8-1-1.1c-0.8-0.6-1.8-0.9-2.9-1.2c-0.4-0.1-0.6-0.1-0.9-0.5c-0.2-0.2-0.2-0.6-0.1-1C37.7,89,37.9,88.9,38.4,88.6
	L38.4,88.6z"/>
<path fill-rule="evenodd" clip-rule="evenodd" fill="#FFFFFF" d="M12.5,93.4c1.1,1.7,2.9,2.6,4.8,2.6c0,0.8,0.1,1.7,0.4,2.7
	c-3.2,0.5-6.5-0.8-8.3-3.7c-0.7-1.1-1.6-2.9-0.1-3.9c0.9-0.6,2-0.3,2.6,0.6C12.2,92.2,12.1,92.8,12.5,93.4L12.5,93.4z"/>
<path fill-rule="evenodd" clip-rule="evenodd" fill="#0795D1" d="M53.5,102.2l0.1-0.1c1.3-2.8,1.8-4.7,1.8-5.9l-0.1,0.2
	c-1,2-2.2,3.7-3.6,5.2C52.3,101.8,52.9,102,53.5,102.2L53.5,102.2z"/>
<path fill-rule="evenodd" clip-rule="evenodd" fill="#0795D1" d="M20.6,102.2l-0.1-0.1c-1.3-2.8-1.8-4.7-1.8-5.9l0.1,0.2
	c1,2,2.2,3.7,3.6,5.2C21.8,101.8,21.2,102,20.6,102.2L20.6,102.2z"/>
<path fill-rule="evenodd" clip-rule="evenodd" fill="#010101" d="M50.2,80c0.2,0.5,0.2,1,0.2,1.5c0,2.2-1.6,4-3.5,4
	c-1.9,0-3.5-1.8-3.5-4c0-1.3,0.5-2.5,1.4-3.2C46.2,79.2,48.1,79.8,50.2,80L50.2,80z M29.2,78.2c0.8,0.7,1.4,1.9,1.4,3.2
	c0,2.2-1.6,4-3.5,4s-3.5-1.8-3.5-4c0-0.5,0.1-1,0.2-1.5C26,79.8,27.8,79.2,29.2,78.2L29.2,78.2z M29.3,80.5c0.6,0,1.1,0.5,1.1,1.1
	c0,0.6-0.5,1.1-1.1,1.1c-0.6,0-1.1-0.5-1.1-1.1C28.2,81,28.7,80.5,29.3,80.5L29.3,80.5z M49,80.5c0.6,0,1.1,0.5,1.1,1.1
	c0,0.6-0.5,1.1-1.1,1.1c-0.6,0-1.1-0.5-1.1-1.1C47.9,81,48.4,80.5,49,80.5L49,80.5z"/>
</svg>
