<?xml version="1.0" encoding="utf-8"?>
<!-- Generator: Adobe Illustrator 18.1.1, SVG Export Plug-In . SVG Version: 6.00 Build 0)  -->
<svg version="1.1" id="Layer_1" xmlns="http://www.w3.org/2000/svg" xmlns:xlink="http://www.w3.org/1999/xlink" x="0px" y="0px"
	 viewBox="0 0 96.5 122" enable-background="new 0 0 96.5 122" xml:space="preserve">
<path fill-rule="evenodd" clip-rule="evenodd" fill="#CBCBCB" d="M41.3,110.5c21.9,0,39.7,2.6,39.7,5.7c0,3.2-17.8,5.7-39.7,5.7
	c-21.9,0-39.7-2.6-39.7-5.7C1.6,113.1,19.4,110.5,41.3,110.5L41.3,110.5z"/>
<path fill-rule="evenodd" clip-rule="evenodd" fill="#010101" d="M41.6,0c6.7,0,13,1.7,18.5,4.8c2.5-0.6,5.2-0.6,7.9-0.1
	c3.9,0.7,7.6,2.5,10.8,4.9c1.5,0.1,3.1,0.5,4,1.9c0.5,0.8,0.6,1.7,0.5,2.7c2.6,3.5,4.4,7.7,4.4,12.1c0,2.6-0.5,5.1-1.7,7.4
	c-0.9,2.3-2.3,4.2-4.2,5.8l3.1,6c0.3-0.1,0.7-0.1,1-0.1c2-0.1,3.9,0.9,5.5,2.4c1.7,1.6,3,3.8,3.9,6.1c1,2.8,1.5,5.8,1.1,8.6
	c-0.4,2.6-1.5,5-3.6,6.2c-0.7,0.4-1.4,0.6-2.2,0.6c-1.6,0.1-3.2-0.6-4.6-1.7c-1.2,1.1-2.6,2-4,2.7c-4.4,2.3-9.2,3.8-14,5.1
	c-1.9,0.5-3.6,1.1-5.5,1.3l0.9,8.8c0.1,1.3,0.2,2.1,0.4,3.4c0,0.1,0,0.1,0,0.2c3.9,2.4,9,1.6,12-2c0.3-0.4,0.5-1.1,0.7-1.5
	c0.3-0.7,0.6-1.3,1-1.8c2.1-2.6,6-2.9,8.5-0.8c3,2.5,2.6,5.8,0.7,8.8c-0.5,0.7-1,1.4-1.5,2.1c-3.2,3.9-7.9,6.4-12.9,6.9
	c-2.9,0.3-5.7-0.1-8.4-1.1l0.7,7c1.9,1.2,3.6,2.8,4.8,4.7c1.4,2.3,0.9,4.2-1.3,4.7c-0.5,0.1-1.1,0.1-1.7,0.1l-13.4,0
	c-2.8,0-5.4-2.1-5.2-5c0.1-0.8,0.2-1.6,0.5-2.3l-2-7c-0.9,0.1-1.8,0.2-2.7,0.2c-0.8,0.1-1.7,0.1-2.6,0.1c-1,0-2-0.1-2.9-0.2
	c-0.5,0-1-0.1-1.5-0.1l-2,7c0.3,0.7,0.5,1.5,0.5,2.3c0.2,3-2.3,5-5.2,5l-13.4,0c-0.6,0-1.1,0-1.7-0.1c-2.2-0.5-2.7-2.5-1.3-4.7
	c1.2-2,2.9-3.6,4.8-4.7l0.6-6c-2.2,0.5-4.9-0.5-6.9-3c-2.4-2.9-2.5-6.7-2-10.2c0.7-4.9,2.3-9.7,4-14.3c1-2.6,1.8-4.8,3.6-6.9
	c0.4-0.5,0.9-1,1.4-1.4c-3.2-1.7-6.1-3.9-8.6-6.7c-4.9-5.6-7.1-12.6-7.1-20c0-4.2,0.7-8.3,2-12.1l-3.1-8.1l0,0
	c-0.6-1.8-1.4-3.6-2-5.4c-0.5-1.5-0.9-3.2,0-4.6C1.4,6.4,3.1,6,4.7,5.9c2.2-0.1,4.7,0.2,6.9,0.5l7.4,1C25.3,2.8,33.2,0,41.6,0
	L41.6,0z M76,56.7c-0.2-0.5-0.4-1.1-0.5-1.6c0-0.3-0.1-0.6-0.1-0.9c-0.8,1.3-1.8,2.6-2.9,3.9c0,0-0.1,0.1-0.1,0.1L76,56.7L76,56.7z
	 M78.2,49.3l-0.3-0.5c-0.1,0.2-0.2,0.5-0.3,0.7C77.8,49.4,78,49.4,78.2,49.3L78.2,49.3z M79.7,24.3l-1.4,3.6c0.3,1,0.5,2.1,0.7,3.1
	c0.2-0.2,0.3-0.5,0.4-0.7c0.4-1.1,0.6-2.3,0.6-3.4C80,26.1,79.9,25.2,79.7,24.3L79.7,24.3z"/>
<path fill-rule="evenodd" clip-rule="evenodd" fill="#188ECE" d="M20.4,77.8l-5.2-1.4c0.3-0.9,0.6-1.7,0.9-2.6
	c0.6-1.6,1.9-5.8,5.1-8.1c0.5,0.2,1.1,0.5,1.6,0.7c-1.1,2.5-1.9,5.3-2.2,8.1L20.4,77.8L20.4,77.8z M66.5,63.2l3.6,9.5
	c-0.9,0.3-1.8,0.5-2.7,0.7c-1,0.3-3,1-5.2,1.4l0-0.4c-0.3-2.8-1-5.5-2.2-8C62.4,65.6,64.5,64.6,66.5,63.2L66.5,63.2z M21.5,88
	l1.4-13.2c0.3-2.7,1-5.3,2.1-7.6c5.4,1.8,11.2,2.6,16.7,2.6c5.5,0,11.2-0.7,16.5-2.5c1.1,2.3,1.8,4.8,2,7.5l1.4,13.4
	c0.3,3.1-1.1,3.3-2.4,3.5c-13.2,1.9-22.2,1.9-35.5,0C21.8,91.3,21.2,91.1,21.5,88L21.5,88z"/>
<path fill-rule="evenodd" clip-rule="evenodd" fill="#004F7E" d="M20.4,77.8l-5.2-1.4c0.3-0.9,0.6-1.7,0.9-2.6
	c0.6-1.6,1.9-5.8,5.1-8.1c0.5,0.2,1.1,0.5,1.6,0.7c-1.1,2.5-1.9,5.3-2.2,8.1L20.4,77.8L20.4,77.8z M21.5,88l1.4-13.2
	c0.3-2.7,1-5.3,2.1-7.6c1.4,0.5,2.9,0.9,4.3,1.2c-0.4,3.4-0.7,6.9-0.8,10.5c-0.1,4.6,0.1,9.1,0.6,13.4c-1.7-0.2-3.5-0.4-5.4-0.7
	C21.8,91.3,21.2,91.1,21.5,88L21.5,88z"/>
<path fill-rule="evenodd" clip-rule="evenodd" fill="#FFFFFF" d="M22.1,93.5l-1.2,12.3c3-0.7,6.6-0.2,8.4,1.8
	c-1.2-0.9-3-1.3-4.9-1.2c-4.1,0.3-7,2.8-8.7,5.5c-1.3,2,1,2,1.7,2l13.4,0c0.8,0,2.4-0.2,2.2-2.1c0-0.8-0.3-1.6-0.6-2.3l2.4-8.2
	c-2.7-0.8-4.8-2-5.8-3.4c3.5,1.1,7.7,1.8,12.2,1.8c4.5,0,8.7-0.6,12.2-1.8c-0.9,1.3-2.6,2.4-4.9,3.1l2.5,8.5
	c-0.4,0.7-0.6,1.5-0.6,2.3c-0.1,1.9,1.4,2.1,2.2,2.1l13.4,0c0.7,0,3,0.1,1.7-2c-0.5-0.8-1.1-1.5-1.8-2.1c-2-1.8-3.7-3.3-7.2-3.4
	c-1.8-0.1-3.6,0.3-4.7,1.2c1.8-2,5.3-2.5,8.4-1.8l-1.2-12.4c-0.2,0-0.3,0.1-0.5,0.1c-6.4,1-12.7,1.6-19.1,1.6
	c-6.4,0-12.7-0.7-19.1-1.7C22.3,93.6,22.2,93.6,22.1,93.5L22.1,93.5z M68.3,62l8.8-3.7c0.7,0.7,1.6,1.3,2.6,1.3c0.4,0,0.2,0,0.6,0
	c0.2,0,0.3-0.1,0.5-0.1c0.1,0.4,0.3,0.8,0.4,1.2c0.8,2,1.9,4,3.4,5.6c-1.2,1.1-2.5,1.8-3.5,2.3c-2.9,1.5-6,2.7-9.3,3.7l-3.8-10
	C68.1,62.2,68.2,62.1,68.3,62L68.3,62z M93.3,54.6c1.9,5.1,1.2,10.4-1.6,11.9C88.9,67.9,85,65,83.1,60c-0.2-0.6-0.4-1.2-0.6-1.8
	c0.9-1.2,1.1-3,0.9-4.4c-0.1-0.9-0.5-1.8-1-2.6c0.4-1.4,1.2-2.5,2.3-3.1C87.5,46.6,91.4,49.5,93.3,54.6L93.3,54.6z M19.4,98.5
	c-1.8,0.8-4-0.2-5.6-2.1c-2.2-2.7-1.9-6.6-1.6-8.7c0.5-3.3,1.3-6.4,2.4-9.7l5.6,1.5l-0.9,9c-0.3,2.5-0.4,3.7,0.7,4.4L19.4,98.5
	L19.4,98.5z M77.5,88.5c-3.4,4.1-9.1,5.3-13.8,3.1c-0.1,0.4-0.2,0.7-0.4,1l0.5,4.6c6.8,3,15,1.2,19.9-4.7c1.8-2.2,4-5.5,1.1-7.8
	c-1.7-1.4-4.1-1.1-5.5,0.5C78.4,86.2,78.4,87.4,77.5,88.5L77.5,88.5z"/>
<path fill-rule="evenodd" clip-rule="evenodd" fill="#E4E4E4" d="M21.6,98.7l-0.7,7.2c0.9-0.2,1.9-0.3,2.9-0.3L25,94
	c-0.7-0.1-2.1-0.3-2.8-0.4L21.6,98.7L21.6,98.7z M26.5,106.6c-0.7-0.1-1.4-0.1-2.2-0.1c-4.1,0.3-7,2.8-8.7,5.5c-1.3,2,1,2,1.7,2
	l13.4,0c0.1,0,0.1,0,0.2,0l-10.8,0c-0.7,0-3,0.1-1.7-2C20.1,109.5,22.8,107.1,26.5,106.6L26.5,106.6z M19.4,98.5
	c-1.8,0.8-4-0.2-5.6-2.1c-2.2-2.7-1.9-6.6-1.6-8.7c0.5-3.3,1.3-6.4,2.4-9.7l2.6,0.7c-1,3-1.8,6-2.2,9c-0.3,2.1-0.7,6,1.6,8.7
	C17.4,97.3,18.4,98.1,19.4,98.5L19.4,98.5L19.4,98.5z M77.5,88.5c-1.9,2.4-4.6,3.7-7.4,4.1c3.8,0.5,7.7-0.9,10.3-4.1
	c0.9-1.1,0.9-2.3,1.8-3.4c0.4-0.5,1-0.9,1.6-1.1c-1.5-0.6-3.3-0.2-4.4,1.1C78.4,86.2,78.4,87.4,77.5,88.5L77.5,88.5z"/>
<path fill="#FFFFFF" d="M25.9,76.3c0.1,0,0.1,0.1,0.2,0.1c0.1,0,0.2,0.1,0.3,0.1c0.1,0,0.2,0,0.3,0c0.1,0,0.1,0,0.2,0
	c0.1,0,0.1,0,0.2-0.1c0,0,0.1-0.1,0.1-0.1c0,0,0-0.1,0-0.2c0-0.1-0.1-0.2-0.2-0.3c-0.1-0.1-0.3-0.1-0.5-0.1c-0.1,0-0.3-0.1-0.4-0.1
	c-0.1,0-0.2-0.1-0.3-0.2c-0.1-0.1-0.2-0.2-0.2-0.3c-0.1-0.1-0.1-0.3-0.1-0.4c0-0.2,0-0.3,0.1-0.4c0.1-0.1,0.2-0.2,0.3-0.3
	c0.1-0.1,0.3-0.2,0.4-0.2c0.2,0,0.3-0.1,0.5-0.1c0.2,0,0.3,0,0.5,0c0.1,0,0.3,0.1,0.4,0.1c0.2,0.1,0.3,0.2,0.3,0.3
	c0,0.1,0,0.2-0.1,0.2c0,0.1-0.1,0.2-0.1,0.3c0,0-0.1-0.1-0.2-0.1c-0.1,0-0.1-0.1-0.2-0.1c-0.1,0-0.2-0.1-0.3-0.1c-0.1,0-0.2,0-0.3,0
	c-0.1,0-0.1,0-0.2,0c-0.1,0-0.1,0-0.1,0c0,0-0.1,0-0.1,0.1c0,0,0,0.1,0,0.2c0,0.2,0.2,0.3,0.5,0.3c0.1,0,0.3,0.1,0.4,0.1
	c0.1,0,0.3,0.1,0.4,0.2c0.1,0.1,0.2,0.2,0.3,0.3C28,75.7,28,75.8,28,76c0,0.2,0,0.3-0.1,0.5c-0.1,0.1-0.2,0.3-0.3,0.4
	c-0.1,0.1-0.3,0.2-0.4,0.2c-0.2,0.1-0.4,0.1-0.5,0.1c-0.2,0-0.4,0-0.5,0c-0.1,0-0.3-0.1-0.3-0.1c-0.1,0-0.1-0.1-0.2-0.1
	c-0.1-0.1-0.1-0.1-0.1-0.2c0-0.1,0-0.2,0.1-0.2c0-0.1,0.1-0.2,0.2-0.3C25.7,76.2,25.8,76.2,25.9,76.3L25.9,76.3z M28.8,72.6
	c0.3,0,0.5,0.2,0.5,0.5c0,0.3-0.2,0.5-0.5,0.5c-0.3,0-0.5-0.2-0.5-0.5C28.3,72.8,28.5,72.6,28.8,72.6L28.8,72.6z M51.8,77
	c-0.1-0.1-0.1-0.2-0.1-0.4c0-0.1,0-0.3,0.1-0.4c0.1-0.1,0.2-0.1,0.4-0.1c0.1,0,0.3,0,0.4,0.1c0.1,0.1,0.1,0.2,0.1,0.4
	c0,0.1,0,0.3-0.1,0.4c-0.1,0.1-0.2,0.1-0.4,0.1C52,77.2,51.9,77.1,51.8,77L51.8,77z M53,73.8c0,0,0.1,0,0.1,0c0.1,0,0.1,0,0.2,0
	c0.1,0,0.1,0,0.2,0c0.1,0,0.1,0,0.2,0.1c0.1,0,0.1,0.1,0.1,0.2c0,0.1,0.1,0.2,0.1,0.3v2.7c0,0-0.1,0-0.1,0c-0.1,0-0.1,0-0.2,0
	c-0.1,0-0.2,0-0.2,0c-0.1,0-0.1,0-0.2-0.1c-0.1,0-0.1-0.1-0.1-0.2c0-0.1,0-0.2,0-0.3V73.8L53,73.8z M53,73.1c0-0.1,0-0.3,0.1-0.4
	c0.1-0.1,0.2-0.1,0.4-0.1c0.1,0,0.3,0,0.3,0.1c0.1,0.1,0.1,0.2,0.1,0.4c0,0.1,0,0.3-0.1,0.4c-0.1,0.1-0.2,0.1-0.3,0.1
	c-0.1,0-0.3,0-0.4-0.1C53.1,73.4,53,73.3,53,73.1L53,73.1z M54.7,76.7c-0.1-0.2-0.2-0.3-0.3-0.5c-0.1-0.2-0.1-0.4-0.1-0.6
	c0-0.2,0-0.4,0.1-0.7c0.1-0.2,0.2-0.4,0.3-0.5c0.1-0.2,0.3-0.3,0.5-0.4c0.2-0.1,0.4-0.1,0.7-0.1c0.3,0,0.5,0,0.7,0.1
	c0.2,0.1,0.4,0.2,0.5,0.4c0.1,0.2,0.2,0.3,0.3,0.5c0.1,0.2,0.1,0.4,0.1,0.6c0,0.2,0,0.4-0.1,0.7c-0.1,0.2-0.1,0.4-0.3,0.6
	c-0.1,0.2-0.3,0.3-0.5,0.4c-0.2,0.1-0.5,0.1-0.7,0.1c-0.3,0-0.5,0-0.7-0.1C55,76.9,54.8,76.8,54.7,76.7L54.7,76.7z M55.6,76.4
	c0.1,0.1,0.2,0.1,0.3,0.1c0.1,0,0.2,0,0.3-0.1c0.1-0.1,0.2-0.1,0.2-0.2c0-0.1,0.1-0.2,0.1-0.3c0-0.1,0-0.2,0-0.4c0-0.1,0-0.2,0-0.4
	c0-0.1-0.1-0.2-0.1-0.3c-0.1-0.1-0.1-0.2-0.2-0.2c-0.1-0.1-0.2-0.1-0.3-0.1c-0.1,0-0.2,0-0.3,0.1c-0.1,0.1-0.2,0.1-0.2,0.2
	c-0.1,0.1-0.1,0.2-0.1,0.3c0,0.1,0,0.2,0,0.4c0,0.1,0,0.2,0,0.4c0,0.1,0.1,0.2,0.1,0.3C55.4,76.2,55.5,76.3,55.6,76.4L55.6,76.4z
	 M38.1,73.8C38.1,73.8,38.1,73.8,38.1,73.8c0.1,0,0.1,0,0.2,0c0,0,0.1,0,0.1,0c0.2,0,0.3,0,0.4,0.1c0.1,0.1,0.2,0.1,0.2,0.3
	c0.1-0.1,0.2-0.2,0.3-0.3c0.2-0.1,0.4-0.1,0.6-0.1c0.2,0,0.3,0,0.5,0.1c0.2,0.1,0.3,0.2,0.4,0.3c0.1,0.1,0.2,0.3,0.3,0.5
	c0.1,0.2,0.1,0.5,0.1,0.8c0,0.4,0,0.7-0.1,0.9c-0.1,0.2-0.2,0.4-0.3,0.6c-0.1,0.1-0.3,0.2-0.4,0.3c-0.2,0.1-0.3,0.1-0.5,0.1
	c-0.1,0-0.2,0-0.3,0c-0.1,0-0.2-0.1-0.3-0.1c-0.1,0-0.1-0.1-0.2-0.1c0,0-0.1-0.1-0.1-0.1v1h-0.9V73.8L38.1,73.8z M39,76.2
	c0,0,0.1,0.1,0.2,0.1c0.1,0.1,0.2,0.1,0.3,0.1c0.2,0,0.4-0.1,0.5-0.3c0.1-0.2,0.2-0.4,0.2-0.8c0-0.1,0-0.3,0-0.4
	c0-0.1-0.1-0.2-0.1-0.3c-0.1-0.1-0.1-0.2-0.2-0.2c-0.1,0-0.2-0.1-0.3-0.1c-0.2,0-0.3,0-0.4,0.1C39,74.6,39,74.7,39,74.7V76.2
	L39,76.2z M42.5,75.6c0,0.3,0.1,0.5,0.2,0.6c0.1,0.2,0.4,0.3,0.7,0.3c0.1,0,0.2,0,0.3,0c0.1,0,0.2-0.1,0.2-0.1
	c0.1,0,0.1-0.1,0.2-0.1c0.1,0,0.1-0.1,0.1-0.1c0.1,0.1,0.1,0.2,0.2,0.3c0.1,0.1,0.1,0.2,0.1,0.3c0,0.1-0.1,0.2-0.2,0.3
	c-0.1,0.1-0.2,0.1-0.4,0.2c-0.2,0.1-0.4,0.1-0.6,0.1c-0.2,0-0.4,0-0.6-0.1s-0.4-0.2-0.6-0.3c-0.2-0.1-0.3-0.3-0.4-0.6
	c-0.1-0.2-0.2-0.5-0.2-0.9c0-0.3,0-0.5,0.1-0.7c0.1-0.2,0.2-0.4,0.4-0.5c0.1-0.1,0.3-0.2,0.5-0.3c0.2-0.1,0.4-0.1,0.6-0.1
	c0.3,0,0.5,0,0.7,0.1c0.2,0.1,0.3,0.2,0.4,0.3c0.1,0.1,0.2,0.3,0.2,0.5c0.1,0.2,0.1,0.4,0.1,0.6c0,0,0,0.1,0,0.1c0,0,0,0.1,0,0.1
	c0,0,0,0.1,0,0.1c0,0,0,0.1,0,0.1H42.5L42.5,75.6z M43.7,75.1c0-0.2,0-0.4-0.1-0.5c-0.1-0.1-0.2-0.2-0.5-0.2c-0.2,0-0.3,0.1-0.5,0.2
	c-0.1,0.1-0.2,0.3-0.2,0.5H43.7L43.7,75.1z M45.7,75.6c0,0.3,0.1,0.5,0.2,0.6c0.1,0.2,0.4,0.3,0.7,0.3c0.1,0,0.2,0,0.3,0
	c0.1,0,0.2-0.1,0.2-0.1c0.1,0,0.1-0.1,0.2-0.1c0.1,0,0.1-0.1,0.1-0.1c0.1,0.1,0.1,0.2,0.2,0.3c0.1,0.1,0.1,0.2,0.1,0.3
	c0,0.1-0.1,0.2-0.2,0.3c-0.1,0.1-0.2,0.1-0.4,0.2c-0.2,0.1-0.4,0.1-0.6,0.1c-0.2,0-0.4,0-0.6-0.1s-0.4-0.2-0.6-0.3
	c-0.2-0.1-0.3-0.3-0.4-0.6c-0.1-0.2-0.2-0.5-0.2-0.9c0-0.3,0-0.5,0.1-0.7c0.1-0.2,0.2-0.4,0.4-0.5c0.1-0.1,0.3-0.2,0.5-0.3
	c0.2-0.1,0.4-0.1,0.6-0.1c0.3,0,0.5,0,0.7,0.1c0.2,0.1,0.3,0.2,0.4,0.3c0.1,0.1,0.2,0.3,0.2,0.5c0.1,0.2,0.1,0.4,0.1,0.6
	c0,0,0,0.1,0,0.1c0,0,0,0.1,0,0.1c0,0,0,0.1,0,0.1c0,0,0,0.1,0,0.1H45.7L45.7,75.6z M46.9,75.1c0-0.2,0-0.4-0.1-0.5
	c-0.1-0.1-0.2-0.2-0.5-0.2c-0.2,0-0.3,0.1-0.5,0.2c-0.1,0.1-0.2,0.3-0.2,0.5H46.9L46.9,75.1z M50.3,74.6c0,0-0.1-0.1-0.2-0.1
	c-0.1-0.1-0.2-0.1-0.3-0.1c-0.2,0-0.4,0.1-0.5,0.3c-0.1,0.2-0.2,0.4-0.2,0.8c0,0.2,0,0.3,0,0.4c0,0.1,0.1,0.2,0.1,0.3
	c0.1,0.1,0.1,0.2,0.2,0.2c0.1,0.1,0.2,0.1,0.4,0.1c0.1,0,0.2,0,0.3-0.1c0.1-0.1,0.1-0.1,0.1-0.2V74.6L50.3,74.6z M50.6,77
	c-0.1,0-0.1,0-0.2-0.1c0-0.1-0.1-0.1-0.1-0.2c-0.1,0.1-0.2,0.2-0.3,0.2c-0.2,0.1-0.3,0.1-0.6,0.1c-0.2,0-0.3,0-0.5-0.1
	c-0.2-0.1-0.3-0.1-0.4-0.3c-0.1-0.1-0.2-0.3-0.3-0.5c-0.1-0.2-0.1-0.5-0.1-0.8c0-0.3,0-0.6,0.1-0.8c0.1-0.2,0.2-0.4,0.3-0.5
	c0.1-0.1,0.3-0.2,0.4-0.3c0.2-0.1,0.3-0.1,0.5-0.1c0.2,0,0.4,0,0.5,0.1c0.1,0.1,0.2,0.1,0.3,0.2v-1.3c0,0,0.1,0,0.1,0
	c0.1,0,0.1,0,0.2,0c0.1,0,0.1,0,0.2,0c0.1,0,0.1,0,0.2,0.1c0.1,0,0.1,0.1,0.1,0.2c0,0.1,0.1,0.2,0.1,0.3V77H50.6L50.6,77z
	 M35.6,76.3c0.1,0,0.1,0.1,0.2,0.1c0.1,0,0.2,0.1,0.3,0.1c0.1,0,0.2,0,0.3,0c0.1,0,0.1,0,0.2,0c0.1,0,0.1,0,0.2-0.1
	c0,0,0.1-0.1,0.1-0.1c0,0,0-0.1,0-0.2c0-0.1-0.1-0.2-0.2-0.3c-0.1-0.1-0.3-0.1-0.5-0.1c-0.1,0-0.3-0.1-0.4-0.1
	c-0.1,0-0.2-0.1-0.3-0.2c-0.1-0.1-0.2-0.2-0.2-0.3c-0.1-0.1-0.1-0.3-0.1-0.4c0-0.2,0-0.3,0.1-0.4c0.1-0.1,0.2-0.2,0.3-0.3
	c0.1-0.1,0.3-0.2,0.4-0.2c0.2,0,0.3-0.1,0.5-0.1c0.2,0,0.3,0,0.5,0c0.1,0,0.3,0.1,0.4,0.1c0.2,0.1,0.3,0.2,0.3,0.3
	c0,0.1,0,0.2-0.1,0.2c0,0.1-0.1,0.2-0.1,0.3c0,0-0.1-0.1-0.2-0.1c-0.1,0-0.1-0.1-0.2-0.1c-0.1,0-0.2-0.1-0.3-0.1c-0.1,0-0.2,0-0.3,0
	c-0.1,0-0.1,0-0.2,0c-0.1,0-0.1,0-0.1,0c0,0-0.1,0-0.1,0.1c0,0,0,0.1,0,0.2c0,0.2,0.2,0.3,0.5,0.3c0.1,0,0.3,0.1,0.4,0.1
	c0.1,0,0.3,0.1,0.4,0.2c0.1,0.1,0.2,0.2,0.3,0.3c0.1,0.1,0.1,0.3,0.1,0.4c0,0.2,0,0.3-0.1,0.5c-0.1,0.1-0.2,0.3-0.3,0.4
	c-0.1,0.1-0.3,0.2-0.4,0.2c-0.2,0.1-0.3,0.1-0.5,0.1c-0.2,0-0.4,0-0.5,0c-0.1,0-0.3-0.1-0.3-0.1c-0.1,0-0.1-0.1-0.2-0.1
	c-0.1-0.1-0.1-0.1-0.1-0.2c0-0.1,0-0.2,0.1-0.2c0-0.1,0.1-0.2,0.2-0.3C35.4,76.2,35.5,76.2,35.6,76.3L35.6,76.3z M28.3,73.8
	c0,0,0.1,0,0.1,0c0.1,0,0.1,0,0.2,0c0.1,0,0.1,0,0.2,0c0.1,0,0.1,0,0.2,0.1c0.1,0,0.1,0.1,0.1,0.2c0,0.1,0.1,0.2,0.1,0.3v2.8
	c0,0-0.1,0-0.1,0c-0.1,0-0.1,0-0.2,0c-0.1,0-0.2,0-0.2,0c-0.1,0-0.1,0-0.2-0.1c-0.1,0-0.1-0.1-0.1-0.2c0-0.1,0-0.2,0-0.3V73.8
	L28.3,73.8z M29.7,72.8c0,0,0.1,0,0.1,0c0,0,0.1,0,0.1,0c0,0,0.1,0,0.1,0c0.1,0,0.1,0,0.2,0c0.1,0,0.1,0,0.2,0.1
	c0.1,0,0.1,0.1,0.1,0.2c0,0.1,0.1,0.2,0.1,0.3v0.5h1v0.7h-1v1.5c0,0.3,0.1,0.5,0.4,0.5c0.1,0,0.1,0,0.2,0c0.1,0,0.1,0,0.2-0.1
	c0,0,0.1-0.1,0.1-0.1c0,0,0.1,0,0.1-0.1c0.1,0.1,0.1,0.2,0.2,0.3c0,0.1,0.1,0.1,0.1,0.2c0,0.1,0,0.1-0.1,0.2c0,0.1-0.1,0.1-0.2,0.2
	c-0.1,0-0.2,0.1-0.3,0.1c-0.1,0-0.3,0-0.4,0c-0.3,0-0.5-0.1-0.7-0.2c-0.2-0.1-0.3-0.3-0.3-0.4c0-0.1-0.1-0.2-0.1-0.3
	c0-0.1,0-0.2,0-0.3V72.8L29.7,72.8z M32.8,75.6c0,0.3,0.1,0.5,0.2,0.6c0.1,0.2,0.4,0.3,0.7,0.3c0.1,0,0.2,0,0.3,0s0.2-0.1,0.2-0.1
	c0.1,0,0.1-0.1,0.2-0.1c0.1,0,0.1-0.1,0.1-0.1c0.1,0.1,0.1,0.2,0.2,0.3c0.1,0.1,0.1,0.2,0.1,0.3c0,0.1-0.1,0.2-0.2,0.3
	c-0.1,0.1-0.2,0.1-0.4,0.2c-0.2,0.1-0.4,0.1-0.6,0.1c-0.2,0-0.4,0-0.6-0.1s-0.4-0.2-0.6-0.3c-0.2-0.1-0.3-0.3-0.4-0.6
	c-0.1-0.2-0.2-0.5-0.2-0.9c0-0.3,0-0.5,0.1-0.7c0.1-0.2,0.2-0.4,0.4-0.5c0.1-0.1,0.3-0.2,0.5-0.3c0.2-0.1,0.4-0.1,0.6-0.1
	c0.3,0,0.5,0,0.7,0.1c0.2,0.1,0.3,0.2,0.4,0.3c0.1,0.1,0.2,0.3,0.2,0.5c0.1,0.2,0.1,0.4,0.1,0.6c0,0,0,0.1,0,0.1c0,0,0,0.1,0,0.1
	c0,0,0,0.1,0,0.1c0,0,0,0.1,0,0.1H32.8L32.8,75.6z M34,75.1c0-0.2,0-0.4-0.1-0.5c-0.1-0.1-0.2-0.2-0.5-0.2c-0.2,0-0.3,0.1-0.5,0.2
	c-0.1,0.1-0.2,0.3-0.2,0.5H34L34,75.1z"/>
<path fill-rule="evenodd" clip-rule="evenodd" fill="#FFFFFF" d="M41.6,2.3c5.6,0,10.8,1.3,15.5,3.5c-1.9,0.8-3.7,2.1-5.1,3.7
	c-1.1,1.2-2,2.7-2.6,4.2c-1.2,2.3-1.7,4.8-1.7,7.4c0.1,5.2,2.4,10.1,5.9,13.9c3.6,3.9,8.5,6.8,13.7,7.7c2.5,0.4,5,0.5,7.5,0l1.6,3.2
	c-3.7,14.5-17.9,21.6-34.8,21.6C21.9,67.5,5.9,57.8,5.9,38c0-8.4,2.9-16.1,7.8-22.2h0c-0.6-0.8-1.1-1.6-1.7-2.3
	c-2.7-3.1-6.2-4.6-9-4.2c2.7,0.9,5.4,2.7,7.7,5.4c0.2,0.2,0.3,0.4,0.5,0.6c-1.8,2.5-3.4,5.1-4.6,8l-2.3-6.1
	C1.3,8.9-1.2,6.6,11.4,8.3L16.4,9l4,0.3C26.3,4.9,33.7,2.3,41.6,2.3L41.6,2.3z M79.5,30.4c0.4-1.1,0.6-2.3,0.6-3.4
	c0-3.4-1.6-6.6-3.9-9.1c-2.4-2.6-5.7-4.6-9.2-5.2c-4.2-0.8-8.8,0.5-11.1,4.4c-0.4,1.1-0.6,2.3-0.6,3.4c0,3.4,1.6,6.6,3.9,9.1
	c2.4,2.6,5.7,4.6,9.2,5.2C72.7,35.5,77.3,34.3,79.5,30.4L79.5,30.4z"/>
<path fill-rule="evenodd" clip-rule="evenodd" fill="#CBCBCB" d="M76.4,45.9c-0.2,0.8-0.5,1.6-0.7,2.4l-1.9-3.7
	c-2.5,0.5-5,0.5-7.5,0c-5.3-0.9-10.1-3.8-13.7-7.7c-3.5-3.8-5.8-8.7-5.9-13.9c0-2.6,0.5-5.1,1.7-7.4c0.3-0.8,0.7-1.6,1.2-2.4
	c-0.1,0.2-0.1,0.3-0.2,0.5c-1.2,2.3-1.7,4.8-1.7,7.4c0.1,5.2,2.4,10.1,5.9,13.9c3.6,3.9,8.5,6.8,13.7,7.7c2.5,0.4,5,0.5,7.5,0
	L76.4,45.9L76.4,45.9z"/>
<path fill-rule="evenodd" clip-rule="evenodd" fill="#E4E4E4" d="M29.1,66.1C15.5,62.7,5.9,53.4,5.9,38c0-8.4,2.9-16.1,7.8-22.2
	c-0.6-0.8-1.1-1.6-1.7-2.3c-2.7-3.1-6.2-4.6-9-4.2c2.7,0.9,5.4,2.7,7.7,5.4c0.2,0.2,0.3,0.4,0.5,0.6c-1.8,2.5-3.4,5.1-4.6,8
	l-2.3-6.1C1.3,8.9-1.2,6.6,11.4,8.3L16.4,9l4,0.3c3.8-2.8,8.1-4.8,12.8-6C20.4,9.1,11.5,22.6,11.5,38.2
	C11.5,52.2,18.6,61.4,29.1,66.1L29.1,66.1z"/>
<path fill-rule="evenodd" clip-rule="evenodd" fill="#BDBEC0" d="M2.9,9.3L2.9,9.3L2.9,9.3L2.9,9.3L2.9,9.3z M2.9,9.3
	c2.7,0.9,5.4,2.7,7.7,5.4c0.2,0.2,0.3,0.4,0.5,0.6c-1,1.3-1.9,2.8-2.7,4.2C7.4,16,5.8,12.2,2.9,9.3L2.9,9.3z"/>
<path fill-rule="evenodd" clip-rule="evenodd" fill="#010101" d="M27.5,21.9c1.4,0.3,2.7,1,3.6,1.8C30,22.5,28.5,21.5,27,21
	c3.6-0.8,7.1,3.4,6.3,6.3l0,0l0,0l0,0l0,0c-1.5-1.8-3.7-3.2-6.4-3.8c-2.7-0.6-5.5-0.3-7.8,0.6C21.1,22.1,24.3,21.2,27.5,21.9
	L27.5,21.9z M40.2,38.8c-0.6,0.2-1.3,0.4-2.2,0.5c-1.2,0.2-2.8-1-3.9-1.8c-1.2-0.8-1.3-0.5-0.4,0.6c1,1.2,2.1,2.5,3.7,2.8
	c0.5,0.1,1,0.1,1.5,0c0.6-0.1,1.1-0.3,1.4-0.5c0.7-0.4,1.3-0.6,1.8-0.6s1.1,0.2,1.8,0.6c0.3,0.2,0.8,0.4,1.4,0.5
	c0.5,0.1,1,0.1,1.5,0c1.6-0.3,2.7-1.6,3.7-2.8c0.8-0.9,0.9-1.6-0.4-0.6c-1.1,0.8-2.7,2-3.9,1.8c-0.9-0.1-1.6-0.3-2.2-0.5
	c-0.4-0.2-0.7-0.4-0.9-0.8c-0.3-0.6-0.5-1.5-0.5-2c0-0.5,0-0.6,0.4-0.8c1.2-0.9,2.3-0.7,2.8-1.3c0.3-0.4,0.1-0.9-0.2-1.2
	c-1-1.3-5.9-1.3-7,0c-0.3,0.4-0.4,0.8-0.2,1.2c0.4,0.7,1.7,0.4,2.9,1.5c0.3,0.3,0.3,0.4,0.3,0.8c0,0.5-0.2,1.4-0.6,2
	C41,38.4,40.7,38.6,40.2,38.8L40.2,38.8z"/>
<path fill-rule="evenodd" clip-rule="evenodd" fill="#A52622" d="M78.9,39.6l3.6,7.1c-1,0.9-1.7,2.2-2.1,3.6L75.6,41
	c-2.4,0.7-5.1,0.8-8,0.3c-10-1.8-18.3-10.8-18.4-20.2c-0.1-9.3,7.9-15.4,18-13.6c10,1.8,18.3,10.8,18.4,20.2
	C85.6,33,83,37.3,78.9,39.6L78.9,39.6z M67.2,11.2c7.8,1.4,14.2,8.4,14.3,15.7c0.1,7.3-6.2,12-14,10.6c-7.8-1.4-14.2-8.4-14.3-15.7
	C53.1,14.6,59.4,9.8,67.2,11.2L67.2,11.2z"/>
<path fill-rule="evenodd" clip-rule="evenodd" fill="#EC252C" d="M79.5,38.3l4,7.7c-1.1,0.7-1.9,1.7-2.5,2.9l-4.7-9.2
	c-2.4,0.7-5.1,0.8-8,0.3c-10-1.8-18.3-10.8-18.4-20.2c-0.1-9.3,7.9-15.4,18-13.6C77.8,7.9,86,17,86.2,26.3
	C86.2,31.7,83.6,36,79.5,38.3L79.5,38.3z M67.8,9.9c7.8,1.4,14.2,8.4,14.3,15.7c0.1,7.3-6.2,12-14,10.6c-7.8-1.4-14.2-8.4-14.3-15.7
	C53.8,13.2,60,8.5,67.8,9.9L67.8,9.9z"/>
<path fill-rule="evenodd" clip-rule="evenodd" fill="#CBCBCB" d="M87.8,66.1c-1.8-1.1-3.6-3.3-4.7-6.2c-1.8-4.8-1.3-9.9,1.2-11.6
	C82.7,53.6,83.8,61.7,87.8,66.1L87.8,66.1z M78.9,50.9c0.4-0.1,0.9,0.1,1.2,0.3c-0.1,0.3-0.1,0.5-0.1,0.8c-0.3,1.9-0.1,3.8,0.3,5.8
	c-0.1,0-0.2,0.1-0.3,0.1c-1.2,0.2-2.5-1.2-2.8-3.1C76.9,52.9,77.7,51.1,78.9,50.9L78.9,50.9z"/>
<path fill-rule="evenodd" clip-rule="evenodd" fill="#010101" d="M70.2,18.1c-1.9-0.9-3.8-1-5.4-0.4c0.4,0,0.8,0.1,1.2,0.2
	c1.2,0.5,1.8,1.8,1.5,2.8c-0.4,1-1.6,1.4-2.8,0.8c-1.2-0.5-1.8-1.8-1.5-2.8c0-0.1,0.1-0.3,0.2-0.4c-0.8,0.6-1.4,1.4-1.7,2.3
	c-1.1,3.1,1,7,4.6,8.7c3.6,1.7,7.5,0.5,8.6-2.6C75.9,23.6,73.8,19.8,70.2,18.1L70.2,18.1z"/>
</svg>
