<?xml version="1.0" encoding="utf-8"?>
<!-- Generator: Adobe Illustrator 17.0.0, SVG Export Plug-In . SVG Version: 6.00 Build 0)  -->
<!DOCTYPE svg PUBLIC "-//W3C//DTD SVG 1.1//EN" "http://www.w3.org/Graphics/SVG/1.1/DTD/svg11.dtd">
<svg version="1.1" id="Layer_1" xmlns="http://www.w3.org/2000/svg" xmlns:xlink="http://www.w3.org/1999/xlink" x="0px" y="0px"
	 width="122.603px" height="114.08px" viewBox="0 0 122.603 114.08" enable-background="new 0 0 122.603 114.08"
	 xml:space="preserve">
<path fill-rule="evenodd" clip-rule="evenodd" fill="#010101" d="M96.771,21.204L97.96,18.1l0.008-0.023
	c0.645-1.826,1.417-3.64,2.008-5.477c0.479-1.495,0.884-3.236,0.005-4.673c-0.898-1.47-2.631-1.834-4.228-1.91
	c-2.245-0.108-4.801,0.237-7.028,0.542l-7.502,1.027C74.804,2.821,66.855,0,58.247,0C49.64,0,41.692,2.821,35.271,7.587
	l-7.502-1.028c-2.227-0.305-4.783-0.649-7.028-0.542c-1.597,0.076-3.329,0.44-4.228,1.91c-0.879,1.437-0.474,3.178,0.005,4.673
	c0.59,1.837,1.363,3.651,2.008,5.477l0.008,0.023l3.13,8.176c-1.303,3.868-2.009,8.01-2.009,12.317
	c0,7.523,2.173,14.585,7.193,20.285c0.496,0.563,1.01,1.103,1.542,1.62l-0.03,0.11c-2.469,0.267-4.992-0.834-6.431-3.061
	c-0.191-0.296-0.289-0.816-0.385-1.156c-0.153-0.545-0.345-1.044-0.653-1.522c-1.439-2.227-4.413-2.866-6.64-1.427
	c-2.55,1.648-2.573,4.335-1.388,6.837c0.28,0.591,0.613,1.158,0.968,1.707c3.443,5.328,9.765,7.678,15.61,6.331
	c0.245,0.683,0.504,1.335,0.751,1.925c-1.028,0.149-2.064,0.136-2.941-0.03l-1.219-0.23l-0.469,1.149
	c-0.953,2.34-1.366,4.834-1.139,7.355l0.098,1.071l5.42,6.309c-0.088,0.036-0.176,0.07-0.265,0.103l-2.203,0.779l1.497,1.686
	c0.186,0.211,0.376,0.417,0.57,0.62l5.468,6.063l0.148,0.161l0.151,0.159l0.159,0.165l0.153,0.154l0.166,0.164l0.162,0.157
	l0.159,0.151l0.176,0.161l0.169,0.153l0.172,0.152l0.177,0.152l0.177,0.149l0.179,0.147l0.186,0.149l0.184,0.145l0.187,0.145
	l0.192,0.144l0.194,0.143l0.194,0.14l0.199,0.14l0.201,0.138l0.202,0.136l0.206,0.136l0.207,0.134l0.211,0.132l0.212,0.132
	l0.214,0.129l0.221,0.129l0.219,0.126l0.222,0.125l0.285,0.158l0.696,0.383l0.262,0.144l0.945-0.989l0.119-0.116l0.129-0.111
	l0.138-0.11l0.146-0.107l0.153-0.102l0.162-0.099l0.169-0.096l0.177-0.091l0.182-0.086l0.191-0.081l0.196-0.075l0.201-0.071
	l0.204-0.064l0.211-0.058l0.216-0.053l0.216-0.046l0.222-0.04l0.224-0.034l0.224-0.026l0.225-0.019l0.23-0.012l0.23-0.005
	l0.227,0.002l0.229,0.01l0.229,0.016l0.225,0.024l0.225,0.032l0.222,0.039l0.221,0.046l0.217,0.053l0.216,0.061l0.089,0.029
	l2.563,5.174l1.142,0.146l0.292,0.036l0.3,0.034l0.297,0.031l0.297,0.029l0.297,0.027l0.297,0.026l0.298,0.023l0.298,0.021
	l0.298,0.019l0.297,0.016l0.297,0.014l0.298,0.013l0.298,0.01l0.297,0.008l0.298,0.006l0.297,0.004l0.298,0.001l0.298-0.001
	l0.166-0.001l0.164,0.001l0.297,0.001l0.298-0.001l0.298-0.004l0.297-0.006l0.298-0.008l0.297-0.01l0.298-0.012l0.298-0.015
	l0.297-0.016l0.297-0.019l0.3-0.021l0.297-0.023l0.297-0.025l0.297-0.027l0.298-0.029l0.295-0.031l0.298-0.034l0.297-0.036
	l1.144-0.146l2.472-4.992c0.194-0.203,0.403-0.257,0.612-0.325l0.221-0.046l0.224-0.039l0.225-0.032l0.225-0.024l0.227-0.016
	l0.229-0.01l0.229-0.002l0.229,0.005l0.23,0.012l0.225,0.019l0.224,0.026l0.224,0.034l0.222,0.04l0.216,0.046l0.216,0.053
	l0.211,0.058l0.204,0.064l0.202,0.071l0.194,0.075l0.191,0.081l0.182,0.086l0.177,0.091l0.169,0.096l0.162,0.099l0.153,0.102
	l0.146,0.107l0.139,0.11l0.128,0.111l0.121,0.116l0.943,0.989l0.257-0.141l0.685-0.376l0.3-0.165l0.222-0.126l0.219-0.126
	l0.219-0.129l0.214-0.13l0.212-0.13l0.211-0.133l0.207-0.133l0.206-0.135l0.204-0.137l0.199-0.138l0.199-0.139l0.196-0.141
	l0.192-0.142l0.192-0.144l0.187-0.145l0.186-0.145l0.184-0.148l0.179-0.148l0.177-0.149l0.177-0.152l0.174-0.153l0.169-0.153
	l0.169-0.156l0.166-0.156l0.161-0.155l0.162-0.16l0.156-0.159l0.156-0.16l0.154-0.163l0.149-0.162l5.469-6.065
	c0.194-0.204,0.385-0.41,0.572-0.62l1.495-1.686l-2.208-0.78c-0.086-0.032-0.174-0.066-0.26-0.102l5.42-6.309l0.098-1.071
	c0.022-0.248,0.038-0.497,0.048-0.744c4.15,1.388,8.855,1.867,12.036,0.497c0.118-0.05,0.212-0.118,0.283-0.2
	c2.361-1.122,3.8-3.43,4.431-5.904c0.68-2.675,0.466-5.601-0.408-8.206c-0.726-2.165-1.95-4.234-3.669-5.758
	c-1.592-1.41-3.611-2.332-5.769-2.208c-0.161,0.009-0.322,0.024-0.479,0.045l-1.442-2.817c4.478-4.023,7.053-9.741,7.053-15.815
	C104.232,30.903,101.335,25.105,96.771,21.204L96.771,21.204z M90.158,58.28c0.292-0.35,0.572-0.704,0.842-1.063l1.724,3.365
	c-0.31,0.19-0.632,0.306-0.915,0.25C90.967,60.665,90.398,59.156,90.158,58.28L90.158,58.28z"/>
<path fill-rule="evenodd" clip-rule="evenodd" fill="#FFFFFF" d="M20.355,58.564c1.757,2.719,4.781,4.124,7.797,3.942
	c0.025,1.267,0.31,2.663,0.705,4.019c-5.051,1.094-10.478-0.96-13.449-5.557c-1.142-1.768-2.487-4.431-0.136-5.95
	c1.356-0.877,3.167-0.488,4.044,0.87C19.864,56.737,19.773,57.664,20.355,58.564L20.355,58.564z"/>
<path fill-rule="evenodd" clip-rule="evenodd" fill="#DBB127" d="M84.762,85.706l5.756-6.607l-0.02-0.003
	c-1.507-0.279-3.16-0.22-4.617,0.274c-1.452,0.492-3.065,1.623-3.039,3.321C82.862,83.941,83.715,84.967,84.762,85.706
	L84.762,85.706z M31.813,85.706l-5.754-6.607l0.018-0.003c1.507-0.279,3.16-0.22,4.617,0.274c1.454,0.492,3.065,1.622,3.039,3.321
	C33.713,83.941,32.859,84.968,31.813,85.706L31.813,85.706z M82.356,91.979c-1.769,2.115-3.516,3.928-5.894,5.425l2.888-3.639
	l0.003,0.003C80.378,93.209,81.388,92.631,82.356,91.979L82.356,91.979z M40.092,97.39c-2.316-1.492-3.976-3.311-5.874-5.413
	c0.967,0.652,1.971,1.228,2.994,1.784L40.092,97.39L40.092,97.39z M41.561,98.258L41.561,98.258l-3.926-4.947
	c1.855-2.033,5.219-2.706,7.966-2.231l2.787,5.171l-0.056-0.01C45.953,95.911,43.27,96.468,41.561,98.258L41.561,98.258z
	 M46.491,91.28c2.248,0.66,5.055,2.759,3.79,5.534c-0.343-0.157-0.698-0.279-1.061-0.382L46.491,91.28L46.491,91.28z M65.663,97.937
	l-1.762,3.811c-3.715,0.473-7.512,0.473-11.227,0l-1.762-3.811C55.729,98.573,60.847,98.573,65.663,97.937L65.663,97.937z
	 M66.986,96.544c-0.234,0.075-0.468,0.167-0.691,0.27c-1.144-2.508,1.093-4.615,3.339-5.393L66.986,96.544L66.986,96.544z
	 M75.008,98.253c-1.779-1.865-4.576-2.392-7.039-1.964l-0.078,0.017l2.656-5.142c2.817-0.625,6.434,0.005,8.387,2.141L75.008,98.253
	L75.008,98.253z"/>
<path fill-rule="evenodd" clip-rule="evenodd" fill="#FFCD05" d="M58.287,97.599c2.445,0.04,4.906-0.098,7.338-0.422
	c-1.243-2.646,0.486-5.484,4.075-6.574c3.541-1.076,7.729-0.089,9.815,2.212c1.885-1.025,3.541-2.174,4.965-3.419l-0.01-0.004
	l0.69-0.629l0.01,0.005c0.459-0.436,0.894-0.884,1.298-1.34c-3.41-1.204-5.184-3.908-4.035-6.258
	c1.124-2.304,4.685-3.473,8.203-2.82c0.035-0.386,0.053-0.772,0.055-1.16c-2.691-1.081-5.008-2.525-6.311-4.044
	c-0.713-0.832-1.325-1.726-1.84-2.668c-0.35-0.216-0.671-0.455-0.96-0.715c-1.955,2.362-4.095,4.364-6.366,6.009l-0.042,0.082
	c-0.526,1.037-1.124,2.086-1.797,3.09c-0.28,1.076-0.826,2.094-1.588,3.024l-1.063,1.11c-2.777,2.523-7.311,4.166-12.436,4.166
	c-4.796,0-9.075-1.439-11.882-3.692l0,0l-1.325-1.248c-0.867-0.962-1.494-2.026-1.825-3.16c-0.146-0.214-0.29-0.431-0.429-0.649
	c-1.005,0.794-2.364,0.942-3.669,0.804c-4.34-0.457-6.378-3.354-8.052-6.992c-0.085-0.185-0.179-0.393-0.282-0.622
	c-1.26,0.237-2.595,0.257-3.851,0.019c-0.895,2.195-1.233,4.438-1.033,6.647c3.518-0.653,7.079,0.516,8.203,2.82
	c1.149,2.351-0.623,5.054-4.035,6.258c0.471,0.53,0.978,1.047,1.522,1.55l0.002,0c0.076,0.07,0.153,0.141,0.23,0.21l0.01-0.005
	l0.716,0.613l-0.013,0.007c1.313,1.088,2.81,2.099,4.486,3.011c2.086-2.302,6.275-3.288,9.816-2.212
	c3.588,1.09,5.317,3.928,4.073,6.574C53.381,97.501,55.842,97.639,58.287,97.599L58.287,97.599z"/>
<path fill-rule="evenodd" clip-rule="evenodd" fill="#0795D1" d="M34.233,64.95c12.374,18.893,35.654,18.892,48.028,0
	c-7.122,4.232-15.819,5.872-24.014,5.872C50.052,70.821,41.355,69.181,34.233,64.95L34.233,64.95z"/>
<path fill-rule="evenodd" clip-rule="evenodd" fill="#02527D" d="M34.228,64.946c5.968,9.116,14.476,13.837,23.074,14.159
	c0.535-0.02,1.073-0.059,1.608-0.114c-7.237-0.735-14.299-4.599-19.719-11.593C37.474,66.703,35.813,65.889,34.228,64.946
	L34.228,64.946z"/>
<path fill-rule="evenodd" clip-rule="evenodd" fill="#FFFFFF" d="M58.247,2.305c8.08,0,15.544,2.643,21.574,7.111l5.756-0.526
	c2.56-0.351,5.126-0.761,7.704-0.941c7.752-0.543,5.497,2.182,2.913,9.502l-0.975,2.545c-1.427-1.009-2.986-1.846-4.644-2.481
	c-0.448-0.686-0.915-1.355-1.406-2.009c0.171-0.21,0.343-0.418,0.524-0.623c2.349-2.693,5.138-4.558,7.852-5.464
	c-4.891-0.401-8.311,3.2-10.771,6.747c0.086,0.111,0.174,0.222,0.26,0.334c-1.318-0.255-2.677-0.39-4.068-0.39
	c-11.743,0-21.265,9.524-21.265,21.266c0,11.743,9.523,21.265,21.265,21.265c1.393,0,2.775-0.136,4.131-0.403
	c-6.631,6.869-17.086,10.279-28.85,10.279c-20.037,0-36.287-9.886-36.287-29.924c0-8.526,2.944-16.366,7.868-22.56
	c-2.321-3.564-6.041-7.361-10.879-6.614c2.714,0.906,5.502,2.771,7.852,5.464c0.181,0.206,0.355,0.414,0.524,0.624
	c-1.865,2.492-3.435,5.216-4.659,8.122l-2.366-6.178c-2.561-7.254-4.798-9.995,2.706-9.516c2.321,0.148,4.64,0.474,6.95,0.808
	c2.253,0.326,4.463,0.506,6.734,0.661C42.718,4.943,50.175,2.305,58.247,2.305L58.247,2.305z M82.966,23.613
	c-7.6,0-13.764,6.162-13.764,13.762s6.164,13.762,13.764,13.762c7.6,0,13.762-6.162,13.762-13.762S90.566,23.613,82.966,23.613
	L82.966,23.613z"/>
<path fill-rule="evenodd" clip-rule="evenodd" fill="#E8E8E8" d="M45.487,67.021C31.743,63.572,21.96,54.139,21.96,38.592
	c0-3.357,0.459-6.607,1.313-9.693L23.271,28.9l0.061-0.219l0.05-0.173c0.051-0.176,0.103-0.351,0.156-0.526l0.085-0.27
	c0.043-0.136,0.086-0.273,0.131-0.409l0.118-0.355l0.101-0.292c0.053-0.156,0.109-0.311,0.166-0.465l0.093-0.254
	c0.048-0.128,0.096-0.256,0.144-0.383c0.05-0.126,0.098-0.251,0.148-0.376c0.053-0.133,0.108-0.266,0.162-0.398l0.118-0.283
	l0.146-0.341c0.055-0.126,0.109-0.252,0.166-0.377l0.144-0.318c0.06-0.131,0.121-0.261,0.182-0.39l0.101-0.211
	c0.076-0.16,0.154-0.319,0.234-0.478l0.096-0.19c0.085-0.168,0.172-0.337,0.26-0.503l0.101-0.19
	c0.063-0.119,0.128-0.238,0.194-0.356c0.07-0.129,0.141-0.257,0.214-0.385l0.187-0.328l0.164-0.279
	c0.071-0.12,0.143-0.24,0.216-0.359l0.158-0.257c0.073-0.118,0.146-0.235,0.22-0.352l0.146-0.228
	c0.083-0.13,0.167-0.259,0.254-0.387c0.068-0.104,0.138-0.207,0.207-0.31l0.214-0.312l0.179-0.256
	c0.096-0.136,0.192-0.272,0.292-0.407l0.128-0.176c0.106-0.144,0.214-0.286,0.322-0.429l0.134-0.177
	c0.116-0.151,0.232-0.301,0.35-0.449l0.017-0.02c-2.321-3.564-6.041-7.361-10.879-6.614c2.714,0.906,5.502,2.771,7.852,5.464
	c0.181,0.206,0.355,0.414,0.524,0.624c-1.865,2.492-3.435,5.216-4.659,8.122l-2.366-6.178c-2.561-7.254-4.798-9.995,2.706-9.516
	c2.321,0.148,4.64,0.474,6.95,0.808c2.253,0.326,4.463,0.506,6.734,0.661c0.481-0.356,0.972-0.7,1.471-1.032l-0.002,0.004
	c3.457-2.303,7.331-4.03,11.486-5.041c-12.925,5.904-21.98,19.559-21.98,35.459C27.665,52.926,34.82,62.307,45.487,67.021
	L45.487,67.021z"/>
<path fill="#010101" d="M62.122,54.785c1.19,0.157,2.825-1.028,3.967-1.856c1.338-0.97,1.161-0.314,0.383,0.64
	c-1.018,1.247-2.117,2.593-3.782,2.864c-0.524,0.085-1.036,0.065-1.497-0.008c-0.6-0.096-1.119-0.288-1.465-0.469
	c-0.72-0.376-1.275-0.563-1.82-0.563c-0.547,0-1.102,0.188-1.822,0.563c-0.346,0.181-0.865,0.373-1.466,0.469
	c-0.461,0.074-0.973,0.093-1.497,0.008c-1.664-0.27-2.762-1.616-3.78-2.864c-0.902-1.104-0.789-1.488,0.383-0.638
	c1.142,0.827,2.775,2.011,3.966,1.854c1.154-0.152,2.149-0.364,2.789-0.801c0.593-0.406,0.877-1.033,0.68-2.04
	c-0.02-0.099-0.037-0.215-0.053-0.342c-2.008-2.006-4.151-1.412-4.879-2.614c-0.408-0.674-0.227-1.353,0.25-1.938
	c1.605-1.963,9.259-1.963,10.864,0c0.477,0.584,0.658,1.264,0.25,1.938c-0.706,1.167-2.745,0.642-4.7,2.445
	c-0.028,0.199-0.051,0.377-0.078,0.511c-0.197,1.007,0.048,1.635,0.603,2.041c0.005,0.002,0.008,0.006,0.012,0.009
	C60.026,54.422,60.974,54.634,62.122,54.785L62.122,54.785z"/>
<path fill-rule="evenodd" clip-rule="evenodd" fill="#ED2224" d="M95.223,52.799l1.85,3.614c-0.118,0.046-0.234,0.097-0.35,0.15
	c-1.245,0.572-2.238,1.471-2.996,2.551l-2.074-4.052c-2.621,1.29-5.57,2.016-8.687,2.016c-10.881,0-19.704-8.823-19.704-19.703
	c0-10.88,8.823-19.703,19.704-19.703c10.879,0,19.702,8.823,19.702,19.703C102.668,43.622,99.759,49.19,95.223,52.799L95.223,52.799
	z M82.966,22.051c8.462,0,15.324,6.862,15.324,15.324c0,8.462-6.862,15.324-15.324,15.324c-8.462,0-15.325-6.863-15.325-15.324
	C67.641,28.913,74.504,22.051,82.966,22.051L82.966,22.051z"/>
<path fill-rule="evenodd" clip-rule="evenodd" fill="#9A1B1F" d="M93.727,59.115l-2.074-4.053c0.554-0.213,0.056,0.024,0.585-0.236
	l1.956,3.683C94.029,58.704,93.875,58.905,93.727,59.115L93.727,59.115z M83.961,57.053c-0.33,0.016-0.661,0.025-0.995,0.025
	c-10.881,0-19.704-8.823-19.704-19.703c0-10.88,8.823-19.703,19.704-19.703c0.333,0,0.665,0.008,0.993,0.025
	C57.919,19.23,56.969,55.363,83.961,57.053L83.961,57.053z M83.961,22.084c7.998,0.512,14.329,7.163,14.329,15.291
	c0,8.128-6.331,14.779-14.329,15.291c0.328,0.021,0.661,0.077,0.993,0.033c19.684-2.613,18.338-29.066,0-30.649
	C84.621,22.022,84.289,22.063,83.961,22.084L83.961,22.084z"/>
<path fill-rule="evenodd" clip-rule="evenodd" fill="#FFFFFF" d="M106.354,64.662c1.605,4.783,0.313,9.853-2.885,11.321
	c-3.196,1.468-7.089-1.221-8.694-6.004c-1.605-4.783-0.313-9.853,2.883-11.321C100.854,57.19,104.749,59.878,106.354,64.662
	L106.354,64.662z M88.037,59.264c0.779,2.572,2.288,3.932,3.999,3.884c-0.497,2.495-0.25,5.167,0.554,7.564
	c0.726,2.165,1.95,4.235,3.669,5.759c0.061,0.054,0.123,0.108,0.186,0.161c-6.661-0.746-11.035-4.215-12.873-9.497
	c0.978-1.409,1.897-2.92,2.745-4.538l1.358-2.584L88.037,59.264L88.037,59.264z"/>
<path fill-rule="evenodd" clip-rule="evenodd" fill="#D2D3D4" d="M99.261,75.768c-1.873-0.97-3.561-3.031-4.486-5.789
	c-1.533-4.571-0.421-9.401,2.469-11.103c-1.984,2.763-2.5,7.319-1.038,11.68C96.915,72.669,97.993,74.447,99.261,75.768
	L99.261,75.768z"/>
<path fill-rule="evenodd" clip-rule="evenodd" fill="#010101" d="M82.964,29.389c0.537,0,1.061,0.053,1.567,0.154
	c-0.864,0.431-1.456,1.323-1.456,2.354c0,1.452,1.177,2.629,2.629,2.629s2.629-1.177,2.629-2.629c0-0.161-0.015-0.318-0.043-0.47
	c1.633,1.462,2.661,3.586,2.661,5.949c0,4.41-3.576,7.987-7.988,7.987c-4.408,0-7.986-3.577-7.986-7.987
	C74.979,32.966,78.556,29.389,82.964,29.389L82.964,29.389z"/>
<path fill-rule="evenodd" clip-rule="evenodd" fill="#010101" d="M43.968,35.468c3.805,1.02,6.471,4.165,7.066,7.814
	c-1.772-2.581-4.44-4.568-7.701-5.442c-3.261-0.874-6.563-0.487-9.39,0.862C36.282,35.839,40.165,34.449,43.968,35.468
	L43.968,35.468z"/>
<path fill-rule="evenodd" clip-rule="evenodd" fill="#0795D1" d="M88.037,59.264c0.594,1.96,1.611,3.215,2.818,3.681
	c-0.913,0.204-4.33,6.893-4.039,9.441c-1.449-1.446-2.536-3.214-3.246-5.251c0.978-1.409,1.897-2.92,2.745-4.538l1.358-2.584
	L88.037,59.264L88.037,59.264z"/>
<path fill-rule="evenodd" clip-rule="evenodd" fill="#FFFFFF" d="M60.81,81.303c3.021,2.645,6.771,1.678,10.146-2.935
	C67.702,80.003,64.274,80.98,60.81,81.303L60.81,81.303z"/>
<path fill-rule="evenodd" clip-rule="evenodd" fill="#FFFFFF" d="M55.684,81.303c-3.021,2.646-6.769,1.677-10.146-2.935
	C48.793,80.002,52.221,80.98,55.684,81.303L55.684,81.303z"/>
<path fill-rule="evenodd" clip-rule="evenodd" fill="#FFFFFF" d="M39.397,77.006c-3.526-0.371-4.972-2.999-6.199-5.664
	c-1.66-3.608-2.49-6.321-2.701-8.157c3.051,5.606,6.938,9.924,11.282,12.945C41.554,76.798,40.861,77.161,39.397,77.006
	L39.397,77.006z"/>
<path fill-rule="evenodd" clip-rule="evenodd" fill="#0795D1" d="M33.497,71.975c-0.101-0.21-0.201-0.421-0.298-0.632
	c-1.66-3.608-2.49-6.321-2.701-8.157c1.66,3.049,3.566,5.717,5.658,8.002l-0.085,0.004C35.273,71.557,34.367,71.841,33.497,71.975
	L33.497,71.975z"/>
<path fill-rule="evenodd" clip-rule="evenodd" fill="#BDBEC0" d="M27.323,15.503c-1.051,1.405-2.006,2.886-2.861,4.43
	c-0.983-3.689-2.079-7.193-4.939-10.31c2.532,0.968,5.095,2.755,7.278,5.258C26.98,15.088,27.154,15.294,27.323,15.503
	L27.323,15.503z"/>
<path fill-rule="evenodd" clip-rule="evenodd" fill="#010101" d="M15.466,110.925l-0.075,0.001h-0.134l-0.133,0l-0.134-0.002
	l-0.133-0.002l-0.134-0.004l-0.133-0.004l-0.134-0.005l-0.133-0.007l-0.134-0.007l-0.133-0.008l-0.134-0.01l-0.134-0.011
	l-0.133-0.011l-0.133-0.012l-0.133-0.014l-0.133-0.014l-0.136-0.015l-0.131-0.016l-0.512-0.065l-1.147-2.319l-0.041-0.013
	l-0.096-0.027l-0.096-0.024l-0.099-0.021l-0.099-0.018l-0.101-0.014l-0.101-0.01l-0.103-0.007l-0.103-0.004l-0.103-0.001
	l-0.103,0.002l-0.103,0.005l-0.101,0.008l-0.099,0.012l-0.101,0.015l-0.099,0.018l-0.096,0.02l-0.098,0.024l-0.093,0.026
	l-0.093,0.029l-0.09,0.032l-0.088,0.034l-0.085,0.037l-0.083,0.039L8.979,108.6l-0.076,0.042l-0.073,0.045l-0.068,0.046
	l-0.066,0.048l-0.061,0.05l-0.058,0.05l-0.053,0.052l-0.424,0.443l-0.118-0.065l-0.312-0.172l-0.128-0.07l-0.099-0.056l-0.098-0.056
	l-0.099-0.058l-0.094-0.058l-0.096-0.059l-0.094-0.059l-0.093-0.06l-0.093-0.061l-0.09-0.061l-0.089-0.062l-0.09-0.063l-0.088-0.063
	l-0.086-0.064l-0.086-0.065l-0.085-0.065l-0.083-0.065l-0.083-0.067l-0.08-0.066l-0.08-0.067l-0.08-0.068l-0.078-0.068l-0.076-0.068
	l-0.078-0.073l-0.071-0.067l-0.073-0.07l-0.075-0.074l-0.068-0.069l-0.071-0.075l-0.068-0.071l-0.066-0.072l-2.45-2.718
	c-0.086-0.091-0.172-0.184-0.255-0.278l-0.671-0.756l0.988-0.349c0.04-0.014,0.08-0.03,0.118-0.046l-2.429-2.828l-0.043-0.48
	c-0.103-1.131,0.083-2.248,0.511-3.297l0.209-0.515l0.547,0.103c0.879,0.167,2.117-0.007,2.87-0.582l-1.262-2.358l0.701-0.557
	c1.051-0.834,2.226-1.507,3.457-2.038l0.477-0.206l0.323,0.406c0.262,0.328,0.773,0.516,1.172,0.599
	c0.61,0.128,1.278,0.102,1.882-0.057c0.413-0.109,0.859-0.297,1.177-0.589c0.584-0.535,0.32-0.984,0.07-1.584l0.769-0.104
	c0.753-0.087,1.51-0.138,2.268-0.15h0.007h0.005c0.758,0.012,1.515,0.063,2.27,0.15l0.67,0.104
	c-0.254,0.609-0.418,1.046,0.169,1.584c0.317,0.292,0.763,0.48,1.177,0.589c0.602,0.159,1.27,0.185,1.88,0.057
	c0.4-0.084,0.91-0.271,1.172-0.599l0.325-0.406l0.476,0.206c1.23,0.531,2.407,1.205,3.457,2.038l0.703,0.557l-1.263,2.358
	c0.753,0.575,1.991,0.749,2.87,0.582l0.547-0.103l0.211,0.515c0.426,1.049,0.612,2.166,0.509,3.297l-0.043,0.48l-2.429,2.828
	c0.038,0.016,0.078,0.031,0.116,0.046l0.99,0.35l-0.67,0.756c-0.085,0.094-0.169,0.187-0.257,0.278l-2.452,2.719l-0.066,0.073
	l-0.068,0.073l-0.07,0.071l-0.071,0.072l-0.073,0.071l-0.071,0.07l-0.075,0.07l-0.076,0.07l-0.076,0.068l-0.078,0.069l-0.078,0.068
	l-0.08,0.067l-0.081,0.066l-0.083,0.066l-0.083,0.066l-0.085,0.065l-0.086,0.065l-0.086,0.063l-0.086,0.063l-0.089,0.062
	l-0.09,0.062l-0.091,0.061l-0.093,0.061l-0.093,0.06l-0.093,0.059l-0.096,0.058l-0.096,0.058l-0.098,0.058l-0.098,0.057
	l-0.101,0.056l-0.134,0.074l-0.305,0.168l-0.116,0.063l-0.423-0.443l-0.055-0.052l-0.056-0.05l-0.063-0.05l-0.065-0.048l-0.07-0.046
	l-0.071-0.045l-0.076-0.042l-0.08-0.041l-0.081-0.039l-0.086-0.037l-0.088-0.034l-0.09-0.032l-0.091-0.029l-0.094-0.026
	l-0.096-0.024l-0.098-0.02l-0.099-0.018l-0.099-0.015l-0.101-0.012l-0.101-0.008l-0.103-0.005l-0.103-0.002l-0.103,0.001
	l-0.103,0.004l-0.101,0.007l-0.101,0.01l-0.101,0.014l-0.101,0.018l-0.098,0.021c-0.094,0.03-0.187,0.054-0.275,0.145l-1.107,2.238
	l-0.512,0.065l-0.133,0.017l-0.134,0.015l-0.133,0.014l-0.134,0.014l-0.133,0.012l-0.133,0.012l-0.133,0.01l-0.134,0.01
	l-0.134,0.008l-0.133,0.007l-0.133,0.007l-0.134,0.006l-0.134,0.004l-0.133,0.004l-0.134,0.002l-0.133,0.002l-0.134,0h-0.133
	L15.466,110.925L15.466,110.925z M21.254,99.863c-1.535-1.149-4.06-1.664-5.789-1.664c-1.728,0-4.252,0.515-5.788,1.664
	C12.437,102.702,18.49,102.704,21.254,99.863L21.254,99.863z"/>
<path fill-rule="evenodd" clip-rule="evenodd" fill="#70953D" d="M7.309,108.139l-0.07-0.045c-1.015-0.669-1.723-1.451-2.563-2.381
	c0.36,0.243,0.731,0.467,1.111,0.673l0.232,0.126L7.309,108.139L7.309,108.139z M5.08,95.19l-1.053-1.932l0.148,0.053
	C5.035,93.618,5.691,94.338,5.08,95.19L5.08,95.19z M25.851,95.19l1.054-1.932l-0.148,0.053
	C25.897,93.618,25.239,94.338,25.851,95.19L25.851,95.19z M21.597,99.433c-1.306-1.054-3.596-1.748-6.132-1.748
	c-2.522,0-4.798,0.742-6.108,1.786c-0.156-0.264-0.274-0.548-0.337-0.852c-0.033-0.163-0.05-0.33-0.05-0.497
	c0-0.167,0.017-0.334,0.05-0.498c0.224-1.08,1.129-1.912,2.049-2.44c1.306-0.751,2.9-1.076,4.397-1.076
	c1.495,0,3.089,0.325,4.395,1.076c0.92,0.528,1.825,1.36,2.049,2.44c0.033,0.164,0.051,0.331,0.051,0.498
	c0,0.167-0.018,0.334-0.051,0.497C21.851,98.909,21.741,99.18,21.597,99.433L21.597,99.433z M3.597,102.901L1.02,99.94l0.008-0.002
	c0.675-0.125,1.416-0.099,2.069,0.123c0.491,0.167,1.005,0.474,1.24,0.956c0.081,0.167,0.124,0.346,0.123,0.532
	C4.45,102.11,4.068,102.57,3.597,102.901L3.597,102.901z M27.333,102.901l2.58-2.961l-0.01-0.002
	c-0.675-0.125-1.416-0.099-2.069,0.123c-0.491,0.167-1.005,0.474-1.24,0.956c-0.081,0.167-0.124,0.346-0.121,0.532
	C26.481,102.11,26.864,102.57,27.333,102.901L27.333,102.901z M26.254,105.714c-0.819,0.906-1.514,1.689-2.561,2.38l-0.08,0.051
	l1.295-1.631v0.002l0.235-0.128C25.523,106.18,25.894,105.956,26.254,105.714L26.254,105.714z M22.961,108.526
	c-0.797-0.836-2.057-1.072-3.157-0.88l-0.035,0.007l1.192-2.304c1.262-0.28,2.883,0.002,3.758,0.96L22.961,108.526L22.961,108.526z
	 M19.365,107.76l-0.267,0.1l-0.045,0.02c-0.114-0.252-0.164-0.523-0.126-0.799c0.109-0.822,0.887-1.364,1.623-1.619L19.365,107.76
	L19.365,107.76z M18.772,108.384l-0.791,1.708c-1.663,0.213-3.369,0.213-5.032,0l-0.791-1.708c1.094,0.144,2.202,0.206,3.307,0.188
	C16.57,108.59,17.678,108.528,18.772,108.384L18.772,108.384z M10.178,105.4c0.025,0.007,0.05,0.014,0.075,0.022
	c0.773,0.235,1.635,0.79,1.752,1.66c0.036,0.276-0.013,0.547-0.128,0.799c-0.153-0.07-0.313-0.125-0.476-0.171L10.178,105.4
	L10.178,105.4z M7.968,108.528L7.968,108.528l-1.759-2.218c0.831-0.911,2.339-1.212,3.571-1l1.248,2.318
	C9.972,107.444,8.725,107.733,7.968,108.528L7.968,108.528z"/>
<path fill-rule="evenodd" clip-rule="evenodd" fill="#9ACA3C" d="M15.466,108.232c1.096,0.018,2.198-0.044,3.289-0.189
	c-0.559-1.186,0.217-2.458,1.825-2.947c1.588-0.482,3.465-0.04,4.4,0.992c1.273-0.693,2.316-1.512,3.117-2.415
	c-1.529-0.54-2.324-1.752-1.809-2.805c0.504-1.032,2.101-1.557,3.677-1.264c0.089-0.99-0.063-1.995-0.463-2.979
	c-1.461,0.276-3.155-0.223-3.889-1.184c-0.724-0.947-0.249-1.995,1.03-2.45c-0.963-0.764-2.081-1.418-3.302-1.946
	c-0.652,0.815-2.266,1.167-3.758,0.775c-1.484-0.39-2.29-1.376-1.921-2.259c-0.721-0.084-1.456-0.133-2.195-0.145
	c-0.741,0.012-1.475,0.062-2.197,0.145c0.368,0.884-0.438,1.87-1.921,2.259c-1.49,0.392-3.107,0.039-3.757-0.775
	c-1.223,0.528-2.341,1.182-3.304,1.946c1.278,0.455,1.756,1.503,1.03,2.45c-0.734,0.96-2.429,1.46-3.888,1.184
	c-0.401,0.984-0.552,1.989-0.463,2.979c1.577-0.293,3.171,0.232,3.676,1.264c0.516,1.054-0.278,2.265-1.807,2.805
	c0.799,0.903,1.842,1.722,3.115,2.415c0.935-1.032,2.813-1.474,4.4-0.992c1.608,0.489,2.384,1.761,1.827,2.947
	C13.266,108.188,14.37,108.25,15.466,108.232L15.466,108.232z M15.466,93.465c3.941,0,7.137,2.085,7.137,4.657
	c0,2.572-3.196,4.657-7.137,4.657c-3.942,0-7.139-2.086-7.139-4.657C8.327,95.55,11.524,93.465,15.466,93.465L15.466,93.465z"/>
<path fill-rule="evenodd" clip-rule="evenodd" fill="#010101" d="M103.849,114.08l-0.093,0.001h-0.164l-0.166,0l-0.164-0.002
	l-0.164-0.003l-0.164-0.005l-0.166-0.006l-0.164-0.007l-0.164-0.008l-0.166-0.01l-0.164-0.01l-0.166-0.012l-0.164-0.013
	l-0.164-0.014l-0.164-0.015l-0.164-0.017l-0.164-0.017l-0.166-0.019l-0.161-0.02l-0.632-0.081l-1.417-2.86l-0.05-0.016l-0.119-0.034
	l-0.119-0.029l-0.121-0.026l-0.124-0.022l-0.124-0.017l-0.124-0.013l-0.126-0.009l-0.128-0.005l-0.126-0.001l-0.126,0.002
	l-0.128,0.007l-0.124,0.011l-0.124,0.014l-0.124,0.019l-0.123,0.022l-0.119,0.025l-0.118,0.029l-0.118,0.032l-0.113,0.036
	l-0.111,0.039l-0.108,0.042l-0.104,0.045l-0.101,0.048l-0.098,0.051l-0.095,0.053l-0.089,0.055l-0.085,0.056l-0.081,0.06
	l-0.076,0.061l-0.07,0.062l-0.068,0.063l-0.521,0.547l-0.146-0.08l-0.385-0.212l-0.157-0.087l-0.124-0.07l-0.119-0.07l-0.123-0.071
	l-0.118-0.071l-0.118-0.072l-0.116-0.073l-0.114-0.074l-0.114-0.075l-0.111-0.075l-0.111-0.076l-0.109-0.078l-0.108-0.077
	l-0.108-0.079l-0.106-0.08l-0.103-0.08l-0.103-0.08l-0.103-0.083l-0.098-0.081l-0.098-0.083l-0.099-0.084l-0.095-0.084l-0.094-0.084
	l-0.096-0.089l-0.088-0.084l-0.09-0.086l-0.093-0.091l-0.083-0.085l-0.09-0.092l-0.083-0.088l-0.081-0.089l-3.022-3.352
	c-0.108-0.113-0.214-0.227-0.317-0.343l-0.827-0.932l1.218-0.431c0.048-0.018,0.098-0.037,0.146-0.057l-2.996-3.489l-0.055-0.592
	c-0.126-1.394,0.103-2.772,0.63-4.067l0.259-0.636l0.675,0.128c1.084,0.206,2.611-0.009,3.54-0.719l-1.557-2.909l0.865-0.687
	c1.296-1.029,2.747-1.859,4.264-2.515l0.587-0.254l0.401,0.501c0.323,0.405,0.953,0.636,1.446,0.739
	c0.753,0.158,1.577,0.125,2.319-0.07c0.511-0.133,1.061-0.367,1.452-0.726c0.72-0.66,0.395-1.215,0.086-1.954l0.948-0.129
	c0.928-0.108,1.864-0.17,2.798-0.185h0.008h0.007c0.935,0.015,1.87,0.077,2.798,0.185l0.826,0.129
	c-0.313,0.751-0.514,1.291,0.209,1.954c0.393,0.359,0.942,0.593,1.452,0.726c0.743,0.195,1.567,0.228,2.319,0.07
	c0.492-0.104,1.122-0.334,1.446-0.739l0.401-0.501l0.587,0.254c1.517,0.656,2.968,1.486,4.264,2.515l0.865,0.687l-1.557,2.909
	c0.928,0.71,2.455,0.925,3.54,0.719l0.675-0.128l0.259,0.636c0.527,1.294,0.756,2.672,0.63,4.067l-0.055,0.592l-2.996,3.489
	c0.048,0.02,0.096,0.038,0.144,0.056l1.22,0.432l-0.827,0.932c-0.103,0.116-0.209,0.23-0.315,0.343l-3.026,3.353l-0.081,0.089
	l-0.085,0.09l-0.086,0.089l-0.088,0.088l-0.09,0.088l-0.089,0.086l-0.091,0.087l-0.093,0.086l-0.095,0.084l-0.094,0.085
	l-0.099,0.085l-0.098,0.082l-0.099,0.083l-0.101,0.081l-0.103,0.081l-0.103,0.08l-0.106,0.08l-0.108,0.078l-0.108,0.078
	l-0.109,0.077l-0.111,0.076l-0.111,0.075l-0.114,0.075l-0.114,0.074l-0.116,0.073l-0.118,0.072l-0.119,0.071l-0.119,0.071
	l-0.121,0.07l-0.124,0.069l-0.166,0.091l-0.378,0.208l-0.143,0.078l-0.522-0.547l-0.066-0.063l-0.07-0.062l-0.076-0.061l-0.081-0.06
	l-0.085-0.056l-0.09-0.055l-0.094-0.053l-0.098-0.051l-0.101-0.048l-0.104-0.045l-0.108-0.042l-0.111-0.039l-0.113-0.036
	l-0.116-0.032l-0.119-0.029l-0.119-0.025l-0.123-0.022l-0.124-0.019l-0.124-0.014l-0.124-0.011l-0.128-0.007l-0.126-0.002
	l-0.126,0.001l-0.128,0.005l-0.126,0.009l-0.124,0.013l-0.124,0.017l-0.124,0.022l-0.121,0.026
	c-0.116,0.038-0.232,0.067-0.338,0.179l-1.368,2.76l-0.632,0.081l-0.164,0.02l-0.164,0.019l-0.164,0.017l-0.164,0.017l-0.164,0.015
	l-0.164,0.014l-0.166,0.012l-0.164,0.012l-0.164,0.01l-0.164,0.009l-0.166,0.008l-0.164,0.007l-0.164,0.005l-0.166,0.005
	l-0.164,0.003l-0.164,0.002l-0.166,0h-0.164L103.849,114.08L103.849,114.08z M110.987,100.435c-1.893-1.417-5.008-2.052-7.14-2.052
	c-2.13,0-5.247,0.635-7.139,2.052C100.113,103.937,107.579,103.94,110.987,100.435L110.987,100.435z"/>
<path fill-rule="evenodd" clip-rule="evenodd" fill="#B92025" d="M93.787,110.643l-0.086-0.056c-1.227-0.809-2.157-1.825-3.16-2.936
	c0.443,0.299,0.902,0.576,1.369,0.831l0.285,0.155L93.787,110.643L93.787,110.643z M91.037,94.671l-1.298-2.382l0.181,0.065
	C90.98,92.732,91.793,93.619,91.037,94.671L91.037,94.671z M116.659,94.671l1.3-2.382l-0.182,0.065
	C116.715,92.732,115.903,93.619,116.659,94.671L116.659,94.671z M111.41,99.904c-1.611-1.299-4.435-2.156-7.563-2.156
	c-3.11,0-5.919,0.914-7.535,2.202c-0.192-0.325-0.337-0.675-0.413-1.05c-0.043-0.202-0.063-0.408-0.063-0.614
	c0-0.207,0.02-0.412,0.063-0.615c0.275-1.333,1.393-2.358,2.527-3.01c1.611-0.926,3.576-1.327,5.421-1.327
	c1.847,0,3.812,0.401,5.423,1.327c1.134,0.652,2.251,1.677,2.527,3.01c0.041,0.202,0.063,0.408,0.063,0.615
	c0,0.206-0.022,0.412-0.063,0.614C111.723,99.258,111.589,99.593,111.41,99.904L111.41,99.904z M89.21,104.183l-3.181-3.653
	l0.01-0.002c0.834-0.154,1.747-0.121,2.553,0.152c0.607,0.205,1.24,0.584,1.53,1.179c0.099,0.206,0.153,0.427,0.149,0.657
	C90.261,103.207,89.788,103.774,89.21,104.183L89.21,104.183z M118.486,104.183l3.181-3.653l-0.01-0.002
	c-0.834-0.154-1.747-0.121-2.553,0.152c-0.605,0.205-1.238,0.584-1.528,1.179c-0.101,0.206-0.154,0.427-0.151,0.657
	C117.435,103.207,117.907,103.774,118.486,104.183L118.486,104.183z M117.155,107.651c-1.023,1.133-1.943,2.154-3.258,2.999
	l1.596-2.012l0.002,0.001l0.29-0.158C116.253,108.227,116.712,107.95,117.155,107.651L117.155,107.651z M113.093,111.12
	c-0.981-1.031-2.53-1.324-3.893-1.086l-0.043,0.009l1.469-2.842c1.558-0.345,3.558,0.003,4.637,1.184L113.093,111.12L113.093,111.12
	z M108.658,110.176l-0.328,0.124l-0.055,0.025c-0.143-0.311-0.202-0.645-0.157-0.985c0.136-1.015,1.094-1.682,2.004-1.997
	L108.658,110.176L108.658,110.176z M107.925,110.945l-0.973,2.107c-2.052,0.263-4.156,0.263-6.209,0l-0.973-2.107
	c1.349,0.178,2.714,0.255,4.078,0.233C105.211,111.2,106.577,111.124,107.925,110.945L107.925,110.945z M97.325,107.265
	c0.032,0.008,0.061,0.017,0.091,0.027c0.953,0.29,2.018,0.974,2.162,2.048c0.045,0.34-0.015,0.674-0.157,0.985
	c-0.191-0.081-0.385-0.153-0.585-0.211L97.325,107.265L97.325,107.265z M94.599,111.123L94.599,111.123l-2.17-2.735
	c1.026-1.124,2.885-1.495,4.405-1.233l1.54,2.859l-0.031-0.005C97.015,109.823,95.561,110.113,94.599,111.123L94.599,111.123z"/>
<path fill-rule="evenodd" clip-rule="evenodd" fill="#ED2224" d="M103.849,110.758c1.351,0.022,2.712-0.054,4.057-0.233
	c-0.688-1.463,0.269-3.032,2.251-3.635c1.958-0.595,4.274-0.049,5.428,1.223c1.57-0.854,2.856-1.865,3.845-2.979
	c-1.887-0.666-2.866-2.16-2.231-3.46c0.622-1.274,2.591-1.92,4.536-1.559c0.109-1.221-0.076-2.461-0.572-3.675
	c-1.8,0.341-3.889-0.275-4.795-1.46c-0.895-1.169-0.308-2.461,1.268-3.022c-1.187-0.943-2.565-1.749-4.073-2.401
	c-0.804,1.006-2.795,1.44-4.635,0.957c-1.83-0.481-2.825-1.697-2.371-2.787c-0.889-0.104-1.795-0.164-2.707-0.179
	c-0.914,0.015-1.82,0.075-2.711,0.179c0.456,1.09-0.539,2.306-2.369,2.787c-1.84,0.483-3.831,0.049-4.635-0.957
	c-1.509,0.652-2.886,1.459-4.073,2.401c1.577,0.562,2.164,1.854,1.268,3.022c-0.905,1.185-2.994,1.8-4.795,1.46
	c-0.496,1.214-0.681,2.454-0.572,3.675c1.945-0.361,3.914,0.286,4.536,1.559c0.635,1.3-0.345,2.794-2.231,3.46
	c0.988,1.113,2.275,2.125,3.845,2.979c1.154-1.273,3.47-1.818,5.428-1.223c1.983,0.603,2.939,2.172,2.251,3.635
	C101.135,110.704,102.496,110.78,103.849,110.758L103.849,110.758z M103.847,92.542c4.863,0,8.807,2.573,8.807,5.745
	c0,3.172-3.944,5.745-8.807,5.745c-4.861,0-8.805-2.573-8.805-5.745C95.042,95.115,98.986,92.542,103.847,92.542L103.847,92.542z"/>
</svg>
