<?xml version="1.0" encoding="utf-8"?>
<!-- Generator: Adobe Illustrator 17.0.0, SVG Export Plug-In . SVG Version: 6.00 Build 0)  -->
<!DOCTYPE svg PUBLIC "-//W3C//DTD SVG 1.1//EN" "http://www.w3.org/Graphics/SVG/1.1/DTD/svg11.dtd">
<svg version="1.1" id="Layer_1" xmlns="http://www.w3.org/2000/svg" xmlns:xlink="http://www.w3.org/1999/xlink" x="0px" y="0px"
	 width="217.838px" height="99.491px" viewBox="0 0 217.838 99.491" enable-background="new 0 0 217.838 99.491"
	 xml:space="preserve">
<path fill-rule="evenodd" clip-rule="evenodd" fill="#2BACE2" d="M49.439,0c27.469,0,49.746,22.276,49.746,49.745
	c0,27.47-22.277,49.746-49.746,49.746c-27.469,0-49.746-22.276-49.746-49.746C-0.306,22.276,21.971,0,49.439,0L49.439,0z"/>
<path fill-rule="evenodd" clip-rule="evenodd" fill="#010101" d="M49.439,8.309c10.072,0,19.375,3.301,26.886,8.878l8.778-1.202
	c2.604-0.357,5.595-0.76,8.223-0.634c1.867,0.09,3.893,0.516,4.946,2.234c1.028,1.681,0.556,3.719-0.006,5.468
	c-0.691,2.149-1.594,4.272-2.348,6.408l-0.01,0.027l-1.576,4.115c1.871,1.622,3.529,3.552,4.894,5.771
	c3.723,6.054,4.662,13.332,2.665,20.087l18.048,10.971l-4.458,7.333L98.063,67.179c-1.893,2.57-4.264,4.747-6.997,6.428
	c-1.092,0.671-2.216,1.247-3.361,1.732c-0.481,0.634-0.988,1.257-1.524,1.865C77.106,87.51,62.708,91.18,49.439,91.18
	c-13.268,0-27.666-3.67-36.741-13.976c-5.873-6.67-8.417-14.934-8.417-23.736c0-5.04,0.828-9.886,2.351-14.413l-3.662-9.565
	l-0.01-0.027c-0.754-2.136-1.658-4.259-2.348-6.408c-0.562-1.749-1.035-3.787-0.007-5.468c1.052-1.719,3.08-2.144,4.946-2.234
	c2.628-0.126,5.619,0.276,8.223,0.634l8.778,1.202C30.065,11.61,39.368,8.309,49.439,8.309L49.439,8.309z"/>
<path fill-rule="evenodd" clip-rule="evenodd" fill="#FFFFFF" d="M49.439,11.008c9.455,0,18.187,3.093,25.244,8.32l4.455-0.304
	l6.264-0.858c14.901-2.041,11.927,0.686,8.439,10.562l-1.32,3.448c-1.509-1.08-3.126-1.981-4.815-2.691
	c-0.654-1.041-1.349-2.053-2.082-3.035c2.547-3.147,5.924-5.826,9.799-7.12c-5.995-0.029-9.726,3.744-12.604,7.896
	c0.238,0.303,0.472,0.609,0.703,0.919c-6.119-1.386-12.762-0.475-18.525,3.07c-11.705,7.197-15.359,22.527-8.162,34.23
	c5.594,9.097,16.098,13.328,25.995,11.386c-7.774,7.786-19.841,11.651-33.39,11.651c-23.446,0-42.46-11.568-42.46-35.015
	c0-9.977,3.444-19.149,9.206-26.397l-1.601-2.31l-0.037,0.045c-0.133-0.163-0.27-0.324-0.409-0.484
	c-3.206-3.676-7.395-5.499-10.683-4.991c3.176,1.061,6.44,3.242,9.189,6.395c0.209,0.239,0.414,0.481,0.611,0.726
	c-2.182,2.916-4.018,6.105-5.451,9.508l-2.768-7.23c-3.488-9.876-6.461-12.603,8.439-10.562l6.033,0.826l4.706,0.321
	C31.269,14.095,39.994,11.008,49.439,11.008L49.439,11.008z M69.595,38.693c-7.575,4.658-9.94,14.578-5.282,22.153
	c4.658,7.575,14.579,9.939,22.153,5.281s9.939-14.578,5.281-22.152C87.089,36.4,77.17,34.035,69.595,38.693L69.595,38.693z"/>
<path fill-rule="evenodd" clip-rule="evenodd" fill="#E8E8E8" d="M34.507,86.733C18.426,82.698,6.979,71.659,6.979,53.468
	c0-5.724,1.135-11.183,3.19-16.166l-0.001,0.001c0.044-0.107,0.089-0.214,0.134-0.32c1.497-3.543,3.48-6.879,5.867-9.893
	l0.016-0.021c-0.689-0.994-1.311-1.903-2.047-2.748c-3.206-3.676-7.395-5.499-10.683-4.991c3.176,1.061,6.44,3.242,9.189,6.395
	c0.209,0.239,0.414,0.481,0.611,0.726c-2.182,2.916-4.018,6.105-5.451,9.508l-2.768-7.23c-3.488-9.876-6.461-12.603,8.439-10.562
	l6.033,0.826l4.706,0.321c0.316-0.233,0.635-0.463,0.957-0.688v0.003c4.234-2.955,9.032-5.16,14.2-6.418
	C24.25,19.119,13.654,35.098,13.654,53.703C13.654,70.24,22.026,81.217,34.507,86.733L34.507,86.733z"/>
<path fill-rule="evenodd" clip-rule="evenodd" fill="#010101" d="M50.191,68.492c2.288-2.11,4.677-1.495,5.503-2.86
	c0.477-0.789,0.266-1.584-0.293-2.268c-1.878-2.296-10.834-2.296-12.712,0c-0.559,0.684-0.77,1.479-0.294,2.268
	c0.851,1.406,3.36,0.712,5.708,3.059c0.02,0.148,0.04,0.284,0.062,0.4c0.231,1.179-0.101,1.912-0.796,2.388
	c-0.748,0.511-1.913,0.76-3.261,0.937c-1.393,0.184-3.304-1.2-4.641-2.169c-1.372-0.994-1.504-0.546-0.45,0.746
	c1.191,1.459,2.477,3.035,4.425,3.351c0.612,0.1,1.212,0.077,1.751-0.009c0.702-0.113,1.308-0.338,1.714-0.549
	c0.842-0.44,1.493-0.66,2.132-0.66c0.638,0,1.289,0.22,2.131,0.66c0.406,0.211,1.012,0.436,1.714,0.549
	c0.54,0.086,1.139,0.108,1.753,0.009c1.948-0.316,3.233-1.892,4.424-3.351c0.91-1.116,1.118-1.883-0.448-0.748
	c-1.336,0.969-3.248,2.354-4.642,2.171c-1.343-0.177-2.452-0.425-3.149-0.926c-0.004-0.003-0.009-0.008-0.014-0.011
	c-0.65-0.475-0.938-1.21-0.707-2.388C50.134,68.934,50.16,68.725,50.191,68.492L50.191,68.492z"/>
<path fill-rule="evenodd" clip-rule="evenodd" fill="#ED2224" d="M99.702,60.271l17.725,10.775l-2.559,4.209L97.53,64.715
	c-1.821,2.893-4.315,5.423-7.423,7.334c-10.845,6.67-25.046,3.284-31.715-7.561c-6.669-10.844-3.284-25.047,7.561-31.717
	c10.844-6.668,25.047-3.282,31.716,7.562C101.499,46.559,102.011,53.892,99.702,60.271L99.702,60.271z M68.638,37.137
	c8.434-5.188,19.48-2.554,24.668,5.881c5.187,8.435,2.553,19.48-5.881,24.668c-8.435,5.187-19.481,2.554-24.668-5.881
	C57.568,53.37,60.203,42.323,68.638,37.137L68.638,37.137z"/>
<path fill-rule="evenodd" clip-rule="evenodd" fill="#9A1B1F" d="M115.407,74.37l-0.538,0.885L97.53,64.715
	c0.422-0.552,0.072-0.011,0.439-0.594L115.407,74.37L115.407,74.37z M91.084,71.415c-0.318,0.218-0.644,0.43-0.976,0.634
	c-10.845,6.67-25.046,3.284-31.715-7.561c-6.669-10.844-3.284-25.047,7.561-31.717c0.333-0.204,0.669-0.398,1.006-0.584
	C41.944,49.677,63.144,86.274,91.084,71.415L91.084,71.415z M69.648,36.559c8.287-4.392,18.674-1.643,23.657,6.458
	c4.982,8.102,2.748,18.611-4.911,24.025c0.341-0.181,0.708-0.33,1.011-0.576c18.019-14.67,0.462-40.211-18.786-30.549
	C70.27,36.093,69.963,36.338,69.648,36.559L69.648,36.559z"/>
<path fill-rule="evenodd" clip-rule="evenodd" fill="#010101" d="M78.362,42.699c0.627,0,1.24,0.062,1.832,0.18
	c-1.01,0.505-1.703,1.549-1.703,2.754c0,1.699,1.377,3.076,3.076,3.076c1.699,0,3.077-1.377,3.077-3.076
	c0-0.188-0.017-0.372-0.049-0.551c1.91,1.711,3.112,4.196,3.112,6.962c0,5.16-4.185,9.345-9.345,9.345
	c-5.16,0-9.344-4.185-9.344-9.345S73.203,42.699,78.362,42.699L78.362,42.699z"/>
<path fill-rule="evenodd" clip-rule="evenodd" fill="#010101" d="M32.732,49.812c4.451,1.192,7.571,4.873,8.268,9.143
	c-2.075-3.021-5.195-5.346-9.011-6.368c-3.817-1.022-7.681-0.569-10.988,1.01C23.738,50.246,28.281,48.619,32.732,49.812
	L32.732,49.812z"/>
<path fill-rule="evenodd" clip-rule="evenodd" fill="#BDBEC0" d="M3.741,19.161c0.135,0.031,0.268,0.064,0.4,0.098
	c-0.096,0.006-0.191,0.013-0.285,0.022L3.741,19.161L3.741,19.161z M13.255,26.451c-1.23,1.645-2.349,3.377-3.349,5.184
	c-1.149-4.315-2.432-8.417-5.778-12.064c2.961,1.132,5.961,3.224,8.516,6.153C12.854,25.964,13.057,26.207,13.255,26.451
	L13.255,26.451z"/>
<g>
	<path d="M125.68,36.481c1.326,0.816,3.264,1.496,5.304,1.496c3.025,0,4.793-1.598,4.793-3.91c0-2.142-1.224-3.365-4.317-4.555
		c-3.739-1.326-6.052-3.264-6.052-6.494c0-3.569,2.958-6.221,7.412-6.221c2.346,0,4.045,0.544,5.065,1.122l-0.816,2.414
		c-0.748-0.408-2.277-1.088-4.352-1.088c-3.128,0-4.317,1.87-4.317,3.434c0,2.142,1.394,3.196,4.556,4.419
		c3.876,1.496,5.848,3.366,5.848,6.731c0,3.536-2.618,6.595-8.023,6.595c-2.21,0-4.624-0.646-5.848-1.462L125.68,36.481z"/>
	<path d="M145.807,17.171v9.587h11.083v-9.587h2.992v22.914h-2.992V29.342h-11.083v10.743h-2.957V17.171H145.807z"/>
	<path d="M168.723,32.878l-2.38,7.207h-3.06l7.785-22.914h3.57l7.819,22.914h-3.162l-2.447-7.207H168.723z M176.237,30.566
		l-2.244-6.595c-0.51-1.496-0.85-2.856-1.189-4.182h-0.068c-0.34,1.36-0.714,2.754-1.155,4.147l-2.244,6.629H176.237z"/>
	<path d="M185.826,17.477c1.496-0.306,3.638-0.476,5.677-0.476c3.162,0,5.202,0.578,6.63,1.87c1.156,1.02,1.802,2.584,1.802,4.352
		c0,3.026-1.904,5.031-4.317,5.848v0.102c1.768,0.612,2.821,2.244,3.365,4.624c0.748,3.196,1.292,5.406,1.768,6.29h-3.06
		c-0.374-0.646-0.884-2.618-1.529-5.474c-0.681-3.162-1.904-4.352-4.59-4.453h-2.788v9.927h-2.957V17.477z M188.783,27.914h3.026
		c3.161,0,5.167-1.734,5.167-4.352c0-2.958-2.142-4.25-5.27-4.283c-1.428,0-2.447,0.136-2.924,0.271V27.914z"/>
	<path d="M215.982,29.342h-8.907v8.261h9.928v2.482h-12.885V17.171h12.374v2.481h-9.417v7.242h8.907V29.342z"/>
	<path d="M141.932,60.486h-6.97v-2.516h16.965v2.516h-7.004v20.398h-2.991V60.486z"/>
	<path d="M157.435,57.971v9.588h11.083v-9.588h2.992v22.914h-2.992V70.142h-11.083v10.743h-2.957V57.971H157.435z"/>
	<path d="M179.603,57.971v22.914h-2.957V57.971H179.603z"/>
	<path d="M184.364,77.281c1.326,0.815,3.264,1.496,5.304,1.496c3.025,0,4.793-1.599,4.793-3.91c0-2.142-1.224-3.365-4.317-4.556
		c-3.739-1.325-6.052-3.264-6.052-6.493c0-3.569,2.958-6.221,7.412-6.221c2.346,0,4.045,0.543,5.065,1.121l-0.816,2.414
		c-0.748-0.408-2.277-1.088-4.352-1.088c-3.128,0-4.317,1.869-4.317,3.434c0,2.142,1.394,3.195,4.556,4.42
		c3.876,1.495,5.848,3.365,5.848,6.73c0,3.536-2.618,6.596-8.023,6.596c-2.21,0-4.624-0.646-5.848-1.462L184.364,77.281z"/>
	<path d="M200.853,79.151c0-1.225,0.851-2.108,2.006-2.108c1.225,0,2.006,0.884,2.006,2.108c0,1.189-0.781,2.107-2.006,2.107
		C201.669,81.259,200.853,80.341,200.853,79.151z M201.704,74.289l-0.477-16.318h3.264l-0.476,16.318H201.704z"/>
</g>
</svg>
