<?xml version="1.0" encoding="utf-8"?>
<!-- Generator: Adobe Illustrator 18.1.1, SVG Export Plug-In . SVG Version: 6.00 Build 0)  -->
<svg version="1.1" id="Layer_1" xmlns="http://www.w3.org/2000/svg" xmlns:xlink="http://www.w3.org/1999/xlink" x="0px" y="0px"
	 viewBox="0 0 119.5 126.6" enable-background="new 0 0 119.5 126.6" xml:space="preserve">
<path fill-rule="evenodd" clip-rule="evenodd" fill="#CBCBCB" d="M102.1,119.8c9.5,0,17.2,1.5,17.2,3.4c0,1.9-7.7,3.4-17.2,3.4
	s-17.2-1.5-17.2-3.4C84.8,121.3,92.6,119.8,102.1,119.8L102.1,119.8z"/>
<path fill-rule="evenodd" clip-rule="evenodd" fill="#CBCBCB" d="M55.2,109.1c16.8,0,30.4,2.7,30.4,6c0,3.3-13.6,6-30.4,6
	c-16.8,0-30.4-2.7-30.4-6C24.8,111.8,38.4,109.1,55.2,109.1L55.2,109.1z"/>
<path fill-rule="evenodd" clip-rule="evenodd" fill="#010101" d="M52.2,0C61,0,69,2.7,75.6,7.3l7.6-1C85.4,6,88,5.7,90.3,5.8
	c1.6,0.1,3.4,0.4,4.3,1.8c0.9,1.4,0.5,3.1,0,4.5c-0.6,1.8-1.4,3.5-2,5.3l0,0l-3.2,7.9c1.3,3.7,2,7.7,2,11.9c0,7.3-2.2,14.1-7.3,19.6
	c-2.5,2.7-5.5,4.9-8.8,6.6c0.4,0.4,0.8,0.8,1.2,1.3c1.9,2.2,2.7,4.5,3.8,7.1c1.8,4.8,3.4,9.7,4.2,14.7c0.3,2.1,0.4,4.4-0.1,6.5
	l6.9,3.5c3.1-3.2,7.3-5.1,11.9-5.1c9.1,0,16.4,7.3,16.4,16.4c0,9.1-7.3,16.4-16.4,16.4c-9.1,0-16.4-7.3-16.4-16.4
	c0-1.9,0.3-3.8,1-5.6l-7-3.6c-1.7,1.3-3.5,1.8-5.2,1.5l0.6,6.2c2,1.2,3.7,2.9,5,4.9c1.5,2.3,0.9,4.3-1.3,4.9
	c-0.6,0.1-1.1,0.1-1.7,0.1l-13.9,0c-2.9,0-5.5-2.1-5.3-5.2c0.1-0.9,0.2-1.7,0.5-2.4l-2.1-7.2c-2.5,0.4-5,0.2-7.5-0.1v7.3
	c0.5,0.7,0.9,1.5,1.2,2.4c1.1,3-0.9,5.2-3.8,5.2l-13.9,0c-0.6,0-1.2,0-1.8-0.1c-2.4-0.5-3.5-2.5-2.7-4.9c0.7-2,2-3.7,3.6-4.9
	l-0.7-3.7c-0.7,0.6-1.4,1.1-2.2,1.6c-4.4,2.8-9.7,3.8-14.8,2.7c-5.1-1.1-9.6-4.2-12.4-8.6c-0.5-0.7-0.9-1.5-1.3-2.3
	c-1.6-3.3-1.6-6.8,1.8-8.9c2.9-1.9,6.8-1,8.6,1.9c0.4,0.6,0.7,1.3,0.9,2c0.1,0.5,0.3,1.2,0.6,1.7c2,3.2,5.7,4.7,9.2,4.3
	c-2.4-2.9-2.6-6.9-2-10.5c0.8-5.1,2.3-9.9,4.2-14.7c1-2.7,1.9-4.9,3.8-7.1c0.4-0.5,0.8-0.9,1.2-1.3c-3.3-1.7-6.3-3.8-8.8-6.6
	C15.2,51.3,13,44.5,13,37.2c0-4.2,0.7-8.2,2-11.9l-3.2-7.9l0,0c-0.7-1.8-1.4-3.5-2-5.3c-0.5-1.4-0.9-3.1,0-4.5
	c0.9-1.4,2.7-1.8,4.3-1.8C16.4,5.7,19,6,21.3,6.3l7.6,1C35.4,2.7,43.5,0,52.2,0L52.2,0z M112.7,107.9c0-5.3-4.3-9.6-9.6-9.6
	c-5.3,0-9.6,4.3-9.6,9.6c0,5.3,4.3,9.6,9.6,9.6C108.4,117.4,112.7,113.2,112.7,107.9L112.7,107.9z"/>
<path fill-rule="evenodd" clip-rule="evenodd" fill="#FFFFFF" d="M75.3,98c1,0.4,2.2,0.2,3.3-0.4L77.5,97c-0.5,0.6-0.9,0.9-1.2,0.8
	c-0.5-0.2-0.7-2,0.6-4.6c1.3-2.6,2.8-3.4,3.2-3.1c0.2,0.1,0.2,0.4,0.2,0.9l2.1,1.1c0.4-2,0.2-4,0-5.3c-0.5-3.4-1.4-6.6-2.5-10
	l-5.8,1.5l1,9.8c0.2,2,0,3.1-0.5,3.7L75.3,98L75.3,98z M11,93.9c2.9,4.5,8.3,6.3,13.1,5c2.4,1.6,5,1.8,7,0.4l0.2,0.8
	c-0.9,0.9-1.8,1.6-2.9,2.3c-8.1,5.2-18.9,2.9-24.2-5.2c-1.6-2.4-3.4-6.1-0.2-8.1c1.9-1.2,4.3-0.7,5.5,1.2
	C10.3,91.4,10.2,92.7,11,93.9L11,93.9z M30.6,97c-1.9,2.3-5,1.3-7-1.2c-2.3-2.8-1.9-6.8-1.6-9c0.5-3.4,1.4-6.6,2.5-10l5.8,1.5
	l-1,9.3c-0.2,2.3-0.4,3.5,0.4,4.3L30.6,97L30.6,97z M72.5,92.8l1.3,13c-3.1-0.8-6.9-0.2-8.7,1.8c1.4-1.1,3.9-1.4,6.1-1.1
	c2.1,0.3,4.1,1.4,5.8,2.8c0.9,0.8,1.7,1.6,2.2,2.6c1.3,2.1-1,2-1.7,2l-13.9,0c-0.8,0-2.4-0.2-2.3-2.1c0.1-0.8,0.3-1.6,0.7-2.3
	l-2.6-9.1c1.1-0.6,2-1.4,2.5-2.4c-2.3,0.9-5.1,1.4-7.6,1.4h-1.8c-2.9-0.2-5.6-0.8-7.8-1.8c0.5,1.1,1.6,2,2.9,2.7v9.1
	c0.6,0.7,1,1.5,1.3,2.3c0.7,1.9-0.9,2.1-1.7,2.1l-13.9,0c-0.7,0-3,0.1-2.3-2c0.3-0.9,0.8-1.8,1.5-2.6c1.4-1.7,3.1-2.5,5.2-2.8
	c2.8-0.4,6.1,0.1,7.9,1.5c-2.1-2.5-7.1-3.3-11-2.2l-2.5-13c0.1,0,0.3,0,0.4,0.1c6.5,1,13,1.7,19.7,1.7c6.6,0,13.2-0.7,19.7-1.7
	C72.1,92.9,72.3,92.9,72.5,92.8L72.5,92.8z"/>
<path fill-rule="evenodd" clip-rule="evenodd" fill="#E4E4E4" d="M20.3,105.1c-6.2,0.5-12.5-2.3-16.1-7.9c-1.6-2.4-3.4-6.1-0.2-8.1
	c1.1-0.7,2.5-0.8,3.6-0.4c-0.3,0.1-0.5,0.2-0.7,0.4c-3.2,2.1-1.4,5.7,0.2,8.1C10.1,101.9,15.1,104.7,20.3,105.1L20.3,105.1z
	 M29.4,97.9c-1.8,0.8-4.1-0.2-5.8-2.2c-2.3-2.8-1.9-6.8-1.6-9c0.5-3.4,1.4-6.6,2.5-10l2.6,0.7c-1,3.1-1.8,6.2-2.3,9.3
	c-0.3,2.2-0.7,6.2,1.6,9C27.3,96.8,28.4,97.5,29.4,97.9L29.4,97.9z M47.4,114c-0.1,0-0.1,0-0.2,0l-13.9,0c-0.7,0-3,0.1-2.3-2
	c0.3-0.9,0.8-1.8,1.5-2.6c1.4-1.7,3.1-2.5,5.2-2.8c1.1-0.2,2.3-0.2,3.5-0.1c-0.2,0-0.4,0-0.6,0.1c-2.1,0.3-3.8,1.1-5.2,2.8
	c-0.7,0.8-1.2,1.6-1.5,2.6c-0.7,2.1,1.6,2,2.3,2L47.4,114L47.4,114z M37.4,105.4c-1,0-1.9,0.2-2.8,0.4L33,97.5l-0.9-4.6
	c0.8,0.1,2.2,0.3,3,0.4L37.4,105.4L37.4,105.4z"/>
<path fill-rule="evenodd" clip-rule="evenodd" fill="#188ECE" d="M74,76.6l5.4-1.4c-0.3-0.9-0.6-1.8-1-2.7c-0.6-1.6-1.9-5.8-5.1-8.2
	c-0.6,0.3-1.2,0.5-1.8,0.8c1.1,2.6,1.9,5.3,2.2,8.2L74,76.6L74,76.6z M30.4,76.6l-5.4-1.4c0.3-0.9,0.6-1.8,1-2.7
	c0.6-1.6,1.9-5.8,5.1-8.2c0.6,0.3,1.2,0.5,1.8,0.7c-1.1,2.6-1.9,5.3-2.2,8.2L30.4,76.6L30.4,76.6z M31.6,87.1L33,73.5
	c0.3-2.7,1-5.3,2.1-7.7c5.5,1.8,11.4,2.5,17.1,2.5c5.7,0,11.6-0.7,17.1-2.5c1.1,2.4,1.8,5,2.1,7.7l1.4,13.8c0.3,3.2-1.1,3.4-2.5,3.6
	c-13.6,2-22.9,2-36.6,0C32,90.6,31.3,90.3,31.6,87.1L31.6,87.1z"/>
<path fill-rule="evenodd" clip-rule="evenodd" fill="#004F7E" d="M30.4,76.6l-5.4-1.4c0.3-0.9,0.6-1.8,1-2.7
	c0.6-1.6,1.9-5.8,5.1-8.2c0.6,0.3,1.2,0.5,1.8,0.7c-1.1,2.6-1.9,5.3-2.2,8.2L30.4,76.6L30.4,76.6z M31.6,87.1L33,73.5
	c0.3-2.7,1-5.3,2.1-7.7c1.7,0.6,3.5,1,5.3,1.4c-1,4.2-1.6,8.7-1.6,13.4c0,3.8,0.4,7.5,1.1,11c-1.9-0.2-3.9-0.5-6.1-0.8
	C32,90.6,31.3,90.3,31.6,87.1L31.6,87.1z"/>
<path fill-rule="evenodd" clip-rule="evenodd" fill="#FFFFFF" d="M52.2,2.2c8.2,0,15.8,2.6,21.9,6.9L78,8.8l5.4-0.7
	c12.9-1.7,10.4,0.6,7.3,8.7l-2.4,6c-1.2-2.8-2.8-5.4-4.7-7.8c0.2-0.2,0.3-0.4,0.5-0.6c2.4-2.6,5.2-4.4,8-5.3
	c-2.9-0.4-6.5,1.1-9.3,4.1c-0.6,0.6-1.3,1.5-1.7,2.4c4.9,6,7.9,13.5,7.9,21.6c0,19.3-16.5,28.9-36.8,28.9
	c-20.3,0-36.9-9.5-36.9-28.9c0-8.2,3-15.8,8-21.8h0c-0.6-0.8-1.1-1.6-1.8-2.3c-2.8-3-6.4-4.5-9.3-4.1c2.8,0.9,5.6,2.7,8,5.3
	c0.2,0.2,0.4,0.4,0.5,0.6c-1.9,2.4-3.5,5-4.7,7.8l-2.4-6c-3-8.1-5.6-10.4,7.3-8.7l5.2,0.7l4.1,0.3C36.5,4.8,44,2.2,52.2,2.2
	L52.2,2.2z"/>
<path fill-rule="evenodd" clip-rule="evenodd" fill="#E4E4E4" d="M39.3,64.7c-14-3.3-23.9-12.4-23.9-27.4c0-8.2,3-15.8,8-21.8
	c-0.6-0.8-1.1-1.6-1.8-2.3c-2.8-3-6.4-4.5-9.3-4.1c2.8,0.9,5.6,2.7,8,5.3c0.2,0.2,0.4,0.4,0.5,0.6c-1.9,2.4-3.5,5-4.7,7.8l-2.4-6
	c-3-8.1-5.6-10.4,7.3-8.7l5.2,0.7l4.1,0.3c3.9-2.7,8.3-4.7,13.2-5.9C30.4,8.9,21.2,22.1,21.2,37.4C21.2,51.1,28.4,60.1,39.3,64.7
	L39.3,64.7z"/>
<path fill-rule="evenodd" clip-rule="evenodd" fill="#EC252C" d="M91.7,98.8l-11.7-6c-1.1,0.8-1.4,1.8-1.4,2.8l11.4,5.9
	c-1,1.9-1.5,4.1-1.5,6.4c0,8.1,6.5,14.6,14.6,14.6c8.1,0,14.6-6.5,14.6-14.6s-6.5-14.6-14.6-14.6C98.5,93.3,94.4,95.4,91.7,98.8
	L91.7,98.8z M114.5,107.9c0-6.3-5.1-11.4-11.4-11.4c-6.3,0-11.4,5.1-11.4,11.4c0,6.3,5.1,11.4,11.4,11.4
	C109.4,119.2,114.5,114.1,114.5,107.9L114.5,107.9z"/>
<path fill-rule="evenodd" clip-rule="evenodd" fill="#A52622" d="M78.6,94.9c0,0.2-0.1,0.5-0.1,0.7l11.4,5.9c0.2-0.4,0,0,0.2-0.4
	L78.6,94.9L78.6,94.9z M88.5,107.1c0,0.2,0,0.5,0,0.7c0,8.1,6.5,14.6,14.6,14.6c8.1,0,14.6-6.5,14.6-14.6c0-0.2,0-0.5,0-0.7
	C116.6,126.4,89.8,127.1,88.5,107.1L88.5,107.1z M114.4,107.1c-0.4-5.9-5.3-10.6-11.3-10.6c-6,0-11,4.7-11.3,10.6
	c0-0.2-0.1-0.5,0-0.7c1.9-14.6,21.5-13.6,22.7,0C114.5,106.6,114.5,106.9,114.4,107.1L114.4,107.1z"/>
<path fill="#FFFFFF" d="M36.1,75.1c0.1,0,0.1,0.1,0.2,0.1c0.1,0,0.2,0.1,0.3,0.1c0.1,0,0.2,0,0.3,0c0.1,0,0.1,0,0.2,0
	c0.1,0,0.1,0,0.2-0.1c0,0,0.1-0.1,0.1-0.1c0,0,0-0.1,0-0.2c0-0.1-0.1-0.2-0.2-0.3c-0.1-0.1-0.3-0.1-0.5-0.2c-0.1,0-0.3-0.1-0.4-0.1
	c-0.1,0-0.2-0.1-0.3-0.2c-0.1-0.1-0.2-0.2-0.2-0.3c-0.1-0.1-0.1-0.3-0.1-0.4c0-0.2,0-0.3,0.1-0.4c0.1-0.1,0.2-0.2,0.3-0.3
	c0.1-0.1,0.3-0.2,0.4-0.2c0.2,0,0.3-0.1,0.5-0.1c0.2,0,0.4,0,0.5,0c0.1,0,0.3,0.1,0.4,0.1c0.2,0.1,0.3,0.2,0.3,0.3
	c0,0.1,0,0.2-0.1,0.3c0,0.1-0.1,0.2-0.1,0.3c0,0-0.1-0.1-0.2-0.1c-0.1,0-0.1-0.1-0.2-0.1c-0.1,0-0.2-0.1-0.3-0.1c-0.1,0-0.2,0-0.3,0
	c-0.1,0-0.1,0-0.2,0c-0.1,0-0.1,0-0.2,0c0,0-0.1,0.1-0.1,0.1c0,0,0,0.1,0,0.2c0,0.2,0.2,0.3,0.5,0.4c0.1,0,0.3,0.1,0.4,0.1
	c0.1,0,0.3,0.1,0.4,0.2c0.1,0.1,0.2,0.2,0.3,0.3c0.1,0.1,0.1,0.3,0.1,0.5c0,0.2,0,0.4-0.1,0.5c-0.1,0.1-0.2,0.3-0.3,0.4
	c-0.1,0.1-0.3,0.2-0.5,0.2c-0.2,0.1-0.4,0.1-0.6,0.1c-0.2,0-0.4,0-0.5,0c-0.1,0-0.3-0.1-0.4-0.1c-0.1,0-0.1-0.1-0.2-0.1
	c-0.1-0.1-0.1-0.1-0.1-0.2c0-0.1,0-0.2,0.1-0.3c0-0.1,0.1-0.2,0.2-0.3C36,75,36,75,36.1,75.1L36.1,75.1z M39.1,71.3
	c0.3,0,0.5,0.2,0.5,0.5c0,0.3-0.2,0.5-0.5,0.5c-0.3,0-0.5-0.2-0.5-0.5C38.6,71.5,38.8,71.3,39.1,71.3L39.1,71.3z M62.8,75.8
	c-0.1-0.1-0.1-0.2-0.1-0.4c0-0.1,0-0.3,0.1-0.4c0.1-0.1,0.2-0.1,0.4-0.1c0.1,0,0.3,0,0.4,0.1c0.1,0.1,0.1,0.2,0.1,0.4
	c0,0.1,0,0.3-0.1,0.4c-0.1,0.1-0.2,0.2-0.4,0.2C63,76,62.9,75.9,62.8,75.8L62.8,75.8z M64.1,72.6c0,0,0.1,0,0.1,0c0.1,0,0.1,0,0.2,0
	s0.1,0,0.2,0c0.1,0,0.1,0,0.2,0.1c0.1,0,0.1,0.1,0.1,0.2c0,0.1,0.1,0.2,0.1,0.3v2.8c0,0-0.1,0-0.1,0c-0.1,0-0.1,0-0.2,0
	c-0.1,0-0.2,0-0.3,0c-0.1,0-0.1,0-0.2-0.1c-0.1,0-0.1-0.1-0.1-0.2c0-0.1,0-0.2,0-0.3V72.6L64.1,72.6z M64.1,71.8
	c0-0.1,0-0.3,0.1-0.4c0.1-0.1,0.2-0.1,0.4-0.1c0.1,0,0.3,0,0.4,0.1c0.1,0.1,0.2,0.2,0.2,0.4c0,0.1,0,0.3-0.2,0.4
	c-0.1,0.1-0.2,0.1-0.4,0.1c-0.1,0-0.3,0-0.4-0.1C64.1,72.1,64.1,71.9,64.1,71.8L64.1,71.8z M65.8,75.4c-0.1-0.2-0.2-0.4-0.3-0.6
	c-0.1-0.2-0.1-0.4-0.1-0.7c0-0.2,0-0.5,0.1-0.7c0.1-0.2,0.2-0.4,0.3-0.6c0.1-0.2,0.3-0.3,0.5-0.4c0.2-0.1,0.5-0.1,0.7-0.1
	c0.3,0,0.5,0,0.8,0.1c0.2,0.1,0.4,0.2,0.5,0.4c0.1,0.2,0.2,0.3,0.3,0.6c0.1,0.2,0.1,0.4,0.1,0.7c0,0.2,0,0.5-0.1,0.7
	c-0.1,0.2-0.2,0.4-0.3,0.6c-0.1,0.2-0.3,0.3-0.5,0.4c-0.2,0.1-0.5,0.1-0.8,0.1c-0.3,0-0.6,0-0.8-0.1C66.1,75.7,65.9,75.6,65.8,75.4
	L65.8,75.4z M66.7,75.2c0.1,0.1,0.2,0.1,0.3,0.1c0.1,0,0.3,0,0.3-0.1c0.1-0.1,0.2-0.1,0.2-0.2c0.1-0.1,0.1-0.2,0.1-0.3
	c0-0.1,0-0.3,0-0.4c0-0.1,0-0.3,0-0.4c0-0.1-0.1-0.2-0.1-0.3c-0.1-0.1-0.1-0.2-0.2-0.2c-0.1-0.1-0.2-0.1-0.3-0.1
	c-0.1,0-0.2,0-0.3,0.1c-0.1,0.1-0.2,0.1-0.2,0.2c-0.1,0.1-0.1,0.2-0.1,0.3c0,0.1,0,0.2,0,0.4c0,0.1,0,0.3,0,0.4
	c0,0.1,0.1,0.2,0.1,0.3C66.6,75,66.7,75.1,66.7,75.2L66.7,75.2z M48.7,72.5C48.7,72.5,48.7,72.5,48.7,72.5c0.1,0,0.1,0,0.2,0
	c0,0,0.1,0,0.1,0c0.2,0,0.3,0,0.4,0.1c0.1,0.1,0.2,0.1,0.2,0.3c0.1-0.1,0.2-0.2,0.4-0.3c0.2-0.1,0.4-0.1,0.6-0.1
	c0.2,0,0.3,0,0.5,0.1c0.2,0.1,0.3,0.2,0.4,0.3c0.1,0.1,0.2,0.3,0.3,0.5c0.1,0.2,0.1,0.5,0.1,0.8c0,0.4,0,0.7-0.1,0.9
	c-0.1,0.2-0.2,0.4-0.3,0.6c-0.1,0.1-0.3,0.2-0.5,0.3c-0.2,0.1-0.3,0.1-0.5,0.1c-0.1,0-0.3,0-0.4,0c-0.1,0-0.2-0.1-0.3-0.1
	c-0.1,0-0.1-0.1-0.2-0.1c0,0-0.1-0.1-0.1-0.1v1.1h-1V72.5L48.7,72.5z M49.6,75c0,0,0.1,0.1,0.2,0.1c0.1,0.1,0.2,0.1,0.3,0.1
	c0.2,0,0.4-0.1,0.5-0.3c0.1-0.2,0.2-0.5,0.2-0.8c0-0.1,0-0.3,0-0.4c0-0.1-0.1-0.2-0.1-0.3c-0.1-0.1-0.1-0.2-0.2-0.2
	c-0.1,0-0.2-0.1-0.3-0.1c-0.2,0-0.3,0-0.4,0.1c-0.1,0.1-0.1,0.2-0.1,0.2V75L49.6,75z M53.2,74.3c0,0.3,0.1,0.5,0.2,0.6
	c0.1,0.2,0.4,0.3,0.7,0.3c0.1,0,0.2,0,0.3,0c0.1,0,0.2-0.1,0.2-0.1c0.1,0,0.1-0.1,0.2-0.1c0.1,0,0.1-0.1,0.1-0.1
	c0.1,0.1,0.1,0.2,0.2,0.3c0.1,0.1,0.1,0.2,0.1,0.3c0,0.1-0.1,0.2-0.2,0.3c-0.1,0.1-0.2,0.1-0.4,0.2C54.5,75.9,54.3,76,54,76
	c-0.2,0-0.4,0-0.7-0.1c-0.2-0.1-0.4-0.2-0.6-0.3c-0.2-0.1-0.3-0.3-0.4-0.6c-0.1-0.2-0.2-0.5-0.2-0.9c0-0.3,0-0.6,0.1-0.8
	c0.1-0.2,0.2-0.4,0.4-0.5c0.2-0.1,0.3-0.2,0.5-0.3c0.2-0.1,0.4-0.1,0.6-0.1c0.3,0,0.5,0,0.7,0.1c0.2,0.1,0.3,0.2,0.5,0.3
	c0.1,0.1,0.2,0.3,0.3,0.5c0.1,0.2,0.1,0.4,0.1,0.6c0,0,0,0.1,0,0.1c0,0,0,0.1,0,0.1c0,0,0,0.1,0,0.1c0,0,0,0.1,0,0.1H53.2L53.2,74.3
	z M54.4,73.8c0-0.2,0-0.4-0.1-0.6c-0.1-0.1-0.2-0.2-0.5-0.2c-0.2,0-0.3,0.1-0.5,0.2c-0.1,0.1-0.2,0.3-0.2,0.6H54.4L54.4,73.8z
	 M56.6,74.3c0,0.3,0.1,0.5,0.2,0.6c0.1,0.2,0.4,0.3,0.7,0.3c0.1,0,0.2,0,0.3,0c0.1,0,0.2-0.1,0.2-0.1c0.1,0,0.1-0.1,0.2-0.1
	c0.1,0,0.1-0.1,0.1-0.1c0.1,0.1,0.1,0.2,0.2,0.3c0.1,0.1,0.1,0.2,0.1,0.3c0,0.1-0.1,0.2-0.2,0.3c-0.1,0.1-0.2,0.1-0.4,0.2
	c-0.2,0.1-0.4,0.1-0.6,0.1c-0.2,0-0.4,0-0.7-0.1c-0.2-0.1-0.4-0.2-0.6-0.3c-0.2-0.1-0.3-0.3-0.4-0.6c-0.1-0.2-0.2-0.5-0.2-0.9
	c0-0.3,0-0.6,0.1-0.8c0.1-0.2,0.2-0.4,0.4-0.5c0.2-0.1,0.3-0.2,0.5-0.3c0.2-0.1,0.4-0.1,0.6-0.1c0.3,0,0.5,0,0.7,0.1
	c0.2,0.1,0.3,0.2,0.5,0.3c0.1,0.1,0.2,0.3,0.3,0.5c0.1,0.2,0.1,0.4,0.1,0.6c0,0,0,0.1,0,0.1c0,0,0,0.1,0,0.1c0,0,0,0.1,0,0.1
	c0,0,0,0.1,0,0.1H56.6L56.6,74.3z M57.8,73.8c0-0.2,0-0.4-0.1-0.6c-0.1-0.1-0.2-0.2-0.5-0.2c-0.2,0-0.3,0.1-0.5,0.2
	c-0.1,0.1-0.2,0.3-0.2,0.6H57.8L57.8,73.8z M61.3,73.3c0,0-0.1-0.1-0.2-0.1c-0.1-0.1-0.2-0.1-0.3-0.1c-0.2,0-0.4,0.1-0.5,0.3
	c-0.1,0.2-0.2,0.4-0.2,0.8c0,0.2,0,0.3,0,0.5c0,0.1,0.1,0.2,0.1,0.3c0.1,0.1,0.1,0.2,0.2,0.2c0.1,0.1,0.2,0.1,0.4,0.1
	c0.1,0,0.3,0,0.4-0.1c0.1-0.1,0.1-0.1,0.1-0.2V73.3L61.3,73.3z M61.6,75.9c-0.1,0-0.1,0-0.2-0.1c0-0.1-0.1-0.1-0.1-0.2
	c-0.1,0.1-0.2,0.2-0.3,0.2c-0.2,0.1-0.4,0.1-0.6,0.1c-0.2,0-0.3,0-0.5-0.1c-0.2-0.1-0.3-0.2-0.4-0.3c-0.1-0.1-0.2-0.3-0.3-0.5
	c-0.1-0.2-0.1-0.5-0.1-0.8c0-0.3,0-0.6,0.1-0.8c0.1-0.2,0.2-0.4,0.3-0.6c0.1-0.1,0.3-0.3,0.4-0.3c0.2-0.1,0.3-0.1,0.5-0.1
	c0.2,0,0.4,0,0.5,0.1c0.1,0.1,0.2,0.1,0.3,0.2v-1.3c0,0,0.1,0,0.1,0c0.1,0,0.1,0,0.2,0c0.1,0,0.2,0,0.2,0c0.1,0,0.1,0,0.2,0.1
	c0.1,0,0.1,0.1,0.1,0.2c0,0.1,0.1,0.2,0.1,0.3v3.9H61.6L61.6,75.9z M46.1,75.1c0.1,0,0.1,0.1,0.2,0.1c0.1,0,0.2,0.1,0.3,0.1
	c0.1,0,0.2,0,0.3,0c0.1,0,0.1,0,0.2,0c0.1,0,0.1,0,0.2-0.1c0,0,0.1-0.1,0.1-0.1c0,0,0-0.1,0-0.2c0-0.1-0.1-0.2-0.2-0.3
	c-0.1-0.1-0.3-0.1-0.5-0.2c-0.1,0-0.3-0.1-0.4-0.1c-0.1,0-0.2-0.1-0.3-0.2c-0.1-0.1-0.2-0.2-0.2-0.3c-0.1-0.1-0.1-0.3-0.1-0.4
	c0-0.2,0-0.3,0.1-0.4c0.1-0.1,0.2-0.2,0.3-0.3c0.1-0.1,0.3-0.2,0.4-0.2c0.2,0,0.3-0.1,0.5-0.1c0.2,0,0.4,0,0.5,0
	c0.1,0,0.3,0.1,0.4,0.1c0.2,0.1,0.3,0.2,0.3,0.3c0,0.1,0,0.2-0.1,0.3c0,0.1-0.1,0.2-0.1,0.3c0,0-0.1-0.1-0.2-0.1
	c-0.1,0-0.1-0.1-0.2-0.1c-0.1,0-0.2-0.1-0.3-0.1c-0.1,0-0.2,0-0.3,0c-0.1,0-0.1,0-0.2,0c-0.1,0-0.1,0-0.2,0c0,0-0.1,0.1-0.1,0.1
	c0,0,0,0.1,0,0.2c0,0.2,0.2,0.3,0.5,0.4c0.1,0,0.3,0.1,0.4,0.1c0.1,0,0.3,0.1,0.4,0.2c0.1,0.1,0.2,0.2,0.3,0.3
	c0.1,0.1,0.1,0.3,0.1,0.5c0,0.2,0,0.4-0.1,0.5c-0.1,0.1-0.2,0.3-0.3,0.4c-0.1,0.1-0.3,0.2-0.5,0.2c-0.2,0.1-0.4,0.1-0.6,0.1
	c-0.2,0-0.4,0-0.5,0c-0.1,0-0.3-0.1-0.4-0.1c-0.1,0-0.1-0.1-0.2-0.1c-0.1-0.1-0.1-0.1-0.1-0.2c0-0.1,0-0.2,0.1-0.3
	c0-0.1,0.1-0.2,0.2-0.3C46,75,46,75,46.1,75.1L46.1,75.1z M38.7,72.5c0,0,0.1,0,0.1,0c0.1,0,0.1,0,0.2,0s0.2,0,0.2,0
	c0.1,0,0.1,0,0.2,0.1c0.1,0,0.1,0.1,0.1,0.2c0,0.1,0.1,0.2,0.1,0.3v2.9c0,0-0.1,0-0.1,0c-0.1,0-0.1,0-0.2,0c-0.1,0-0.2,0-0.3,0
	c-0.1,0-0.1,0-0.2-0.1c-0.1,0-0.1-0.1-0.1-0.2c0-0.1,0-0.2,0-0.3V72.5L38.7,72.5z M40.1,71.4c0,0,0.1,0,0.1,0c0,0,0.1,0,0.1,0
	c0,0,0.1,0,0.1,0c0.1,0,0.2,0,0.2,0c0.1,0,0.1,0,0.2,0.1c0.1,0,0.1,0.1,0.1,0.2c0,0.1,0.1,0.2,0.1,0.3v0.5h1v0.7h-1v1.5
	c0,0.3,0.1,0.5,0.4,0.5c0.1,0,0.1,0,0.2,0c0.1,0,0.1,0,0.2-0.1c0,0,0.1-0.1,0.1-0.1c0,0,0.1,0,0.1-0.1c0.1,0.1,0.1,0.2,0.2,0.3
	c0,0.1,0.1,0.1,0.1,0.2c0,0.1,0,0.1-0.1,0.2c0,0.1-0.1,0.1-0.2,0.2c-0.1,0-0.2,0.1-0.3,0.1c-0.1,0-0.3,0-0.4,0
	c-0.3,0-0.5-0.1-0.7-0.2c-0.2-0.1-0.3-0.3-0.3-0.4c0-0.1-0.1-0.2-0.1-0.3c0-0.1,0-0.2,0-0.3V71.4L40.1,71.4z M43.3,74.3
	c0,0.3,0.1,0.5,0.2,0.6c0.1,0.2,0.4,0.3,0.7,0.3c0.1,0,0.2,0,0.3,0c0.1,0,0.2-0.1,0.2-0.1c0.1,0,0.1-0.1,0.2-0.1
	c0.1,0,0.1-0.1,0.1-0.1c0.1,0.1,0.1,0.2,0.2,0.3c0.1,0.1,0.1,0.2,0.1,0.3c0,0.1-0.1,0.2-0.2,0.3c-0.1,0.1-0.2,0.1-0.4,0.2
	c-0.2,0.1-0.4,0.1-0.6,0.1c-0.2,0-0.4,0-0.7-0.1c-0.2-0.1-0.4-0.2-0.6-0.3c-0.2-0.1-0.3-0.3-0.4-0.6c-0.1-0.2-0.2-0.5-0.2-0.9
	c0-0.3,0-0.6,0.1-0.8c0.1-0.2,0.2-0.4,0.4-0.5c0.2-0.1,0.3-0.2,0.5-0.3c0.2-0.1,0.4-0.1,0.6-0.1c0.3,0,0.5,0,0.7,0.1
	c0.2,0.1,0.3,0.2,0.5,0.3c0.1,0.1,0.2,0.3,0.3,0.5c0.1,0.2,0.1,0.4,0.1,0.6c0,0,0,0.1,0,0.1s0,0.1,0,0.1c0,0,0,0.1,0,0.1
	c0,0,0,0.1,0,0.1H43.3L43.3,74.3z M44.5,73.8c0-0.2,0-0.4-0.1-0.6c-0.1-0.1-0.2-0.2-0.5-0.2c-0.2,0-0.3,0.1-0.5,0.2
	c-0.1,0.1-0.2,0.3-0.2,0.6H44.5L44.5,73.8z"/>
<path fill-rule="evenodd" clip-rule="evenodd" fill="#010101" d="M53.1,44.9c1.2-0.9,2.4-0.7,2.8-1.4c0.3-0.4,0.2-0.9-0.2-1.3
	c-1.1-1.3-6.1-1.3-7.2,0c-0.3,0.4-0.4,0.8-0.2,1.3c0.5,0.7,1.7,0.4,3,1.5c0.3,0.3,0.3,0.4,0.3,0.8v0.6c0,0.1,0,0.2,0,0.4
	c0,0.4,0,0.6-0.2,0.9c-0.2,0.3-0.6,0.6-1.2,0.9c-3.1,1.7-6.1,0.4-8.8-1.1c-1.5-0.9-1.7-0.5-0.5,0.6c3.1,2.9,5.8,6.8,11.1,6.8
	c5.4,0,8.1-3.8,11.1-6.8c1-1,1.2-1.6-0.5-0.6c-2.6,1.5-5.7,2.8-8.7,1.1c0,0,0,0,0,0c-0.5-0.3-0.9-0.6-1.2-0.9
	c-0.2-0.3-0.3-0.6-0.3-0.9c0-0.1,0-0.2,0-0.4v-0.6C52.7,45.3,52.7,45.2,53.1,44.9L53.1,44.9z M37.1,29.8c1.5,0,2.9,0.6,3.8,1.6
	c-0.3-0.1-0.5-0.2-0.9-0.2c-0.9,0-1.7,0.7-1.7,1.6c0,0.9,0.8,1.6,1.7,1.6c0.9,0,1.7-0.7,1.7-1.6c0-0.1,0-0.2,0-0.3
	c0.4,0.7,0.6,1.5,0.6,2.4c0,2.8-2.4,5-5.2,5c-2.9,0-5.2-2.2-5.2-5C31.9,32.1,34.2,29.8,37.1,29.8L37.1,29.8z M68.7,29.8
	c1.5,0,2.9,0.6,3.8,1.6c-0.3-0.1-0.5-0.2-0.9-0.2c-0.9,0-1.7,0.7-1.7,1.6c0,0.9,0.8,1.6,1.7,1.6c0.9,0,1.7-0.7,1.7-1.6
	c0-0.1,0-0.2,0-0.3c0.4,0.7,0.6,1.5,0.6,2.4c0,2.8-2.4,5-5.2,5c-2.9,0-5.2-2.2-5.2-5C63.4,32.1,65.8,29.8,68.7,29.8L68.7,29.8z"/>
<path fill-rule="evenodd" clip-rule="evenodd" fill="#F58220" d="M47.1,52.1c1.4,1.1,3.4,1.6,5.2,1.6c1.8,0,3.8-0.5,5.2-1.6
	C56,51,54,50.5,52.2,50.5C50.4,50.5,48.4,51,47.1,52.1L47.1,52.1z"/>
<path fill="#BDBEC0" d="M12.3,9.1c2.8,0.9,5.6,2.7,8,5.3c0.2,0.2,0.4,0.4,0.5,0.6c-1.1,1.4-2,2.8-2.9,4.3
	C16.8,15.6,15.5,12.2,12.3,9.1L12.3,9.1z"/>
</svg>
