<?xml version="1.0" encoding="utf-8"?>
<!-- Generator: Adobe Illustrator 18.1.1, SVG Export Plug-In . SVG Version: 6.00 Build 0)  -->
<svg version="1.1" id="Layer_1" xmlns="http://www.w3.org/2000/svg" xmlns:xlink="http://www.w3.org/1999/xlink" x="0px" y="0px"
	 viewBox="0 0 67.4 57.4" enable-background="new 0 0 67.4 57.4" xml:space="preserve">
<path fill-rule="evenodd" clip-rule="evenodd" fill="#010101" d="M33.7,0c5.6,0,10.7,1.8,14.9,4.9l4.9-0.7C54.8,4,56.5,3.8,58,3.9
	c1,0,2.2,0.3,2.7,1.2c0.6,0.9,0.3,2.1,0,3c-0.4,1.2-0.9,2.4-1.3,3.5l0,0l-2,5.3c0.8,2.5,1.3,5.2,1.3,8c0,2-0.2,4-0.8,5.8
	c1,0,1.9,0.6,2.5,1.5c0.4,0.8,0.6,1.8,0.7,2.8c1.3,0,2.5,0.4,3.4,1.1c1.2,0.9,2,2.1,2.4,3.4c0.6,1.6,0.7,3.4,0.1,5.2
	c-0.5,1.6-1.5,3.2-3.2,4c-0.5,0.3-1.1,0.4-1.7,0.5c-0.6,0.1-1.2,0.1-1.7,0c-3.1,0.3-6.6-0.3-8.4-1.5c-1.2-0.8-2.2-1.9-3-3.1
	c-1.4,1.7-2.9,3.2-4.5,4.3l0,0.1c-0.3,0.7-0.7,1.4-1.2,2c-0.8,3-4.9,5.4-9.8,5.4c-4.8,0-8.9-2.3-9.7-5.2c-0.5-0.7-0.9-1.4-1.2-2.1
	l0-0.1c-0.1,0-0.1-0.1-0.2-0.1c-0.6,0.9-0.9,2-0.7,3.2c0,0.2,0.2,0.5,0.3,0.7c0.2,0.3,0.3,0.7,0.3,1c0.3,1.7-0.9,3.3-2.6,3.5
	c-1.9,0.3-3.1-1-3.6-2.7c-0.1-0.4-0.2-0.8-0.3-1.2c-0.5-3.1,0.6-6.1,2.7-8.2c-0.1-0.2-0.3-0.3-0.4-0.5c-0.8,1.2-1.8,2.3-3,3.1
	c-1.8,1.2-5.2,1.8-8.4,1.5c-0.5,0.1-1.1,0.1-1.7,0c-0.6-0.1-1.1-0.3-1.7-0.5c-1.7-0.8-2.7-2.4-3.2-4c-0.5-1.7-0.4-3.6,0.1-5.2
	c0.5-1.3,1.3-2.6,2.4-3.4c0.9-0.7,2.1-1.1,3.3-1.1c0-1,0.2-2,0.7-2.8c0.5-1,1.5-1.6,2.6-1.5C8.9,28.9,8.7,27,8.7,25
	c0-2.8,0.5-5.5,1.3-8l-2-5.3l0,0c-0.4-1.2-0.9-2.4-1.3-3.5c-0.3-1-0.6-2.1,0-3c0.6-1,1.7-1.2,2.7-1.2C10.9,3.8,12.5,4,14,4.2
	l4.9,0.7C23,1.8,28.1,0,33.7,0L33.7,0z M55.1,36.7c-0.3,0.5-0.7,0.9-1.1,1.4c-0.1,0.1-0.1,0.2-0.2,0.2c0.6,0.6,1.2,0.4,1.8,0
	C55.4,37.7,55.3,37.1,55.1,36.7C55.1,36.8,55.1,36.8,55.1,36.7L55.1,36.7z M13.6,38.3c-0.1-0.1-0.1-0.2-0.2-0.2
	c-0.4-0.5-0.8-0.9-1.1-1.4c0,0-0.1,0.1-0.1,0.1c-0.1,0.2-0.3,0.8-0.4,1.5C12.4,38.8,13,38.9,13.6,38.3L13.6,38.3z"/>
<path fill-rule="evenodd" clip-rule="evenodd" fill="#FFFFFF" d="M52.7,39.4c0.9,0.9,1.9,1.2,2.8,0.7c-0.4,1.6-0.2,3.3,0.3,4.7
	c0.4,1.2,1.2,2.4,2.2,3.2c-3.5-0.1-6.3-1.8-7.9-4.7c0.6-0.9,1.2-1.9,1.8-2.9l0.3-0.6C52.3,39.8,52.5,39.6,52.7,39.4L52.7,39.4z"/>
<path fill-rule="evenodd" clip-rule="evenodd" fill="#0795D1" d="M52.7,39.4c0.5,0.6,1.1,0.9,1.7,0.9c-0.5,1.3-1.3,5.8-0.9,6.6
	c-1.4-0.8-2.5-2-3.4-3.5c0.6-0.9,1.2-1.9,1.8-2.9l0.3-0.6C52.3,39.8,52.5,39.6,52.7,39.4L52.7,39.4z"/>
<path fill-rule="evenodd" clip-rule="evenodd" fill="#FFFFFF" d="M14.6,39.4c-0.9,0.9-1.9,1.2-2.8,0.7c0.4,1.6,0.2,3.3-0.3,4.7
	c-0.4,1.2-1.2,2.4-2.2,3.2c3.5-0.1,6.3-1.8,7.9-4.7c-0.6-0.9-1.2-1.9-1.8-2.9l-0.3-0.6C15,39.8,14.8,39.6,14.6,39.4L14.6,39.4z"/>
<path fill-rule="evenodd" clip-rule="evenodd" fill="#0795D1" d="M14.6,39.4c-0.5,0.6-1.1,0.9-1.7,0.9c0.7,2.2,1.3,4.4,1,6.6
	c1.4-0.8,2.5-2,3.4-3.5c-0.6-0.9-1.2-1.9-1.8-2.9l-0.3-0.6C15,39.8,14.8,39.6,14.6,39.4L14.6,39.4z"/>
<path fill-rule="evenodd" clip-rule="evenodd" fill="#FFFFFF" d="M35.3,52.6c2,1.7,4.4,1.1,6.6-1.9C39.8,51.8,37.6,52.4,35.3,52.6
	L35.3,52.6z"/>
<path fill-rule="evenodd" clip-rule="evenodd" fill="#FFFFFF" d="M32,52.6c-2,1.7-4.4,1.1-6.6-1.9C27.6,51.8,29.8,52.4,32,52.6
	L32,52.6z"/>
<path fill-rule="evenodd" clip-rule="evenodd" fill="#0795D1" d="M18.1,42c8,12.2,23.1,12.2,31.1,0c-4.6,2.7-10.2,3.8-15.5,3.8
	C28.4,45.8,22.7,44.8,18.1,42L18.1,42z"/>
<path fill-rule="evenodd" clip-rule="evenodd" fill="#02527D" d="M18.1,42c3.9,5.9,9.4,9,14.9,9.2c0.3,0,0.7,0,1-0.1
	c-4.7-0.5-9.3-3-12.8-7.5C20.2,43.2,19.2,42.6,18.1,42L18.1,42z"/>
<path fill-rule="evenodd" clip-rule="evenodd" fill="#FFFFFF" d="M33.7,1.5c5.2,0,10.1,1.7,14,4.6c2-0.1,4-0.4,5.9-0.6
	c8.2-1.1,6.6,0.4,4.7,5.8l-1.5,4c-0.8-1.9-1.8-3.6-3-5.3c0.1-0.1,0.2-0.3,0.3-0.4c1.5-1.7,3.3-2.9,5.1-3.5c-1.6-0.2-3.6,0.5-5.3,2.1
	c-0.7,0.7-1.2,1.3-1.7,2.2c3.1,4,5,9,5,14.5c0,2.3-0.3,4.4-1,6.3c-0.2,0.1-0.4,0.3-0.6,0.4c-0.8,0.7-1.4,1.6-1.4,2.6
	c0,0.4,0,0.7,0.1,1c-4,6-11.7,9-20.6,9c-8.9,0-16.7-3-20.6-9.1c0.1-0.3,0.1-0.6,0.1-0.9c0-1-0.6-1.9-1.4-2.6
	c-0.2-0.1-0.3-0.3-0.5-0.4c-0.6-1.9-1-4-1-6.4c0-5.5,1.9-10.6,5.1-14.6c-0.5-0.8-1-1.4-1.6-2.1C12,6.6,9.9,5.8,8.2,6.1
	c1.8,0.6,3.6,1.8,5.1,3.5c0.1,0.1,0.2,0.3,0.3,0.4c-1.2,1.6-2.2,3.4-3,5.3l-1.5-4c-1.9-5.5-3.6-7,4.7-5.8c2,0.3,3.9,0.5,5.9,0.6
	C23.6,3.2,28.5,1.5,33.7,1.5L33.7,1.5z"/>
<path fill-rule="evenodd" clip-rule="evenodd" fill="#E5E5E5" d="M25.4,43.4c-5.3-1.3-9.7-4-12.4-8.2c0.1-0.3,0.1-0.6,0.1-0.9
	c0-1-0.6-1.9-1.4-2.6c-0.2-0.1-0.3-0.3-0.5-0.4c-0.6-1.9-1-4-1-6.4c0-5.5,1.9-10.6,5.1-14.6c-0.5-0.8-1-1.4-1.6-2.1
	C12,6.6,9.9,5.8,8.2,6.1c1.8,0.6,3.6,1.8,5.1,3.5c0.1,0.1,0.2,0.3,0.3,0.4c-1.2,1.6-2.2,3.4-3,5.3l-1.5-4c-1.9-5.5-3.6-7,4.7-5.8
	c2,0.3,3.9,0.5,5.9,0.6l0,0c2.5-1.8,5.3-3.2,8.4-3.9C19.7,6,13.9,14.8,13.9,25.1C13.9,34.2,18.5,40.3,25.4,43.4L25.4,43.4z"/>
<path fill-rule="evenodd" clip-rule="evenodd" fill="#B3B3B3" d="M8.4,6c0.1,0,0.1,0,0.2,0.1C8.6,6.1,8.5,6.1,8.4,6L8.4,6L8.4,6z
	 M11.8,12.9c-0.6-2.4-1.3-4.7-3.2-6.7c1.6,0.6,3.3,1.8,4.7,3.4c0.1,0.1,0.2,0.3,0.3,0.4C13,10.9,12.4,11.9,11.8,12.9L11.8,12.9z"/>
<path fill-rule="evenodd" clip-rule="evenodd" fill="#010101" d="M34.6,33.1c1.2-0.9,2.4-0.7,2.8-1.4c0.3-0.4,0.1-0.9-0.2-1.3
	c-1-1.3-6-1.3-7,0c-0.3,0.4-0.4,0.8-0.2,1.3c0.4,0.7,1.7,0.4,2.9,1.5c0.8,0.7,0.5,1.3-0.4,1.8c-2,1.1-3.9,0.3-5.6-0.7
	c-1-0.5-1.1-0.3-0.3,0.4c2,1.9,3.7,4.3,7.1,4.3c3.4,0,5.1-2.4,7.1-4.3c0.6-0.6,0.8-1-0.3-0.4c-1.6,0.9-3.6,1.8-5.5,0.7c0,0,0,0,0,0
	C33.9,34.3,33.6,33.8,34.6,33.1L34.6,33.1z"/>
<path fill-rule="evenodd" clip-rule="evenodd" fill="#010101" d="M23.6,21.9c1.8,0,3.3,1.7,3.3,3.9c0,2.1-1.5,3.9-3.3,3.9
	c-1.8,0-3.3-1.7-3.3-3.9C20.3,23.6,21.8,21.9,23.6,21.9L23.6,21.9z M43.7,21.9c1.8,0,3.3,1.7,3.3,3.9c0,2.1-1.5,3.9-3.3,3.9
	c-1.8,0-3.3-1.7-3.3-3.9C40.4,23.6,41.9,21.9,43.7,21.9L43.7,21.9z M45.5,23.3c0.6,0,1.1,0.5,1.1,1.1c0,0.6-0.5,1.1-1.1,1.1
	c-0.6,0-1.1-0.5-1.1-1.1C44.4,23.8,44.9,23.3,45.5,23.3L45.5,23.3z M25.4,23.3c0.6,0,1.1,0.5,1.1,1.1c0,0.6-0.5,1.1-1.1,1.1
	c-0.6,0-1.1-0.5-1.1-1.1C24.3,23.8,24.8,23.3,25.4,23.3L25.4,23.3z"/>
<path fill-rule="evenodd" clip-rule="evenodd" fill="#F58220" d="M30.4,37.2c0.9,0.7,2.1,1,3.3,1c1.1,0,2.4-0.3,3.3-1
	c-0.9-0.7-2.1-1-3.3-1C32.5,36.2,31.3,36.5,30.4,37.2L30.4,37.2z"/>
<path fill-rule="evenodd" clip-rule="evenodd" fill="#FFFFFF" d="M56.5,35.9c0.1,0.2,0.3,0.8,0.4,1.4c0.5-0.6,1.2-1.2,1.9-1.6
	c0.2-0.1,0.4-0.2,0.7-0.3c0-0.8-0.2-1.6-0.5-2.2c-0.4-0.8-1.4-1.5-2.6-0.4C54.8,34.1,56.1,35.2,56.5,35.9L56.5,35.9z"/>
<path fill-rule="evenodd" clip-rule="evenodd" fill="#FFFFFF" d="M65.4,40.3c1,2.9,0.1,6.2-2.2,7.3c-2.2,1.1-4.9-0.4-5.9-3.3l0,0
	c1.3-0.4,2.7-0.5,3.8-0.2c-0.2-0.1-0.3-0.2-0.5-0.3c-1-0.4-2.2-0.5-3.5-0.2c-0.2-1-0.3-2.1-0.1-3.1c1.5-0.4,2.9-0.6,4.2-0.3
	c-0.2-0.1-0.4-0.2-0.6-0.3c-0.9-0.3-2.1-0.4-3.4-0.2c0.4-1.2,1.2-2.2,2.2-2.8C61.7,35.8,64.3,37.3,65.4,40.3L65.4,40.3z"/>
<path fill-rule="evenodd" clip-rule="evenodd" fill="#CDCCCC" d="M60.3,47.7c-1.3-0.5-2.4-1.7-3-3.4l0,0c0.3-0.1,0.5-0.2,0.8-0.2
	c0,0.2,0.1,0.3,0.2,0.5C58.7,45.9,59.5,47,60.3,47.7L60.3,47.7z M57.1,43.6c-0.2-1-0.3-2.1-0.1-3.1c0.3-0.1,0.6-0.2,0.9-0.2
	c-0.2,1-0.1,2.1,0.1,3.2C57.7,43.5,57.4,43.5,57.1,43.6L57.1,43.6z M57.3,39.7c0.4-1.1,1-2,1.9-2.6c-0.5,0.7-0.9,1.6-1.2,2.5
	C57.8,39.7,57.5,39.7,57.3,39.7L57.3,39.7z"/>
<path fill-rule="evenodd" clip-rule="evenodd" fill="#FFFFFF" d="M10.8,35.9c-0.1,0.2-0.3,0.7-0.4,1.3c-0.5-0.6-1.1-1.1-1.9-1.5
	c-0.2-0.1-0.5-0.2-0.8-0.3c0-0.8,0.2-1.6,0.5-2.1c0.4-0.8,1.4-1.5,2.6-0.4C12.4,34.1,11.2,35.2,10.8,35.9L10.8,35.9z"/>
<path fill-rule="evenodd" clip-rule="evenodd" fill="#FFFFFF" d="M2,40.3c-1,2.9-0.1,6.2,2.2,7.3c2.2,1.1,4.9-0.4,5.9-3.3l0,0
	c-1.3-0.4-2.7-0.5-3.8-0.2c0.2-0.1,0.3-0.2,0.5-0.3c1-0.4,2.2-0.5,3.5-0.2c0.2-1,0.3-2.1,0.1-3.1c-1.5-0.4-2.9-0.6-4.2-0.3
	c0.2-0.1,0.4-0.2,0.6-0.3c0.9-0.3,2.1-0.4,3.4-0.2c-0.4-1.2-1.2-2.2-2.2-2.8C5.7,35.8,3,37.3,2,40.3L2,40.3z"/>
<path fill-rule="evenodd" clip-rule="evenodd" fill="#CDCCCC" d="M7,47.7c1.3-0.5,2.4-1.7,3-3.4l0,0c-0.3-0.1-0.5-0.2-0.8-0.2
	c0,0.2-0.1,0.3-0.2,0.5C8.6,45.9,7.9,47,7,47.7L7,47.7z M10.3,43.6c0.2-1,0.3-2.1,0.1-3.1c-0.3-0.1-0.6-0.2-0.9-0.2
	c0.2,1,0.1,2.1-0.1,3.2C9.7,43.5,10,43.5,10.3,43.6L10.3,43.6z M10.1,39.7c-0.4-1.1-1-2-1.9-2.6c0.5,0.7,0.9,1.6,1.2,2.5
	C9.6,39.7,9.8,39.7,10.1,39.7L10.1,39.7z"/>
<path fill-rule="evenodd" clip-rule="evenodd" fill="#FFFFFF" d="M20.6,52.2c-0.2-1.5,0.2-2.9,1-4.1c-0.7-0.6-1.4-1.3-2.1-2
	c-1.8,1.8-2.7,4.4-2.3,7.1c0.2,1.3,0.7,3.2,2.5,2.9c1-0.2,1.7-1.1,1.6-2.2C21.1,53.3,20.7,52.9,20.6,52.2L20.6,52.2z"/>
</svg>
