<?xml version="1.0" encoding="utf-8"?>
<!-- Generator: Adobe Illustrator 18.1.1, SVG Export Plug-In . SVG Version: 6.00 Build 0)  -->
<svg version="1.1" id="Layer_1" xmlns="http://www.w3.org/2000/svg" xmlns:xlink="http://www.w3.org/1999/xlink" x="0px" y="0px"
	 viewBox="0 0 71.5 112.3" enable-background="new 0 0 71.5 112.3" xml:space="preserve">
<path fill-rule="evenodd" clip-rule="evenodd" fill="#010101" d="M35.8,55.9c5.6,0,10.7,1.8,14.9,4.9l4.9-0.7
	c1.4-0.2,3.1-0.4,4.5-0.4c1,0,2.2,0.3,2.7,1.2c0.6,0.9,0.3,2.1,0,3c-0.4,1.2-0.9,2.4-1.3,3.5l0,0l-2,5.3c0.8,2.5,1.3,5.2,1.3,8
	c0,2-0.2,4-0.8,5.8c1.1,0,2,0.5,2.6,1.5C63,89,63.2,90,63.2,91c1.3-0.1,2.5,0.4,3.5,1.1c1.2,0.9,2,2.1,2.4,3.4
	c0.6,1.6,0.7,3.4,0.2,5.2c-0.5,1.6-1.5,3.2-3.2,4c-0.5,0.3-1.1,0.4-1.7,0.5c-0.6,0.1-1.2,0.1-1.7,0c-3.1,0.3-6.6-0.3-8.4-1.5
	c-1.2-0.9-2.3-2-3-3.2c-1.4,1.8-2.9,3.2-4.6,4.4l0,0.1c-0.3,0.7-0.7,1.4-1.2,2c-0.8,3-4.9,5.4-9.8,5.4c-4.8,0-8.9-2.3-9.7-5.2
	c-0.1-0.1-0.2-0.3-0.3-0.4c-0.7,0.5-1.5,0.6-2.4,0.5c-2.8-0.3-4.1-2.2-5.2-4.5c-0.3-0.6-0.7-1.5-1.1-2.6C13.3,101,9.3,99.4,7,96
	c-0.2-0.4-0.4-0.7-0.6-1.1c-0.8-1.6-0.8-3.4,0.9-4.4c1.4-0.9,3.4-0.5,4.3,0.9c0.2,0.3,0.3,0.6,0.4,1c0.1,0.2,0.1,0.6,0.2,0.7
	c0.9,1.4,2.6,2.2,4.2,2c0,0,0,0,0-0.1c-0.3-0.3-0.7-0.7-1-1c-3.2-3.7-4.7-8.3-4.7-13.1c0-2.8,0.5-5.5,1.3-8l-2-5.3l0,0
	c-0.4-1.2-0.9-2.4-1.3-3.5c-0.3-1-0.6-2.1,0-3c0.6-1,1.7-1.2,2.7-1.2c1.5-0.1,3.1,0.2,4.5,0.4l4.9,0.7
	C25.1,57.7,30.2,55.9,35.8,55.9L35.8,55.9z M57.2,92.6c-0.3,0.5-0.7,1-1.1,1.4c0,0.1-0.1,0.1-0.1,0.2c0.6,0.6,1.2,0.5,1.8,0.1
	c-0.1-0.7-0.3-1.3-0.4-1.6C57.3,92.6,57.3,92.6,57.2,92.6L57.2,92.6z"/>
<path fill-rule="evenodd" clip-rule="evenodd" fill="#FFFFFF" d="M54.9,95.2c0.9,1,2,1.3,2.9,0.8c-0.4,1.6-0.2,3.3,0.3,4.7
	c0.4,1.2,1.2,2.4,2.2,3.2c-3.6-0.1-6.3-1.8-8-4.9c0.6-0.9,1.1-1.8,1.7-2.8l0.3-0.6C54.5,95.6,54.7,95.4,54.9,95.2L54.9,95.2z"/>
<path fill-rule="evenodd" clip-rule="evenodd" fill="#0795D1" d="M54.9,95.2c0.5,0.6,1.1,0.9,1.7,1c-0.7,2.2-1.3,4.4-1,6.5
	c-1.4-0.8-2.5-2-3.3-3.6c0.6-0.9,1.1-1.8,1.7-2.8l0.3-0.6C54.5,95.6,54.7,95.4,54.9,95.2L54.9,95.2z"/>
<path fill-rule="evenodd" clip-rule="evenodd" fill="#FFFFFF" d="M11.3,93.8c1.1,1.7,3.2,2.7,5.2,2.6c0,0.9,0.2,1.7,0.4,2.6
	c-3.3,0.8-6.9-0.6-8.8-3.6c-0.7-1.1-1.6-2.9-0.1-3.9c0.9-0.6,2.1-0.3,2.6,0.6C10.9,92.6,10.9,93.2,11.3,93.8L11.3,93.8z"/>
<path fill-rule="evenodd" clip-rule="evenodd" fill="#FFFFFF" d="M23.6,105.7c-2.3-0.2-3.2-1.9-4-3.7c-1.1-2.3-1.6-4.1-1.7-5.3
	c2,3.6,4.5,6.4,7.3,8.4C25,105.6,24.5,105.8,23.6,105.7L23.6,105.7z"/>
<path fill-rule="evenodd" clip-rule="evenodd" fill="#0795D1" d="M19.6,102.2l-0.1-0.1c-1.1-2.3-1.6-4.1-1.7-5.3
	c1,1.9,2.2,3.5,3.4,4.9C20.7,101.8,20.1,102,19.6,102.2L19.6,102.2z"/>
<path fill-rule="evenodd" clip-rule="evenodd" fill="#FFFFFF" d="M37.4,108.5c2,1.7,4.4,1.1,6.6-1.9
	C41.9,107.6,39.7,108.3,37.4,108.5L37.4,108.5z"/>
<path fill-rule="evenodd" clip-rule="evenodd" fill="#FFFFFF" d="M34.1,108.5c-2,1.7-4.4,1.1-6.6-1.9
	C29.7,107.6,31.9,108.3,34.1,108.5L34.1,108.5z"/>
<path fill-rule="evenodd" clip-rule="evenodd" fill="#0795D1" d="M20.2,97.9c8,12.2,23.1,12.2,31.1,0c-4.6,2.7-10.2,3.8-15.5,3.8
	C30.5,101.7,24.8,100.6,20.2,97.9L20.2,97.9z"/>
<path fill-rule="evenodd" clip-rule="evenodd" fill="#FFFFFF" d="M35.8,57.4c5.2,0,10.1,1.7,14,4.6c2-0.1,4-0.4,5.9-0.6
	c8.2-1.1,6.6,0.4,4.7,5.8l-1.5,4c-0.8-1.9-1.8-3.6-3-5.3c0.1-0.1,0.2-0.3,0.3-0.4c1.5-1.7,3.3-2.9,5.1-3.5c-1.6-0.2-3.6,0.5-5.3,2.1
	c-0.7,0.7-1.2,1.3-1.7,2.2c3.1,4,5,9,5,14.5c0,2.3-0.3,4.5-1,6.4c-0.2,0.1-0.4,0.2-0.5,0.4c-0.8,0.7-1.4,1.6-1.4,2.6
	c0,0.3,0,0.6,0.1,0.9c-4,6.1-11.7,9.1-20.6,9.1c-13,0-23.5-6.4-23.5-19.4c0-5.5,1.9-10.6,5.1-14.6c-0.5-0.8-1-1.4-1.6-2.1
	c-1.7-1.7-3.8-2.5-5.4-2.2c1.8,0.6,3.6,1.8,5.1,3.5c0.1,0.1,0.2,0.3,0.3,0.4c-1.2,1.6-2.2,3.4-3,5.3l-1.5-4c-1.9-5.5-3.6-7,4.7-5.8
	c2,0.3,3.9,0.5,5.9,0.6C25.7,59.1,30.5,57.4,35.8,57.4L35.8,57.4z"/>
<path fill-rule="evenodd" clip-rule="evenodd" fill="#E5E5E5" d="M27.5,99.2c-8.9-2.2-15.2-8.3-15.2-18.4c0-5.5,1.9-10.6,5.1-14.6
	c-0.5-0.8-1-1.4-1.6-2.1c-1.7-1.7-3.8-2.5-5.4-2.2c1.8,0.6,3.6,1.8,5.1,3.5c0.1,0.1,0.2,0.3,0.3,0.4c-1.2,1.6-2.2,3.4-3,5.3l-1.5-4
	c-1.9-5.5-3.6-7,4.7-5.8c2,0.3,3.9,0.5,5.9,0.6l0,0c2.5-1.8,5.3-3.2,8.4-3.9C21.8,61.9,16,70.7,16,81C16,90.1,20.6,96.2,27.5,99.2
	L27.5,99.2z"/>
<path fill-rule="evenodd" clip-rule="evenodd" fill="#B3B3B3" d="M10.5,61.9c0.1,0,0.1,0,0.2,0.1C10.7,61.9,10.6,61.9,10.5,61.9
	L10.5,61.9L10.5,61.9z M13.9,68.8c-0.6-2.4-1.3-4.7-3.2-6.7c1.6,0.6,3.3,1.8,4.7,3.4c0.1,0.1,0.2,0.3,0.3,0.4
	C15.1,66.8,14.5,67.8,13.9,68.8L13.9,68.8z"/>
<path fill-rule="evenodd" clip-rule="evenodd" fill="#010101" d="M36.4,89.2c1.3-1.2,2.6-0.8,3-1.6c0.3-0.4,0.1-0.9-0.2-1.3
	c-1-1.3-6-1.3-7,0c-0.3,0.4-0.4,0.8-0.2,1.3c0.5,0.8,1.9,0.4,3.2,1.7c0,0.1,0,0.2,0,0.2c0.1,0.7-0.1,1.1-0.4,1.3
	c-0.4,0.3-1.1,0.4-1.8,0.5c-0.8,0.1-1.8-0.7-2.6-1.2c-0.8-0.5-0.8-0.3-0.2,0.4c0.7,0.8,1.4,1.7,2.4,1.9c0.3,0.1,0.7,0,1,0
	c0.4-0.1,0.7-0.2,0.9-0.3c0.5-0.2,0.8-0.4,1.2-0.4c0.4,0,0.7,0.1,1.2,0.4c0.2,0.1,0.6,0.2,0.9,0.3c0.3,0,0.6,0.1,1,0
	c1.1-0.2,1.8-1,2.4-1.9c0.5-0.6,0.6-1-0.2-0.4c-0.7,0.5-1.8,1.3-2.6,1.2c-0.7-0.1-1.4-0.2-1.7-0.5c0,0,0,0,0,0
	c-0.4-0.3-0.5-0.7-0.4-1.3C36.4,89.4,36.4,89.3,36.4,89.2L36.4,89.2z"/>
<path fill-rule="evenodd" clip-rule="evenodd" fill="#FFFFFF" d="M58.7,91.8c0.1,0.3,0.3,0.8,0.5,1.4c0.5-0.7,1.2-1.2,2-1.7
	c0.2-0.1,0.4-0.2,0.6-0.3c0-0.8-0.2-1.6-0.5-2.2c-0.4-0.8-1.4-1.5-2.6-0.4C57,90,58.2,91,58.7,91.8L58.7,91.8z"/>
<path fill-rule="evenodd" clip-rule="evenodd" fill="#FFFFFF" d="M67.6,96.1c1,2.9,0.1,6.2-2.2,7.3c-2.2,1.1-4.9-0.4-5.9-3.3l0,0
	c1.3-0.4,2.7-0.5,3.8-0.2c-0.2-0.1-0.3-0.2-0.5-0.3c-1-0.4-2.2-0.5-3.5-0.2c-0.2-1-0.3-2.1-0.1-3.1c1.5-0.4,2.9-0.6,4.2-0.3
	c-0.2-0.1-0.4-0.2-0.6-0.3c-0.9-0.3-2.1-0.4-3.4-0.2c0.4-1.2,1.2-2.2,2.2-2.8C64,91.7,66.6,93.2,67.6,96.1L67.6,96.1z"/>
<path fill-rule="evenodd" clip-rule="evenodd" fill="#CDCCCC" d="M62.6,103.6c-1.3-0.5-2.4-1.7-3-3.4l0,0c0.3-0.1,0.5-0.2,0.8-0.2
	c0,0.2,0.1,0.3,0.2,0.5C61,101.8,61.7,102.8,62.6,103.6L62.6,103.6z M59.4,99.5c-0.2-1-0.3-2.1-0.1-3.1c0.3-0.1,0.6-0.2,0.9-0.2
	c-0.2,1-0.1,2.1,0.1,3.2C59.9,99.3,59.7,99.4,59.4,99.5L59.4,99.5z M59.5,95.6c0.4-1.1,1-2,1.9-2.6c-0.5,0.7-0.9,1.6-1.2,2.5
	C60,95.5,59.8,95.6,59.5,95.6L59.5,95.6z"/>
<path fill-rule="evenodd" clip-rule="evenodd" fill="#02527D" d="M20.2,97.9c3.9,5.9,9.4,9,14.9,9.2c0.3,0,0.7,0,1-0.1
	c-4.7-0.5-9.3-3-12.8-7.5C22.3,99,21.3,98.5,20.2,97.9L20.2,97.9z"/>
<path fill-rule="evenodd" clip-rule="evenodd" fill="#010101" d="M25.7,77.8c1.8,0,3.3,1.7,3.3,3.9c0,2.1-1.5,3.9-3.3,3.9
	c-1.8,0-3.3-1.7-3.3-3.9C22.4,79.5,23.9,77.8,25.7,77.8L25.7,77.8z M45.8,77.8c1.8,0,3.3,1.7,3.3,3.9c0,2.1-1.5,3.9-3.3,3.9
	c-1.8,0-3.3-1.7-3.3-3.9C42.5,79.5,44,77.8,45.8,77.8L45.8,77.8z M47.6,79.2c0.6,0,1.1,0.5,1.1,1.1c0,0.6-0.5,1.1-1.1,1.1
	c-0.6,0-1.1-0.5-1.1-1.1C46.5,79.7,47,79.2,47.6,79.2L47.6,79.2z M27.5,79.2c0.6,0,1.1,0.5,1.1,1.1c0,0.6-0.5,1.1-1.1,1.1
	c-0.6,0-1.1-0.5-1.1-1.1C26.4,79.7,26.9,79.2,27.5,79.2L27.5,79.2z"/>
<path fill-rule="evenodd" clip-rule="evenodd" fill="#010101" d="M30.8,45.8c-6.5-0.6-13-2.3-18.6-5.5C6.7,37.3,1.5,32.4,0.3,26
	C0.1,25,0,24,0,23c0-1,0.1-2,0.3-2.9C1.5,13.7,6.7,8.8,12.2,5.7c7-4,15.5-5.7,23.6-5.7c8,0,16.5,1.7,23.6,5.7
	c5.5,3.1,10.7,8,11.9,14.4c0.2,1,0.3,1.9,0.3,2.9c0,1-0.1,2-0.3,2.9c-1.3,6.4-6.4,11.3-11.9,14.4c-5.6,3.1-12.1,4.9-18.6,5.5l-5,6.8
	L30.8,45.8L30.8,45.8z"/>
<path fill-rule="evenodd" clip-rule="evenodd" fill="#FFCD05" d="M35.8,1.2C54.9,1.2,70.4,11,70.4,23c0,10.9-12.6,19.9-29.1,21.6
	c0.5-0.7,1.1-2,1.2-3.1c-2.2,3.1-4.5,6.1-6.7,9.2l-4.3-5.9C14.4,43.4,1.2,34.2,1.2,23C1.2,11,16.7,1.2,35.8,1.2L35.8,1.2z"/>
<path fill-rule="evenodd" clip-rule="evenodd" fill="#010101" d="M56.5,26.8c0.5,0.1,1,0.3,1.4,0.7c0.6,0.5,0.9,1.2,0.9,2
	c0,0.9-0.3,1.6-1,2.2c-0.7,0.6-1.6,0.9-2.6,0.9c-0.5,0-0.9-0.1-1.3-0.3c-0.3-0.2-0.6-0.4-0.9-0.7l0,0l0,0c-0.5-0.6-0.7-1.2-0.7-2
	c0-1.2,0.6-2.2,1.7-2.7c0,0,0.1,0,0.1,0l0.3-1c0.5-1.8,0.9-3.7,1.4-5.5c0.4-1.8,0.9-3.7,1.4-5.5l0.1-0.5l0.5-0.1
	c0.3-0.1,0.7-0.1,1-0.1c0.4-0.1,0.7-0.1,1.1-0.2c0.4-0.1,0.7-0.1,1.1-0.2c0.3,0,0.6-0.1,0.8-0.1l1.4-0.3l-0.6,1.3
	c-0.8,1.9-1.5,3.7-2.2,5.6c-0.7,1.9-1.3,3.8-2,5.8l-0.2,0.5h-0.6C57.3,26.7,56.9,26.7,56.5,26.8C56.5,26.8,56.5,26.8,56.5,26.8
	L56.5,26.8z M45.3,16.8c0.1-0.5,0.2-1,0.2-1.6l0.1-0.6l0.6-0.1c0.7-0.1,1.3-0.2,2-0.3c0.7-0.1,1.5-0.2,2.3-0.2
	c0.8,0,1.6,0.1,2.3,0.5c0.7,0.3,1.2,0.7,1.7,1.3c0.9,1.1,1.2,2.6,1.2,4c0,1.9-0.5,3.7-1.4,5.4c-0.9,1.9-2.1,3.5-3.7,4.8l0,0
	c-1.7,1.3-3.6,2.1-5.8,2.1c-0.5,0-0.9-0.1-1.4-0.1l-0.8-0.1l0.2-0.8c0.3-1.3,0.5-2.6,0.8-3.9c-0.3,0.5-0.6,0.9-0.9,1.3
	c-0.6,0.7-1.2,1.4-1.9,1.9c-1.2,1-2.7,1.7-4.2,1.7c-1.2,0-2.3-0.4-3-1.4c-0.8-1-1.1-2.4-1.1-3.7c-0.3,0.5-0.6,1-1,1.4
	c-0.6,0.7-1.2,1.4-1.9,1.9c-1.2,1-2.7,1.7-4.2,1.7c-1.2,0-2.3-0.4-3-1.4c-0.6-0.7-0.9-1.6-1-2.5c-0.4,0.7-0.8,1.3-1.3,1.9
	c-0.7,0.8-1.5,1.4-2.5,1.9c-0.8,0.4-1.6,0.6-2.5,0.6c-0.7,0-1.4-0.1-2-0.4c-0.6-0.3-1.2-0.8-1.6-1.3c-1-1.4-1.3-3.2-1.3-4.9
	c0-1.8,0.2-3.6,0.9-5.3c0.5-1.4,1.3-2.7,2.2-3.8c0.8-1,1.8-1.8,3-2.3c0.9-0.4,1.9-0.8,2.9-0.8c0.7,0,1.4,0.1,2.1,0.4
	c0.5,0.3,1,0.6,1.4,1.1c0.8,0.9,1,2.1,1,3.2v0.6c0.6-1.1,1.3-2.1,2.2-3c1.3-1.3,2.9-2.3,4.8-2.3c1.5,0,2.7,0.6,3.4,1.9
	c0.6,1,0.7,2.4,0.8,3.5c0.6-1.1,1.4-2.2,2.3-3.1c1.3-1.3,2.9-2.3,4.8-2.3c1.5,0,2.7,0.6,3.4,1.9C45,15.9,45.2,16.3,45.3,16.8
	L45.3,16.8z M21.7,21.9c0.1-0.3,0.2-0.6,0.3-0.8c0.3-0.7,0.6-1.4,1-2.1l-4.5,0.9l-0.2-0.8c0-0.2-0.3-1-0.5-1c-0.2,0-0.5,0.4-0.6,0.5
	c-0.5,0.6-0.8,1.2-1.2,1.9c-0.8,1.7-1.3,3.5-1.4,5.4c0,0.2,0,0.5,0,0.7l0.7-3.8l0.6-0.1c1.8-0.2,3.7-0.5,5.5-0.8L21.7,21.9
	L21.7,21.9z M14.7,26.7c0,0.3,0.1,0.5,0.2,0.7c0.1,0.1,0.2,0.3,0.3,0.3c0.2,0,0.5,0,0.7-0.2c0.2-0.1,0.4-0.3,0.6-0.5
	c0.2-0.2,0.4-0.4,0.5-0.7L14.7,26.7L14.7,26.7z M26.2,26.8c0.5,0,0.9-0.2,1.3-0.5c0.5-0.4,0.8-0.9,1.1-1.5c0.3-0.6,0.6-1.3,0.7-2
	c0.1-0.6,0.3-1.3,0.3-1.9c0-0.2,0-0.9-0.2-1c0,0-0.1,0-0.1,0c-0.8,0-1.3,0.5-1.8,1c-0.6,0.7-1,1.7-1.3,2.6c-0.3,0.8-0.4,1.7-0.4,2.6
	c0,0.3,0.1,0.5,0.4,0.6L26.2,26.8L26.2,26.8C26.1,26.8,26.2,26.8,26.2,26.8L26.2,26.8z M40.9,21c0-0.2,0-0.9-0.2-1c0,0-0.1,0-0.1,0
	c-0.8,0-1.3,0.5-1.8,1c-0.6,0.7-1,1.7-1.3,2.6c-0.3,0.8-0.4,1.7-0.4,2.6c0,0.3,0.1,0.5,0.4,0.6l0,0l0,0c0,0,0,0,0,0
	c0.5,0,0.9-0.2,1.3-0.5c0.5-0.4,0.8-0.9,1.1-1.5c0.3-0.6,0.6-1.3,0.7-2C40.8,22.3,40.9,21.6,40.9,21L40.9,21z M48.6,25.8
	c0.3-0.6,0.6-1.2,0.8-1.7c0.4-0.9,0.7-1.8,0.9-2.8c0.1-0.5,0.2-1.2,0.2-1.7c0-0.2-0.1-0.4-0.2-0.6c-0.1-0.1-0.2-0.1-0.2-0.1
	c-0.2,1.1-0.5,2.2-0.7,3.4C49.1,23.4,48.8,24.6,48.6,25.8L48.6,25.8z"/>
<path fill="#FFFFFF" d="M19.1,18.9c-0.2-1.1-0.7-1.7-1.3-1.7c-0.4,0-0.8,0.3-1.2,0.8c-0.4,0.5-0.9,1.2-1.3,2.1
	c-0.9,1.9-1.4,3.9-1.4,5.7c0,0.9,0.1,1.6,0.4,2c0.3,0.4,0.6,0.6,1,0.6c0.4,0,0.7-0.1,1-0.2c0.3-0.2,0.6-0.4,0.9-0.6
	c0.6-0.6,0.9-1.3,0.9-2.2l-2.4,0.3l0.4-2.2c2.1-0.3,3.9-0.5,5.6-0.8c-0.1,1.5-0.4,2.9-0.9,4c-0.5,1.1-1.1,2.1-1.8,2.8
	c-0.7,0.8-1.4,1.3-2.3,1.7c-0.8,0.4-1.5,0.6-2.2,0.6c-0.6,0-1.2-0.1-1.7-0.4c-0.5-0.2-0.9-0.6-1.3-1.1c-0.8-1.1-1.2-2.5-1.2-4.5
	c0-1.9,0.3-3.6,0.8-5c0.6-1.4,1.3-2.6,2.1-3.6c0.8-1,1.8-1.7,2.7-2.1c1-0.5,1.8-0.7,2.5-0.7c0.7,0,1.3,0.1,1.7,0.3
	c0.4,0.2,0.8,0.5,1.1,0.8c0.6,0.7,0.8,1.6,0.8,2.7L19.1,18.9L19.1,18.9z M30.3,21c0-1.2-0.3-1.8-1.1-1.8c-0.9,0-1.7,0.4-2.4,1.3
	c-0.6,0.7-1.1,1.7-1.5,2.9c-0.3,1-0.5,1.9-0.5,2.8c0,0.6,0.3,1,0.7,1.3c0.1,0.1,0.3,0.2,0.5,0.2c0.7,0,1.3-0.2,1.8-0.7
	c0.5-0.5,1-1,1.3-1.7c0.4-0.7,0.6-1.4,0.8-2.2C30.2,22.3,30.3,21.6,30.3,21L30.3,21z M33.5,19.6c0,0.9-0.1,1.9-0.4,3
	c-0.3,1.1-0.6,2.1-1,3c-0.4,0.9-0.9,1.7-1.5,2.4c-0.6,0.7-1.2,1.3-1.8,1.8c-1.3,1-2.6,1.5-3.8,1.5c-1,0-1.8-0.4-2.4-1.1
	c-0.6-0.8-1-2-1-3.5c0-1.7,0.4-3.5,1.2-5.4c0.8-1.9,1.8-3.5,3.1-4.8c1.4-1.4,2.8-2.1,4.3-2.1c1.2,0,2.1,0.5,2.7,1.5
	C33.2,16.7,33.5,17.9,33.5,19.6L33.5,19.6z M41.7,21c0-1.2-0.3-1.8-1.1-1.8c-0.9,0-1.7,0.4-2.4,1.3c-0.6,0.7-1.1,1.7-1.5,2.9
	c-0.3,1-0.5,1.9-0.5,2.8c0,0.6,0.3,1,0.7,1.3c0.1,0.1,0.3,0.2,0.5,0.2c0.7,0,1.3-0.2,1.8-0.7c0.5-0.5,1-1,1.3-1.7
	c0.4-0.7,0.6-1.4,0.8-2.2C41.6,22.3,41.7,21.6,41.7,21L41.7,21z M44.8,19.6c0,0.9-0.1,1.9-0.4,3c-0.3,1.1-0.6,2.1-1,3
	c-0.4,0.9-0.9,1.7-1.5,2.4c-0.6,0.7-1.2,1.3-1.8,1.8c-1.3,1-2.6,1.5-3.8,1.5c-1,0-1.8-0.4-2.4-1.1c-0.6-0.8-1-2-1-3.5
	c0-1.7,0.4-3.5,1.2-5.4c0.8-1.9,1.8-3.5,3.1-4.8c1.4-1.4,2.8-2.1,4.3-2.1c1.2,0,2.1,0.5,2.7,1.5C44.6,16.7,44.8,17.9,44.8,19.6
	L44.8,19.6z M47.3,28.5c1-0.7,2-2,2.8-4.1c0.5-1.2,0.8-2.1,1-2.9c0.2-0.8,0.2-1.4,0.2-1.9c0-0.5-0.2-0.8-0.5-1.2
	c-0.3-0.3-0.8-0.5-1.4-0.5c-0.2,1.3-0.5,2.6-0.9,4.1C48,24.5,47.6,26.7,47.3,28.5L47.3,28.5z M43.4,31.3c1.6-8,2.6-13.4,2.9-15.9
	c0.6-0.1,1.3-0.2,2-0.3c0.7-0.1,1.4-0.2,2.1-0.2c0.8,0,1.4,0.1,2,0.4c0.6,0.3,1,0.6,1.4,1.1c0.7,0.9,1,2,1,3.5
	c0,1.6-0.4,3.3-1.3,5.1c-0.9,1.9-2.1,3.4-3.5,4.5c-1.7,1.3-3.4,2-5.3,2C44.3,31.4,43.9,31.3,43.4,31.3L43.4,31.3z M62,14.4
	c-0.8,1.9-1.5,3.8-2.2,5.7c-0.7,1.9-1.3,3.8-2,5.8c-0.4,0-0.9,0-1.3,0C56,26,55.6,26,55.1,26c0.5-1.8,0.9-3.7,1.4-5.5
	c0.4-1.8,0.9-3.7,1.4-5.5c0.3,0,0.6-0.1,1-0.1c0.4-0.1,0.7-0.1,1.1-0.2c0.4-0.1,0.7-0.1,1.1-0.2C61.4,14.5,61.7,14.5,62,14.4
	L62,14.4z M55.2,31.8c-0.4,0-0.7-0.1-1-0.2c-0.2-0.1-0.5-0.3-0.6-0.5c-0.3-0.4-0.5-0.9-0.5-1.5c0-1,0.4-1.6,1.3-2
	c0.3-0.1,0.6-0.2,1-0.2c0.9,0,1.5,0.2,2,0.6c0.4,0.4,0.6,0.9,0.6,1.4c0,0.6-0.2,1.2-0.7,1.6C56.7,31.5,56,31.8,55.2,31.8L55.2,31.8z
	"/>
</svg>
