<?xml version="1.0" encoding="utf-8"?>
<!-- Generator: Adobe Illustrator 18.1.1, SVG Export Plug-In . SVG Version: 6.00 Build 0)  -->
<svg version="1.1" id="Layer_1" xmlns="http://www.w3.org/2000/svg" xmlns:xlink="http://www.w3.org/1999/xlink" x="0px" y="0px"
	 viewBox="0 0 71.5 113.2" enable-background="new 0 0 71.5 113.2" xml:space="preserve">
<path fill-rule="evenodd" clip-rule="evenodd" fill="#010101" d="M30.8,45.8c-6.5-0.6-13-2.3-18.6-5.5C6.7,37.3,1.5,32.4,0.3,26
	C0.1,25,0,24,0,23c0-1,0.1-2,0.3-2.9C1.5,13.7,6.7,8.8,12.2,5.7c7-4,15.5-5.7,23.6-5.7c8,0,16.5,1.7,23.6,5.7
	c5.5,3.1,10.7,8,11.9,14.4c0.2,1,0.3,1.9,0.3,2.9c0,1-0.1,2-0.3,2.9c-1.3,6.4-6.4,11.3-11.9,14.4c-5.6,3.1-12.1,4.9-18.6,5.5l-5,6.8
	L30.8,45.8L30.8,45.8z"/>
<path fill-rule="evenodd" clip-rule="evenodd" fill="#9ACA3C" d="M35.8,1.2C54.9,1.2,70.4,11,70.4,23c0,10.9-12.6,19.9-29.1,21.6
	c0.5-0.7,1.1-2,1.2-3.1c-2.2,3.1-4.5,6.1-6.7,9.2l-4.3-5.9C14.4,43.4,1.2,34.2,1.2,23C1.2,11,16.7,1.2,35.8,1.2L35.8,1.2z"/>
<path fill-rule="evenodd" clip-rule="evenodd" fill="#010101" d="M58.1,26.8c0.5,0.1,1,0.3,1.4,0.7c0.6,0.5,0.9,1.2,0.9,2
	c0,0.9-0.3,1.6-1,2.2c-0.7,0.6-1.6,0.9-2.6,0.9c-0.5,0-0.9-0.1-1.3-0.3c-0.3-0.2-0.6-0.4-0.9-0.7l0,0l0,0c-0.5-0.6-0.7-1.2-0.7-2
	c0-1.2,0.6-2.2,1.7-2.7c0,0,0.1,0,0.1,0l0.3-1c0.5-1.8,0.9-3.6,1.4-5.5c0.4-1.8,0.9-3.7,1.4-5.5l0.1-0.5l0.5-0.1
	c0.3-0.1,0.7-0.1,1-0.1c0.4-0.1,0.7-0.1,1.1-0.2c0.4-0.1,0.7-0.1,1.1-0.2c0.3,0,0.6-0.1,0.8-0.1l1.4-0.3l-0.6,1.4
	c-0.8,1.9-1.5,3.7-2.2,5.6c-0.7,1.9-1.3,3.8-2,5.8l-0.2,0.5h-0.6C58.9,26.7,58.5,26.8,58.1,26.8C58.1,26.8,58.1,26.8,58.1,26.8
	L58.1,26.8z M39.5,18.1c0.1-0.3,0.2-0.5,0.2-0.8c0.2-0.7,0.4-1.5,0.6-2.2l0.2-0.5l0.6,0c2-0.1,4.1-0.3,6.1-0.7l1-0.2l-0.1,1.1
	c-0.2,1.7-0.2,3.4-0.3,5.1c-0.2,3.6-0.3,7.3-0.5,10.9l0,0.6l-0.6,0.1c-0.4,0.1-0.9,0.1-1.3,0.2c-0.4,0.1-0.9,0.1-1.3,0.2
	c-0.4,0.1-0.8,0.1-1.2,0.2l-1,0.2l0.1-1c0.1-1,0.2-1.9,0.3-2.9h-0.5l-0.9,3.2l-0.5,0.1c-0.4,0.1-0.8,0.1-1.2,0.2
	c-0.4,0.1-0.9,0.1-1.3,0.2c-0.5,0.1-0.9,0.1-1.4,0.2l-1.2,0.2l0.3-0.9l-7.2,1.1l0.3-1.4L25.6,32l-0.2-0.8c-0.4-1.2-0.7-2.3-1-3.5
	c-0.2,0.9-0.4,1.9-0.5,2.8L23.7,31l-5.4,1.4l0.3-1.2c0.1-0.7,0.3-1.4,0.4-2.1c-0.3,0.4-0.5,0.7-0.8,1.1c-0.7,0.8-1.5,1.4-2.5,1.9
	c-0.8,0.4-1.6,0.6-2.5,0.6c-0.7,0-1.4-0.1-2-0.4c-0.6-0.3-1.2-0.8-1.6-1.3c-1-1.4-1.3-3.2-1.3-4.9c0-1.8,0.2-3.6,0.9-5.3
	c0.5-1.4,1.3-2.7,2.2-3.8c0.8-1,1.8-1.8,3-2.3c0.9-0.4,1.9-0.8,2.9-0.8c0.7,0,1.4,0.1,2.1,0.4c0.5,0.3,1,0.6,1.4,1.1
	c0.3,0.4,0.5,0.7,0.7,1.1c0-0.2,0.1-0.5,0.1-0.7l0.1-0.5l0.5-0.2c1.9-0.6,3.9-0.8,5.9-0.8c1.6,0,3.1,0.5,3.6,2.2l0.3-1.6l8.9-0.8
	l-0.3,1.1c-0.1,0.3-0.2,0.6-0.2,0.9c-0.1,0.3-0.1,0.6-0.2,0.9c-0.1,0.3-0.1,0.5-0.2,0.8L39.5,18.1L39.5,18.1z M39.5,18.2l-0.6,0.1
	c-0.6,0.1-1.3,0.1-1.9,0.1h-0.9l-0.5,2.4c0.3,0,0.7,0,1,0c0.3,0,0.7,0,1,0l1-0.1l-0.1,0.6c0.1-0.4,0.2-0.8,0.4-1.2
	C39.2,19.3,39.3,18.7,39.5,18.2L39.5,18.2z M37.6,24.7L37.6,24.7c-0.3,0-0.6,0-0.9,0c-0.3,0-0.7,0-1,0c-0.2,0-0.4,0-0.6,0l-0.4,2.4
	l2.3-0.4c0.1-0.3,0.2-0.6,0.3-0.9C37.3,25.5,37.4,25.1,37.6,24.7L37.6,24.7z M30.5,21.2c-0.1,0.1-0.1,0.2-0.2,0.3
	c-0.6,0.9-1.4,1.7-2.3,2.3c0.4,0.9,0.8,1.9,1.2,2.9c0.1,0.2,0.1,0.3,0.2,0.5L30.5,21.2L30.5,21.2z M20.4,21.9c0-0.1,0-0.1,0-0.2
	c0.2-0.9,0.3-1.7,0.4-2.6l-3.7,0.7l-0.2-0.8c0-0.2-0.3-1-0.5-1c-0.2,0-0.5,0.4-0.6,0.5c-0.5,0.6-0.8,1.2-1.2,1.9
	c-0.8,1.7-1.3,3.5-1.4,5.4c0,0.2,0,0.5,0,0.7l0.7-3.8l0.6-0.1c1.8-0.2,3.7-0.5,5.5-0.8L20.4,21.9L20.4,21.9z M13.3,26.7
	c0,0.3,0.1,0.5,0.2,0.7c0.1,0.1,0.2,0.3,0.3,0.3c0.2,0,0.5,0,0.7-0.2c0.2-0.1,0.4-0.3,0.6-0.5c0.2-0.2,0.4-0.4,0.5-0.7L13.3,26.7
	L13.3,26.7z M50.2,19c0,0-0.1,0-0.1,0c-0.4,0-0.9,0-1.3-0.2l-0.6-0.2l0.2-4.3l0.8,0.1c0.7,0.1,1.5,0.1,2.2,0.1c2,0,3.9-0.1,5.9-0.4
	l1.1-0.1l-0.5,2.3l0,0c-0.1,0.3-0.1,0.7-0.2,1c-0.1,0.3-0.1,0.6-0.2,1l-0.1,0.5l-0.5,0.1c-0.4,0.1-0.7,0.2-1.1,0.2
	c-0.1,0-0.3,0-0.4,0.1c-0.3,1.2-0.5,2.4-0.7,3.6c-0.4,2.7-0.9,5.4-1.2,8l-0.1,0.6l-5.8,0.9l0.2-1.1c0.5-2.5,1-4.9,1.5-7.4
	C49.7,22.1,49.9,20.6,50.2,19L50.2,19z M26.3,18.7l-0.3,0l-0.3,1.5c0.3-0.2,0.5-0.3,0.7-0.5c0.2-0.1,0.8-0.7,1-1
	c-0.1,0-0.3-0.1-0.4-0.1C26.7,18.7,26.5,18.7,26.3,18.7L26.3,18.7z"/>
<path fill="#FFFFFF" d="M17.7,18.9c-0.2-1.1-0.7-1.7-1.3-1.7c-0.4,0-0.8,0.3-1.2,0.8c-0.4,0.5-0.9,1.2-1.3,2.1
	c-0.9,1.9-1.4,3.9-1.4,5.7c0,0.9,0.1,1.6,0.4,2c0.3,0.4,0.6,0.6,1,0.6c0.4,0,0.7-0.1,1-0.2c0.3-0.2,0.6-0.4,0.9-0.6
	c0.6-0.6,0.9-1.3,0.9-2.2l-2.4,0.3l0.4-2.2c2.1-0.3,3.9-0.5,5.6-0.8c-0.1,1.5-0.4,2.9-0.9,4c-0.5,1.1-1.1,2.1-1.8,2.8
	c-0.7,0.8-1.4,1.3-2.3,1.7c-0.8,0.4-1.5,0.6-2.2,0.6s-1.2-0.1-1.7-0.4c-0.5-0.2-0.9-0.6-1.3-1.1C9.4,29.3,9,27.8,9,25.9
	c0-1.9,0.3-3.6,0.8-5c0.6-1.4,1.3-2.6,2.1-3.6c0.8-1,1.8-1.7,2.7-2.1c1-0.5,1.8-0.7,2.5-0.7c0.7,0,1.3,0.1,1.7,0.3
	c0.4,0.2,0.8,0.5,1.1,0.8c0.6,0.7,0.8,1.6,0.8,2.7L17.7,18.9L17.7,18.9z M26.1,30.9c-1.1-3.7-1.7-5.8-1.8-6.3l-0.3,0.1
	c-0.1,0.7-0.3,1.6-0.5,2.8c-0.2,1.2-0.4,2.2-0.6,2.9l-3.6,0.9c1.5-7.4,2.5-12.6,2.8-15.7c1.7-0.5,3.6-0.8,5.7-0.8
	c1.6,0,2.5,0.6,2.8,1.6c0.1,0.3,0.1,0.8,0.1,1.3c0,0.5-0.1,1-0.3,1.6c-0.2,0.6-0.5,1.1-0.8,1.7c-0.7,1.1-1.6,1.9-2.7,2.5
	c0.6,1.2,1.1,2.4,1.5,3.5c0.4,1.1,0.8,2,1.1,2.8L26.1,30.9L26.1,30.9z M26.3,17.9l-1,0l-0.7,3.6c0.6-0.1,1.3-0.4,2.2-1.1
	c0.9-0.7,1.4-1.3,1.4-1.7c0-0.4-0.4-0.7-1.2-0.7C26.8,18,26.5,17.9,26.3,17.9L26.3,17.9z M29.4,31.3l2.9-16l7.1-0.6
	c-0.1,0.3-0.2,0.7-0.3,1c-0.1,0.3-0.1,0.6-0.2,0.9c-0.1,0.3-0.1,0.6-0.2,0.8c-0.4,0-1,0.1-1.8,0.1h-1.5l-0.8,4c0.8,0,1.5-0.1,2-0.1
	c0.5,0,0.9,0,1.1,0c-0.1,0.4-0.1,0.8-0.2,1.2c0,0.4-0.1,0.8-0.2,1.2c-0.2,0-0.4,0-0.8,0c-0.3,0-0.7,0-1.1,0c-0.4,0-0.8,0-1.2,0
	l-0.8,4.2l3.3-0.5l-0.2,2.6L29.4,31.3L29.4,31.3z M41.2,27.4l-0.9,3.2c-0.3,0-0.7,0.1-1.2,0.2c-0.4,0.1-0.9,0.1-1.3,0.2
	c-0.4,0.1-0.9,0.1-1.4,0.2c0.6-2,1.1-3.7,1.5-5.1c0.4-1.4,0.8-2.5,1-3.4c0.3-0.9,0.5-1.8,0.8-2.6c0.3-0.9,0.5-1.7,0.7-2.5
	c0.2-0.8,0.5-1.6,0.6-2.2c2.7-0.2,4.8-0.4,6.2-0.7c-0.1,1.4-0.2,3.2-0.3,5.1c-0.2,3.9-0.3,7.6-0.5,10.9c-0.4,0.1-0.9,0.1-1.3,0.2
	c-0.4,0.1-0.9,0.1-1.3,0.2c-0.4,0.1-0.9,0.1-1.2,0.2c0.2-1.4,0.3-2.7,0.4-3.8H41.2L41.2,27.4z M41.7,25.2l1.6-0.1c0-0.1,0-0.2,0-0.4
	c0-0.2,0-0.5,0.1-0.7c0.1-1.6,0.2-3,0.4-4.4l0.2-2l-0.4,0L41.7,25.2L41.7,25.2z M48.9,18.1l0.1-2.9c0.8,0.1,1.5,0.1,2.3,0.1
	c2.1,0,4-0.1,6-0.4l-0.2,1.2c-0.1,0.3-0.1,0.7-0.2,1c-0.1,0.4-0.1,0.7-0.2,0.9c-0.3,0.1-0.7,0.1-1,0.2c-0.3,0-0.7,0.1-1,0.1
	c-0.3,1.1-0.5,2.5-0.8,4.2c-0.6,3.7-1,6.4-1.2,8.1l-4,0.6c1.2-5.6,2-9.9,2.4-13.1c-0.4,0-0.7-0.1-1.1,0
	C49.6,18.2,49.3,18.2,48.9,18.1L48.9,18.1z M63.5,14.5c-0.8,1.9-1.5,3.8-2.2,5.7c-0.7,1.9-1.3,3.8-2,5.8c-0.4,0-0.9,0-1.3,0
	c-0.4,0-0.9,0.1-1.3,0.1c0.5-1.8,0.9-3.7,1.4-5.5c0.4-1.8,0.9-3.7,1.4-5.5c0.3,0,0.6-0.1,1-0.1c0.4-0.1,0.7-0.1,1.1-0.2
	c0.4-0.1,0.7-0.1,1.1-0.2C63,14.6,63.3,14.5,63.5,14.5L63.5,14.5z M56.8,31.8c-0.4,0-0.7-0.1-1-0.2c-0.2-0.1-0.5-0.3-0.6-0.5
	c-0.3-0.4-0.5-0.9-0.5-1.5c0-1,0.4-1.6,1.3-2c0.3-0.1,0.6-0.2,1-0.2c0.9,0,1.5,0.2,2,0.6c0.4,0.4,0.6,0.9,0.6,1.4
	c0,0.6-0.2,1.2-0.7,1.6C58.3,31.6,57.6,31.8,56.8,31.8L56.8,31.8z"/>
<path fill-rule="evenodd" clip-rule="evenodd" fill="#010101" d="M35.8,55.9c5.6,0,10.7,1.8,14.9,4.9l4.9-0.7
	c1.4-0.2,3.1-0.4,4.5-0.4c1,0,2.2,0.3,2.7,1.2c0.6,0.9,0.3,2.1,0,3c-0.4,1.2-0.9,2.4-1.3,3.5l0,0l-2,5.3c0.8,2.5,1.3,5.2,1.3,8
	c0,2-0.2,4-0.8,5.8c1,0,1.9,0.6,2.5,1.5c0.4,0.8,0.6,1.8,0.7,2.8c1.3,0,2.5,0.4,3.4,1.1c1.2,0.9,2,2.1,2.4,3.4
	c0.6,1.6,0.7,3.4,0.1,5.2c-0.5,1.6-1.5,3.2-3.2,4c-0.5,0.3-1.1,0.4-1.7,0.5c-0.6,0.1-1.2,0.1-1.7,0c-3.1,0.3-6.6-0.3-8.4-1.5
	c-1.2-0.8-2.2-1.9-3-3.1c-1.4,1.7-2.9,3.2-4.5,4.3l0,0.1c-0.3,0.7-0.7,1.4-1.2,2c-0.8,3-4.9,5.4-9.8,5.4c-4.8,0-8.9-2.3-9.7-5.2
	c-0.5-0.7-0.9-1.4-1.2-2.1l0-0.1c-0.1,0-0.1-0.1-0.2-0.1c-0.6,0.9-0.9,2-0.7,3.2c0,0.2,0.2,0.5,0.3,0.7c0.2,0.3,0.3,0.7,0.3,1
	c0.3,1.7-0.9,3.3-2.6,3.5c-1.9,0.3-3.1-1-3.6-2.7c-0.1-0.4-0.2-0.8-0.3-1.2c-0.5-3.1,0.6-6.1,2.7-8.2c-0.1-0.2-0.3-0.3-0.4-0.5
	c-0.8,1.2-1.8,2.3-3,3.1c-1.8,1.2-5.2,1.8-8.4,1.5c-0.5,0.1-1.1,0.1-1.7,0c-0.6-0.1-1.1-0.3-1.7-0.5c-1.7-0.8-2.7-2.4-3.2-4
	C1.9,99,2,97.1,2.6,95.5C3,94.2,3.8,93,5,92.1C5.9,91.4,7.1,91,8.3,91c0-1,0.2-2,0.7-2.8c0.5-1,1.5-1.6,2.6-1.5
	c-0.5-1.9-0.8-3.8-0.8-5.8c0-2.8,0.5-5.5,1.3-8l-2-5.3l0,0c-0.4-1.2-0.9-2.4-1.3-3.5c-0.3-1-0.6-2.1,0-3c0.6-1,1.7-1.2,2.7-1.2
	c1.5-0.1,3.1,0.2,4.5,0.4l4.9,0.7C25.1,57.7,30.2,55.9,35.8,55.9L35.8,55.9z M57.2,92.6c-0.3,0.5-0.7,0.9-1.1,1.4
	c-0.1,0.1-0.1,0.2-0.2,0.2c0.6,0.6,1.2,0.4,1.8,0C57.5,93.6,57.3,92.9,57.2,92.6C57.2,92.7,57.2,92.6,57.2,92.6L57.2,92.6z
	 M15.7,94.2c-0.1-0.1-0.1-0.2-0.2-0.2c-0.4-0.5-0.8-0.9-1.1-1.4c0,0-0.1,0.1-0.1,0.1c-0.1,0.2-0.3,0.8-0.4,1.5
	C14.5,94.6,15.1,94.8,15.7,94.2L15.7,94.2z"/>
<path fill-rule="evenodd" clip-rule="evenodd" fill="#FFFFFF" d="M54.8,95.3c0.9,0.9,1.9,1.2,2.8,0.7c-0.4,1.6-0.2,3.3,0.3,4.7
	c0.4,1.2,1.2,2.4,2.2,3.2c-3.5-0.1-6.3-1.8-7.9-4.7c0.6-0.9,1.2-1.9,1.8-2.9l0.3-0.6C54.4,95.6,54.6,95.5,54.8,95.3L54.8,95.3z"/>
<path fill-rule="evenodd" clip-rule="evenodd" fill="#0795D1" d="M54.8,95.3c0.5,0.6,1.1,0.9,1.7,0.9c-0.5,1.3-1.3,5.8-0.9,6.6
	c-1.4-0.8-2.5-2-3.4-3.5c0.6-0.9,1.2-1.9,1.8-2.9l0.3-0.6C54.4,95.6,54.6,95.5,54.8,95.3L54.8,95.3z"/>
<path fill-rule="evenodd" clip-rule="evenodd" fill="#FFFFFF" d="M16.7,95.3c-0.9,0.9-1.9,1.2-2.8,0.7c0.4,1.6,0.2,3.3-0.3,4.7
	c-0.4,1.2-1.2,2.4-2.2,3.2c3.5-0.1,6.3-1.8,7.9-4.7c-0.6-0.9-1.2-1.9-1.8-2.9l-0.3-0.6C17.1,95.6,16.9,95.5,16.7,95.3L16.7,95.3z"/>
<path fill-rule="evenodd" clip-rule="evenodd" fill="#0795D1" d="M16.7,95.3c-0.5,0.6-1.1,0.9-1.7,0.9c0.7,2.2,1.3,4.4,1,6.6
	c1.4-0.8,2.5-2,3.4-3.5c-0.6-0.9-1.2-1.9-1.8-2.9l-0.3-0.6C17.1,95.6,16.9,95.5,16.7,95.3L16.7,95.3z"/>
<path fill-rule="evenodd" clip-rule="evenodd" fill="#FFFFFF" d="M37.4,108.5c2,1.7,4.4,1.1,6.6-1.9
	C41.9,107.6,39.7,108.3,37.4,108.5L37.4,108.5z"/>
<path fill-rule="evenodd" clip-rule="evenodd" fill="#FFFFFF" d="M34.1,108.5c-2,1.7-4.4,1.1-6.6-1.9
	C29.7,107.6,31.9,108.3,34.1,108.5L34.1,108.5z"/>
<path fill-rule="evenodd" clip-rule="evenodd" fill="#0795D1" d="M20.2,97.9c8,12.2,23.1,12.2,31.1,0c-4.6,2.7-10.2,3.8-15.5,3.8
	C30.5,101.7,24.8,100.6,20.2,97.9L20.2,97.9z"/>
<path fill-rule="evenodd" clip-rule="evenodd" fill="#02527D" d="M20.2,97.9c3.9,5.9,9.4,9,14.9,9.2c0.3,0,0.7,0,1-0.1
	c-4.7-0.5-9.3-3-12.8-7.5C22.3,99,21.3,98.5,20.2,97.9L20.2,97.9z"/>
<path fill-rule="evenodd" clip-rule="evenodd" fill="#FFFFFF" d="M35.8,57.4c5.2,0,10.1,1.7,14,4.6c2-0.1,4-0.4,5.9-0.6
	c8.2-1.1,6.6,0.4,4.7,5.8l-1.5,4c-0.8-1.9-1.8-3.6-3-5.3c0.1-0.1,0.2-0.3,0.3-0.4c1.5-1.7,3.3-2.9,5.1-3.5c-1.6-0.2-3.6,0.5-5.3,2.1
	c-0.7,0.7-1.2,1.3-1.7,2.2c3.1,4,5,9,5,14.5c0,2.3-0.3,4.4-1,6.3c-0.2,0.1-0.4,0.3-0.6,0.4c-0.8,0.7-1.4,1.6-1.4,2.6
	c0,0.4,0,0.7,0.1,1c-4,6-11.7,9-20.6,9c-8.9,0-16.7-3-20.6-9.1c0.1-0.3,0.1-0.6,0.1-0.9c0-1-0.6-1.9-1.4-2.6
	c-0.2-0.1-0.3-0.3-0.5-0.4c-0.6-1.9-1-4-1-6.4c0-5.5,1.9-10.6,5.1-14.6c-0.5-0.8-1-1.4-1.6-2.1c-1.7-1.7-3.8-2.5-5.4-2.2
	c1.8,0.6,3.6,1.8,5.1,3.5c0.1,0.1,0.2,0.3,0.3,0.4c-1.2,1.6-2.2,3.4-3,5.3l-1.5-4c-1.9-5.5-3.6-7,4.7-5.8c2,0.3,3.9,0.5,5.9,0.6
	C25.7,59.1,30.5,57.4,35.8,57.4L35.8,57.4z"/>
<path fill-rule="evenodd" clip-rule="evenodd" fill="#E5E5E5" d="M27.5,99.2c-5.3-1.3-9.7-4-12.4-8.2c0.1-0.3,0.1-0.6,0.1-0.9
	c0-1-0.6-1.9-1.4-2.6c-0.2-0.1-0.3-0.3-0.5-0.4c-0.6-1.9-1-4-1-6.4c0-5.5,1.9-10.6,5.1-14.6c-0.5-0.8-1-1.4-1.6-2.1
	c-1.7-1.7-3.8-2.5-5.4-2.2c1.8,0.6,3.6,1.8,5.1,3.5c0.1,0.1,0.2,0.3,0.3,0.4c-1.2,1.6-2.2,3.4-3,5.3l-1.5-4c-1.9-5.5-3.6-7,4.7-5.8
	c2,0.3,3.9,0.5,5.9,0.6l0,0c2.5-1.8,5.3-3.2,8.4-3.9C21.8,61.9,16,70.7,16,81C16,90.1,20.6,96.2,27.5,99.2L27.5,99.2z"/>
<path fill-rule="evenodd" clip-rule="evenodd" fill="#B3B3B3" d="M10.5,61.9c0.1,0,0.1,0,0.2,0.1C10.7,61.9,10.6,61.9,10.5,61.9
	L10.5,61.9L10.5,61.9z M13.9,68.8c-0.6-2.4-1.3-4.7-3.2-6.7c1.6,0.6,3.3,1.8,4.7,3.4c0.1,0.1,0.2,0.3,0.3,0.4
	C15.1,66.8,14.5,67.8,13.9,68.8L13.9,68.8z"/>
<path fill-rule="evenodd" clip-rule="evenodd" fill="#010101" d="M36.7,88.9c1.2-0.9,2.4-0.7,2.8-1.4c0.3-0.4,0.1-0.9-0.2-1.3
	c-1-1.3-6-1.3-7,0c-0.3,0.4-0.4,0.8-0.2,1.3c0.4,0.7,1.7,0.4,2.9,1.5c0.8,0.7,0.5,1.3-0.4,1.8c-2,1.1-3.9,0.3-5.6-0.7
	c-1-0.5-1.1-0.3-0.3,0.4c2,1.9,3.7,4.3,7.1,4.3c3.4,0,5.1-2.4,7.1-4.3c0.6-0.6,0.8-1-0.3-0.4c-1.6,0.9-3.6,1.8-5.5,0.7c0,0,0,0,0,0
	C36,90.2,35.7,89.7,36.7,88.9L36.7,88.9z"/>
<path fill-rule="evenodd" clip-rule="evenodd" fill="#010101" d="M25.7,77.8c1.8,0,3.3,1.7,3.3,3.9c0,2.1-1.5,3.9-3.3,3.9
	c-1.8,0-3.3-1.7-3.3-3.9C22.4,79.5,23.9,77.8,25.7,77.8L25.7,77.8z M45.8,77.8c1.8,0,3.3,1.7,3.3,3.9c0,2.1-1.5,3.9-3.3,3.9
	c-1.8,0-3.3-1.7-3.3-3.9C42.5,79.5,44,77.8,45.8,77.8L45.8,77.8z M47.6,79.2c0.6,0,1.1,0.5,1.1,1.1c0,0.6-0.5,1.1-1.1,1.1
	c-0.6,0-1.1-0.5-1.1-1.1C46.5,79.7,47,79.2,47.6,79.2L47.6,79.2z M27.5,79.2c0.6,0,1.1,0.5,1.1,1.1c0,0.6-0.5,1.1-1.1,1.1
	c-0.6,0-1.1-0.5-1.1-1.1C26.4,79.7,26.9,79.2,27.5,79.2L27.5,79.2z"/>
<path fill-rule="evenodd" clip-rule="evenodd" fill="#F58220" d="M32.5,93.1c0.9,0.7,2.1,1,3.3,1c1.1,0,2.4-0.3,3.3-1
	c-0.9-0.7-2.1-1-3.3-1C34.6,92,33.4,92.4,32.5,93.1L32.5,93.1z"/>
<path fill-rule="evenodd" clip-rule="evenodd" fill="#FFFFFF" d="M58.6,91.8c0.1,0.2,0.3,0.8,0.4,1.4c0.5-0.6,1.2-1.2,1.9-1.6
	c0.2-0.1,0.4-0.2,0.7-0.3c0-0.8-0.2-1.6-0.5-2.2c-0.4-0.8-1.4-1.5-2.6-0.4C56.9,90,58.2,91,58.6,91.8L58.6,91.8z"/>
<path fill-rule="evenodd" clip-rule="evenodd" fill="#FFFFFF" d="M67.5,96.1c1,2.9,0.1,6.2-2.2,7.3c-2.2,1.1-4.9-0.4-5.9-3.3l0,0
	c1.3-0.4,2.7-0.5,3.8-0.2c-0.2-0.1-0.3-0.2-0.5-0.3c-1-0.4-2.2-0.5-3.5-0.2c-0.2-1-0.3-2.1-0.1-3.1c1.5-0.4,2.9-0.6,4.2-0.3
	c-0.2-0.1-0.4-0.2-0.6-0.3c-0.9-0.3-2.1-0.4-3.4-0.2c0.4-1.2,1.2-2.2,2.2-2.8C63.8,91.7,66.4,93.2,67.5,96.1L67.5,96.1z"/>
<path fill-rule="evenodd" clip-rule="evenodd" fill="#CDCCCC" d="M62.4,103.6c-1.3-0.5-2.4-1.7-3-3.4l0,0c0.3-0.1,0.5-0.2,0.8-0.2
	c0,0.2,0.1,0.3,0.2,0.5C60.8,101.8,61.6,102.8,62.4,103.6L62.4,103.6z M59.2,99.5c-0.2-1-0.3-2.1-0.1-3.1c0.3-0.1,0.6-0.2,0.9-0.2
	c-0.2,1-0.1,2.1,0.1,3.2C59.8,99.3,59.5,99.4,59.2,99.5L59.2,99.5z M59.3,95.6c0.4-1.1,1-2,1.9-2.6c-0.5,0.7-0.9,1.6-1.2,2.5
	C59.9,95.5,59.6,95.6,59.3,95.6L59.3,95.6z"/>
<path fill-rule="evenodd" clip-rule="evenodd" fill="#FFFFFF" d="M12.9,91.8c-0.1,0.2-0.3,0.7-0.4,1.3c-0.5-0.6-1.1-1.1-1.9-1.5
	c-0.2-0.1-0.5-0.2-0.8-0.3c0-0.8,0.2-1.6,0.5-2.1c0.4-0.8,1.4-1.5,2.6-0.4C14.5,90,13.3,91,12.9,91.8L12.9,91.8z"/>
<path fill-rule="evenodd" clip-rule="evenodd" fill="#FFFFFF" d="M4.1,96.1c-1,2.9-0.1,6.2,2.2,7.3c2.2,1.1,4.9-0.4,5.9-3.3l0,0
	c-1.3-0.4-2.7-0.5-3.8-0.2c0.2-0.1,0.3-0.2,0.5-0.3c1-0.4,2.2-0.5,3.5-0.2c0.2-1,0.3-2.1,0.1-3.1c-1.5-0.4-2.9-0.6-4.2-0.3
	c0.2-0.1,0.4-0.2,0.6-0.3c0.9-0.3,2.1-0.4,3.4-0.2c-0.4-1.2-1.2-2.2-2.2-2.8C7.8,91.7,5.1,93.2,4.1,96.1L4.1,96.1z"/>
<path fill-rule="evenodd" clip-rule="evenodd" fill="#CDCCCC" d="M9.1,103.6c1.3-0.5,2.4-1.7,3-3.4l0,0c-0.3-0.1-0.5-0.2-0.8-0.2
	c0,0.2-0.1,0.3-0.2,0.5C10.7,101.8,10,102.8,9.1,103.6L9.1,103.6z M12.4,99.5c0.2-1,0.3-2.1,0.1-3.1c-0.3-0.1-0.6-0.2-0.9-0.2
	c0.2,1,0.1,2.1-0.1,3.2C11.8,99.3,12.1,99.4,12.4,99.5L12.4,99.5z M12.2,95.6c-0.4-1.1-1-2-1.9-2.6c0.5,0.7,0.9,1.6,1.2,2.5
	C11.7,95.5,11.9,95.6,12.2,95.6L12.2,95.6z"/>
<path fill-rule="evenodd" clip-rule="evenodd" fill="#FFFFFF" d="M22.7,108.1c-0.2-1.5,0.2-2.9,1-4.1c-0.7-0.6-1.4-1.3-2.1-2
	c-1.8,1.8-2.7,4.4-2.3,7.1c0.2,1.3,0.7,3.2,2.5,2.9c1-0.2,1.7-1.1,1.6-2.2C23.2,109.2,22.8,108.8,22.7,108.1L22.7,108.1z"/>
</svg>
