<?xml version="1.0" encoding="utf-8"?>
<!-- Generator: Adobe Illustrator 18.1.1, SVG Export Plug-In . SVG Version: 6.00 Build 0)  -->
<svg version="1.1" id="Layer_1" xmlns="http://www.w3.org/2000/svg" xmlns:xlink="http://www.w3.org/1999/xlink" x="0px" y="0px"
	 viewBox="0 0 63.7 56.5" enable-background="new 0 0 63.7 56.5" xml:space="preserve">
<path fill-rule="evenodd" clip-rule="evenodd" fill="#010101" d="M29.9,0c5.6,0,10.7,1.8,14.9,4.9l4.9-0.7C51,4,52.7,3.8,54.1,3.9
	c1,0,2.2,0.3,2.7,1.2c0.6,0.9,0.3,2.1,0,3c-0.4,1.2-0.9,2.4-1.3,3.5l0,0l-2,5.3c0.8,2.5,1.3,5.2,1.3,8c0,2-0.2,4-0.8,5.8
	c1.1,0,2,0.5,2.6,1.5c0.4,0.8,0.6,1.8,0.7,2.8c1.3-0.1,2.5,0.4,3.5,1.1c1.2,0.9,2,2.1,2.4,3.4c0.6,1.6,0.7,3.4,0.2,5.2
	c-0.5,1.6-1.5,3.2-3.2,4c-0.5,0.3-1.1,0.4-1.7,0.5c-0.6,0.1-1.2,0.1-1.7,0c-3.1,0.3-6.6-0.3-8.4-1.5c-1.2-0.9-2.3-2-3-3.2
	c-1.4,1.8-2.9,3.2-4.6,4.4l0,0.1c-0.3,0.7-0.7,1.4-1.2,2c-0.8,3-4.9,5.4-9.8,5.4c-4.8,0-8.9-2.3-9.7-5.2c-0.1-0.1-0.2-0.3-0.3-0.4
	c-0.7,0.5-1.5,0.6-2.4,0.5c-2.8-0.3-4.1-2.2-5.2-4.5c-0.3-0.6-0.7-1.5-1.1-2.6c-3.8,0.9-7.9-0.6-10.1-4.1c-0.2-0.4-0.4-0.7-0.6-1.1
	c-0.8-1.6-0.8-3.4,0.9-4.4c1.4-0.9,3.4-0.5,4.3,0.9c0.2,0.3,0.3,0.6,0.4,1c0.1,0.2,0.1,0.6,0.2,0.7c0.9,1.4,2.6,2.2,4.2,2
	c0,0,0,0,0-0.1c-0.3-0.3-0.7-0.7-1-1C6.3,34.4,4.9,29.8,4.9,25c0-2.8,0.5-5.5,1.3-8l-2-5.3l0,0c-0.4-1.2-0.9-2.4-1.3-3.5
	c-0.3-1-0.6-2.1,0-3c0.6-1,1.7-1.2,2.7-1.2C7,3.8,8.7,4,10.1,4.2L15,4.9C19.1,1.8,24.3,0,29.9,0L29.9,0z M51.3,36.7
	c-0.3,0.5-0.7,1-1.1,1.4c0,0.1-0.1,0.1-0.1,0.2c0.6,0.6,1.2,0.5,1.8,0.1c-0.1-0.7-0.3-1.3-0.4-1.6C51.4,36.8,51.3,36.7,51.3,36.7
	L51.3,36.7z"/>
<path fill-rule="evenodd" clip-rule="evenodd" fill="#FFFFFF" d="M49,39.3c0.9,1,2,1.3,2.9,0.8c-0.4,1.6-0.2,3.3,0.3,4.7
	c0.4,1.2,1.2,2.4,2.2,3.2c-3.6-0.1-6.3-1.8-8-4.9c0.6-0.9,1.1-1.8,1.7-2.8l0.3-0.6C48.6,39.7,48.8,39.5,49,39.3L49,39.3z"/>
<path fill-rule="evenodd" clip-rule="evenodd" fill="#0795D1" d="M49,39.3c0.5,0.6,1.1,0.9,1.7,1c-0.7,2.2-1.3,4.4-1,6.5
	c-1.4-0.8-2.5-2-3.3-3.6c0.6-0.9,1.1-1.8,1.7-2.8l0.3-0.6C48.6,39.7,48.8,39.5,49,39.3L49,39.3z"/>
<path fill-rule="evenodd" clip-rule="evenodd" fill="#FFFFFF" d="M5.3,37.9c1.1,1.7,3.2,2.7,5.2,2.6c0,0.9,0.2,1.7,0.4,2.6
	c-3.3,0.8-6.9-0.6-8.8-3.6c-0.7-1.1-1.6-2.9-0.1-3.9c0.9-0.6,2.1-0.3,2.6,0.6C5,36.7,5,37.3,5.3,37.9L5.3,37.9z"/>
<path fill-rule="evenodd" clip-rule="evenodd" fill="#FFFFFF" d="M17.7,49.8c-2.3-0.2-3.2-1.9-4-3.7c-1.1-2.3-1.6-4.1-1.7-5.3
	c2,3.6,4.5,6.4,7.3,8.4C19.1,49.7,18.6,49.9,17.7,49.8L17.7,49.8z"/>
<path fill-rule="evenodd" clip-rule="evenodd" fill="#0795D1" d="M13.7,46.3l-0.1-0.1c-1.1-2.3-1.6-4.1-1.7-5.3
	c1,1.9,2.2,3.5,3.4,4.9C14.8,45.9,14.2,46.1,13.7,46.3L13.7,46.3z"/>
<path fill-rule="evenodd" clip-rule="evenodd" fill="#FFFFFF" d="M31.5,52.6c2,1.7,4.4,1.1,6.6-1.9C36,51.8,33.8,52.4,31.5,52.6
	L31.5,52.6z"/>
<path fill-rule="evenodd" clip-rule="evenodd" fill="#FFFFFF" d="M28.2,52.6c-2,1.7-4.4,1.1-6.6-1.9C23.7,51.8,26,52.4,28.2,52.6
	L28.2,52.6z"/>
<path fill-rule="evenodd" clip-rule="evenodd" fill="#0795D1" d="M14.3,42c8,12.2,23.1,12.2,31.1,0c-4.6,2.7-10.2,3.8-15.5,3.8
	C24.6,45.8,18.9,44.8,14.3,42L14.3,42z"/>
<path fill-rule="evenodd" clip-rule="evenodd" fill="#FFFFFF" d="M29.9,1.5c5.2,0,10.1,1.7,14,4.6c2-0.1,4-0.4,5.9-0.6
	c8.2-1.1,6.6,0.4,4.7,5.8l-1.5,4c-0.8-1.9-1.8-3.6-3-5.3c0.1-0.1,0.2-0.3,0.3-0.4c1.5-1.7,3.3-2.9,5.1-3.5c-1.6-0.2-3.6,0.5-5.3,2.1
	c-0.7,0.7-1.2,1.3-1.7,2.2c3.1,4,5,9,5,14.5c0,2.3-0.3,4.5-1,6.4c-0.2,0.1-0.4,0.2-0.5,0.4c-0.8,0.7-1.4,1.6-1.4,2.6
	c0,0.3,0,0.6,0.1,0.9c-4,6.1-11.7,9.1-20.6,9.1c-13,0-23.5-6.4-23.5-19.4c0-5.5,1.9-10.6,5.1-14.6c-0.5-0.8-1-1.4-1.6-2.1
	C8.1,6.6,6.1,5.8,4.4,6.1C6.2,6.7,8,7.9,9.5,9.6C9.6,9.8,9.7,9.9,9.8,10c-1.2,1.6-2.2,3.4-3,5.3l-1.5-4c-1.9-5.5-3.6-7,4.7-5.8
	c2,0.3,3.9,0.5,5.9,0.6C19.8,3.2,24.6,1.5,29.9,1.5L29.9,1.5z"/>
<path fill-rule="evenodd" clip-rule="evenodd" fill="#E5E5E5" d="M21.6,43.4C12.7,41.1,6.4,35,6.4,25c0-5.5,1.9-10.6,5.1-14.6
	c-0.5-0.8-1-1.4-1.6-2.1C8.1,6.6,6.1,5.8,4.4,6.1C6.2,6.7,8,7.9,9.5,9.6C9.6,9.8,9.7,9.9,9.8,10c-1.2,1.6-2.2,3.4-3,5.3l-1.5-4
	c-1.9-5.5-3.6-7,4.7-5.8c2,0.3,3.9,0.5,5.9,0.6l0,0c2.5-1.8,5.3-3.2,8.4-3.9C15.9,6,10.1,14.8,10.1,25.1
	C10.1,34.2,14.7,40.3,21.6,43.4L21.6,43.4z"/>
<path fill-rule="evenodd" clip-rule="evenodd" fill="#B3B3B3" d="M4.6,6c0.1,0,0.1,0,0.2,0.1C4.8,6.1,4.7,6.1,4.6,6L4.6,6L4.6,6z
	 M8,12.9c-0.6-2.4-1.3-4.7-3.2-6.7C6.4,6.9,8.1,8,9.5,9.6C9.6,9.8,9.7,9.9,9.8,10C9.2,10.9,8.5,11.9,8,12.9L8,12.9z"/>
<path fill-rule="evenodd" clip-rule="evenodd" fill="#010101" d="M30.5,33.3c1.3-1.2,2.6-0.8,3-1.6c0.3-0.4,0.1-0.9-0.2-1.3
	c-1-1.3-6-1.3-7,0c-0.3,0.4-0.4,0.8-0.2,1.3c0.5,0.8,1.9,0.4,3.2,1.7c0,0.1,0,0.2,0,0.2c0.1,0.7-0.1,1.1-0.4,1.3
	c-0.4,0.3-1.1,0.4-1.8,0.5c-0.8,0.1-1.8-0.7-2.6-1.2c-0.8-0.5-0.8-0.3-0.2,0.4c0.7,0.8,1.4,1.7,2.4,1.9c0.3,0.1,0.7,0,1,0
	c0.4-0.1,0.7-0.2,0.9-0.3c0.5-0.2,0.8-0.4,1.2-0.4c0.4,0,0.7,0.1,1.2,0.4c0.2,0.1,0.6,0.2,0.9,0.3c0.3,0,0.6,0.1,1,0
	c1.1-0.2,1.8-1,2.4-1.9c0.5-0.6,0.6-1-0.2-0.4c-0.7,0.5-1.8,1.3-2.6,1.2c-0.7-0.1-1.4-0.2-1.7-0.5c0,0,0,0,0,0
	c-0.4-0.3-0.5-0.7-0.4-1.3C30.5,33.5,30.5,33.4,30.5,33.3L30.5,33.3z"/>
<path fill-rule="evenodd" clip-rule="evenodd" fill="#FFFFFF" d="M52.7,35.9c0.1,0.3,0.3,0.8,0.5,1.4c0.5-0.7,1.2-1.2,2-1.7
	c0.2-0.1,0.4-0.2,0.6-0.3c0-0.8-0.2-1.6-0.5-2.2c-0.4-0.8-1.4-1.5-2.6-0.4C51.1,34.1,52.3,35.2,52.7,35.9L52.7,35.9z"/>
<path fill-rule="evenodd" clip-rule="evenodd" fill="#FFFFFF" d="M61.7,40.3c1,2.9,0.1,6.2-2.2,7.3c-2.2,1.1-4.9-0.4-5.9-3.3l0,0
	c1.3-0.4,2.7-0.5,3.8-0.2c-0.2-0.1-0.3-0.2-0.5-0.3c-1-0.4-2.2-0.5-3.5-0.2c-0.2-1-0.3-2.1-0.1-3.1c1.5-0.4,2.9-0.6,4.2-0.3
	c-0.2-0.1-0.4-0.2-0.6-0.3c-0.9-0.3-2.1-0.4-3.4-0.2c0.4-1.2,1.2-2.2,2.2-2.8C58,35.8,60.7,37.3,61.7,40.3L61.7,40.3z"/>
<path fill-rule="evenodd" clip-rule="evenodd" fill="#CDCCCC" d="M56.7,47.7c-1.3-0.5-2.4-1.7-3-3.4l0,0c0.3-0.1,0.5-0.2,0.8-0.2
	c0,0.2,0.1,0.3,0.2,0.5C55.1,45.9,55.8,47,56.7,47.7L56.7,47.7z M53.4,43.6c-0.2-1-0.3-2.1-0.1-3.1c0.3-0.1,0.6-0.2,0.9-0.2
	c-0.2,1-0.1,2.1,0.1,3.2C54,43.5,53.7,43.5,53.4,43.6L53.4,43.6z M53.6,39.7c0.4-1.1,1-2,1.9-2.6c-0.5,0.7-0.9,1.6-1.2,2.5
	C54.1,39.7,53.9,39.7,53.6,39.7L53.6,39.7z"/>
<path fill-rule="evenodd" clip-rule="evenodd" fill="#02527D" d="M14.3,42c3.9,5.9,9.4,9,14.9,9.2c0.3,0,0.7,0,1-0.1
	c-4.7-0.5-9.3-3-12.8-7.5C16.4,43.2,15.3,42.6,14.3,42L14.3,42z"/>
<path fill-rule="evenodd" clip-rule="evenodd" fill="#010101" d="M19.8,21.9c1.8,0,3.3,1.7,3.3,3.9c0,2.1-1.5,3.9-3.3,3.9
	c-1.8,0-3.3-1.7-3.3-3.9C16.5,23.6,18,21.9,19.8,21.9L19.8,21.9z M39.9,21.9c1.8,0,3.3,1.7,3.3,3.9c0,2.1-1.5,3.9-3.3,3.9
	c-1.8,0-3.3-1.7-3.3-3.9C36.5,23.6,38,21.9,39.9,21.9L39.9,21.9z M41.6,23.3c0.6,0,1.1,0.5,1.1,1.1c0,0.6-0.5,1.1-1.1,1.1
	c-0.6,0-1.1-0.5-1.1-1.1C40.6,23.8,41.1,23.3,41.6,23.3L41.6,23.3z M21.6,23.3c0.6,0,1.1,0.5,1.1,1.1c0,0.6-0.5,1.1-1.1,1.1
	c-0.6,0-1.1-0.5-1.1-1.1C20.5,23.8,21,23.3,21.6,23.3L21.6,23.3z"/>
</svg>
