<?xml version="1.0" encoding="utf-8"?>
<!-- Generator: Adobe Illustrator 17.0.0, SVG Export Plug-In . SVG Version: 6.00 Build 0)  -->
<!DOCTYPE svg PUBLIC "-//W3C//DTD SVG 1.1//EN" "http://www.w3.org/Graphics/SVG/1.1/DTD/svg11.dtd">
<svg version="1.1" id="Layer_1" xmlns="http://www.w3.org/2000/svg" xmlns:xlink="http://www.w3.org/1999/xlink" x="0px" y="0px"
	 width="65.333px" height="38.021px" viewBox="0 0 65.333 38.021" enable-background="new 0 0 65.333 38.021" xml:space="preserve">
<g id="x1OgSj.tif">
	<g>
		<path fill="#9D9D9D" d="M43.95,0.046c-0.029,0.043-0.061,0.085-0.087,0.131c-0.852,1.475-1.704,2.95-2.556,4.424
			C34.894,15.689,28.48,26.777,22.067,37.865c-0.026,0.046-0.054,0.091-0.091,0.155c-0.03-0.048-0.053-0.084-0.074-0.122
			c-3.34-5.781-6.68-11.562-10.02-17.343C7.956,13.759,4.03,6.963,0.103,0.167C0.079,0.125,0.05,0.086,0.023,0.046
			C0.027,0.038,0.03,0.024,0.034,0.024c0.03-0.002,0.061-0.001,0.091-0.001c14.574,0,29.148,0,43.722,0.001
			C43.881,0.024,43.915,0.038,43.95,0.046z"/>
	</g>
</g>
</svg>
