<svg xmlns="http://www.w3.org/2000/svg" width="90.488" height="19.543" viewBox="0 0 90.488 19.543"><g fill="#FFF"><path d="M83.828 18.417c0 .327-.09.595-.27.8-.183.208-.408.312-.68.312-.115 0-.217-.02-.305-.04-.088-.03-.17-.06-.25-.11l-.028.1h-.642V16.6h.67v1.02c.103-.08.207-.147.314-.198.106-.05.23-.076.37-.076.263 0 .465.096.607.285.142.19.214.45.214.79zm-.69.013c0-.186-.03-.328-.094-.428-.062-.1-.175-.15-.337-.15-.062 0-.128.01-.194.03s-.13.045-.19.08v1.046c.048.018.094.03.137.035s.095.01.155.01c.177 0 .31-.053.395-.156.086-.103.13-.26.13-.467zm3.224.14h-1.528c.01.162.072.287.187.373.12.087.29.13.51.13.14 0 .28-.025.41-.076.13-.05.24-.104.31-.163h.08v.536c-.15.06-.29.104-.42.132-.13.027-.28.04-.44.04-.42 0-.74-.093-.96-.28s-.33-.457-.33-.804c0-.345.11-.617.32-.817.21-.2.5-.3.87-.3.34 0 .6.09.77.26s.26.42.26.74v.24zm-.664-.393c-.004-.14-.038-.245-.104-.315-.065-.07-.168-.106-.307-.106-.128 0-.234.034-.317.1-.082.067-.13.175-.14.322h.868zm2.468 1.29c-.07.02-.147.034-.228.045-.08.01-.18.016-.296.016-.26 0-.453-.053-.58-.158-.126-.104-.19-.285-.19-.54v-.974H86.6v-.453h.273v-.596h.67v.596h.623v.453h-.623v.74c0 .072 0 .136.002.19 0 .055.01.104.03.147s.047.077.09.103.108.038.192.038c.034 0 .08-.007.136-.022.057-.015.096-.028.117-.04h.056v.456zm1.66-.2l-.134.1c-.053.036-.104.066-.15.09-.065.03-.133.05-.204.064-.07.02-.147.03-.23.03-.2 0-.365-.06-.498-.18-.134-.12-.2-.28-.2-.47 0-.15.033-.27.102-.37.068-.09.164-.17.29-.23.123-.05.276-.09.46-.12.183-.02.372-.04.57-.05v-.01c0-.11-.048-.19-.143-.23-.1-.04-.24-.06-.42-.06-.11 0-.23.02-.36.06s-.22.07-.27.09h-.06v-.5c.07-.02.18-.04.34-.07.16-.02.32-.03.48-.03.38 0 .65.06.82.17s.25.3.25.55v1.42h-.67v-.22zm0-.325v-.433c-.09 0-.188.01-.293.03-.105.01-.186.02-.24.04-.066.02-.117.05-.152.09s-.05.09-.05.16c0 .04.01.08.01.1.01.02.03.05.06.07s.06.04.11.05c.04.01.1.02.19.02.07 0 .14-.02.21-.04.07-.03.13-.07.18-.11zm-69.51-6.522c.143.08.303.16.48.235s.37.14.573.19c.2.05.41.076.62.076.13 0 .27-.01.41-.03.14-.02.26-.06.37-.12s.19-.14.26-.24c.07-.1.1-.23.1-.39 0-.29-.12-.5-.35-.63-.23-.12-.57-.23-1.03-.33-.3-.06-.58-.14-.86-.24-.28-.1-.52-.23-.73-.4-.22-.17-.39-.38-.51-.63-.13-.25-.2-.56-.2-.93s.08-.69.24-.96.38-.51.65-.7c.27-.19.58-.34.94-.43.35-.1.72-.14 1.11-.14.41 0 .77.03 1.09.09.32.06.6.14.83.25.45.18.68.42.7.72 0 .15-.05.33-.14.54s-.2.4-.31.59c-.11-.08-.23-.16-.38-.25-.15-.08-.32-.17-.5-.24-.18-.08-.38-.14-.57-.19s-.4-.07-.6-.07c-.12 0-.23.01-.35.02s-.24.05-.33.09c-.1.05-.18.12-.25.2-.07.09-.1.2-.1.35 0 .35.37.6 1.11.77.3.06.6.14.9.24.3.1.57.23.81.41s.43.39.58.65c.14.26.22.59.22.99 0 .41-.08.77-.24 1.08-.16.32-.38.58-.65.8s-.6.38-.97.49c-.37.11-.78.17-1.21.17-.45 0-.83-.03-1.14-.1s-.57-.14-.77-.24c-.14-.06-.3-.15-.46-.27-.17-.12-.26-.28-.26-.48 0-.17.05-.35.15-.54.1-.18.22-.38.35-.58.09.08.2.17.34.26zm6.497-8.145c.595 0 1.078.483 1.078 1.078s-.48 1.077-1.07 1.077-1.07-.482-1.07-1.077c0-.596.48-1.078 1.08-1.078zm-.976 2.654c.03-.01.114-.03.252-.04.13-.02.28-.03.45-.03s.32.01.48.04c.16.03.31.09.44.17s.24.21.32.36.12.36.12.62v6.16c-.04.02-.13.04-.28.05-.14.01-.3.01-.46.01-.21 0-.39-.02-.55-.06-.17-.04-.3-.1-.42-.2s-.21-.23-.28-.39c-.07-.16-.1-.37-.1-.62V6.9zm3.05-2.28l.23-.03.23-.03c.08-.01.162-.01.243-.01.163 0 .325.01.488.04s.31.09.442.18.24.21.32.37.122.36.122.61v1.07h2.135v1.56h-2.135v3.27c0 .71.29 1.06.87 1.06.14 0 .276-.02.403-.07s.242-.1.343-.15c.102-.06.19-.12.267-.18.076-.06.13-.11.16-.14.152.22.27.42.35.58.082.16.123.31.123.46 0 .13-.053.26-.16.39s-.257.24-.45.35c-.193.1-.427.19-.7.26-.275.06-.575.09-.9.09-.632 0-1.122-.12-1.473-.37s-.597-.56-.74-.96c-.07-.21-.117-.42-.137-.64-.02-.23-.03-.45-.03-.67V4.65zm6.894 6.24c.05.56.22 1.02.52 1.39.31.37.79.55 1.45.55.26 0 .48-.03.67-.09s.37-.13.52-.21c.16-.08.29-.17.4-.27l.31-.27c.13.15.25.34.38.58s.2.43.2.58c0 .22-.12.42-.38.61-.21.16-.51.3-.91.42-.39.11-.85.17-1.38.17-.47 0-.94-.06-1.41-.18-.46-.12-.87-.34-1.23-.64s-.65-.72-.87-1.23c-.22-.52-.33-1.17-.33-1.95 0-.64.1-1.19.3-1.65s.46-.85.79-1.15c.33-.31.71-.53 1.12-.67s.85-.22 1.28-.22c.57 0 1.06.09 1.45.26.4.18.72.42.97.72s.43.64.54 1.03c.12.38.17.79.17 1.22v.21s0 .17-.01.26l-.01.26s-.01.15-.02.2h-4.5zm2.66-1.15c0-.49-.09-.89-.28-1.19s-.52-.46-1.01-.46c-.41 0-.75.14-1 .43s-.37.69-.37 1.21h2.67zm3.37 2.67c.14.08.3.16.48.23s.37.14.57.19c.21.05.41.07.63.07.13 0 .27-.01.41-.03.15-.02.27-.06.38-.12.11-.06.2-.15.27-.25s.11-.23.11-.4c0-.3-.11-.51-.34-.63-.23-.13-.57-.24-1.03-.33-.29-.06-.58-.14-.85-.25-.27-.1-.52-.24-.73-.41-.21-.17-.38-.38-.51-.63-.12-.26-.19-.57-.19-.93s.08-.69.25-.96c.17-.28.38-.51.65-.7.27-.2.58-.34.94-.44s.73-.15 1.12-.15c.41 0 .77.03 1.09.09.32.06.6.14.83.24.45.18.68.42.7.71 0 .15-.05.33-.14.54s-.2.4-.31.58c-.1-.08-.23-.17-.37-.25-.15-.09-.31-.17-.49-.25-.18-.08-.37-.14-.57-.19-.2-.05-.4-.08-.6-.08-.11 0-.23.01-.35.02s-.23.04-.33.09c-.09.04-.17.11-.24.2-.07.08-.1.2-.1.34 0 .35.37.6 1.11.76.31.06.61.14.91.24.3.09.57.23.81.4s.43.39.58.65.22.6.22.99c0 .41-.08.77-.24 1.09-.15.32-.37.58-.65.8s-.59.37-.96.49c-.37.11-.77.17-1.21.17-.45 0-.82-.04-1.13-.1s-.57-.15-.77-.24c-.14-.06-.3-.15-.47-.27-.17-.12-.25-.28-.25-.48 0-.18.05-.36.15-.548.1-.18.22-.38.35-.58.09.08.2.17.33.26zm5.55-5.49c.05-.01.11-.02.18-.03.06-.01.14-.02.22-.03.08-.01.18-.01.29-.01.34 0 .62.05.86.16s.38.3.44.56c.16-.2.42-.39.76-.59s.79-.3 1.31-.3c.38 0 .74.06 1.08.19s.65.33.91.62.48.66.63 1.12c.16.47.24 1.04.24 1.72 0 .79-.09 1.45-.27 1.96-.18.51-.42.92-.71 1.22s-.61.51-.97.63c-.35.12-.71.18-1.06.18-.3 0-.55-.03-.77-.1-.22-.07-.4-.14-.56-.22-.15-.08-.27-.16-.35-.25-.08-.08-.13-.14-.15-.17v2.31h-2.06v-9zm2.08 5.35c.08.08.23.17.44.29.21.11.45.16.73.16.52 0 .9-.21 1.15-.61s.37-.98.37-1.71c0-.31-.02-.59-.07-.86s-.14-.5-.25-.69-.27-.35-.47-.45c-.2-.11-.44-.16-.72-.16-.42 0-.72.08-.89.24-.17.16-.25.34-.25.53v3.23zm7.66-1.39c.04.56.22 1.02.52 1.39.31.37.79.55 1.45.55.26 0 .48-.03.67-.09s.37-.13.52-.21c.15-.08.29-.17.4-.27l.31-.27c.12.15.25.35.38.58s.2.43.2.58c0 .22-.13.42-.38.61-.21.16-.51.3-.91.42-.39.11-.85.17-1.38.17-.48 0-.95-.06-1.41-.18-.46-.12-.87-.34-1.23-.64-.36-.31-.65-.71-.87-1.23-.22-.51-.34-1.16-.34-1.94 0-.64.1-1.19.3-1.66.2-.46.47-.85.8-1.15.33-.3.71-.53 1.12-.67s.85-.21 1.28-.21c.57 0 1.06.09 1.45.26s.72.42.97.72.43.64.54 1.03c.11.38.17.79.17 1.22v.21l-.01.26-.01.27c0 .09-.01.16-.02.21h-4.5zm2.65-1.14c0-.49-.09-.89-.28-1.19s-.53-.46-1.01-.46c-.42 0-.75.14-1 .43s-.37.69-.37 1.21h2.67zm4.58 1.14c.04.56.22 1.02.52 1.39.31.37.79.55 1.45.55.26 0 .48-.03.67-.09s.37-.13.52-.21c.16-.08.29-.17.4-.27l.31-.27c.12.15.25.34.38.58.13.24.2.43.2.58 0 .22-.13.42-.38.61-.21.16-.51.3-.91.42-.39.11-.85.17-1.38.17-.48 0-.95-.06-1.41-.18-.46-.13-.87-.34-1.23-.64-.36-.31-.65-.72-.87-1.23-.22-.52-.33-1.17-.33-1.95 0-.64.1-1.19.3-1.66.2-.47.47-.85.8-1.16.33-.31.71-.53 1.12-.67s.85-.22 1.28-.22c.57 0 1.06.09 1.45.27.4.18.72.42.97.72s.43.64.55 1.03c.12.39.17.79.17 1.22v.47l-.01.26c-.01.09-.01.16-.02.21h-4.49zm2.65-1.14c0-.49-.09-.89-.28-1.19-.19-.31-.52-.46-1.01-.46-.41 0-.75.14-1 .43s-.37.69-.37 1.21h2.67zm7.45-1.01c-.08-.08-.22-.18-.42-.29-.2-.11-.43-.17-.69-.17-.53 0-.92.19-1.18.58-.25.38-.38.94-.38 1.66 0 .35.03.68.08.97.05.29.14.53.26.74.12.2.29.36.49.47.21.11.47.16.78.16.3 0 .55-.06.76-.19s.32-.3.32-.52v-3.4zm.72 5.4c-.17 0-.31-.06-.41-.18-.11-.12-.16-.27-.16-.45-.14.17-.38.35-.72.53-.34.19-.77.28-1.3.28-.37 0-.74-.06-1.09-.19-.35-.12-.66-.33-.94-.61s-.49-.66-.65-1.14c-.16-.48-.24-1.06-.24-1.76 0-.71.09-1.3.25-1.8.17-.5.39-.91.67-1.22s.6-.54.96-.69.74-.22 1.14-.22c.46 0 .84.08 1.13.23.3.16.52.31.66.46V4.6c.07-.02.18-.035.32-.046.15-.01.27-.012.38-.012.17 0 .33.01.5.04s.32.09.45.18.24.21.31.37c.08.16.12.36.12.62v8.37h-1.36zm2.59-.06c-.2-.22-.3-.49-.3-.81s.11-.59.32-.79c.21-.21.47-.31.79-.31s.59.1.8.3c.21.2.32.47.32.79 0 .32-.1.59-.3.8-.2.21-.47.32-.81.32-.33 0-.6-.1-.81-.31zm2.74-7.02c.03-.01.12-.03.25-.04.14-.02.28-.02.45-.02s.32.01.48.04.31.08.44.17.24.2.32.36c.08.15.12.36.12.61v6.07c-.04.02-.13.03-.27.04-.14.01-.29.01-.45.01-.2 0-.38-.02-.54-.05-.16-.04-.3-.1-.41-.2-.12-.1-.21-.22-.27-.38-.07-.16-.1-.37-.1-.62v-6zm0-1.64c0-.32.11-.59.32-.79.21-.21.47-.31.78-.31.3 0 .56.1.78.31.22.2.32.47.32.79 0 .32-.11.58-.32.78-.21.2-.47.3-.77.3-.31 0-.57-.1-.78-.3-.21-.21-.31-.47-.31-.79zm3.73 7.85c-.28-.35-.48-.76-.61-1.21s-.19-.94-.19-1.44c0-.51.08-1 .23-1.45.15-.46.37-.86.67-1.21.29-.35.67-.62 1.12-.82.45-.2.97-.3 1.58-.3.63 0 1.17.1 1.61.3.44.2.81.47 1.08.81.28.34.48.73.6 1.18.13.45.19.93.19 1.43s-.06.98-.19 1.44c-.12.46-.33.87-.61 1.22s-.65.63-1.1.84c-.45.21-1 .31-1.64.31s-1.19-.1-1.63-.3c-.45-.21-.81-.48-1.09-.82zm1.99-.6c.2.13.45.19.74.19.3 0 .55-.07.75-.2s.35-.3.46-.52c.11-.22.19-.46.23-.73s.06-.55.06-.83c0-.27-.02-.54-.06-.81-.04-.27-.12-.5-.23-.7-.11-.2-.26-.36-.45-.49s-.43-.19-.72-.19-.53.06-.73.19-.35.3-.46.5c-.11.21-.2.44-.25.7-.05.26-.07.53-.07.8s.02.54.06.81.13.51.24.73c.11.21.26.38.45.52z"/><path d="M20.325 12.42c.142.08.302.16.48.235s.37.14.572.19c.203.05.412.076.625.076.132 0 .27-.01.412-.03.142-.02.267-.06.374-.12s.196-.14.267-.24c.07-.1.107-.23.107-.39 0-.29-.115-.5-.343-.63-.23-.12-.58-.23-1.03-.33-.3-.06-.58-.14-.86-.24-.28-.1-.52-.23-.73-.4-.22-.17-.39-.38-.51-.63-.13-.25-.19-.56-.19-.93s.08-.69.24-.96.38-.51.65-.7c.27-.19.58-.34.94-.43.35-.1.73-.14 1.11-.14.4 0 .77.03 1.09.09.32.06.59.14.83.25.45.18.68.42.7.72 0 .15-.05.33-.15.54s-.2.4-.32.59c-.11-.08-.23-.16-.38-.25-.15-.08-.31-.17-.5-.24-.18-.07-.37-.14-.57-.19s-.4-.07-.61-.07c-.11 0-.23.01-.35.02s-.23.05-.33.09c-.1.05-.18.12-.25.2-.07.09-.1.2-.1.35 0 .35.37.6 1.11.76.3.06.6.14.9.24.3.1.57.23.81.41s.43.39.58.66c.15.26.22.59.22.99 0 .41-.08.77-.23 1.08-.16.31-.38.58-.65.79s-.6.38-.97.49c-.37.12-.78.17-1.22.17-.45 0-.83-.03-1.14-.1s-.57-.14-.77-.23c-.14-.06-.3-.15-.47-.27-.17-.12-.25-.28-.25-.48 0-.17.05-.35.15-.54.1-.19.22-.39.35-.59.09.09.21.17.34.27zm6.496-8.145c.6 0 1.08.483 1.08 1.078s-.48 1.077-1.08 1.077-1.07-.48-1.07-1.075c0-.596.49-1.078 1.08-1.078zm-.97 2.655c.03-.01.12-.027.26-.04.14-.017.29-.025.45-.025s.33.015.49.046c.17.03.31.09.44.18s.24.21.32.37.12.37.12.62v6.16c-.04.02-.13.04-.27.05-.14.01-.29.02-.45.02-.2 0-.38-.02-.55-.05-.16-.03-.3-.1-.42-.2s-.21-.22-.27-.39c-.06-.16-.1-.37-.1-.62v-6.1zm3.05-2.277l.23-.03c.07-.01.15-.018.23-.023.08-.004.17-.006.25-.006.17 0 .33.015.49.046s.31.093.45.184.24.216.32.374.12.362.12.617v1.068h2.14V8.44h-2.14v3.265c0 .712.29 1.068.87 1.068.14 0 .28-.023.41-.07.13-.045.24-.096.35-.15.1-.057.19-.116.27-.176.08-.06.13-.107.16-.137.16.224.27.417.35.58.09.162.13.314.13.456 0 .132-.05.262-.16.39s-.26.243-.45.35c-.19.107-.43.193-.7.26-.27.065-.57.098-.9.098-.63 0-1.12-.122-1.47-.366s-.6-.564-.74-.96c-.07-.205-.12-.418-.14-.642-.02-.224-.03-.447-.03-.67v-7.08zm6.9 6.237c.04.56.22 1.03.52 1.4.31.37.79.557 1.45.557.26 0 .48-.028.67-.084s.37-.125.52-.207c.15-.08.29-.17.4-.266l.31-.27c.12.15.25.347.38.586s.2.434.2.586c0 .225-.13.428-.38.61-.21.164-.51.303-.9.42-.39.117-.85.176-1.38.176-.48 0-.95-.06-1.41-.182-.46-.12-.87-.334-1.23-.64s-.65-.713-.87-1.227c-.22-.52-.33-1.17-.33-1.95 0-.64.1-1.19.3-1.66s.46-.85.79-1.15c.33-.31.7-.53 1.12-.68s.85-.22 1.28-.22c.57 0 1.05.09 1.45.27.4.18.72.41.97.71s.43.64.54 1.03c.11.38.17.79.17 1.22v.21l-.01.26-.01.26s-.01.15-.02.2h-4.5zm2.66-1.14c0-.49-.09-.884-.28-1.19s-.52-.46-1.01-.46c-.41 0-.75.148-1 .438s-.37.694-.37 1.212h2.67zm3.37 2.67c.14.08.31.16.48.237.18.076.37.14.58.19.21.05.41.076.63.076.14 0 .27-.01.42-.03.15-.02.27-.06.38-.12.11-.06.2-.144.27-.246s.11-.234.11-.396c0-.29-.11-.5-.34-.63-.23-.12-.57-.23-1.03-.33-.29-.06-.57-.14-.85-.24-.27-.1-.52-.23-.73-.4-.21-.17-.38-.38-.51-.63s-.19-.56-.19-.93.08-.68.24-.96c.17-.27.38-.51.65-.7.27-.19.58-.33.94-.43s.73-.14 1.11-.14c.41 0 .77.03 1.09.09.32.06.6.15.83.25.45.19.69.42.71.72 0 .16-.05.34-.14.54s-.2.41-.31.59c-.1-.08-.22-.16-.37-.25s-.31-.17-.49-.24c-.18-.07-.37-.14-.57-.19-.2-.05-.4-.07-.6-.07-.11 0-.23.01-.35.03s-.23.05-.33.09c-.1.05-.18.11-.24.2-.06.08-.1.2-.1.34 0 .35.37.6 1.12.76.3.06.61.14.91.24.3.1.57.23.81.41s.43.39.58.66.22.6.22.99c0 .41-.08.77-.24 1.09-.16.32-.38.58-.65.79s-.6.38-.97.49c-.37.12-.77.17-1.21.17-.45 0-.83-.03-1.14-.1s-.56-.14-.77-.23c-.14-.06-.3-.15-.46-.27-.17-.11-.25-.27-.25-.48 0-.17.05-.35.15-.54.1-.19.22-.38.35-.59.09.09.21.17.34.26zm5.55-5.49l.19-.03c.06-.01.14-.02.22-.023.08-.005.18-.008.29-.008.34 0 .62.05.86.16s.38.3.44.56c.17-.2.42-.39.77-.59s.79-.3 1.31-.3c.38 0 .74.06 1.08.19s.64.33.91.62.48.66.63 1.13c.16.47.24 1.04.24 1.72 0 .79-.09 1.44-.27 1.96-.18.51-.42.92-.71 1.22s-.61.51-.96.63-.71.18-1.06.18c-.3 0-.55-.04-.77-.1-.22-.07-.4-.14-.56-.22-.15-.08-.27-.17-.35-.25-.08-.09-.13-.14-.15-.17v2.3H47.4v-9zm2.08 5.35c.09.08.23.18.44.29.21.11.45.17.73.17.52 0 .9-.202 1.15-.61s.37-.975.37-1.71c0-.304-.03-.59-.08-.853s-.13-.493-.25-.686-.27-.34-.47-.45c-.2-.11-.44-.16-.72-.16-.42 0-.72.08-.89.25-.17.17-.25.34-.25.54v3.23zm7.66-1.39c.04.56.22 1.03.52 1.4.31.37.79.555 1.45.555.26 0 .48-.026.67-.082s.37-.122.52-.204c.15-.08.29-.17.4-.27l.31-.27c.12.15.25.35.38.59s.2.43.2.58c0 .22-.13.43-.38.61-.21.16-.51.3-.91.42s-.85.17-1.38.17c-.48 0-.95-.06-1.41-.19-.46-.13-.87-.34-1.23-.64-.36-.31-.65-.72-.88-1.23-.22-.51-.33-1.16-.33-1.95 0-.64.1-1.19.3-1.66.2-.47.46-.85.79-1.15.33-.31.7-.53 1.12-.67s.84-.22 1.28-.22c.57 0 1.05.09 1.45.26s.72.41.97.71.43.64.54 1.03c.11.38.17.79.17 1.22v.21l-.01.26-.02.26c0 .09-.01.15-.02.21h-4.5zm2.65-1.14c0-.49-.09-.882-.28-1.19s-.52-.454-1.01-.454c-.41 0-.75.145-1 .435s-.37.7-.37 1.21h2.67zm4.58 1.147c.04.56.22 1.024.52 1.395.31.37.79.554 1.45.554.26 0 .48-.028.67-.084s.37-.125.52-.207c.15-.08.29-.17.4-.267l.31-.268c.12.152.25.347.38.586.14.238.2.434.2.586 0 .226-.13.43-.38.61-.21.165-.51.304-.9.42-.39.118-.85.176-1.38.176-.48 0-.95-.06-1.41-.183-.46-.122-.87-.336-1.23-.64-.36-.305-.65-.714-.87-1.228-.22-.514-.33-1.163-.33-1.946 0-.64.1-1.19.3-1.65.2-.46.47-.84.8-1.15.33-.3.7-.53 1.12-.67s.84-.21 1.28-.21c.57 0 1.05.09 1.45.27.39.18.72.42.97.72s.43.65.55 1.03c.11.39.16.8.16 1.22v.22s0 .17-.01.26l-.01.27c-.01.09-.01.16-.02.21H64.4v.01zM67 9.754c0-.487-.094-.884-.28-1.19-.19-.304-.528-.456-1.016-.456-.416 0-.75.145-1 .435s-.372.694-.372 1.21H67zm7.44-1.004c-.08-.08-.22-.18-.42-.29-.2-.114-.43-.17-.695-.17-.53 0-.92.192-1.18.58-.253.385-.38.94-.38 1.66 0 .356.026.68.076.97.05.29.14.534.26.74.13.2.29.36.49.47.21.11.47.166.78.166.3 0 .55-.06.76-.183s.32-.293.32-.516v-3.43zm.715 5.396c-.177 0-.31-.06-.416-.175-.1-.11-.15-.26-.15-.45-.14.18-.38.35-.73.54-.34.19-.78.28-1.31.28-.38 0-.74-.06-1.09-.18-.35-.12-.66-.32-.94-.61s-.49-.66-.66-1.13c-.16-.47-.25-1.06-.25-1.76s.08-1.3.25-1.8c.17-.5.39-.9.67-1.21s.6-.54.96-.68.74-.22 1.14-.22c.45 0 .83.08 1.13.24.29.16.51.32.65.47V4.61c.07-.02.18-.036.32-.047.14-.01.27-.014.38-.014.16 0 .33.01.5.04s.32.09.45.18.24.21.31.37c.08.16.11.36.11.62v8.37h-1.35zm2.59-.056c-.2-.22-.3-.49-.3-.812s.104-.584.315-.79c.21-.205.476-.307.797-.307s.587.11.8.31c.21.21.315.47.315.79 0 .32-.1.59-.3.81-.2.22-.47.33-.81.33-.33.01-.6-.1-.81-.31zm2.737-7.02c.03-.01.11-.024.244-.04.135-.014.283-.022.444-.022s.32.015.48.045.305.083.435.17.235.203.315.36c.08.154.12.36.12.61v6.072c-.04.02-.13.035-.27.045-.14.01-.29.013-.45.013-.2 0-.38-.018-.54-.053-.16-.036-.3-.1-.417-.197-.12-.095-.21-.223-.27-.383-.07-.16-.1-.366-.1-.616v-6.01zm-.007-1.64c0-.32.103-.583.314-.79.21-.204.47-.31.78-.31.3 0 .56.106.77.31.21.206.32.47.32.79 0 .32-.11.58-.32.78-.22.2-.48.3-.78.3-.31 0-.58-.1-.79-.3-.21-.2-.31-.46-.31-.78zm3.73 7.848c-.28-.35-.487-.754-.617-1.21s-.195-.935-.195-1.436c0-.51.073-.994.223-1.45.153-.456.375-.86.67-1.203.297-.35.67-.62 1.12-.82.45-.2.978-.3 1.58-.3.63 0 1.17.1 1.616.3.443.2.804.47 1.08.81.274.34.474.73.6 1.18.122.45.185.92.185 1.42s-.064.98-.19 1.44c-.13.46-.335.86-.62 1.22-.287.35-.655.63-1.106.84-.45.21-.99.31-1.64.31s-1.18-.11-1.63-.31c-.44-.21-.81-.48-1.09-.82zm1.984-.6c.2.13.44.194.73.194.3 0 .55-.064.74-.194s.35-.303.46-.52c.11-.214.18-.457.22-.728s.06-.546.06-.827c0-.27-.02-.54-.06-.804-.04-.27-.12-.5-.23-.7-.11-.2-.26-.37-.45-.49-.19-.13-.43-.19-.72-.19s-.54.06-.73.19-.35.3-.47.5-.2.44-.25.7c-.05.26-.08.52-.08.79s.02.54.07.81.12.51.23.73c.11.21.26.38.45.51z"/></g><path fill-rule="evenodd" clip-rule="evenodd" d="M15.97 4.01l.223-.585.002-.004c.12-.34.267-.68.378-1.03.09-.28.167-.61 0-.88-.168-.27-.494-.34-.795-.36-.423-.02-.904.05-1.323.11l-1.413.2C11.832.55 10.337.02 8.716.02S5.6.55 4.39 1.445l-1.413-.193c-.42-.057-.9-.122-1.323-.102-.3.018-.627.087-.796.36-.166.27-.09.6 0 .88.112.35.257.69.38 1.035v.004l.59 1.54c-.245.72-.378 1.5-.378 2.31 0 1.41.41 2.74 1.354 3.82.093.1.19.2.29.3l-.005.02c-.47.05-.94-.16-1.22-.58-.04-.06-.06-.16-.07-.22-.03-.11-.07-.2-.13-.29-.27-.42-.83-.54-1.25-.27-.48.31-.49.81-.26 1.28.05.11.11.22.18.32.65 1 1.84 1.45 2.94 1.19.04.13.09.25.14.36-.19.03-.39.03-.56-.01l-.23-.05-.09.21c-.18.44-.26.91-.22 1.38l.02.2 1.02 1.19-.05.02-.42.15.28.32c.03.04.07.08.1.12L4.3 17.9l.03.03.025.03.03.03.03.03.03.03.03.03.03.03.033.03.034.03.03.03.033.03.035.023.037.03.035.03.034.03.034.025.037.03.036.03.04.03.032.022.04.03.034.026.04.022.04.027.04.027.04.025.04.024.04.03.04.02.04.02.06.03.13.07.05.03.17-.18.02-.02.02-.02.03-.02.02-.02.03-.02.03-.02.03-.02.03-.02.03-.01.03-.01.04-.01.04-.01.03-.01.04-.01.04-.01.04-.01h.04l.04-.01.04-.01h.3l.04.01.04.01.04.01.04.01.04.01.02.007.48.98.21.03h.06l.06.01h.06l.05.01h.23l.05.01.05.01h.885l.06-.007h.11l.06-.01.06-.008.06-.002.055-.01.06-.01.06-.01.06-.005.06-.01.06-.01.22-.03.47-.94c.04-.03.08-.04.12-.06l.05-.01h.04l.05-.01.04-.01.04-.004h.13l.04.01H11l.044.01.04.005.04.01.04.005.04.01.04.01.04.01.037.012.04.015.04.01.04.02.03.01.03.02.03.02.03.02.03.02.03.02.02.02.02.02.18.19.05-.03.13-.07.06-.03.05-.02.04-.03.05-.02.04-.02.04-.022.04-.025.04-.02.04-.027.03-.02.04-.02.04-.024.03-.03.04-.03.04-.03.03-.03.04-.02.04-.03.036-.02.03-.03.03-.03.03-.03.036-.03.03-.03.03-.027.03-.03.03-.03.03-.03.03-.03.03-.03.03-.03 1.03-1.14c.04-.03.07-.07.11-.11l.28-.32-.42-.15c-.02-.01-.04-.01-.05-.02l1.02-1.187.02-.2.01-.14c.78.26 1.66.35 2.26.1.02-.01.04-.02.05-.04.444-.21.715-.64.83-1.11.13-.5.09-1.056-.08-1.546-.13-.41-.36-.8-.69-1.085-.3-.26-.68-.44-1.08-.41-.03 0-.06 0-.09.01l-.27-.53c.84-.76 1.33-1.84 1.33-2.98 0-1.22-.54-2.31-1.4-3.04zm-1.246 6.98c.055-.065.108-.132.16-.2l.323.635c-.058.036-.12.058-.172.047-.158-.032-.266-.316-.31-.48z"/><path fill-rule="evenodd" clip-rule="evenodd" fill="#FFF" d="M1.582 11.044c.33.512.9.776 1.468.742.005.238.058.5.133.757-.95.206-1.973-.18-2.532-1.046-.21-.333-.46-.834-.02-1.12.26-.165.6-.092.76.164.1.16.09.34.2.51z"/><path fill-rule="evenodd" clip-rule="evenodd" fill="#6F9426" d="M13.708 16.155l1.083-1.244c-.28-.05-.59-.04-.87.06-.27.1-.57.31-.57.63.01.24.17.43.36.57z"/><path fill-rule="evenodd" clip-rule="evenodd" fill="#DCB000" d="M13.255 17.336c-.333.398-.662.74-1.11 1.02l.544-.684c.19-.105.38-.213.56-.336zm-7.957 1.02c-.436-.282-.748-.624-1.106-1.02.182.123.37.23.564.336l.542.683zm.276.162l-.74-.93c.35-.384.984-.51 1.5-.42l.526.972-.01-.002c-.45-.062-.954.043-1.276.38zm.93-1.314c.422.124.95.52.713 1.042-.065-.03-.13-.052-.2-.072l-.514-.97zm3.608 1.253l-.332.717c-.7.09-1.414.09-2.114 0l-.332-.717c.908.12 1.87.12 2.778 0zm.25-.262c-.045.014-.09.032-.13.05-.216-.47.205-.868.628-1.014l-.5.97zm1.51.322c-.335-.35-.86-.45-1.325-.37l-.015.003.5-.968c.53-.118 1.21 0 1.58.403l-.74.932z"/><path fill-rule="evenodd" clip-rule="evenodd" fill="#BA0000" d="M3.74 16.155L2.655 14.91h.004c.28-.053.59-.04.87.052.27.093.57.305.57.625-.01.235-.17.43-.36.568z"/><path fill-rule="evenodd" clip-rule="evenodd" fill="#9C3" d="M13.785 16.73c.087-.08.168-.165.244-.25-.65-.228-.98-.737-.76-1.18.21-.433.88-.653 1.54-.53 0-.073.01-.145.01-.218-.51-.204-.95-.476-1.19-.76-.14-.158-.25-.326-.35-.503-.07-.05-.13-.09-.18-.14-.37.44-.77.82-1.2 1.13l-.01.01c-.1.19-.21.39-.34.58-.06.22-.17.42-.34.61l2.55 1.24z"/><path fill-rule="evenodd" clip-rule="evenodd" fill="#F00" d="M3.552 13.515c-.237.045-.488.048-.725.003-.168.413-.232.836-.194 1.25.662-.122 1.333.098 1.544.532.216.443-.117.952-.76 1.178.1.114.21.225.33.33l2.536-1.245c-.188-.194-.323-.412-.39-.646-.03-.04-.056-.08-.082-.122-.18.15-.44.177-.69.15-.81-.085-1.2-.63-1.51-1.315l-.05-.115z"/><path fill-rule="evenodd" clip-rule="evenodd" fill="#FC0" d="M8.724 18.394c.46.008.924-.018 1.382-.08-.234-.497.092-1.032.767-1.237.667-.203 1.455-.017 1.848.417.36-.193.67-.41.94-.644l-2.54-1.236c-.52.5-1.39.83-2.39.83-.95 0-1.79-.297-2.31-.758l-2.52 1.24c.25.206.53.396.85.568.4-.433 1.18-.62 1.85-.417.68.205 1 .74.77 1.238.46.06.92.086 1.38.08z"/><path fill-rule="evenodd" clip-rule="evenodd" fill="#0095D2" d="M4.195 12.247c2.33 3.557 6.713 3.557 9.043 0-1.34.797-2.978 1.105-4.52 1.105s-3.183-.31-4.523-1.105z"/><path fill-rule="evenodd" clip-rule="evenodd" fill="#00517C" d="M4.194 12.246c1.124 1.716 2.725 2.605 4.344 2.666.1-.004.202-.01.303-.02-1.36-.14-2.69-.867-3.71-2.184-.32-.13-.63-.285-.93-.462z"/><path fill-rule="evenodd" clip-rule="evenodd" fill="#FFF" d="M8.716.452c1.52 0 2.927.498 4.062 1.34l1.084-.1c.482-.066.965-.143 1.45-.177 1.46-.102 1.036.41.55 1.79l-.184.478c-.27-.19-.562-.348-.874-.467-.084-.13-.173-.255-.265-.378.03-.04.06-.08.09-.117.44-.5.96-.85 1.48-1.02-.92-.07-1.57.6-2.03 1.27l.05.07c-.25-.05-.51-.07-.77-.07-2.21 0-4.01 1.8-4.01 4.01s1.79 4.01 4 4.01c.26 0 .52-.02.78-.07-1.25 1.3-3.22 1.94-5.43 1.94-3.78 0-6.84-1.86-6.84-5.63 0-1.6.55-3.08 1.48-4.25-.43-.67-1.13-1.39-2.05-1.25.51.17 1.03.53 1.47 1.03l.1.12c-.35.47-.65.98-.88 1.53l-.44-1.18c-.48-1.36-.9-1.88.51-1.79.44.03.87.09 1.31.15.42.07.84.1 1.26.13C5.79.95 7.19.45 8.71.45zm4.654 4.012c-1.43 0-2.59 1.16-2.59 2.59 0 1.432 1.16 2.592 2.59 2.592s2.59-1.16 2.59-2.59c0-1.432-1.16-2.592-2.59-2.592z"/><path fill-rule="evenodd" clip-rule="evenodd" fill="#E7E8E9" d="M6.313 12.637c-2.588-.65-4.43-2.426-4.43-5.353 0-.632.086-1.244.247-1.825.248-.88.665-1.71 1.232-2.42l.003-.01c-.437-.67-1.137-1.39-2.048-1.25.51.17 1.036.52 1.478 1.03.034.04.067.07.098.11-.35.47-.646.98-.876 1.53L1.57 3.3c-.48-1.365-.902-1.882.51-1.79.438.027.874.088 1.31.15.423.06.84.096 1.267.125.09-.067.183-.132.277-.194.65-.43 1.38-.75 2.162-.94-2.433 1.11-4.138 3.68-4.138 6.68 0 2.66 1.347 4.43 3.355 5.32z"/><path d="M9.446 10.333c.224.03.532-.193.747-.35.252-.182.22-.058.072.12-.192.236-.4.49-.712.54-.1.016-.195.012-.282-.002-.11-.01-.21-.05-.27-.08-.13-.07-.24-.1-.34-.1-.1 0-.2.04-.34.11-.06.04-.16.07-.27.09-.08.02-.18.02-.28.01-.31-.05-.52-.3-.71-.54-.17-.2-.15-.28.07-.12.22.16.53.38.75.35.22-.03.41-.07.53-.15.11-.07.17-.19.13-.38l-.01-.06c-.38-.37-.78-.26-.92-.49-.07-.13-.04-.25.05-.36.3-.37 1.75-.37 2.05 0 .09.11.13.24.05.37-.13.22-.52.12-.88.46 0 .04-.01.07-.01.1-.04.19.01.31.12.39v.01c.12.08.29.12.51.15z"/><path fill-rule="evenodd" clip-rule="evenodd" fill="#F00" d="M15.678 9.96l.348.68-.066.027c-.235.108-.42.277-.564.48l-.39-.763c-.494.243-1.05.38-1.637.38-2.05 0-3.71-1.662-3.71-3.71 0-2.05 1.66-3.71 3.71-3.71 2.04 0 3.71 1.66 3.71 3.71 0 1.177-.55 2.225-1.41 2.905zM13.37 4.17c1.593 0 2.885 1.29 2.885 2.884 0 1.593-1.292 2.885-2.885 2.885-1.593 0-2.885-1.3-2.885-2.89s1.292-2.89 2.885-2.89z"/><path fill-rule="evenodd" clip-rule="evenodd" fill="#9A0000" d="M15.396 11.148l-.39-.763c.103-.04.01.005.11-.044l.367.7-.087.12zm-1.84-.388c-.06.003-.123.005-.186.005-2.05 0-3.71-1.66-3.71-3.71 0-2.048 1.66-3.71 3.71-3.71.063 0 .125.002.187.005-4.903.288-5.082 7.092 0 7.41zm0-6.584c1.507.097 2.7 1.35 2.7 2.88 0 1.53-1.193 2.782-2.7 2.878.063.004.126.014.188.006 3.706-.492 3.453-5.473 0-5.77-.062-.006-.125.002-.187.006z"/><path fill-rule="evenodd" clip-rule="evenodd" fill="#FFF" d="M17.773 12.192c.302.9.06 1.855-.543 2.13-.602.277-1.335-.23-1.637-1.13-.302-.9-.06-1.854.543-2.13.602-.276 1.335.23 1.637 1.13zm-3.448-1.016c.147.484.43.74.753.73-.094.47-.047.974.104 1.425.137.41.367.8.69 1.09l.036.03c-1.254-.14-2.078-.79-2.424-1.79.184-.26.357-.55.517-.85l.26-.48.07-.14z"/><path fill-rule="evenodd" clip-rule="evenodd" fill="#D1D3D4" d="M16.438 14.283c-.353-.183-.67-.57-.845-1.09-.29-.86-.08-1.77.465-2.09-.374.52-.47 1.378-.195 2.2.133.397.336.732.575.98z"/><path fill-rule="evenodd" clip-rule="evenodd" d="M13.37 5.55c.1 0 .2.01.295.03-.162.08-.274.25-.274.443 0 .273.23.495.5.495s.5-.222.5-.495v-.088c.31.275.5.675.5 1.12 0 .83-.67 1.504-1.5 1.504s-1.5-.68-1.5-1.51.68-1.51 1.51-1.51zM6.028 6.696c.716.192 1.218.784 1.33 1.47-.334-.485-.836-.86-1.45-1.024-.614-.164-1.236-.09-1.768.163.44-.54 1.172-.8 1.888-.61z"/><path fill-rule="evenodd" clip-rule="evenodd" fill="#0095D2" d="M14.325 11.176c.112.37.303.605.53.693-.172.03-.815 1.29-.76 1.77-.273-.27-.478-.61-.61-.99.183-.27.356-.55.516-.86l.26-.49.07-.14z"/><path fill-rule="evenodd" clip-rule="evenodd" fill="#FFF" d="M9.2 15.326c.568.498 1.274.316 1.91-.553-.614.308-1.26.492-1.91.553zm-.966 0c-.57.498-1.275.316-1.91-.553.612.308 1.257.492 1.91.553zm-3.067-.81c-.664-.07-.936-.564-1.167-1.066-.313-.68-.47-1.19-.51-1.536.575 1.056 1.307 1.868 2.125 2.437-.042.13-.173.2-.448.17z"/><path fill-rule="evenodd" clip-rule="evenodd" fill="#0095D2" d="M4.056 13.57c-.02-.04-.038-.08-.056-.12-.313-.68-.47-1.19-.51-1.536.313.574.672 1.076 1.066 1.507l-.016.01c-.15.07-.32.12-.484.15z"/><path fill-rule="evenodd" clip-rule="evenodd" fill="#BCBEC0" d="M2.894 2.937c-.198.264-.378.543-.54.834-.184-.69-.39-1.35-.93-1.94.477.19.96.52 1.37.99.035.04.068.08.1.12z"/></svg>