<?xml version="1.0" encoding="utf-8"?>
<!-- Generator: Adobe Illustrator 17.0.0, SVG Export Plug-In . SVG Version: 6.00 Build 0)  -->
<!DOCTYPE svg PUBLIC "-//W3C//DTD SVG 1.1//EN" "http://www.w3.org/Graphics/SVG/1.1/DTD/svg11.dtd">
<svg version="1.1" id="Layer_1" xmlns="http://www.w3.org/2000/svg" xmlns:xlink="http://www.w3.org/1999/xlink" x="0px" y="0px"
	 width="123px" height="25.375px" viewBox="0 0 123 25.375" enable-background="new 0 0 123 25.375" xml:space="preserve">
<g>
	<path fill-rule="evenodd" clip-rule="evenodd" fill="#024F7D" d="M20.735,5.193l0.291-0.76l0.002-0.005
		c0.158-0.447,0.347-0.891,0.491-1.341c0.118-0.366,0.217-0.793,0.001-1.144c-0.22-0.36-0.644-0.449-1.035-0.468
		c-0.55-0.026-1.176,0.058-1.721,0.133l-1.838,0.252C15.355,0.691,13.408,0,11.3,0C9.192,0,7.245,0.691,5.673,1.858L3.836,1.606
		C3.291,1.532,2.665,1.447,2.114,1.474C1.724,1.493,1.3,1.582,1.079,1.942C0.864,2.293,0.963,2.72,1.081,3.086
		c0.145,0.45,0.334,0.894,0.491,1.341l0.002,0.005l0.767,2.003C2.022,7.383,1.849,8.397,1.849,9.452
		c0,1.842,0.532,3.572,1.762,4.968c0.121,0.138,0.247,0.27,0.378,0.397l-0.007,0.027c-0.604,0.066-1.222-0.204-1.575-0.75
		c-0.047-0.073-0.071-0.2-0.094-0.283c-0.037-0.133-0.085-0.256-0.16-0.373c-0.352-0.545-1.081-0.702-1.626-0.35
		c-0.625,0.404-0.631,1.062-0.34,1.674c0.068,0.145,0.15,0.284,0.237,0.418c0.843,1.305,2.391,1.88,3.823,1.55
		c0.06,0.167,0.123,0.327,0.184,0.472c-0.252,0.037-0.505,0.033-0.72-0.008l-0.299-0.056l-0.115,0.281
		c-0.233,0.573-0.335,1.184-0.279,1.802l0.024,0.262l1.328,1.545c-0.022,0.009-0.043,0.017-0.065,0.025l-0.54,0.191l0.366,0.413
		c0.046,0.051,0.093,0.102,0.14,0.152l1.339,1.485l0.036,0.039l0.037,0.039l0.039,0.041l0.037,0.038l0.041,0.04l0.04,0.038
		l0.039,0.037l0.043,0.04l0.041,0.037l0.042,0.037l0.043,0.037l0.043,0.037l0.044,0.036l0.045,0.036l0.045,0.036l0.046,0.035
		l0.047,0.036l0.047,0.035l0.048,0.034l0.049,0.034l0.049,0.034l0.05,0.034l0.05,0.033l0.051,0.033l0.051,0.032l0.052,0.032
		l0.052,0.031l0.054,0.031l0.054,0.031L6.98,24.36l0.07,0.038l0.171,0.094l0.064,0.035l0.231-0.242l0.029-0.028l0.031-0.027
		l0.034-0.027l0.036-0.026l0.037-0.025l0.04-0.024l0.042-0.023l0.043-0.022l0.045-0.021l0.046-0.02l0.048-0.019l0.049-0.017
		l0.05-0.016l0.051-0.014l0.053-0.013l0.053-0.011l0.054-0.01l0.055-0.008l0.055-0.006l0.055-0.005l0.056-0.003l0.056-0.001
		l0.056,0.001l0.056,0.002l0.056,0.004l0.055,0.006l0.055,0.007l0.055,0.01l0.054,0.011l0.053,0.013l0.053,0.015l0.022,0.007
		l0.627,1.267l0.28,0.036l0.072,0.009l0.074,0.009l0.072,0.008l0.073,0.007l0.073,0.007l0.072,0.006l0.073,0.006l0.073,0.005
		l0.073,0.004l0.073,0.004l0.073,0.003l0.073,0.003l0.073,0.002l0.072,0.002l0.073,0.001l0.073,0.001l0.073,0l0.073,0l0.041,0
		l0.04,0l0.073,0l0.073,0l0.073-0.001l0.073-0.001l0.073-0.002l0.073-0.002l0.073-0.003l0.073-0.004l0.073-0.004l0.073-0.004
		l0.073-0.005l0.073-0.006l0.073-0.006l0.073-0.007l0.073-0.007l0.073-0.008l0.073-0.008l0.072-0.009l0.28-0.036l0.605-1.222
		c0.048-0.05,0.099-0.063,0.15-0.08l0.054-0.011l0.055-0.01l0.055-0.007l0.055-0.006l0.056-0.004l0.056-0.002l0.056-0.001
		l0.056,0.001l0.056,0.003l0.056,0.005l0.055,0.006l0.055,0.008l0.054,0.01l0.053,0.011l0.053,0.013l0.052,0.014l0.05,0.016
		l0.049,0.017l0.048,0.019l0.046,0.02l0.045,0.021l0.043,0.022l0.042,0.023l0.039,0.024l0.038,0.025l0.036,0.026l0.034,0.027
		l0.031,0.027l0.029,0.028l0.231,0.242l0.063-0.035l0.167-0.092l0.073-0.041l0.055-0.031l0.054-0.031l0.053-0.031l0.053-0.032
		l0.052-0.032l0.052-0.033l0.051-0.033l0.05-0.033l0.05-0.033l0.049-0.034l0.049-0.034l0.048-0.035l0.047-0.035l0.047-0.035
		l0.046-0.035l0.045-0.036l0.045-0.036l0.044-0.036l0.043-0.037l0.043-0.037l0.043-0.038l0.041-0.037l0.042-0.038l0.04-0.038
		l0.04-0.038l0.04-0.039l0.038-0.039l0.038-0.039l0.038-0.04l0.036-0.04l1.34-1.485c0.047-0.05,0.094-0.1,0.14-0.152l0.366-0.413
		l-0.541-0.191c-0.021-0.008-0.043-0.016-0.064-0.025l1.327-1.545l0.024-0.262c0.005-0.061,0.01-0.122,0.012-0.182
		c1.016,0.34,2.168,0.457,2.948,0.122c0.029-0.012,0.052-0.029,0.069-0.049c0.579-0.275,0.931-0.84,1.085-1.446
		c0.167-0.655,0.115-1.372-0.099-2.01c-0.178-0.53-0.478-1.037-0.899-1.41c-0.39-0.346-0.884-0.571-1.413-0.541
		c-0.039,0.002-0.079,0.006-0.118,0.011l-0.353-0.69c1.097-0.985,1.727-2.386,1.727-3.873C22.562,7.569,21.853,6.149,20.735,5.193
		L20.735,5.193z M7.803,8.687c0.932,0.25,1.585,1.02,1.73,1.914C9.1,9.968,8.446,9.481,7.648,9.267
		c-0.799-0.214-1.608-0.119-2.3,0.211C5.921,8.777,6.872,8.437,7.803,8.687L7.803,8.687z M17.354,7.198
		c0.131,0,0.259,0.013,0.384,0.037c-0.211,0.106-0.356,0.324-0.356,0.577c0,0.356,0.288,0.644,0.644,0.644
		c0.356,0,0.644-0.288,0.644-0.644c0-0.039-0.003-0.078-0.01-0.115c0.4,0.358,0.652,0.878,0.652,1.457
		c0,1.08-0.876,1.956-1.956,1.956c-1.08,0-1.956-0.876-1.956-1.956C15.398,8.074,16.274,7.198,17.354,7.198L17.354,7.198z
		 M12.249,13.417c0.292,0.039,0.692-0.252,0.972-0.455c0.327-0.237,0.284-0.077,0.094,0.157c-0.249,0.306-0.519,0.635-0.926,0.701
		c-0.128,0.021-0.254,0.016-0.367-0.002c-0.147-0.024-0.274-0.07-0.359-0.115c-0.176-0.092-0.313-0.138-0.446-0.138
		s-0.27,0.046-0.446,0.138c-0.085,0.044-0.212,0.091-0.359,0.115c-0.113,0.018-0.238,0.023-0.367,0.002
		c-0.408-0.066-0.677-0.396-0.926-0.701c-0.22-0.27-0.193-0.364,0.094-0.156c0.28,0.203,0.68,0.493,0.971,0.454
		c0.282-0.037,0.526-0.089,0.683-0.196c0.145-0.099,0.215-0.253,0.167-0.5c-0.005-0.024-0.009-0.053-0.013-0.084
		c-0.491-0.491-1.017-0.346-1.195-0.64c-0.1-0.165-0.056-0.331,0.061-0.475c0.393-0.481,2.268-0.481,2.661,0
		c0.117,0.143,0.161,0.31,0.061,0.475c-0.173,0.286-0.672,0.157-1.151,0.599c-0.007,0.049-0.012,0.093-0.019,0.125
		c-0.048,0.247,0.012,0.401,0.148,0.5c0.001,0.001,0.002,0.002,0.003,0.002C11.736,13.328,11.968,13.38,12.249,13.417L12.249,13.417
		z M11.928,19.912c0.74,0.648,1.658,0.411,2.485-0.719C13.616,19.593,12.776,19.833,11.928,19.912L11.928,19.912z M10.673,19.912
		c-0.74,0.648-1.658,0.41-2.485-0.719C8.985,19.593,9.825,19.833,10.673,19.912L10.673,19.912z M23.082,15.836
		c0.393,1.171,0.077,2.413-0.706,2.772c-0.783,0.36-1.737-0.299-2.129-1.47c-0.393-1.171-0.077-2.413,0.706-2.773
		C21.735,14.006,22.689,14.665,23.082,15.836L23.082,15.836z M19.286,15.416c0.093,0.036,0.189,0.053,0.29,0.05
		c-0.122,0.611-0.062,1.265,0.135,1.852c0.178,0.53,0.477,1.037,0.899,1.41c0.015,0.013,0.03,0.026,0.046,0.039
		c-1.002-0.112-1.792-0.476-2.358-1.04C18.226,17.104,19.062,15.467,19.286,15.416L19.286,15.416z M6.684,18.86
		c-0.795-0.084-1.158-0.636-1.445-1.232c0.213-0.033,0.435-0.102,0.631-0.192l0.021-0.001l0,0c0.43,0.47,0.892,0.873,1.377,1.211
		C7.212,18.809,7.042,18.897,6.684,18.86L6.684,18.86z M2.02,14.343c0.43,0.666,1.171,1.01,1.91,0.966
		c0.006,0.31,0.076,0.652,0.172,0.984c-1.237,0.268-2.566-0.235-3.293-1.361c-0.28-0.433-0.609-1.085-0.034-1.457
		c0.332-0.215,0.776-0.119,0.991,0.213C1.9,13.895,1.878,14.122,2.02,14.343L2.02,14.343z M17.205,22.526
		c-0.433,0.518-0.861,0.962-1.443,1.329l0.707-0.891l0.001,0.001C16.72,22.828,16.967,22.686,17.205,22.526L17.205,22.526z
		 M6.854,23.852c-0.567-0.365-0.973-0.811-1.438-1.325c0.236,0.159,0.483,0.301,0.733,0.437L6.854,23.852L6.854,23.852z
		 M7.214,24.064L7.214,24.064l-0.962-1.212c0.454-0.498,1.278-0.663,1.951-0.546l0.682,1.266L8.872,23.57
		C8.289,23.489,7.632,23.626,7.214,24.064L7.214,24.064z M8.421,22.356c0.551,0.162,1.238,0.676,0.929,1.355
		c-0.084-0.039-0.171-0.068-0.26-0.093L8.421,22.356L8.421,22.356z M13.117,23.986l-0.432,0.933c-0.91,0.116-1.84,0.116-2.75,0
		l-0.432-0.933C10.683,24.141,11.937,24.141,13.117,23.986L13.117,23.986z M13.441,23.645c-0.057,0.019-0.115,0.041-0.17,0.066
		c-0.28-0.614,0.268-1.13,0.818-1.321L13.441,23.645L13.441,23.645z M15.405,24.063c-0.435-0.457-1.12-0.586-1.724-0.481
		l-0.019,0.004l0.651-1.259c0.69-0.153,1.576,0.001,2.054,0.524L15.405,24.063L15.405,24.063z M4.826,20.99l-1.409-1.618
		l0.005-0.001c0.369-0.068,0.774-0.054,1.131,0.067c0.356,0.121,0.75,0.397,0.744,0.813C5.291,20.558,5.083,20.809,4.826,20.99
		L4.826,20.99z M17.794,20.99l1.409-1.618l-0.005-0.001c-0.369-0.068-0.774-0.054-1.131,0.067c-0.356,0.121-0.751,0.397-0.744,0.813
		C17.329,20.558,17.538,20.809,17.794,20.99L17.794,20.99z M4.584,17.556c-0.308,0.058-0.635,0.063-0.943,0.004
		c-0.219,0.538-0.302,1.087-0.253,1.628c0.861-0.16,1.734,0.127,2.009,0.691c0.281,0.576-0.153,1.238-0.988,1.533
		c0.131,0.148,0.275,0.292,0.43,0.431l3.299-1.62c-0.244-0.253-0.42-0.537-0.509-0.84c-0.036-0.052-0.071-0.106-0.105-0.159
		c-0.246,0.194-0.579,0.23-0.899,0.197c-1.063-0.112-1.562-0.821-1.972-1.713C4.632,17.663,4.609,17.612,4.584,17.556L4.584,17.556z
		 M17.894,21.74c0.113-0.107,0.219-0.217,0.318-0.328c-0.835-0.295-1.269-0.957-0.988-1.533c0.275-0.564,1.147-0.85,2.009-0.691
		c0.009-0.094,0.013-0.189,0.013-0.284c-0.659-0.265-1.227-0.619-1.546-0.99c-0.175-0.204-0.324-0.423-0.451-0.654
		c-0.085-0.053-0.164-0.111-0.235-0.175c-0.479,0.578-1.003,1.068-1.559,1.471l-0.01,0.02c-0.129,0.254-0.275,0.511-0.44,0.757
		c-0.074,0.283-0.222,0.55-0.432,0.791L17.894,21.74L17.894,21.74z M11.31,23.903c0.599,0.01,1.201-0.024,1.797-0.103
		c-0.305-0.648,0.119-1.343,0.998-1.61c0.867-0.263,1.893-0.022,2.404,0.542c0.461-0.251,0.867-0.533,1.216-0.838l-3.305-1.608
		c-0.673,0.652-1.815,1.081-3.11,1.081c-1.233,0-2.326-0.388-3.009-0.988l-3.288,1.615c0.322,0.267,0.688,0.514,1.099,0.738
		c0.511-0.564,1.537-0.806,2.404-0.542c0.879,0.267,1.303,0.962,0.998,1.61C10.108,23.879,10.711,23.913,11.31,23.903L11.31,23.903z
		 M20.356,12.931l0.453,0.885c-0.029,0.011-0.057,0.024-0.086,0.037c-0.305,0.14-0.548,0.36-0.733,0.625l-0.508-0.992
		c-0.642,0.316-1.364,0.494-2.128,0.494c-2.664,0-4.825-2.16-4.825-4.825c0-2.665,2.161-4.826,4.825-4.826
		c2.665,0,4.826,2.161,4.826,4.826C22.179,10.684,21.467,12.047,20.356,12.931L20.356,12.931z M17.354,5.401
		c2.073,0,3.753,1.681,3.753,3.753c0,2.072-1.681,3.753-3.753,3.753c-2.072,0-3.753-1.681-3.753-3.753
		C13.601,7.081,15.282,5.401,17.354,5.401L17.354,5.401z M11.3,0.565c1.979,0,3.806,0.647,5.284,1.741l1.409-0.129
		c0.627-0.086,1.256-0.186,1.887-0.231c1.898-0.133,1.346,0.534,0.713,2.327l-0.239,0.623c-0.35-0.247-0.731-0.452-1.137-0.608
		c-0.11-0.168-0.225-0.332-0.344-0.492c0.041-0.051,0.084-0.102,0.128-0.153c0.576-0.659,1.259-1.116,1.923-1.338
		c-1.198-0.098-2.035,0.783-2.638,1.652c0.021,0.027,0.042,0.054,0.064,0.082c-0.322-0.063-0.655-0.095-0.996-0.095
		c-2.876,0-5.208,2.332-5.208,5.208s2.332,5.208,5.208,5.208c0.341,0,0.68-0.033,1.012-0.099c-1.624,1.682-4.184,2.517-7.065,2.517
		c-4.908,0-8.887-2.421-8.887-7.329c0-2.088,0.721-4.008,1.927-5.525c-0.568-0.873-1.48-1.803-2.665-1.62
		c0.665,0.222,1.348,0.678,1.923,1.338c0.044,0.05,0.086,0.102,0.128,0.153C3.27,4.408,2.886,5.075,2.586,5.787L2.007,4.274
		C1.38,2.497,0.832,1.826,2.669,1.943C3.238,1.98,3.806,2.059,4.372,2.141c0.552,0.08,1.093,0.124,1.649,0.162
		C7.497,1.211,9.323,0.565,11.3,0.565L11.3,0.565z M17.354,5.783c-1.861,0-3.37,1.509-3.37,3.37c0,1.861,1.51,3.37,3.37,3.37
		c1.861,0,3.371-1.509,3.371-3.37C20.724,7.292,19.215,5.783,17.354,5.783L17.354,5.783z M19.116,14.273
		c0.071-0.086,0.14-0.172,0.206-0.26l0.422,0.824c-0.076,0.047-0.155,0.075-0.224,0.061C19.314,14.857,19.174,14.488,19.116,14.273
		L19.116,14.273z"/>
	<path fill="#024F7D" d="M26.802,16.895c0.194,0.111,0.413,0.219,0.656,0.323c0.243,0.104,0.504,0.191,0.782,0.26
		c0.278,0.069,0.563,0.104,0.855,0.104c0.18,0,0.368-0.014,0.563-0.042c0.195-0.028,0.365-0.083,0.511-0.167
		c0.146-0.083,0.268-0.194,0.365-0.333c0.097-0.139,0.146-0.32,0.146-0.542c0-0.403-0.156-0.691-0.469-0.865
		c-0.313-0.174-0.782-0.323-1.407-0.448c-0.403-0.083-0.792-0.194-1.167-0.333c-0.375-0.139-0.709-0.323-1.001-0.553
		c-0.292-0.229-0.525-0.517-0.699-0.865c-0.173-0.347-0.26-0.771-0.26-1.271c0-0.5,0.111-0.938,0.333-1.313
		c0.222-0.375,0.518-0.695,0.886-0.959c0.368-0.264,0.795-0.462,1.282-0.594c0.487-0.132,0.994-0.198,1.522-0.198
		c0.556,0,1.053,0.042,1.49,0.125c0.438,0.084,0.817,0.195,1.136,0.334c0.611,0.25,0.931,0.577,0.959,0.98
		c0,0.209-0.066,0.455-0.198,0.74c-0.132,0.285-0.275,0.552-0.428,0.802c-0.139-0.111-0.309-0.226-0.511-0.344
		c-0.201-0.118-0.427-0.23-0.677-0.334c-0.25-0.104-0.511-0.191-0.782-0.261c-0.271-0.069-0.546-0.104-0.824-0.104
		c-0.153,0-0.313,0.011-0.479,0.031c-0.167,0.021-0.316,0.062-0.448,0.125c-0.132,0.063-0.243,0.153-0.333,0.271
		c-0.091,0.118-0.135,0.274-0.135,0.469c0,0.472,0.507,0.82,1.521,1.042c0.417,0.083,0.83,0.191,1.24,0.323
		c0.41,0.132,0.778,0.316,1.105,0.552c0.327,0.236,0.591,0.535,0.792,0.896c0.201,0.361,0.302,0.813,0.302,1.355
		c0,0.556-0.108,1.049-0.323,1.48c-0.215,0.431-0.511,0.792-0.886,1.084c-0.375,0.292-0.816,0.514-1.324,0.667
		c-0.507,0.153-1.06,0.229-1.657,0.229c-0.611,0-1.129-0.045-1.553-0.135c-0.424-0.09-0.775-0.198-1.053-0.323
		c-0.195-0.083-0.407-0.205-0.636-0.365c-0.23-0.16-0.344-0.379-0.344-0.657c0-0.236,0.069-0.483,0.208-0.74
		c0.139-0.257,0.299-0.524,0.48-0.802C26.468,16.651,26.621,16.769,26.802,16.895L26.802,16.895z M35.681,5.763
		c0.814,0,1.473,0.66,1.473,1.473c0,0.814-0.66,1.473-1.473,1.473c-0.814,0-1.473-0.66-1.473-1.473
		C34.208,6.422,34.868,5.763,35.681,5.763L35.681,5.763z M34.348,9.39c0.041-0.014,0.156-0.031,0.344-0.052
		c0.187-0.021,0.392-0.031,0.615-0.031c0.222,0,0.445,0.021,0.667,0.062c0.223,0.042,0.424,0.122,0.605,0.24
		c0.181,0.118,0.327,0.285,0.438,0.501c0.111,0.215,0.167,0.497,0.167,0.844v8.421c-0.056,0.028-0.181,0.049-0.375,0.063
		c-0.194,0.014-0.403,0.021-0.625,0.021c-0.278,0-0.528-0.024-0.751-0.073c-0.222-0.049-0.414-0.139-0.573-0.271
		c-0.16-0.132-0.285-0.309-0.376-0.532c-0.09-0.222-0.135-0.507-0.135-0.855V9.39L34.348,9.39z M38.516,6.284
		c0.097-0.014,0.202-0.028,0.313-0.041c0.097-0.014,0.202-0.024,0.312-0.032c0.111-0.007,0.223-0.01,0.334-0.01
		c0.222,0,0.445,0.021,0.667,0.062c0.222,0.042,0.424,0.125,0.605,0.25c0.18,0.125,0.326,0.295,0.438,0.511
		c0.111,0.215,0.166,0.497,0.166,0.844v1.459h2.918v2.126h-2.918v4.461c0,0.973,0.396,1.459,1.188,1.459
		c0.194,0,0.379-0.031,0.552-0.094c0.174-0.062,0.33-0.132,0.469-0.208c0.139-0.076,0.261-0.156,0.365-0.24
		c0.104-0.083,0.177-0.146,0.219-0.187c0.208,0.306,0.368,0.57,0.48,0.792c0.111,0.222,0.166,0.431,0.166,0.625
		c0,0.181-0.073,0.358-0.219,0.531c-0.146,0.174-0.351,0.334-0.615,0.48c-0.264,0.146-0.584,0.264-0.959,0.354
		c-0.375,0.091-0.785,0.135-1.229,0.135c-0.862,0-1.532-0.167-2.012-0.5c-0.48-0.334-0.816-0.771-1.011-1.313
		c-0.097-0.278-0.16-0.57-0.187-0.876c-0.028-0.306-0.042-0.611-0.042-0.917V6.284L38.516,6.284z M47.938,14.81
		c0.056,0.764,0.292,1.4,0.709,1.907c0.417,0.507,1.077,0.761,1.98,0.761c0.348,0,0.653-0.038,0.917-0.115
		c0.264-0.076,0.5-0.17,0.709-0.281c0.208-0.111,0.389-0.233,0.542-0.365c0.153-0.132,0.292-0.254,0.417-0.365
		c0.167,0.208,0.34,0.476,0.521,0.802c0.18,0.327,0.271,0.594,0.271,0.803c0,0.306-0.174,0.584-0.521,0.834
		c-0.292,0.222-0.705,0.414-1.241,0.573c-0.535,0.16-1.164,0.24-1.886,0.24c-0.653,0-1.296-0.083-1.928-0.25
		c-0.632-0.167-1.195-0.458-1.689-0.875c-0.493-0.417-0.893-0.976-1.199-1.678c-0.306-0.702-0.459-1.588-0.459-2.658
		c0-0.876,0.135-1.629,0.406-2.262c0.271-0.632,0.633-1.157,1.084-1.574c0.451-0.417,0.962-0.722,1.532-0.917
		c0.57-0.194,1.154-0.292,1.751-0.292c0.778,0,1.438,0.121,1.98,0.365c0.542,0.243,0.983,0.57,1.324,0.98
		c0.341,0.41,0.587,0.879,0.74,1.407c0.153,0.528,0.229,1.084,0.229,1.668c0,0.083,0,0.18,0,0.292c0,0.111-0.003,0.229-0.01,0.354
		c-0.007,0.125-0.014,0.247-0.021,0.365c-0.007,0.118-0.017,0.212-0.031,0.281H47.938L47.938,14.81z M51.565,13.247
		c0-0.667-0.129-1.209-0.386-1.626c-0.257-0.417-0.719-0.625-1.386-0.625c-0.57,0-1.025,0.198-1.365,0.594
		c-0.341,0.396-0.511,0.948-0.511,1.657H51.565L51.565,13.247z"/>
	<path fill="#024F7D" d="M56.172,16.895c0.195,0.111,0.414,0.219,0.657,0.323c0.243,0.104,0.504,0.191,0.782,0.26
		c0.278,0.069,0.563,0.104,0.855,0.104c0.18,0,0.368-0.014,0.563-0.042c0.194-0.028,0.365-0.083,0.511-0.167
		c0.146-0.083,0.268-0.194,0.365-0.333c0.097-0.139,0.146-0.32,0.146-0.542c0-0.403-0.156-0.691-0.469-0.865
		c-0.312-0.174-0.782-0.323-1.407-0.448c-0.403-0.083-0.792-0.194-1.167-0.333c-0.375-0.139-0.709-0.323-1-0.553
		c-0.292-0.229-0.525-0.517-0.698-0.865c-0.174-0.347-0.261-0.771-0.261-1.271c0-0.5,0.111-0.938,0.334-1.313
		c0.222-0.375,0.517-0.695,0.886-0.959c0.368-0.264,0.796-0.462,1.282-0.594c0.486-0.132,0.994-0.198,1.522-0.198
		c0.556,0,1.052,0.042,1.49,0.125c0.438,0.084,0.817,0.195,1.136,0.334c0.612,0.25,0.931,0.577,0.959,0.98
		c0,0.209-0.067,0.455-0.198,0.74c-0.132,0.285-0.274,0.552-0.428,0.802c-0.138-0.111-0.309-0.226-0.511-0.344
		c-0.201-0.118-0.427-0.23-0.677-0.334c-0.25-0.104-0.511-0.191-0.782-0.261c-0.271-0.069-0.545-0.104-0.823-0.104
		c-0.153,0-0.313,0.011-0.48,0.031c-0.167,0.021-0.316,0.062-0.448,0.125c-0.132,0.063-0.243,0.153-0.334,0.271
		c-0.09,0.118-0.135,0.274-0.135,0.469c0,0.472,0.507,0.82,1.522,1.042c0.417,0.083,0.83,0.191,1.24,0.323
		c0.41,0.132,0.778,0.316,1.105,0.552c0.326,0.236,0.591,0.535,0.792,0.896C62.7,15.108,62.8,15.56,62.8,16.102
		c0,0.556-0.108,1.049-0.323,1.48c-0.215,0.431-0.51,0.792-0.886,1.084c-0.375,0.292-0.816,0.514-1.324,0.667
		c-0.507,0.153-1.06,0.229-1.657,0.229c-0.611,0-1.129-0.045-1.553-0.135c-0.424-0.09-0.775-0.198-1.053-0.323
		c-0.195-0.083-0.406-0.205-0.636-0.365c-0.229-0.16-0.344-0.379-0.344-0.657c0-0.236,0.07-0.483,0.208-0.74
		c0.139-0.257,0.299-0.524,0.48-0.802C55.839,16.651,55.991,16.769,56.172,16.895L56.172,16.895z M63.75,9.39
		c0.069-0.014,0.153-0.028,0.25-0.042c0.083-0.014,0.18-0.024,0.292-0.031c0.111-0.007,0.243-0.011,0.396-0.011
		c0.458,0,0.848,0.077,1.167,0.229c0.32,0.153,0.521,0.41,0.605,0.771c0.222-0.264,0.569-0.531,1.042-0.802
		c0.473-0.271,1.07-0.406,1.793-0.406c0.514,0,1.004,0.087,1.469,0.261c0.466,0.173,0.879,0.455,1.241,0.844
		c0.361,0.389,0.65,0.903,0.865,1.543c0.215,0.639,0.323,1.424,0.323,2.356c0,1.084-0.125,1.977-0.375,2.678
		c-0.25,0.702-0.573,1.258-0.97,1.668c-0.396,0.41-0.837,0.698-1.324,0.865c-0.486,0.167-0.973,0.25-1.459,0.25
		c-0.403,0-0.754-0.045-1.052-0.136c-0.299-0.09-0.552-0.191-0.761-0.302c-0.209-0.111-0.368-0.222-0.479-0.334
		s-0.181-0.188-0.209-0.229v3.153H63.75V9.39L63.75,9.39z M66.585,16.707c0.111,0.111,0.309,0.243,0.594,0.396
		c0.285,0.153,0.615,0.229,0.991,0.229c0.708,0,1.229-0.278,1.563-0.834c0.333-0.556,0.5-1.334,0.5-2.335
		c0-0.417-0.035-0.806-0.105-1.167c-0.069-0.361-0.184-0.674-0.344-0.938c-0.16-0.264-0.375-0.469-0.646-0.615
		c-0.271-0.146-0.601-0.219-0.99-0.219c-0.584,0-0.99,0.111-1.22,0.334c-0.229,0.222-0.344,0.465-0.344,0.729V16.707L66.585,16.707z
		 M77.049,14.81c0.055,0.764,0.292,1.4,0.708,1.907c0.417,0.507,1.078,0.761,1.981,0.761c0.348,0,0.653-0.038,0.918-0.115
		c0.264-0.077,0.5-0.17,0.708-0.281c0.209-0.111,0.389-0.233,0.542-0.365c0.153-0.132,0.292-0.254,0.417-0.365
		c0.166,0.209,0.34,0.476,0.521,0.803c0.18,0.327,0.271,0.594,0.271,0.803c0,0.306-0.174,0.583-0.521,0.834
		c-0.292,0.222-0.706,0.414-1.241,0.573c-0.534,0.16-1.164,0.24-1.886,0.24c-0.653,0-1.295-0.084-1.928-0.25
		c-0.633-0.167-1.195-0.459-1.688-0.876c-0.494-0.417-0.893-0.976-1.199-1.678c-0.306-0.702-0.459-1.588-0.459-2.658
		c0-0.876,0.136-1.629,0.407-2.262c0.27-0.632,0.632-1.157,1.083-1.574c0.452-0.417,0.962-0.723,1.532-0.917
		c0.57-0.195,1.153-0.292,1.751-0.292c0.779,0,1.438,0.121,1.981,0.365c0.542,0.243,0.983,0.57,1.324,0.98
		c0.34,0.41,0.587,0.879,0.74,1.407s0.229,1.084,0.229,1.668c0,0.083,0,0.181,0,0.292c0,0.111-0.003,0.229-0.01,0.354
		c-0.007,0.125-0.014,0.247-0.021,0.365c-0.007,0.118-0.017,0.212-0.031,0.281H77.049L77.049,14.81z M80.675,13.247
		c0-0.667-0.128-1.209-0.386-1.626c-0.257-0.417-0.719-0.625-1.386-0.625c-0.569,0-1.025,0.198-1.365,0.594
		c-0.34,0.396-0.511,0.948-0.511,1.657H80.675L80.675,13.247z M86.929,14.81c0.055,0.764,0.291,1.4,0.709,1.907
		c0.417,0.507,1.077,0.761,1.98,0.761c0.348,0,0.654-0.038,0.918-0.115c0.264-0.077,0.5-0.17,0.709-0.281
		c0.208-0.111,0.389-0.233,0.542-0.365c0.153-0.132,0.292-0.254,0.417-0.365c0.167,0.209,0.341,0.476,0.521,0.803
		c0.181,0.327,0.271,0.594,0.271,0.803c0,0.306-0.174,0.583-0.521,0.834c-0.292,0.222-0.705,0.414-1.24,0.573
		c-0.535,0.16-1.164,0.24-1.886,0.24c-0.654,0-1.296-0.084-1.929-0.25c-0.632-0.167-1.195-0.459-1.688-0.876
		c-0.493-0.417-0.892-0.976-1.199-1.678c-0.305-0.702-0.459-1.588-0.459-2.658c0-0.876,0.136-1.629,0.407-2.262
		c0.271-0.632,0.633-1.157,1.084-1.574c0.451-0.417,0.962-0.723,1.532-0.917c0.57-0.195,1.154-0.292,1.752-0.292
		c0.778,0,1.438,0.121,1.98,0.365c0.542,0.243,0.983,0.57,1.324,0.98c0.341,0.41,0.587,0.879,0.741,1.407
		c0.153,0.528,0.229,1.084,0.229,1.668c0,0.083,0,0.181,0,0.292c0,0.111-0.003,0.229-0.011,0.354
		c-0.007,0.125-0.014,0.247-0.021,0.365c-0.006,0.118-0.017,0.212-0.031,0.281H86.929L86.929,14.81z M90.556,13.247
		c0-0.667-0.129-1.209-0.386-1.626c-0.257-0.417-0.719-0.625-1.386-0.625c-0.57,0-1.025,0.198-1.366,0.594
		c-0.34,0.396-0.511,0.948-0.511,1.657H90.556L90.556,13.247z M100.728,11.871c-0.111-0.111-0.302-0.243-0.573-0.396
		c-0.27-0.153-0.587-0.229-0.948-0.229c-0.723,0-1.257,0.264-1.605,0.792c-0.348,0.528-0.521,1.285-0.521,2.272
		c0,0.486,0.035,0.928,0.104,1.324c0.07,0.396,0.188,0.733,0.355,1.011c0.166,0.278,0.389,0.493,0.667,0.646
		c0.278,0.153,0.633,0.229,1.063,0.229c0.404,0,0.747-0.083,1.032-0.25c0.285-0.167,0.427-0.403,0.427-0.709V11.871L100.728,11.871z
		 M101.708,19.25c-0.236,0-0.424-0.08-0.563-0.24c-0.14-0.16-0.209-0.365-0.209-0.615c-0.195,0.236-0.525,0.48-0.99,0.73
		c-0.466,0.25-1.06,0.375-1.782,0.375c-0.514,0-1.011-0.083-1.491-0.25c-0.479-0.167-0.906-0.445-1.281-0.834
		c-0.375-0.389-0.674-0.907-0.896-1.553c-0.223-0.646-0.334-1.449-0.334-2.408c0-0.959,0.115-1.779,0.344-2.46
		c0.229-0.681,0.535-1.233,0.917-1.657c0.382-0.424,0.82-0.737,1.314-0.938c0.493-0.202,1.01-0.302,1.553-0.302
		c0.625,0,1.139,0.108,1.542,0.323c0.404,0.215,0.702,0.427,0.896,0.636v-3.84c0.097-0.028,0.244-0.049,0.438-0.063
		c0.195-0.014,0.369-0.021,0.521-0.021c0.222,0,0.448,0.021,0.677,0.063c0.23,0.042,0.434,0.125,0.615,0.25
		c0.181,0.125,0.323,0.295,0.428,0.511c0.104,0.215,0.156,0.497,0.156,0.844V19.25H101.708L101.708,19.25z"/>
	<path fill="#024F7D" d="M105.253,19.173c-0.274-0.301-0.411-0.671-0.411-1.11s0.144-0.798,0.431-1.079
		c0.287-0.281,0.65-0.421,1.089-0.421c0.439,0,0.801,0.14,1.089,0.421c0.288,0.281,0.432,0.64,0.432,1.079s-0.137,0.805-0.411,1.099
		c-0.274,0.295-0.644,0.442-1.11,0.442C105.91,19.604,105.54,19.46,105.253,19.173L105.253,19.173z M108.992,9.576
		c0.041-0.014,0.154-0.031,0.339-0.052c0.185-0.02,0.387-0.031,0.606-0.031c0.219,0,0.439,0.02,0.658,0.062
		c0.219,0.041,0.418,0.12,0.596,0.236c0.178,0.116,0.322,0.281,0.432,0.493c0.109,0.212,0.164,0.49,0.164,0.832v8.302
		c-0.055,0.027-0.178,0.048-0.37,0.061c-0.192,0.014-0.397,0.02-0.616,0.02c-0.274,0-0.521-0.024-0.74-0.072
		c-0.219-0.048-0.408-0.137-0.565-0.267c-0.158-0.13-0.281-0.305-0.369-0.524c-0.089-0.219-0.134-0.5-0.134-0.842V9.576
		L108.992,9.576z M108.989,7.337c0-0.438,0.144-0.798,0.431-1.079c0.288-0.281,0.644-0.421,1.069-0.421
		c0.411,0,0.764,0.141,1.058,0.421c0.295,0.281,0.443,0.641,0.443,1.079c0,0.439-0.148,0.795-0.443,1.069
		c-0.294,0.274-0.647,0.411-1.058,0.411c-0.425,0-0.78-0.137-1.069-0.411C109.133,8.132,108.989,7.776,108.989,7.337L108.989,7.337z
		 M114.089,18.063c-0.383-0.48-0.664-1.031-0.842-1.654c-0.179-0.623-0.267-1.278-0.267-1.962c0-0.699,0.102-1.36,0.308-1.983
		c0.205-0.623,0.511-1.172,0.914-1.644c0.404-0.473,0.914-0.846,1.532-1.12c0.616-0.274,1.336-0.411,2.158-0.411
		c0.863,0,1.599,0.137,2.209,0.411c0.61,0.274,1.103,0.644,1.48,1.109c0.377,0.466,0.65,1.007,0.822,1.623
		c0.171,0.616,0.257,1.267,0.257,1.952c0,0.685-0.086,1.343-0.257,1.973c-0.171,0.63-0.452,1.185-0.842,1.664
		c-0.391,0.48-0.894,0.863-1.51,1.151c-0.616,0.288-1.363,0.431-2.24,0.431c-0.877,0-1.62-0.14-2.23-0.421
		C114.969,18.902,114.473,18.529,114.089,18.063L114.089,18.063z M116.802,17.241c0.274,0.178,0.609,0.267,1.007,0.267
		c0.411,0,0.75-0.089,1.017-0.267c0.267-0.178,0.476-0.415,0.627-0.709c0.151-0.295,0.253-0.627,0.309-0.997
		c0.054-0.37,0.082-0.747,0.082-1.13c0-0.37-0.028-0.736-0.082-1.099c-0.055-0.363-0.158-0.682-0.309-0.956
		c-0.151-0.274-0.356-0.497-0.616-0.668c-0.261-0.171-0.59-0.257-0.987-0.257s-0.729,0.089-0.996,0.267
		c-0.267,0.178-0.48,0.408-0.637,0.688c-0.158,0.281-0.27,0.599-0.339,0.956c-0.069,0.356-0.103,0.719-0.103,1.089
		c0,0.37,0.031,0.74,0.093,1.109c0.062,0.37,0.168,0.702,0.318,0.997C116.336,16.826,116.541,17.063,116.802,17.241L116.802,17.241z
		"/>
</g>
</svg>
