<?xml version="1.0" encoding="utf-8"?>
<!-- Generator: Adobe Illustrator 18.1.1, SVG Export Plug-In . SVG Version: 6.00 Build 0)  -->
<svg version="1.1" id="Layer_1" xmlns="http://www.w3.org/2000/svg" xmlns:xlink="http://www.w3.org/1999/xlink" x="0px" y="0px"
	 viewBox="0 0 601.2 82.6" enable-background="new 0 0 601.2 82.6" xml:space="preserve">
<path fill-rule="evenodd" clip-rule="evenodd" fill="#010101" d="M67.5,16.9l0.9-2.5l0,0c0.5-1.5,1.1-2.9,1.6-4.4
	c0.4-1.2,0.7-2.6,0-3.7c-0.7-1.2-2.1-1.5-3.4-1.5c-1.8-0.1-3.8,0.2-5.6,0.4l-6,0.8C50,2.3,43.7,0,36.8,0c-6.9,0-13.2,2.3-18.3,6.1
	l-6-0.8C10.7,5,8.7,4.7,6.9,4.8C5.6,4.9,4.2,5.2,3.5,6.3c-0.7,1.1-0.4,2.5,0,3.7C4,11.5,4.6,13,5.1,14.4l0,0L7.6,21
	C6.6,24,6,27.3,6,30.8c0,6,1.7,11.6,5.7,16.2c0.4,0.4,0.8,0.9,1.2,1.3l0,0.1c-2,0.2-4-0.7-5.1-2.4c-0.2-0.2-0.2-0.7-0.3-0.9
	c-0.1-0.4-0.3-0.8-0.5-1.2c-1.1-1.8-3.5-2.3-5.3-1.1c-2,1.3-2.1,3.5-1.1,5.5c0.2,0.5,0.5,0.9,0.8,1.4c2.7,4.3,7.8,6.1,12.5,5
	c0.2,0.5,0.4,1.1,0.6,1.5c-0.8,0.1-1.6,0.1-2.3,0l-1-0.2l-0.4,0.9c-0.8,1.9-1.1,3.9-0.9,5.9l0.1,0.9l4.3,5c-0.1,0-0.1,0.1-0.2,0.1
	l-1.8,0.6l1.2,1.3c0.1,0.2,0.3,0.3,0.5,0.5l4.4,4.8l0.1,0.1l0.1,0.1l0.1,0.1l0.1,0.1l0.1,0.1l0.1,0.1l0.1,0.1l0.1,0.1l0.1,0.1
	l0.1,0.1l0.1,0.1l0.1,0.1l0.1,0.1l0.1,0.1l0.1,0.1l0.1,0.1l0.2,0.1l0.2,0.1l0.2,0.1l0.2,0.1l0.2,0.1l0.2,0.1l0.2,0.1l0.2,0.1
	l0.2,0.1l0.2,0.1l0.2,0.1l0.2,0.1l0.2,0.1l0.2,0.1l0.2,0.1l0.6,0.3l0.2,0.1l0.8-0.8l0.1-0.1l0.1-0.1l0.1-0.1l0.1-0.1l0.1-0.1
	l0.1-0.1l0.1-0.1l0.1-0.1l0.1-0.1l0.2-0.1l0.2-0.1l0.2-0.1l0.2-0.1l0.2,0l0.2,0l0.2,0l0.2,0l0.2,0l0.2,0l0.2,0l0.2,0l0.2,0l0.2,0
	l0.2,0l0.2,0l0.2,0l0.2,0l0.2,0l0.2,0l0.2,0l0.2,0l0.1,0l2,4.1l0.9,0.1l0.2,0l0.2,0l0.2,0l0.2,0l0.2,0l0.2,0l0.2,0l0.2,0l0.2,0
	l0.2,0l0.2,0l0.2,0l0.2,0l0.2,0l0.2,0l0.2,0l0.2,0l0.2,0l0.1,0l0.1,0l0.2,0l0.2,0l0.2,0l0.2,0l0.2,0l0.2,0l0.2,0l0.2,0l0.2,0l0.2,0
	l0.2,0l0.2,0l0.2,0l0.2,0l0.2,0l0.2,0l0.2,0l0.2,0l0.9-0.1l2-4c0.2-0.2,0.3-0.2,0.5-0.3l0.2,0l0.2,0l0.2,0l0.2,0l0.2,0l0.2,0l0.2,0
	l0.2,0l0.2,0l0.2,0l0.2,0l0.2,0l0.2,0l0.2,0l0.2,0l0.2,0l0.2,0.1l0.2,0.1l0.2,0.1l0.2,0.1l0.1,0.1l0.1,0.1l0.1,0.1l0.1,0.1l0.1,0.1
	l0.1,0.1l0.1,0.1l0.1,0.1l0.1,0.1l0.8,0.8l0.2-0.1l0.5-0.3l0.2-0.1l0.2-0.1l0.2-0.1l0.2-0.1l0.2-0.1l0.2-0.1l0.2-0.1l0.2-0.1
	l0.2-0.1l0.2-0.1l0.2-0.1l0.2-0.1l0.2-0.1l0.2-0.1l0.2-0.1l0.2-0.1l0.1-0.1l0.1-0.1l0.1-0.1l0.1-0.1l0.1-0.1l0.1-0.1l0.1-0.1
	l0.1-0.1l0.1-0.1l0.1-0.1l0.1-0.1l0.1-0.1l0.1-0.1l0.1-0.1l0.1-0.1l4.4-4.8c0.2-0.2,0.3-0.3,0.5-0.5l1.2-1.3l-1.8-0.6
	c-0.1,0-0.1-0.1-0.2-0.1l4.3-5l0.1-0.9c0-0.2,0-0.4,0-0.6c3.3,1.1,7.1,1.5,9.6,0.4c0.1,0,0.2-0.1,0.2-0.2c1.9-0.9,3-2.7,3.5-4.7
	c0.5-2.1,0.4-4.5-0.3-6.5c-0.6-1.7-1.6-3.4-2.9-4.6c-1.3-1.1-2.9-1.9-4.6-1.8c-0.1,0-0.3,0-0.4,0l-1.2-2.2c3.6-3.2,5.6-7.8,5.6-12.6
	C73.5,24.6,71.2,20,67.5,16.9L67.5,16.9z M62.3,46.5c0.2-0.3,0.5-0.6,0.7-0.8l1.4,2.7c-0.2,0.2-0.5,0.2-0.7,0.2
	C62.9,48.4,62.4,47.2,62.3,46.5L62.3,46.5z"/>
<path fill-rule="evenodd" clip-rule="evenodd" fill="#FFFFFF" d="M6.6,46.7c1.4,2.2,3.8,3.3,6.2,3.1c0,1,0.2,2.1,0.6,3.2
	c-4,0.9-8.4-0.8-10.7-4.4c-0.9-1.4-2-3.5-0.1-4.7c1.1-0.7,2.5-0.4,3.2,0.7C6.2,45.3,6.1,46,6.6,46.7L6.6,46.7z"/>
<path fill-rule="evenodd" clip-rule="evenodd" fill="#70953D" d="M58,68.4l4.6-5.3l0,0c-1.2-0.2-2.5-0.2-3.7,0.2
	c-1.2,0.4-2.4,1.3-2.4,2.6C56.4,67,57.1,67.8,58,68.4L58,68.4z"/>
<path fill-rule="evenodd" clip-rule="evenodd" fill="#DBB127" d="M56,73.4c-1.4,1.7-2.8,3.1-4.7,4.3l2.3-2.9l0,0
	C54.5,74.3,55.3,73.9,56,73.4L56,73.4z M22.3,77.7c-1.8-1.2-3.2-2.6-4.7-4.3c0.8,0.5,1.6,1,2.4,1.4L22.3,77.7L22.3,77.7z M23.5,78.4
	L23.5,78.4l-3.1-3.9c1.5-1.6,4.2-2.2,6.4-1.8l2.2,4.1l0,0C27,76.5,24.9,76.9,23.5,78.4L23.5,78.4z M27.4,72.8c1.8,0.5,4,2.2,3,4.4
	c-0.3-0.1-0.6-0.2-0.8-0.3L27.4,72.8L27.4,72.8z M42.7,78.1l-1.4,3c-3,0.4-6,0.4-9,0l-1.4-3C34.8,78.6,38.9,78.6,42.7,78.1
	L42.7,78.1z M43.8,77c-0.2,0.1-0.4,0.1-0.6,0.2c-0.9-2,0.9-3.7,2.7-4.3L43.8,77L43.8,77z M50.2,78.4c-1.4-1.5-3.6-1.9-5.6-1.6
	l-0.1,0l2.1-4.1c2.2-0.5,5.1,0,6.7,1.7L50.2,78.4L50.2,78.4z"/>
<path fill-rule="evenodd" clip-rule="evenodd" fill="#B92025" d="M15.7,68.4l-4.6-5.3l0,0c1.2-0.2,2.5-0.2,3.7,0.2
	c1.2,0.4,2.4,1.3,2.4,2.6C17.2,67,16.6,67.8,15.7,68.4L15.7,68.4z"/>
<path fill-rule="evenodd" clip-rule="evenodd" fill="#9ACA3C" d="M58.3,70.8c0.4-0.3,0.7-0.7,1-1.1c-2.7-1-4.1-3.1-3.2-5
	c0.9-1.8,3.7-2.8,6.5-2.2c0-0.3,0-0.6,0-0.9c-2.1-0.9-4-2-5-3.2c-0.6-0.7-1.1-1.4-1.5-2.1c-0.3-0.2-0.5-0.4-0.8-0.6
	c-1.6,1.9-3.3,3.5-5.1,4.8l0,0.1c-0.4,0.8-0.9,1.7-1.4,2.5c-0.2,0.9-0.7,1.8-1.4,2.6L58.3,70.8L58.3,70.8z"/>
<path fill-rule="evenodd" clip-rule="evenodd" fill="#ED2224" d="M14.9,57.2c-1,0.2-2.1,0.2-3.1,0c-0.7,1.8-1,3.5-0.8,5.3
	c2.8-0.5,5.6,0.4,6.5,2.2c0.9,1.9-0.5,4-3.2,5c0.4,0.5,0.9,1,1.4,1.4l10.7-5.3c-0.8-0.8-1.4-1.7-1.7-2.7c-0.1-0.2-0.2-0.3-0.3-0.5
	c-0.8,0.6-1.9,0.8-2.9,0.6c-3.5-0.4-5.1-2.7-6.4-5.6C15.1,57.5,15,57.4,14.9,57.2L14.9,57.2z"/>
<path fill-rule="evenodd" clip-rule="evenodd" fill="#FFCD05" d="M36.8,77.8c1.9,0,3.9-0.1,5.9-0.3c-1-2.1,0.4-4.4,3.2-5.2
	c2.8-0.9,6.2-0.1,7.8,1.8c1.5-0.8,2.8-1.7,4-2.7L47,66.1c-2.2,2.1-5.9,3.5-10.1,3.5c-4,0-7.6-1.3-9.8-3.2l-10.7,5.3
	c1,0.9,2.2,1.7,3.6,2.4c1.7-1.8,5-2.6,7.8-1.8c2.9,0.9,4.2,3.1,3.2,5.2C32.9,77.8,34.9,77.9,36.8,77.8L36.8,77.8z"/>
<path fill-rule="evenodd" clip-rule="evenodd" fill="#0795D1" d="M17.6,51.8c9.9,15.1,28.4,15.1,38.3,0c-5.7,3.4-12.6,4.7-19.2,4.7
	C30.3,56.5,23.3,55.2,17.6,51.8L17.6,51.8z"/>
<path fill-rule="evenodd" clip-rule="evenodd" fill="#02527D" d="M17.6,51.8c4.8,7.3,11.5,11,18.4,11.3c0.4,0,0.9,0,1.3-0.1
	c-5.8-0.6-11.4-3.7-15.7-9.2C20.2,53.2,18.9,52.6,17.6,51.8L17.6,51.8z"/>
<path fill-rule="evenodd" clip-rule="evenodd" fill="#FFFFFF" d="M36.8,1.8c6.4,0,12.4,2.1,17.2,5.7l4.6-0.4c2-0.3,4.1-0.6,6.1-0.8
	c6.2-0.4,4.4,1.7,2.3,7.6l-0.8,2c-1.1-0.8-2.4-1.5-3.7-2c-0.4-0.5-0.7-1.1-1.1-1.6c0.1-0.2,0.3-0.3,0.4-0.5c1.9-2.1,4.1-3.6,6.3-4.4
	c-3.9-0.3-6.6,2.6-8.6,5.4c0.1,0.1,0.1,0.2,0.2,0.3c-1.1-0.2-2.1-0.3-3.2-0.3c-9.4,0-17,7.6-17,17c0,9.4,7.6,17,17,17
	c1.1,0,2.2-0.1,3.3-0.3c-5.3,5.5-13.6,8.2-23,8.2c-16,0-28.9-7.9-28.9-23.9c0-6.8,2.3-13.1,6.3-18c-1.9-2.8-4.8-5.9-8.7-5.3
	c2.2,0.7,4.4,2.2,6.3,4.4c0.1,0.2,0.3,0.3,0.4,0.5c-1.5,2-2.7,4.2-3.7,6.5l-1.9-4.9c-2-5.8-3.8-8,2.2-7.6c1.9,0.1,3.7,0.4,5.5,0.6
	c1.8,0.3,3.6,0.4,5.4,0.5C24.4,3.9,30.4,1.8,36.8,1.8L36.8,1.8z M56.5,18.8c-6.1,0-11,4.9-11,11c0,6.1,4.9,11,11,11
	c6.1,0,11-4.9,11-11C67.5,23.7,62.6,18.8,56.5,18.8L56.5,18.8z"/>
<path fill-rule="evenodd" clip-rule="evenodd" fill="#E8E8E8" d="M26.6,53.5c-11-2.8-18.8-10.3-18.8-22.7c0-2.7,0.4-5.3,1-7.7l0,0
	c1-3.7,2.8-7.2,5.2-10.2l0,0c-1.9-2.8-4.8-5.9-8.7-5.3c2.2,0.7,4.4,2.2,6.3,4.4c0.1,0.2,0.3,0.3,0.4,0.5c-1.5,2-2.7,4.2-3.7,6.5
	l-1.9-4.9c-2-5.8-3.8-8,2.2-7.6c1.9,0.1,3.7,0.4,5.5,0.6c1.8,0.3,3.6,0.4,5.4,0.5c0.4-0.3,0.8-0.6,1.2-0.8l0,0
	c2.8-1.8,5.8-3.2,9.2-4C19.6,7.4,12.4,18.3,12.4,30.9C12.4,42.2,18.1,49.7,26.6,53.5L26.6,53.5z"/>
<path fill="#010101" d="M39.9,43.7c0.9,0.1,2.3-0.8,3.2-1.5c1.1-0.8,0.9-0.3,0.3,0.5c-0.8,1-1.7,2.1-3,2.3c-0.4,0.1-0.8,0.1-1.2,0
	c-0.5-0.1-0.9-0.2-1.2-0.4c-0.6-0.3-1-0.4-1.5-0.4c-0.4,0-0.9,0.2-1.5,0.4c-0.3,0.1-0.7,0.3-1.2,0.4c-0.4,0.1-0.8,0.1-1.2,0
	c-1.3-0.2-2.2-1.3-3-2.3c-0.7-0.9-0.6-1.2,0.3-0.5c0.9,0.7,2.2,1.6,3.2,1.5c0.9-0.1,1.7-0.3,2.2-0.6c0.5-0.3,0.7-0.8,0.5-1.6
	c0-0.1,0-0.2,0-0.3c-1.6-1.6-3.3-1.1-3.9-2.1c-0.3-0.5-0.2-1.1,0.2-1.5c1.3-1.6,7.4-1.6,8.7,0c0.4,0.5,0.5,1,0.2,1.5
	c-0.6,0.9-2.2,0.5-3.7,2c0,0.2,0,0.3-0.1,0.4c-0.2,0.8,0,1.3,0.5,1.6c0,0,0,0,0,0C38.2,43.4,39,43.6,39.9,43.7L39.9,43.7z"/>
<path fill-rule="evenodd" clip-rule="evenodd" fill="#ED2224" d="M66.3,42.1l1.5,2.9c-0.1,0-0.2,0.1-0.3,0.1c-1,0.5-1.8,1.2-2.4,2
	l-1.7-3.2c-2.1,1-4.4,1.6-6.9,1.6c-8.7,0-15.7-7-15.7-15.7c0-8.7,7-15.7,15.7-15.7c8.7,0,15.7,7,15.7,15.7
	C72.2,34.8,69.9,39.2,66.3,42.1L66.3,42.1z M56.5,17.6c6.7,0,12.2,5.5,12.2,12.2c0,6.7-5.5,12.2-12.2,12.2
	c-6.7,0-12.2-5.5-12.2-12.2C44.3,23.1,49.8,17.6,56.5,17.6L56.5,17.6z"/>
<path fill-rule="evenodd" clip-rule="evenodd" fill="#9A1B1F" d="M65.1,47.1l-1.7-3.2c0.4-0.2,0,0,0.5-0.2l1.6,2.9
	C65.3,46.8,65.2,47,65.1,47.1L65.1,47.1z M57.3,45.5c-0.3,0-0.5,0-0.8,0c-8.7,0-15.7-7-15.7-15.7c0-8.7,7-15.7,15.7-15.7
	c0.3,0,0.5,0,0.8,0C36.5,15.3,35.8,44.2,57.3,45.5L57.3,45.5z M57.3,17.6c6.4,0.4,11.4,5.7,11.4,12.2c0,6.5-5,11.8-11.4,12.2
	c0.3,0,0.5,0.1,0.8,0c15.7-2.1,14.6-23.2,0-24.4C57.8,17.6,57.6,17.6,57.3,17.6L57.3,17.6z"/>
<path fill-rule="evenodd" clip-rule="evenodd" fill="#FFFFFF" d="M75.2,51.6c1.3,3.8,0.2,7.9-2.3,9c-2.5,1.2-5.7-1-6.9-4.8
	c-1.3-3.8-0.2-7.9,2.3-9C70.8,45.6,73.9,47.8,75.2,51.6L75.2,51.6z M60.6,47.3c0.6,2.1,1.8,3.1,3.2,3.1c-0.4,2-0.2,4.1,0.4,6
	c0.6,1.7,1.6,3.4,2.9,4.6c0,0,0.1,0.1,0.1,0.1c-5.3-0.6-8.8-3.4-10.3-7.6c0.8-1.1,1.5-2.3,2.2-3.6l1.1-2.1L60.6,47.3L60.6,47.3z"/>
<path fill-rule="evenodd" clip-rule="evenodd" fill="#D2D3D4" d="M69.5,60.4c-1.5-0.8-2.8-2.4-3.6-4.6c-1.2-3.6-0.3-7.5,2-8.9
	c-1.6,2.2-2,5.8-0.8,9.3C67.6,58,68.5,59.4,69.5,60.4L69.5,60.4z"/>
<path fill-rule="evenodd" clip-rule="evenodd" fill="#010101" d="M56.5,23.4c0.4,0,0.8,0,1.2,0.1c-0.7,0.3-1.2,1.1-1.2,1.9
	c0,1.2,0.9,2.1,2.1,2.1c1.2,0,2.1-0.9,2.1-2.1c0-0.1,0-0.3,0-0.4c1.3,1.2,2.1,2.9,2.1,4.7c0,3.5-2.9,6.4-6.4,6.4
	c-3.5,0-6.4-2.9-6.4-6.4C50.1,26.3,53,23.4,56.5,23.4L56.5,23.4z"/>
<path fill-rule="evenodd" clip-rule="evenodd" fill="#010101" d="M25.4,28.3c3,0.8,5.2,3.3,5.6,6.2c-1.4-2.1-3.5-3.6-6.1-4.3
	c-2.6-0.7-5.2-0.4-7.5,0.7C19.3,28.6,22.4,27.5,25.4,28.3L25.4,28.3z"/>
<path fill-rule="evenodd" clip-rule="evenodd" fill="#0795D1" d="M60.6,47.3c0.5,1.6,1.3,2.6,2.2,2.9c-0.7,0.2-3.5,5.5-3.2,7.5
	c-1.2-1.2-2-2.6-2.6-4.2c0.8-1.1,1.5-2.3,2.2-3.6l1.1-2.1L60.6,47.3L60.6,47.3z"/>
<path fill-rule="evenodd" clip-rule="evenodd" fill="#FFFFFF" d="M38.8,64.8c2.4,2.1,5.4,1.3,8.1-2.3C44.3,63.8,41.6,64.6,38.8,64.8
	L38.8,64.8z"/>
<path fill-rule="evenodd" clip-rule="evenodd" fill="#FFFFFF" d="M34.8,64.8c-2.4,2.1-5.4,1.3-8.1-2.3C29.3,63.8,32,64.6,34.8,64.8
	L34.8,64.8z"/>
<path fill-rule="evenodd" clip-rule="evenodd" fill="#FFFFFF" d="M21.8,61.4c-2.8-0.3-4-2.4-4.9-4.5c-1.3-2.9-2-5-2.2-6.5
	c2.4,4.5,5.5,7.9,9,10.3C23.5,61.3,22.9,61.5,21.8,61.4L21.8,61.4z"/>
<path fill-rule="evenodd" clip-rule="evenodd" fill="#0795D1" d="M17.1,57.4c-0.1-0.2-0.2-0.3-0.2-0.5c-1.3-2.9-2-5-2.2-6.5
	c1.3,2.4,2.8,4.6,4.5,6.4l-0.1,0C18.5,57.1,17.8,57.3,17.1,57.4L17.1,57.4z"/>
<path fill-rule="evenodd" clip-rule="evenodd" fill="#BDBEC0" d="M12.1,12.4c-0.8,1.1-1.6,2.3-2.3,3.5C9.1,13,8.2,10.2,5.9,7.7
	c2,0.8,4.1,2.2,5.8,4.2C11.9,12,12,12.2,12.1,12.4L12.1,12.4z"/>
<path fill="#FFFFFF" d="M90.1,55.6c0.9,0.5,2,1.1,3.2,1.6c1.2,0.5,2.4,0.9,3.8,1.3c1.3,0.3,2.7,0.5,4.1,0.5c0.9,0,1.8-0.1,2.7-0.2
	c0.9-0.1,1.8-0.4,2.5-0.8c0.7-0.4,1.3-0.9,1.8-1.6c0.5-0.7,0.7-1.5,0.7-2.6c0-1.9-0.8-3.3-2.3-4.2c-1.5-0.8-3.8-1.6-6.8-2.2
	c-1.9-0.4-3.8-0.9-5.6-1.6c-1.8-0.7-3.4-1.6-4.8-2.7C87.9,42,86.8,40.6,86,39c-0.8-1.7-1.3-3.7-1.3-6.1s0.5-4.5,1.6-6.3
	c1.1-1.8,2.5-3.3,4.3-4.6c1.8-1.3,3.8-2.2,6.2-2.9c2.3-0.6,4.8-1,7.3-1c2.7,0,5.1,0.2,7.2,0.6c2.1,0.4,3.9,0.9,5.5,1.6
	c2.9,1.2,4.5,2.8,4.6,4.7c0,1-0.3,2.2-1,3.6c-0.6,1.4-1.3,2.7-2.1,3.9c-0.7-0.5-1.5-1.1-2.5-1.7c-1-0.6-2.1-1.1-3.3-1.6
	c-1.2-0.5-2.5-0.9-3.8-1.3c-1.3-0.3-2.6-0.5-4-0.5c-0.7,0-1.5,0.1-2.3,0.2c-0.8,0.1-1.5,0.3-2.2,0.6c-0.6,0.3-1.2,0.7-1.6,1.3
	c-0.4,0.6-0.7,1.3-0.7,2.3c0,2.3,2.4,3.9,7.3,5c2,0.4,4,0.9,6,1.6c2,0.6,3.7,1.5,5.3,2.7c1.6,1.1,2.8,2.6,3.8,4.3
	c1,1.7,1.5,3.9,1.5,6.5c0,2.7-0.5,5-1.6,7.1c-1,2.1-2.5,3.8-4.3,5.2c-1.8,1.4-3.9,2.5-6.4,3.2c-2.4,0.7-5.1,1.1-8,1.1
	c-2.9,0-5.4-0.2-7.5-0.7c-2-0.4-3.7-1-5.1-1.6c-0.9-0.4-2-1-3.1-1.8c-1.1-0.8-1.7-1.8-1.7-3.2c0-1.1,0.3-2.3,1-3.6
	c0.7-1.2,1.4-2.5,2.3-3.9C88.5,54.4,89.3,55,90.1,55.6L90.1,55.6z M132.9,2.1c3.9,0,7.1,3.2,7.1,7.1c0,3.9-3.2,7.1-7.1,7.1
	c-3.9,0-7.1-3.2-7.1-7.1C125.8,5.2,128.9,2.1,132.9,2.1L132.9,2.1z M126.4,19.5c0.2-0.1,0.8-0.1,1.7-0.3c0.9-0.1,1.9-0.2,3-0.2
	c1.1,0,2.1,0.1,3.2,0.3c1.1,0.2,2,0.6,2.9,1.2c0.9,0.6,1.6,1.4,2.1,2.4c0.5,1,0.8,2.4,0.8,4.1v40.5c-0.3,0.1-0.9,0.2-1.8,0.3
	c-0.9,0.1-1.9,0.1-3,0.1c-1.3,0-2.5-0.1-3.6-0.4c-1.1-0.2-2-0.7-2.8-1.3c-0.8-0.6-1.4-1.5-1.8-2.6c-0.4-1.1-0.7-2.4-0.7-4.1V19.5
	L126.4,19.5z M146.5,4.6c0.5-0.1,1-0.1,1.5-0.2c0.5-0.1,1-0.1,1.5-0.2c0.5,0,1.1,0,1.6,0c1.1,0,2.1,0.1,3.2,0.3
	c1.1,0.2,2,0.6,2.9,1.2c0.9,0.6,1.6,1.4,2.1,2.5c0.5,1,0.8,2.4,0.8,4.1v7h14v10.2h-14v21.5c0,4.7,1.9,7,5.7,7c0.9,0,1.8-0.2,2.7-0.5
	c0.8-0.3,1.6-0.6,2.3-1c0.7-0.4,1.3-0.8,1.8-1.2c0.5-0.4,0.9-0.7,1.1-0.9c1,1.5,1.8,2.7,2.3,3.8c0.5,1.1,0.8,2.1,0.8,3
	c0,0.9-0.3,1.7-1.1,2.6c-0.7,0.8-1.7,1.6-3,2.3c-1.3,0.7-2.8,1.3-4.6,1.7c-1.8,0.4-3.8,0.7-5.9,0.7c-4.1,0-7.4-0.8-9.7-2.4
	c-2.3-1.6-3.9-3.7-4.9-6.3c-0.5-1.3-0.8-2.7-0.9-4.2c-0.1-1.5-0.2-2.9-0.2-4.4V4.6L146.5,4.6z M191.8,45.6c0.3,3.7,1.4,6.7,3.4,9.2
	c2,2.4,5.2,3.7,9.5,3.7c1.7,0,3.1-0.2,4.4-0.6c1.3-0.4,2.4-0.8,3.4-1.4c1-0.5,1.9-1.1,2.6-1.8c0.7-0.6,1.4-1.2,2-1.8
	c0.8,1,1.6,2.3,2.5,3.9c0.9,1.6,1.3,2.9,1.3,3.9c0,1.5-0.8,2.8-2.5,4c-1.4,1.1-3.4,2-6,2.8c-2.6,0.8-5.6,1.2-9.1,1.2
	c-3.1,0-6.2-0.4-9.3-1.2c-3-0.8-5.7-2.2-8.1-4.2c-2.4-2-4.3-4.7-5.8-8.1c-1.5-3.4-2.2-7.6-2.2-12.8c0-4.2,0.7-7.8,2-10.9
	c1.3-3,3-5.6,5.2-7.6c2.2-2,4.6-3.5,7.4-4.4c2.7-0.9,5.5-1.4,8.4-1.4c3.7,0,6.9,0.6,9.5,1.8c2.6,1.2,4.7,2.7,6.4,4.7
	c1.6,2,2.8,4.2,3.6,6.8c0.7,2.5,1.1,5.2,1.1,8c0,0.4,0,0.9,0,1.4c0,0.5,0,1.1-0.1,1.7c0,0.6-0.1,1.2-0.1,1.8c0,0.6-0.1,1-0.2,1.4
	H191.8L191.8,45.6z M209.3,38.1c0-3.2-0.6-5.8-1.9-7.8c-1.2-2-3.5-3-6.7-3c-2.7,0-4.9,1-6.6,2.9c-1.6,1.9-2.5,4.6-2.5,8H209.3
	L209.3,38.1z"/>
<path fill="#FFFFFF" d="M231.4,55.6c0.9,0.5,2,1.1,3.2,1.6c1.2,0.5,2.4,0.9,3.8,1.3c1.3,0.3,2.7,0.5,4.1,0.5c0.9,0,1.8-0.1,2.7-0.2
	c0.9-0.1,1.8-0.4,2.5-0.8c0.7-0.4,1.3-0.9,1.8-1.6c0.5-0.7,0.7-1.5,0.7-2.6c0-1.9-0.8-3.3-2.3-4.2c-1.5-0.8-3.8-1.6-6.8-2.2
	c-1.9-0.4-3.8-0.9-5.6-1.6c-1.8-0.7-3.4-1.6-4.8-2.7c-1.4-1.1-2.5-2.5-3.4-4.2c-0.8-1.7-1.3-3.7-1.3-6.1s0.5-4.5,1.6-6.3
	c1.1-1.8,2.5-3.3,4.3-4.6c1.8-1.3,3.8-2.2,6.2-2.9c2.3-0.6,4.8-1,7.3-1c2.7,0,5.1,0.2,7.2,0.6c2.1,0.4,3.9,0.9,5.5,1.6
	c2.9,1.2,4.5,2.8,4.6,4.7c0,1-0.3,2.2-1,3.6c-0.6,1.4-1.3,2.7-2.1,3.9c-0.7-0.5-1.5-1.1-2.5-1.7c-1-0.6-2.1-1.1-3.3-1.6
	c-1.2-0.5-2.5-0.9-3.8-1.3c-1.3-0.3-2.6-0.5-4-0.5c-0.7,0-1.5,0.1-2.3,0.2c-0.8,0.1-1.5,0.3-2.2,0.6c-0.6,0.3-1.2,0.7-1.6,1.3
	c-0.4,0.6-0.7,1.3-0.7,2.3c0,2.3,2.4,3.9,7.3,5c2,0.4,4,0.9,6,1.6c2,0.6,3.7,1.5,5.3,2.7c1.6,1.1,2.8,2.6,3.8,4.3
	c1,1.7,1.5,3.9,1.5,6.5c0,2.7-0.5,5-1.6,7.1c-1,2.1-2.5,3.8-4.3,5.2c-1.8,1.4-3.9,2.5-6.4,3.2c-2.4,0.7-5.1,1.1-8,1.1
	c-2.9,0-5.4-0.2-7.5-0.7c-2-0.4-3.7-1-5.1-1.6c-0.9-0.4-2-1-3.1-1.8c-1.1-0.8-1.7-1.8-1.7-3.2c0-1.1,0.3-2.3,1-3.6
	c0.7-1.2,1.4-2.5,2.3-3.9C229.8,54.4,230.6,55,231.4,55.6L231.4,55.6z M267.9,19.5c0.3-0.1,0.7-0.1,1.2-0.2c0.4-0.1,0.9-0.1,1.4-0.1
	c0.5,0,1.2-0.1,1.9-0.1c2.2,0,4.1,0.4,5.6,1.1c1.5,0.7,2.5,2,2.9,3.7c1.1-1.3,2.7-2.6,5-3.9c2.3-1.3,5.1-2,8.6-2
	c2.5,0,4.8,0.4,7.1,1.3c2.2,0.8,4.2,2.2,6,4.1c1.7,1.9,3.1,4.3,4.2,7.4c1,3.1,1.6,6.9,1.6,11.3c0,5.2-0.6,9.5-1.8,12.9
	c-1.2,3.4-2.8,6-4.7,8c-1.9,2-4,3.4-6.4,4.2c-2.3,0.8-4.7,1.2-7,1.2c-1.9,0-3.6-0.2-5.1-0.7s-2.7-0.9-3.7-1.5
	c-1-0.5-1.8-1.1-2.3-1.6c-0.5-0.5-0.9-0.9-1-1.1v15.2h-13.5V19.5L267.9,19.5z M281.5,54.7c0.5,0.5,1.5,1.2,2.9,1.9
	c1.4,0.7,3,1.1,4.8,1.1c3.4,0,5.9-1.3,7.5-4c1.6-2.7,2.4-6.4,2.4-11.2c0-2-0.2-3.9-0.5-5.6c-0.3-1.7-0.9-3.2-1.7-4.5
	c-0.8-1.3-1.8-2.3-3.1-3c-1.3-0.7-2.9-1.1-4.8-1.1c-2.8,0-4.8,0.5-5.9,1.6c-1.1,1.1-1.7,2.2-1.7,3.5V54.7L281.5,54.7z M331.8,45.6
	c0.3,3.7,1.4,6.7,3.4,9.2c2,2.4,5.2,3.7,9.5,3.7c1.7,0,3.1-0.2,4.4-0.6c1.3-0.4,2.4-0.8,3.4-1.4c1-0.5,1.9-1.1,2.6-1.8
	c0.7-0.6,1.4-1.2,2-1.8c0.8,1,1.6,2.3,2.5,3.9c0.9,1.6,1.3,2.9,1.3,3.9c0,1.5-0.8,2.8-2.5,4c-1.4,1.1-3.4,2-6,2.8
	c-2.6,0.8-5.6,1.2-9.1,1.2c-3.1,0-6.2-0.4-9.3-1.2c-3-0.8-5.8-2.2-8.1-4.2c-2.4-2-4.3-4.7-5.8-8.1c-1.5-3.4-2.2-7.6-2.2-12.8
	c0-4.2,0.7-7.8,2-10.9c1.3-3,3-5.6,5.2-7.6c2.2-2,4.6-3.5,7.4-4.4c2.7-0.9,5.5-1.4,8.4-1.4c3.7,0,6.9,0.6,9.5,1.8
	c2.6,1.2,4.7,2.7,6.4,4.7c1.6,2,2.8,4.2,3.6,6.8c0.7,2.5,1.1,5.2,1.1,8c0,0.4,0,0.9,0,1.4c0,0.5,0,1.1-0.1,1.7
	c0,0.6-0.1,1.2-0.1,1.8c0,0.6-0.1,1-0.2,1.4H331.8L331.8,45.6z M349.3,38.1c0-3.2-0.6-5.8-1.9-7.8c-1.2-2-3.5-3-6.7-3
	c-2.7,0-4.9,1-6.6,2.9c-1.6,1.9-2.5,4.6-2.5,8H349.3L349.3,38.1z M379.4,45.6c0.3,3.7,1.4,6.7,3.4,9.2c2,2.4,5.2,3.7,9.5,3.7
	c1.7,0,3.1-0.2,4.4-0.6c1.3-0.4,2.4-0.8,3.4-1.4c1-0.5,1.9-1.1,2.6-1.8c0.7-0.6,1.4-1.2,2-1.8c0.8,1,1.6,2.3,2.5,3.9
	c0.9,1.6,1.3,2.9,1.3,3.9c0,1.5-0.8,2.8-2.5,4c-1.4,1.1-3.4,2-6,2.8c-2.6,0.8-5.6,1.2-9.1,1.2c-3.1,0-6.2-0.4-9.3-1.2
	c-3-0.8-5.8-2.2-8.1-4.2c-2.4-2-4.3-4.7-5.8-8.1c-1.5-3.4-2.2-7.6-2.2-12.8c0-4.2,0.7-7.8,2-10.9c1.3-3,3-5.6,5.2-7.6
	c2.2-2,4.6-3.5,7.4-4.4c2.7-0.9,5.5-1.4,8.4-1.4c3.7,0,6.9,0.6,9.5,1.8c2.6,1.2,4.7,2.7,6.4,4.7c1.6,2,2.8,4.2,3.6,6.8
	c0.7,2.5,1.1,5.2,1.1,8c0,0.4,0,0.9,0,1.4c0,0.5,0,1.1-0.1,1.7c0,0.6-0.1,1.2-0.1,1.8c0,0.6-0.1,1-0.2,1.4H379.4L379.4,45.6z
	 M396.8,38.1c0-3.2-0.6-5.8-1.9-7.8c-1.2-2-3.5-3-6.7-3c-2.7,0-4.9,1-6.6,2.9c-1.6,1.9-2.5,4.6-2.5,8H396.8L396.8,38.1z M445.8,31.4
	c-0.5-0.5-1.5-1.2-2.8-1.9c-1.3-0.7-2.8-1.1-4.6-1.1c-3.5,0-6.1,1.3-7.7,3.8c-1.7,2.5-2.5,6.2-2.5,10.9c0,2.3,0.2,4.5,0.5,6.4
	c0.3,1.9,0.9,3.5,1.7,4.9c0.8,1.3,1.9,2.4,3.2,3.1c1.3,0.7,3,1.1,5.1,1.1c1.9,0,3.6-0.4,5-1.2c1.4-0.8,2.1-1.9,2.1-3.4V31.4
	L445.8,31.4z M450.5,66.9c-1.1,0-2-0.4-2.7-1.2c-0.7-0.8-1-1.8-1-3c-0.9,1.1-2.5,2.3-4.8,3.5c-2.2,1.2-5.1,1.8-8.6,1.8
	c-2.5,0-4.9-0.4-7.2-1.2c-2.3-0.8-4.4-2.1-6.2-4c-1.8-1.9-3.2-4.4-4.3-7.5c-1.1-3.1-1.6-7-1.6-11.6c0-4.6,0.6-8.6,1.7-11.8
	c1.1-3.3,2.6-5.9,4.4-8c1.8-2,3.9-3.5,6.3-4.5c2.4-1,4.9-1.5,7.5-1.5c3,0,5.5,0.5,7.4,1.6c1.9,1,3.4,2.1,4.3,3.1V4.2
	c0.5-0.1,1.2-0.2,2.1-0.3c0.9-0.1,1.8-0.1,2.5-0.1c1.1,0,2.2,0.1,3.3,0.3c1.1,0.2,2.1,0.6,3,1.2c0.9,0.6,1.6,1.4,2.1,2.5
	c0.5,1,0.8,2.4,0.8,4.1v55.1H450.5L450.5,66.9z"/>
<path fill="#FFFFFF" d="M467.5,66.6c-1.3-1.4-2-3.2-2-5.3c0-2.1,0.7-3.8,2.1-5.2c1.4-1.4,3.1-2,5.2-2c2.1,0,3.9,0.7,5.2,2
	c1.4,1.4,2.1,3.1,2.1,5.2c0,2.1-0.7,3.9-2,5.3c-1.3,1.4-3.1,2.1-5.3,2.1C470.7,68.6,468.9,67.9,467.5,66.6L467.5,66.6z M485.5,20.4
	c0.2-0.1,0.7-0.1,1.6-0.2c0.9-0.1,1.9-0.1,2.9-0.1c1.1,0,2.1,0.1,3.2,0.3c1.1,0.2,2,0.6,2.9,1.1c0.9,0.6,1.5,1.4,2.1,2.4
	c0.5,1,0.8,2.4,0.8,4v39.9c-0.3,0.1-0.9,0.2-1.8,0.3c-0.9,0.1-1.9,0.1-3,0.1c-1.3,0-2.5-0.1-3.6-0.3c-1.1-0.2-2-0.7-2.7-1.3
	c-0.8-0.6-1.4-1.5-1.8-2.5c-0.4-1.1-0.6-2.4-0.6-4.1V20.4L485.5,20.4z M485.5,9.6c0-2.1,0.7-3.8,2.1-5.2c1.4-1.4,3.1-2,5.1-2
	c2,0,3.7,0.7,5.1,2c1.4,1.4,2.1,3.1,2.1,5.2c0,2.1-0.7,3.8-2.1,5.1c-1.4,1.3-3.1,2-5.1,2c-2,0-3.8-0.7-5.1-2
	C486.2,13.5,485.5,11.7,485.5,9.6L485.5,9.6z M510,61.2c-1.8-2.3-3.2-5-4.1-8c-0.9-3-1.3-6.1-1.3-9.4c0-3.4,0.5-6.5,1.5-9.5
	c1-3,2.5-5.6,4.4-7.9c1.9-2.3,4.4-4.1,7.4-5.4c3-1.3,6.4-2,10.4-2c4.2,0,7.7,0.7,10.6,2c2.9,1.3,5.3,3.1,7.1,5.3
	c1.8,2.2,3.1,4.8,4,7.8c0.8,3,1.2,6.1,1.2,9.4c0,3.3-0.4,6.5-1.2,9.5c-0.8,3-2.2,5.7-4.1,8c-1.9,2.3-4.3,4.2-7.3,5.5
	c-3,1.4-6.6,2.1-10.8,2.1s-7.8-0.7-10.7-2C514.3,65.3,511.9,63.5,510,61.2L510,61.2z M523.1,57.3c1.3,0.9,2.9,1.3,4.8,1.3
	c2,0,3.6-0.4,4.9-1.3c1.3-0.9,2.3-2,3-3.4c0.7-1.4,1.2-3,1.5-4.8c0.3-1.8,0.4-3.6,0.4-5.4c0-1.8-0.1-3.5-0.4-5.3
	c-0.3-1.7-0.8-3.3-1.5-4.6c-0.7-1.3-1.7-2.4-3-3.2c-1.3-0.8-2.8-1.2-4.7-1.2c-1.9,0-3.5,0.4-4.8,1.3c-1.3,0.9-2.3,2-3.1,3.3
	c-0.8,1.4-1.3,2.9-1.6,4.6c-0.3,1.7-0.5,3.5-0.5,5.2c0,1.8,0.1,3.6,0.4,5.3c0.3,1.8,0.8,3.4,1.5,4.8
	C520.8,55.3,521.8,56.4,523.1,57.3L523.1,57.3z"/>
<text transform="matrix(1 0 0 1 556.3963 68.6395)" fill="#FFFFFF" font-family="'Verdana-Bold'" font-size="18">beta</text>
</svg>
