<svg xmlns="http://www.w3.org/2000/svg" width="90.488" height="19.543" viewBox="0 0 90.488 19.543"><g fill="#FFF"><path d="M81.67 19.543v-3.215h1.087c.378 0 .673.074.886.22.212.148.317.37.317.66 0 .15-.04.283-.118.4-.08.117-.193.205-.343.264.19.04.336.13.433.265.097.135.145.292.145.47 0 .308-.102.54-.305.698s-.49.238-.863.238h-1.24zm.646-1.868h.463c.172 0 .304-.035.396-.106.093-.07.14-.174.14-.31 0-.148-.047-.258-.14-.33-.094-.07-.233-.105-.42-.105h-.44v.85zm0 .446v.926h.594c.17 0 .3-.037.39-.11s.136-.185.136-.33c0-.158-.038-.278-.115-.36-.075-.084-.196-.126-.36-.126h-.644zM85.577 19.59c-.344 0-.62-.11-.825-.332-.206-.22-.31-.5-.31-.84v-.09c0-.354.098-.646.293-.875.194-.23.456-.344.784-.342.322 0 .572.098.75.293.18.194.268.457.268.788v.352H85.11l-.003.013c.012.157.064.286.157.387.094.1.22.15.38.15.144 0 .263-.013.356-.042.095-.028.197-.074.31-.136l.174.398c-.097.08-.224.146-.382.198-.157.053-.332.08-.525.08zm-.058-1.984c-.12 0-.214.046-.283.137s-.112.21-.128.36l.006.01h.79v-.056c0-.137-.032-.246-.096-.328-.064-.083-.16-.124-.29-.124zM87.68 16.57v.584h.4v.453h-.4v1.217c0 .093.018.16.057.2.038.04.09.06.154.06.034 0 .063-.003.088-.006.024-.004.053-.01.085-.02l.056.466c-.066.022-.13.038-.19.05-.063.012-.13.017-.2.017-.224 0-.395-.06-.515-.182-.12-.123-.18-.316-.18-.582v-1.22h-.35v-.452h.35v-.585h.644zM89.893 19.543c-.023-.055-.044-.112-.06-.173-.02-.06-.03-.122-.038-.186-.065.116-.153.213-.26.29-.11.076-.24.114-.39.114-.25 0-.442-.064-.578-.193-.135-.128-.203-.304-.203-.526 0-.235.09-.417.27-.545.182-.13.444-.193.79-.193h.36v-.19c0-.115-.03-.204-.09-.268-.06-.063-.15-.095-.268-.095-.104 0-.186.024-.242.075s-.084.122-.084.212l-.622-.002-.003-.013c-.01-.202.078-.375.263-.522.186-.146.43-.22.73-.22.286 0 .52.072.696.217s.268.352.268.62v.987c0 .112.008.217.025.316.017.1.043.196.08.294h-.644zm-.59-.43c.113 0 .215-.028.303-.084.088-.057.147-.122.18-.195v-.337h-.36c-.138 0-.24.034-.312.103-.07.07-.106.152-.106.25 0 .08.026.144.08.192.052.046.124.07.215.07z"/></g><g fill="#FFF"><path d="M20.37 12.208c.142.08.302.16.48.236.178.076.37.14.572.19.203.05.412.076.625.076.132 0 .27-.01.412-.03.14-.02.266-.062.373-.123.107-.06.196-.142.267-.244.07-.102.107-.234.107-.396 0-.295-.115-.506-.343-.633-.23-.127-.572-.237-1.03-.328-.294-.06-.578-.142-.853-.244-.273-.102-.518-.236-.73-.404-.215-.168-.385-.38-.512-.633-.127-.254-.19-.564-.19-.93s.08-.686.243-.96c.164-.276.38-.51.65-.702.27-.193.58-.338.937-.435.356-.097.727-.145 1.113-.145.407 0 .77.03 1.09.09.32.062.597.143.83.245.448.183.682.422.703.717 0 .152-.048.333-.145.54-.097.21-.2.405-.313.588-.102-.08-.226-.165-.374-.25-.146-.088-.312-.17-.494-.245-.183-.076-.374-.14-.572-.19-.198-.052-.4-.077-.603-.077-.11 0-.228.01-.35.024-.122.015-.23.046-.328.09-.097.047-.178.113-.244.2-.066.085-.1.2-.1.342 0 .346.372.6 1.114.763.305.06.607.14.907.235.3.097.568.23.807.404.24.172.432.39.58.655.147.264.22.595.22.99 0 .408-.078.77-.235 1.084-.158.314-.374.578-.648.792-.274.214-.597.376-.97.488-.37.112-.774.168-1.21.168-.448 0-.827-.033-1.137-.1-.31-.065-.567-.144-.77-.235-.142-.06-.298-.15-.465-.267-.168-.117-.252-.277-.252-.48 0-.174.05-.354.153-.542.102-.188.22-.384.35-.587.093.083.204.17.337.26zm6.496-8.144c.595 0 1.078.483 1.078 1.078 0 .595-.483 1.078-1.078 1.078-.595 0-1.078-.483-1.078-1.078 0-.596.483-1.078 1.078-1.078zm-.976 2.654c.03-.01.114-.023.252-.038.137-.015.287-.023.45-.023.163 0 .325.015.488.046.163.03.31.09.442.175.132.086.24.21.32.366.08.157.122.364.122.618v6.16c-.04.02-.132.037-.275.047-.143.01-.296.014-.458.014-.203 0-.386-.018-.55-.053-.162-.035-.3-.1-.418-.197-.117-.096-.21-.226-.275-.39-.067-.16-.1-.37-.1-.624V6.717zm3.05-2.273l.23-.03c.07-.01.147-.018.23-.023.08-.005.162-.007.243-.007.163 0 .325.015.488.046.164.032.31.093.443.184.132.09.24.216.32.374.08.158.122.363.122.618v1.068h2.135V8.23h-2.135v3.264c0 .712.29 1.068.87 1.068.14 0 .276-.023.403-.07.127-.045.242-.096.343-.15.103-.057.192-.116.268-.176.076-.06.13-.107.16-.137.152.223.27.416.35.578.082.163.123.315.123.457 0 .132-.052.262-.16.39-.106.126-.256.243-.45.35-.192.107-.426.193-.7.26-.274.065-.574.098-.9.098-.63 0-1.12-.122-1.472-.366-.35-.244-.597-.564-.74-.96-.07-.205-.117-.418-.137-.642-.02-.224-.03-.447-.03-.67v-7.08zm6.894 6.238c.04.56.213 1.024.518 1.395.305.37.788.557 1.45.557.253 0 .477-.028.67-.084.193-.055.366-.123.52-.205.152-.08.284-.17.396-.267l.305-.267c.122.154.25.35.38.588.133.24.2.435.2.587 0 .224-.128.427-.382.61-.212.163-.515.302-.907.42-.39.116-.852.175-1.38.175-.478 0-.948-.06-1.41-.183-.464-.122-.875-.335-1.236-.64-.36-.305-.653-.714-.877-1.228-.224-.514-.336-1.163-.336-1.945 0-.64.1-1.192.297-1.655s.464-.846.794-1.152c.33-.305.704-.53 1.12-.67.418-.143.845-.215 1.282-.215.57 0 1.052.09 1.45.267.395.178.718.417.967.717.25.3.43.643.54 1.03.113.385.17.792.17 1.22v.213s-.004.168-.01.26l-.014.266c-.006.086-.014.155-.024.206h-4.482zm2.654-1.144c0-.49-.094-.886-.282-1.19-.188-.306-.526-.46-1.014-.46-.417 0-.75.146-1 .436-.248.29-.373.694-.373 1.212h2.668zM41.858 12.208c.142.08.303.16.48.236.18.076.37.14.573.19.204.05.413.076.626.076.132 0 .27-.01.412-.03.143-.02.267-.062.374-.123.107-.06.196-.142.267-.244.07-.102.106-.234.106-.396 0-.295-.114-.506-.343-.633-.23-.127-.572-.237-1.03-.328-.294-.06-.578-.142-.853-.244-.274-.102-.518-.236-.732-.404-.214-.168-.384-.38-.51-.633-.128-.254-.192-.564-.192-.93s.08-.686.244-.96c.162-.276.38-.51.648-.702.27-.193.582-.338.938-.435.356-.097.727-.145 1.113-.145.406 0 .77.03 1.09.09.32.062.597.143.83.245.447.183.68.422.7.717 0 .152-.047.333-.144.54-.097.21-.2.405-.313.588-.102-.08-.226-.165-.374-.25-.148-.088-.314-.17-.496-.245-.183-.076-.374-.14-.572-.19-.198-.052-.4-.077-.602-.077-.112 0-.23.01-.35.024-.123.015-.232.046-.33.09-.096.047-.177.113-.243.2-.066.085-.1.2-.1.342 0 .346.372.6 1.114.763.306.06.608.14.91.235.3.097.568.23.807.404.24.172.432.39.58.655.146.264.22.595.22.99 0 .408-.08.77-.236 1.084-.156.314-.373.578-.647.792-.274.214-.597.376-.968.488-.37.112-.775.168-1.212.168-.447 0-.826-.033-1.136-.1-.31-.065-.567-.144-.77-.235-.142-.06-.298-.15-.465-.267-.168-.117-.252-.277-.252-.48 0-.174.05-.354.153-.542.102-.188.22-.384.35-.587.09.083.203.17.335.26zm5.544-5.49c.05-.01.112-.02.183-.03.06-.01.132-.02.214-.024.08-.005.177-.008.29-.008.335 0 .62.056.853.168.234.112.38.3.442.564.162-.192.416-.388.762-.586.346-.198.783-.297 1.312-.297.375 0 .734.064 1.074.19.34.128.643.334.907.62.265.284.476.66.634 1.128.157.468.236 1.042.236 1.723 0 .793-.09 1.446-.274 1.96-.183.513-.42.92-.71 1.22-.29.3-.612.51-.967.633-.357.12-.713.182-1.068.182-.295 0-.552-.033-.77-.1-.22-.065-.404-.14-.557-.22-.152-.08-.27-.163-.35-.244-.082-.08-.133-.137-.153-.168v2.307h-2.06v-9.02zm2.074 5.353c.08.082.226.18.435.29.21.113.45.17.726.17.52 0 .9-.204 1.144-.61.244-.408.366-.977.366-1.71 0-.304-.026-.59-.076-.853-.05-.264-.135-.493-.252-.686-.117-.192-.274-.342-.473-.45-.198-.106-.44-.16-.724-.16-.426 0-.724.082-.89.245-.17.163-.253.34-.253.534v3.23zm7.656-1.387c.04.56.214 1.024.52 1.395.304.37.787.557 1.448.557.254 0 .478-.028.67-.084.194-.055.367-.123.52-.205.152-.08.285-.17.396-.267.112-.097.214-.186.305-.267.123.154.25.35.382.588.132.24.198.435.198.587 0 .224-.127.427-.38.61-.215.163-.517.302-.91.42-.39.116-.85.174-1.38.174-.477 0-.947-.062-1.41-.184-.463-.122-.875-.336-1.235-.64-.36-.305-.653-.714-.877-1.228-.224-.513-.336-1.162-.336-1.945 0-.64.1-1.192.297-1.655.197-.463.462-.846.792-1.15.33-.306.704-.53 1.12-.672.418-.142.845-.214 1.282-.214.57 0 1.052.09 1.45.267.396.177.718.416.967.716.25.3.43.643.542 1.03.112.385.168.792.168 1.22v.213s-.003.167-.008.258l-.015.267c-.005.086-.013.155-.023.206h-4.482v.003zm2.654-1.144c0-.49-.094-.886-.282-1.19-.188-.306-.526-.458-1.014-.458-.417 0-.75.145-1 .435-.248.29-.373.694-.373 1.212h2.67zm4.575 1.143c.042.56.215 1.024.52 1.395.305.37.788.557 1.45.557.253 0 .477-.028.67-.084.193-.055.366-.123.518-.205.153-.08.285-.17.397-.267.112-.097.214-.186.305-.267.122.154.25.35.38.588.133.24.2.435.2.587 0 .224-.128.427-.382.61-.214.163-.516.302-.907.42-.39.116-.85.174-1.38.174-.477 0-.947-.062-1.41-.184-.462-.122-.874-.336-1.234-.64-.36-.305-.653-.714-.877-1.228-.225-.513-.336-1.162-.336-1.945 0-.64.1-1.192.297-1.655.2-.463.464-.846.794-1.15.33-.306.704-.53 1.12-.672.418-.142.845-.214 1.282-.214.57 0 1.052.09 1.45.267.396.177.718.416.967.716.25.3.43.643.542 1.03.112.385.168.792.168 1.22v.213s-.003.167-.008.258l-.015.267c-.005.086-.013.155-.023.206H64.36v.003zm2.655-1.144c0-.49-.094-.886-.282-1.19-.188-.306-.526-.458-1.014-.458-.418 0-.75.145-1 .435-.25.29-.374.694-.374 1.212h2.67zm7.442-1.007c-.08-.08-.22-.178-.42-.29-.197-.112-.43-.168-.693-.168-.53 0-.92.193-1.175.58-.255.386-.382.94-.382 1.662 0 .356.026.68.076.968.05.29.137.536.26.74.12.203.284.36.487.473.204.112.464.168.78.168.294 0 .545-.06.754-.183.21-.122.313-.295.313-.518V8.533zm.717 5.398c-.173 0-.31-.058-.412-.174-.102-.117-.152-.267-.152-.45-.142.173-.384.35-.725.534-.34.183-.775.274-1.304.274-.375 0-.74-.06-1.09-.183-.35-.12-.663-.324-.938-.61-.275-.284-.493-.663-.656-1.135-.163-.473-.244-1.06-.244-1.76 0-.703.084-1.302.252-1.8.168-.5.39-.903.67-1.213.28-.31.6-.54.962-.686.36-.147.74-.22 1.136-.22.457 0 .834.078 1.13.235.294.16.512.314.655.466v-2.81c.07-.02.178-.035.32-.046.143-.01.27-.015.38-.015.164 0 .33.015.497.046.168.032.318.093.45.184.132.092.236.216.313.374.076.158.114.363.114.618v8.376h-1.356zM77.767 13.875c-.2-.22-.3-.49-.3-.812 0-.32.104-.584.315-.79.21-.205.476-.307.797-.307.32 0 .585.103.796.308.21.205.316.468.316.79 0 .32-.1.588-.3.803-.2.216-.472.323-.813.323-.332 0-.602-.105-.813-.315zm2.737-7.02c.03-.01.113-.024.248-.04.135-.014.283-.022.444-.022s.32.015.48.045c.16.03.307.088.437.173.13.086.236.206.316.362.08.155.12.358.12.61v6.073c-.04.02-.13.035-.272.045-.14.01-.29.015-.45.015-.2 0-.382-.018-.542-.053-.16-.035-.298-.1-.413-.196-.115-.095-.206-.223-.27-.383-.066-.16-.1-.366-.1-.616V6.854zm-.003-1.64c0-.32.106-.583.317-.788.21-.205.47-.308.782-.308.3 0 .558.102.773.307.215.205.323.47.323.79 0 .32-.108.58-.323.78-.215.2-.474.302-.774.302-.312 0-.573-.1-.783-.302-.21-.2-.316-.462-.316-.782zm3.732 7.848c-.28-.35-.486-.754-.616-1.21-.13-.456-.195-.935-.195-1.436 0-.51.076-.995.226-1.45.15-.457.373-.858.67-1.204.295-.346.668-.62 1.12-.82.45-.2.976-.3 1.578-.3.632 0 1.17.1 1.616.3.446.2.807.472 1.082.813.276.34.476.737.602 1.188.125.45.188.927.188 1.428 0 .5-.063.982-.188 1.443-.125.46-.33.867-.616 1.218-.286.35-.654.63-1.105.842-.45.21-.998.316-1.64.316s-1.184-.102-1.63-.307c-.447-.206-.81-.48-1.09-.82zm1.985-.6c.2.13.446.194.737.194.3 0 .55-.065.744-.195.195-.13.348-.303.46-.52.11-.214.184-.457.224-.728.04-.27.06-.546.06-.827 0-.27-.02-.54-.06-.804-.04-.266-.115-.5-.225-.7-.11-.2-.26-.362-.45-.488-.19-.125-.432-.188-.723-.188-.29 0-.534.065-.73.195-.194.13-.35.298-.465.504-.116.205-.2.44-.25.7-.05.26-.074.525-.074.796 0 .27.023.54.068.812.045.27.123.514.233.73.11.214.26.387.45.518z"/></g><path fill-rule="evenodd" clip-rule="evenodd" fill="#010101" d="M15.17 3.8l.214-.556V3.24c.117-.327.255-.652.36-.98.087-.27.16-.58.002-.838-.16-.263-.472-.328-.757-.342-.403-.02-.862.042-1.26.097l-1.344.184C11.234.507 9.81 0 8.268 0 6.726 0 5.3.506 4.15 1.36l-1.344-.185c-.398-.054-.856-.116-1.26-.097-.285.014-.595.08-.756.342-.158.258-.085.57 0 .838.107.33.245.654.36.98l.002.005.56 1.465c-.232.693-.36 1.435-.36 2.207 0 1.348.39 2.613 1.29 3.635.09.1.18.198.276.29l-.006.02c-.442.05-.894-.15-1.152-.548-.034-.053-.052-.146-.07-.207-.026-.098-.06-.188-.116-.273-.258-.4-.79-.513-1.19-.256-.457.295-.46.777-.25 1.225.05.107.11.208.174.307.617.955 1.75 1.376 2.797 1.134.044.123.09.24.134.346-.185.027-.37.024-.528-.005l-.216-.04-.084.206c-.17.42-.245.866-.204 1.318l.017.192.97 1.13c-.015.008-.03.013-.046.02l-.396.14.268.3c.033.04.068.076.102.112l.98 1.086.026.03.027.028.03.03.026.028.03.03.03.027.028.027.032.03.03.026.03.027.033.027.032.027.032.027.032.027.033.026.034.026.033.026.035.026.035.025.036.025.035.025.036.024.038.024.037.025.038.024.038.023.04.023.038.023.04.02.04.023.05.028.125.07.047.026.17-.177.02-.022.024-.02.025-.02.025-.02.027-.017.03-.017.03-.017.03-.016.034-.015.034-.015.035-.014.036-.013.038-.01.038-.012.038-.01.04-.007.04-.007.04-.006.04-.005.04-.003.04-.002h.122l.042.004.04.004.04.006.04.007.04.01.04.01.038.01.016.005.46.927.204.026.053.007.053.006.053.007.053.005.052.005.053.004.053.005.054.004.053.002.053.003.053.003.055.002.053.002h.053l.054.002h.431l.053-.002.053-.002.055-.002.053-.002.053-.003.054-.003.053-.004.053-.004.053-.004.053-.005.053-.005.052-.006.053-.006.053-.007.205-.027.443-.894c.035-.038.072-.047.11-.06l.04-.008.04-.007.04-.006.04-.005.04-.003.04-.002h.082l.042.003.04.003.04.005.04.007.04.007.04.008.04.01.037.01.037.012.036.013.035.014.034.016.032.015.032.017.03.017.03.018.026.018.026.02.025.02.024.02.022.02.17.177.045-.025.124-.067.054-.03.04-.023.04-.023.038-.024.04-.023.037-.023.038-.024.038-.024.037-.024.036-.024.037-.025.035-.026.035-.025.035-.026.034-.026.034-.026.033-.026.033-.027.032-.027.032-.027.032-.027.03-.028.03-.027.03-.028.03-.028.03-.03.03-.028.027-.03.027-.028.028-.03.027-.028.98-1.087c.035-.037.07-.074.102-.112l.268-.302-.396-.14-.047-.018.97-1.13.017-.193.01-.133c.742.25 1.585.334 2.156.09.02-.01.038-.022.05-.037.423-.2.68-.615.794-1.058.122-.48.084-1.004-.073-1.47-.13-.388-.35-.76-.657-1.032-.285-.253-.647-.418-1.034-.396-.03 0-.057.003-.086.007l-.258-.505c.8-.72 1.263-1.745 1.263-2.834.004-1.16-.514-2.2-1.332-2.898zm-1.184 6.643c.052-.063.102-.126.15-.19l.31.602c-.056.034-.113.055-.164.045-.15-.03-.253-.3-.296-.457z"/><path fill-rule="evenodd" clip-rule="evenodd" fill="#FFF" d="M1.478 10.494c.315.487.857.74 1.397.706.004.227.055.477.126.72-.904.196-1.876-.172-2.41-.996-.204-.317-.445-.794-.024-1.066.243-.157.568-.087.725.156.1.152.084.318.188.48z"/><path fill-rule="evenodd" clip-rule="evenodd" fill="#70953D" d="M13.02 15.357l1.03-1.184h-.003c-.27-.05-.566-.04-.827.048-.26.09-.55.292-.544.596.002.225.155.41.343.54z"/><path fill-rule="evenodd" clip-rule="evenodd" fill="#DBB127" d="M12.588 16.48c-.317.38-.63.705-1.056.973l.518-.652c.183-.098.364-.202.538-.32zm-7.574.97c-.415-.266-.712-.593-1.052-.97.173.118.353.22.536.32l.516.65zm.264.156l-.704-.886c.332-.365.935-.485 1.428-.4l.5.926-.01-.002c-.427-.058-.908.04-1.214.362zm.883-1.25c.404.12.907.494.68.992-.06-.028-.125-.05-.19-.068l-.49-.924zm3.437 1.193l-.316.682c-.665.085-1.345.085-2.01 0l-.317-.683c.863.113 1.78.113 2.644 0zm.237-.25c-.042.013-.084.03-.124.047-.205-.45.196-.827.6-.966l-.476.92zm1.437.305c-.318-.334-.82-.43-1.26-.352l-.014.003.476-.92c.505-.113 1.153 0 1.503.383l-.704.885z"/><path fill-rule="evenodd" clip-rule="evenodd" fill="#B92025" d="M3.53 15.357L2.5 14.173h.003c.27-.05.566-.04.827.048.26.09.55.292.544.596-.003.225-.155.41-.343.54z"/><path fill-rule="evenodd" clip-rule="evenodd" fill="#9ACA3C" d="M13.092 15.906c.082-.078.16-.158.233-.24-.61-.216-.93-.7-.723-1.122.2-.413.84-.622 1.47-.505.006-.07.01-.14.01-.21-.482-.193-.898-.452-1.13-.724-.13-.15-.238-.31-.33-.478-.064-.04-.12-.082-.173-.128-.35.423-.735.782-1.142 1.077l-.008.015c-.094.186-.2.374-.322.554-.054.207-.163.402-.316.58l2.43 1.18z"/><path fill-rule="evenodd" clip-rule="evenodd" fill="#ED2224" d="M3.354 12.845c-.226.042-.465.046-.69.003-.16.394-.22.795-.185 1.19.63-.116 1.267.094 1.47.506.205.42-.113.906-.724 1.122.096.108.2.214.314.315l2.414-1.184c-.18-.185-.307-.392-.372-.615-.026-.037-.052-.076-.077-.115-.18.142-.424.17-.658.144-.778-.083-1.143-.602-1.443-1.254l-.05-.11z"/><path fill-rule="evenodd" clip-rule="evenodd" fill="#FFCD05" d="M8.275 17.488c.438.007.88-.018 1.315-.076-.223-.474.087-.983.73-1.178.635-.193 1.385-.016 1.76.396.336-.184.633-.39.89-.613l-2.42-1.176c-.492.478-1.327.79-2.274.79-.902 0-1.702-.283-2.202-.72l-2.406 1.18c.235.195.503.376.804.54.374-.413 1.124-.59 1.76-.397.642.195.952.704.73 1.178.434.06.875.085 1.313.078z"/><path fill-rule="evenodd" clip-rule="evenodd" fill="#0795D1" d="M3.965 11.638c2.217 3.385 6.39 3.385 8.606 0-1.275.758-2.834 1.052-4.302 1.052-1.47 0-3.027-.294-4.303-1.052z"/><path fill-rule="evenodd" clip-rule="evenodd" fill="#02527D" d="M3.964 11.637c1.07 1.634 2.594 2.48 4.134 2.537.096-.004.192-.01.288-.02-1.297-.132-2.562-.824-3.533-2.077-.307-.125-.605-.27-.89-.44z"/><path fill-rule="evenodd" clip-rule="evenodd" fill="#FFF" d="M8.268.413c1.448 0 2.785.474 3.866 1.274l1.03-.094c.46-.063.92-.136 1.382-.17 1.39-.096.985.392.522 1.704l-.175.456c-.256-.18-.535-.33-.832-.445-.08-.123-.163-.243-.25-.36.03-.038.06-.075.093-.112.42-.483.92-.817 1.407-.98-.876-.07-1.49.574-1.93 1.21.016.02.03.04.047.06-.236-.046-.48-.07-.73-.07-2.103 0-3.81 1.706-3.81 3.81 0 2.105 1.707 3.81 3.81 3.81.25 0 .498-.023.74-.07-1.187 1.23-3.06 1.84-5.168 1.84-3.59 0-6.503-1.77-6.503-5.36 0-1.53.528-2.933 1.41-4.043-.417-.64-1.084-1.32-1.95-1.185.485.162.985.496 1.406.98l.094.11c-.334.447-.616.935-.835 1.456l-.424-1.107c-.46-1.3-.86-1.79.485-1.705.416.027.83.085 1.246.145.403.058.8.09 1.206.118C5.486.885 6.82.413 8.268.413zm4.43 3.818c-1.363 0-2.467 1.105-2.467 2.467s1.105 2.466 2.467 2.466 2.466-1.104 2.466-2.466S14.06 4.23 12.697 4.23z"/><path fill-rule="evenodd" clip-rule="evenodd" fill="#E8E8E8" d="M5.98 12.01C3.52 11.39 1.766 9.7 1.766 6.914c0-.602.082-1.184.235-1.737.235-.834.632-1.624 1.172-2.302l.003-.004c-.415-.638-1.082-1.318-1.95-1.184.487.162.987.496 1.408.98l.094.11c-.334.447-.616.935-.835 1.456l-.424-1.107c-.46-1.3-.86-1.79.485-1.705.416.027.83.085 1.246.145.403.058.8.09 1.206.118.085-.064.173-.126.262-.185C5.288 1.09 5.982.78 6.726.6 4.41 1.655 2.788 4.102 2.788 6.95c0 2.534 1.282 4.214 3.193 5.06z"/><path fill="#010101" d="M8.962 9.817c.213.028.506-.184.71-.333.24-.174.21-.056.07.115-.182.222-.38.464-.678.512-.094.015-.186.012-.268 0-.108-.018-.2-.053-.262-.085-.13-.068-.23-.102-.327-.102s-.198.034-.327.1c-.062.034-.155.068-.262.085-.083.013-.175.017-.268 0-.298-.047-.495-.288-.678-.512-.16-.197-.14-.266.07-.114.204.148.496.36.71.332.207-.027.385-.065.5-.143.105-.073.156-.185.12-.366l-.01-.06c-.36-.36-.743-.254-.873-.47-.074-.12-.042-.242.044-.346.288-.35 1.66-.35 1.947 0 .087.106.12.228.046.348-.127.21-.492.115-.843.438l-.014.09c-.036.182.008.294.108.367l.002.002c.106.077.276.115.482.142z"/><path fill-rule="evenodd" clip-rule="evenodd" fill="#ED2224" d="M14.893 9.46l.332.65c-.02.007-.042.016-.063.026-.223.102-.4.263-.537.457l-.372-.726c-.47.23-.998.36-1.557.36-1.95 0-3.53-1.58-3.53-3.53 0-1.948 1.58-3.53 3.53-3.53 1.95 0 3.53 1.582 3.53 3.53 0 1.12-.52 2.117-1.333 2.764zm-2.196-5.51c1.516 0 2.746 1.23 2.746 2.747 0 1.516-1.23 2.746-2.746 2.746S9.95 8.213 9.95 6.697s1.23-2.746 2.747-2.746z"/><path fill-rule="evenodd" clip-rule="evenodd" fill="#9A1B1F" d="M14.625 10.592l-.372-.726c.1-.038.01.004.105-.042l.35.66c-.03.035-.056.07-.083.108zm-1.75-.37c-.06.004-.118.005-.178.005-1.95 0-3.53-1.58-3.53-3.53 0-1.95 1.58-3.53 3.53-3.53.06 0 .12 0 .178.004-4.666.276-4.836 6.75 0 7.053zm0-6.265c1.433.092 2.568 1.284 2.568 2.74 0 1.456-1.134 2.648-2.568 2.74.06.004.12.014.178.006 3.527-.468 3.286-5.208 0-5.492-.06-.004-.12.003-.178.007z"/><path fill-rule="evenodd" clip-rule="evenodd" fill="#FFF" d="M16.888 11.586c.287.857.056 1.765-.517 2.03-.572.262-1.27-.22-1.557-1.077-.287-.858-.056-1.766.517-2.03.572-.263 1.27.22 1.558 1.076zm-3.282-.967c.14.46.41.704.716.695-.09.447-.045.926.1 1.355.13.388.348.76.656 1.032l.033.03c-1.193-.135-1.976-.756-2.306-1.703.175-.253.34-.524.492-.814l.243-.463.066-.134z"/><path fill-rule="evenodd" clip-rule="evenodd" fill="#D2D3D4" d="M15.617 13.576c-.336-.174-.638-.543-.804-1.037-.275-.82-.076-1.685.442-1.99-.356.495-.448 1.312-.186 2.093.126.378.32.697.547.933z"/><path fill-rule="evenodd" clip-rule="evenodd" fill="#010101" d="M12.697 5.266c.096 0 .19.01.28.028-.155.077-.26.237-.26.422 0 .26.21.47.47.47s.47-.21.47-.47c0-.03-.002-.057-.007-.084.292.262.477.643.477 1.066 0 .79-.64 1.43-1.43 1.43-.79 0-1.432-.64-1.432-1.43 0-.79.642-1.432 1.432-1.432zM5.71 6.355c.68.183 1.158.746 1.265 1.4-.317-.462-.795-.818-1.38-.975-.584-.156-1.176-.087-1.682.155.42-.513 1.115-.762 1.796-.58z"/><path fill-rule="evenodd" clip-rule="evenodd" fill="#0795D1" d="M13.606 10.62c.106.35.29.575.505.66-.163.036-.775 1.234-.723 1.69-.26-.258-.455-.575-.582-.94.175-.252.34-.523.492-.813l.243-.463.066-.135z"/><path fill-rule="evenodd" clip-rule="evenodd" fill="#FFF" d="M8.727 14.568c.54.474 1.213.3 1.818-.526-.583.293-1.197.468-1.818.526zM7.81 14.568c-.542.474-1.214.3-1.82-.526.584.293 1.198.468 1.82.526zM4.89 13.798c-.632-.067-.89-.537-1.11-1.015-.3-.647-.447-1.132-.485-1.462.547 1.006 1.243 1.78 2.02 2.32-.038.12-.163.186-.425.158z"/><path fill-rule="evenodd" clip-rule="evenodd" fill="#0795D1" d="M3.833 12.897l-.053-.113c-.298-.647-.446-1.132-.484-1.462.297.546.64 1.024 1.014 1.434h-.015c-.144.066-.306.117-.462.14z"/><path fill-rule="evenodd" clip-rule="evenodd" fill="#BDBEC0" d="M2.727 2.778c-.19.252-.36.517-.513.794-.176-.66-.373-1.29-.885-1.848.452.173.912.494 1.303.942l.094.112z"/></svg>