<?xml version="1.0" encoding="utf-8"?>
<!-- Generator: Adobe Illustrator 18.1.1, SVG Export Plug-In . SVG Version: 6.00 Build 0)  -->
<svg version="1.1" id="Layer_1" xmlns="http://www.w3.org/2000/svg" xmlns:xlink="http://www.w3.org/1999/xlink" x="0px" y="0px"
	 viewBox="0 0 590 125.7" enable-background="new 0 0 590 125.7" xml:space="preserve">
<path fill-rule="evenodd" clip-rule="evenodd" fill="#010101" d="M99.7,25l1.4-3.7l0,0c0.8-2.2,1.7-4.3,2.4-6.5c0.6-1.8,1-3.8,0-5.5
	c-1.1-1.7-3.1-2.2-5-2.2c-2.6-0.1-5.7,0.3-8.3,0.6l-8.8,1.2C73.9,3.3,64.5,0,54.4,0C44.2,0,34.9,3.3,27.3,8.9l-8.8-1.2
	c-2.6-0.4-5.6-0.8-8.3-0.6c-1.9,0.1-3.9,0.5-5,2.2c-1,1.7-0.6,3.7,0,5.5c0.7,2.2,1.6,4.3,2.4,6.5l0,0l3.7,9.6
	c-1.5,4.6-2.4,9.4-2.4,14.5c0,8.9,2.6,17.2,8.5,23.9c0.6,0.7,1.2,1.3,1.8,1.9l0,0.1c-2.9,0.3-5.9-1-7.6-3.6c-0.2-0.3-0.3-1-0.5-1.4
	c-0.2-0.6-0.4-1.2-0.8-1.8C8.7,62,5.2,61.3,2.5,63c-3,1.9-3,5.1-1.6,8.1c0.3,0.7,0.7,1.4,1.1,2c4.1,6.3,11.5,9,18.4,7.5
	c0.3,0.8,0.6,1.6,0.9,2.3c-1.2,0.2-2.4,0.2-3.5,0l-1.4-0.3l-0.6,1.4c-1.1,2.8-1.6,5.7-1.3,8.7l0.1,1.3l6.4,7.4
	c-0.1,0-0.2,0.1-0.3,0.1l-2.6,0.9l1.8,2c0.2,0.2,0.4,0.5,0.7,0.7l6.4,7.1l0.2,0.2l0.2,0.2l0.2,0.2l0.2,0.2l0.2,0.2l0.2,0.2l0.2,0.2
	l0.2,0.2l0.2,0.2l0.2,0.2l0.2,0.2l0.2,0.2l0.2,0.2l0.2,0.2l0.2,0.2l0.2,0.2l0.2,0.2l0.2,0.2l0.2,0.2l0.2,0.2l0.2,0.2l0.2,0.2
	l0.2,0.2l0.2,0.2l0.2,0.2l0.3,0.2l0.3,0.2l0.3,0.2l0.3,0.1l0.3,0.1l0.3,0.2l0.8,0.5L35,118l1.1-1.2l0.1-0.1l0.2-0.1l0.2-0.1l0.2-0.1
	l0.2-0.1l0.2-0.1l0.2-0.1l0.2-0.1l0.2-0.1l0.2-0.1l0.2-0.1l0.2-0.1l0.2-0.1l0.2-0.1l0.3-0.1l0.3-0.1l0.3,0l0.3,0l0.3,0l0.3,0l0.3,0
	l0.3,0l0.3,0l0.3,0l0.3,0l0.3,0l0.3,0l0.3,0l0.3,0.1l0.3,0.1l0.3,0.1l0.1,0l3,6.1l1.3,0.2l0.3,0l0.4,0l0.3,0l0.4,0l0.3,0l0.3,0
	l0.4,0l0.4,0l0.4,0l0.4,0l0.3,0l0.4,0l0.4,0l0.3,0l0.4,0l0.3,0l0.4,0l0.4,0l0.2,0l0.2,0l0.3,0l0.4,0l0.4,0l0.4,0l0.4,0l0.4,0l0.4,0
	l0.4,0l0.3,0l0.4,0l0.4,0l0.4,0l0.3,0l0.3,0l0.4,0l0.3,0l0.4,0l0.3,0l1.3-0.2l2.9-5.9c0.2-0.2,0.5-0.3,0.7-0.4l0.3-0.1l0.3,0l0.3,0
	l0.3,0l0.3,0l0.3,0l0.3,0l0.3,0l0.3,0l0.3,0l0.3,0l0.3,0l0.3,0l0.3,0.1l0.3,0.1l0.2,0.1l0.2,0.1l0.2,0.1l0.2,0.1l0.2,0.1l0.2,0.1
	l0.2,0.1l0.2,0.1l0.2,0.1l0.2,0.1l0.2,0.1l0.2,0.1l0.2,0.1l0.1,0.1l1.1,1.2l0.3-0.2l0.8-0.4l0.4-0.2l0.3-0.1l0.3-0.1l0.3-0.2
	l0.3-0.2l0.2-0.2l0.2-0.2l0.2-0.2l0.2-0.2l0.2-0.2l0.2-0.2l0.2-0.2l0.2-0.2l0.2-0.2l0.2-0.2l0.2-0.2l0.2-0.2l0.2-0.2l0.2-0.2
	l0.2-0.2l0.2-0.2l0.2-0.2l0.2-0.2l0.2-0.2l0.2-0.2l0.2-0.2l0.2-0.2l0.2-0.2l0.2-0.2l0.2-0.2l0.2-0.2l6.4-7.1
	c0.2-0.2,0.5-0.5,0.7-0.7l1.8-2l-2.6-0.9c-0.1,0-0.2-0.1-0.3-0.1l6.4-7.4l0.1-1.3c0-0.3,0-0.6,0.1-0.9c4.9,1.6,10.4,2.2,14.2,0.6
	c0.1-0.1,0.2-0.1,0.3-0.2c2.8-1.3,4.5-4,5.2-7c0.8-3.2,0.5-6.6-0.5-9.7c-0.9-2.6-2.3-5-4.3-6.8c-1.9-1.7-4.3-2.7-6.8-2.6
	c-0.2,0-0.4,0-0.6,0.1l-1.7-3.3c5.3-4.7,8.3-11.5,8.3-18.6C108.5,36.4,105.1,29.6,99.7,25L99.7,25z M92,68.7c0.3-0.4,0.7-0.8,1-1.3
	l2,4c-0.4,0.2-0.7,0.4-1.1,0.3C92.9,71.5,92.2,69.7,92,68.7L92,68.7z"/>
<path fill-rule="evenodd" clip-rule="evenodd" fill="#FFFFFF" d="M9.7,69c2.1,3.2,5.6,4.9,9.2,4.6c0,1.5,0.4,3.1,0.8,4.7
	c-6,1.3-12.3-1.1-15.8-6.5c-1.3-2.1-2.9-5.2-0.2-7c1.6-1,3.7-0.6,4.8,1C9.1,66.8,9,67.9,9.7,69L9.7,69z"/>
<path fill-rule="evenodd" clip-rule="evenodd" fill="#70953D" d="M85.6,101l6.8-7.8l0,0c-1.8-0.3-3.7-0.3-5.4,0.3
	c-1.7,0.6-3.6,1.9-3.6,3.9C83.4,98.9,84.4,100.1,85.6,101L85.6,101z"/>
<path fill-rule="evenodd" clip-rule="evenodd" fill="#DBB127" d="M82.8,108.4c-2.1,2.5-4.1,4.6-6.9,6.4l3.4-4.3l0,0
	C80.4,109.8,81.6,109.1,82.8,108.4L82.8,108.4z M33,114.7c-2.7-1.8-4.7-3.9-6.9-6.4c1.1,0.8,2.3,1.4,3.5,2.1L33,114.7L33,114.7z
	 M34.7,115.8L34.7,115.8l-4.6-5.8c2.2-2.4,6.1-3.2,9.4-2.6l3.3,6.1l-0.1,0C39.9,113,36.7,113.6,34.7,115.8L34.7,115.8z M40.5,107.5
	c2.6,0.8,6,3.2,4.5,6.5c-0.4-0.2-0.8-0.3-1.2-0.4L40.5,107.5L40.5,107.5z M63.1,115.4l-2.1,4.5c-4.4,0.6-8.9,0.6-13.2,0l-2.1-4.5
	C51.4,116.1,57.4,116.1,63.1,115.4L63.1,115.4z M64.7,113.7c-0.3,0.1-0.6,0.2-0.8,0.3c-1.3-3,1.3-5.4,3.9-6.4L64.7,113.7L64.7,113.7
	z M74.1,115.8c-2.1-2.2-5.4-2.8-8.3-2.3l-0.1,0l3.1-6.1c3.3-0.7,7.6,0,9.9,2.5L74.1,115.8L74.1,115.8z"/>
<path fill-rule="evenodd" clip-rule="evenodd" fill="#B92025" d="M23.2,101l-6.8-7.8l0,0c1.8-0.3,3.7-0.3,5.4,0.3
	c1.7,0.6,3.6,1.9,3.6,3.9C25.5,98.9,24.4,100.1,23.2,101L23.2,101z"/>
<path fill-rule="evenodd" clip-rule="evenodd" fill="#9ACA3C" d="M86.1,104.6c0.5-0.5,1.1-1,1.5-1.6c-4-1.4-6.1-4.6-4.8-7.4
	c1.3-2.7,5.5-4.1,9.7-3.3c0-0.5,0.1-0.9,0.1-1.4c-3.2-1.3-5.9-3-7.4-4.8c-0.8-1-1.6-2-2.2-3.1c-0.4-0.3-0.8-0.5-1.1-0.8
	c-2.3,2.8-4.8,5.1-7.5,7.1l0,0.1c-0.6,1.2-1.3,2.5-2.1,3.6c-0.4,1.4-1.1,2.6-2.1,3.8L86.1,104.6L86.1,104.6z"/>
<path fill-rule="evenodd" clip-rule="evenodd" fill="#ED2224" d="M22,84.5c-1.5,0.3-3.1,0.3-4.5,0c-1.1,2.6-1.5,5.2-1.2,7.8
	c4.1-0.8,8.3,0.6,9.7,3.3c1.4,2.8-0.7,6-4.8,7.4c0.6,0.7,1.3,1.4,2.1,2.1l15.9-7.8c-1.2-1.2-2-2.6-2.4-4c-0.2-0.3-0.3-0.5-0.5-0.8
	c-1.2,0.9-2.8,1.1-4.3,0.9c-5.1-0.5-7.5-4-9.5-8.2C22.3,85,22.2,84.7,22,84.5L22,84.5z"/>
<path fill-rule="evenodd" clip-rule="evenodd" fill="#FFCD05" d="M54.4,115c2.9,0,5.8-0.1,8.6-0.5c-1.5-3.1,0.6-6.5,4.8-7.7
	c4.2-1.3,9.1-0.1,11.6,2.6c2.2-1.2,4.2-2.6,5.8-4l-15.9-7.7c-3.2,3.1-8.7,5.2-15,5.2c-5.9,0-11.2-1.9-14.5-4.8l-15.8,7.8
	c1.5,1.3,3.3,2.5,5.3,3.5c2.5-2.7,7.4-3.9,11.6-2.6c4.2,1.3,6.3,4.6,4.8,7.7C48.6,114.9,51.5,115,54.4,115L54.4,115z"/>
<path fill-rule="evenodd" clip-rule="evenodd" fill="#0795D1" d="M26.1,76.5c14.6,22.3,42,22.3,56.6,0c-8.4,5-18.6,6.9-28.3,6.9
	C44.7,83.4,34.5,81.5,26.1,76.5L26.1,76.5z"/>
<path fill-rule="evenodd" clip-rule="evenodd" fill="#02527D" d="M26.1,76.5c7,10.7,17.1,16.3,27.2,16.7c0.6,0,1.3-0.1,1.9-0.1
	c-8.5-0.9-16.8-5.4-23.2-13.7C29.9,78.6,27.9,77.6,26.1,76.5L26.1,76.5z"/>
<path fill-rule="evenodd" clip-rule="evenodd" fill="#FFFFFF" d="M54.4,2.7c9.5,0,18.3,3.1,25.4,8.4l6.8-0.6c3-0.4,6-0.9,9.1-1.1
	c9.1-0.6,6.5,2.6,3.4,11.2l-1.1,3c-1.7-1.2-3.5-2.2-5.5-2.9c-0.5-0.8-1.1-1.6-1.7-2.4c0.2-0.2,0.4-0.5,0.6-0.7
	c2.8-3.2,6.1-5.4,9.3-6.4c-5.8-0.5-9.8,3.8-12.7,7.9c0.1,0.1,0.2,0.3,0.3,0.4c-1.6-0.3-3.2-0.5-4.8-0.5C69.6,19,58.4,30.2,58.4,44
	c0,13.8,11.2,25.1,25.1,25.1c1.6,0,3.3-0.2,4.9-0.5c-7.8,8.1-20.1,12.1-34,12.1c-23.6,0-42.8-11.6-42.8-35.3c0-10,3.5-19.3,9.3-26.6
	c-2.7-4.2-7.1-8.7-12.8-7.8c3.2,1.1,6.5,3.3,9.3,6.4c0.2,0.2,0.4,0.5,0.6,0.7c-2.2,2.9-4,6.1-5.5,9.6l-2.8-7.3
	C6.6,12,4,8.8,12.8,9.3c2.7,0.2,5.5,0.6,8.2,1c2.7,0.4,5.3,0.6,7.9,0.8C36.1,5.8,44.8,2.7,54.4,2.7L54.4,2.7z M83.5,27.8
	c-9,0-16.2,7.3-16.2,16.2c0,9,7.3,16.2,16.2,16.2c9,0,16.2-7.3,16.2-16.2C99.7,35.1,92.4,27.8,83.5,27.8L83.5,27.8z"/>
<path fill-rule="evenodd" clip-rule="evenodd" fill="#E8E8E8" d="M39.3,79c-16.2-4.1-27.7-15.2-27.7-33.5c0-4,0.5-7.8,1.5-11.4l0,0
	c1.5-5.5,4.2-10.7,7.7-15.1l0,0c-2.7-4.2-7.1-8.7-12.8-7.8c3.2,1.1,6.5,3.3,9.3,6.4c0.2,0.2,0.4,0.5,0.6,0.7c-2.2,2.9-4,6.1-5.5,9.6
	l-2.8-7.3C6.6,12,4,8.8,12.8,9.3c2.7,0.2,5.5,0.6,8.2,1c2.7,0.4,5.3,0.6,7.9,0.8c0.6-0.4,1.1-0.8,1.7-1.2l0,0
	c4.1-2.7,8.6-4.7,13.5-5.9c-15.2,7-25.9,23-25.9,41.8C18.3,62.4,26.8,73.4,39.3,79L39.3,79z"/>
<path fill="#010101" d="M58.9,64.5c1.4,0.2,3.3-1.2,4.7-2.2c1.6-1.1,1.4-0.4,0.5,0.8c-1.2,1.5-2.5,3.1-4.5,3.4
	c-0.6,0.1-1.2,0.1-1.8,0c-0.7-0.1-1.3-0.3-1.7-0.6c-0.8-0.4-1.5-0.7-2.1-0.7c-0.6,0-1.3,0.2-2.1,0.7c-0.4,0.2-1,0.4-1.7,0.6
	c-0.5,0.1-1.1,0.1-1.8,0c-2-0.3-3.3-1.9-4.5-3.4c-1.1-1.3-0.9-1.8,0.5-0.8c1.3,1,3.3,2.4,4.7,2.2c1.4-0.2,2.5-0.4,3.3-0.9
	c0.7-0.5,1-1.2,0.8-2.4c0-0.1,0-0.3-0.1-0.4c-2.4-2.4-4.9-1.7-5.7-3.1c-0.5-0.8-0.3-1.6,0.3-2.3c1.9-2.3,10.9-2.3,12.8,0
	c0.6,0.7,0.8,1.5,0.3,2.3c-0.8,1.4-3.2,0.8-5.5,2.9c0,0.2-0.1,0.4-0.1,0.6c-0.2,1.2,0.1,1.9,0.7,2.4c0,0,0,0,0,0
	C56.5,64.1,57.6,64.4,58.9,64.5L58.9,64.5z"/>
<path fill-rule="evenodd" clip-rule="evenodd" fill="#ED2224" d="M97.9,62.2l2.2,4.3c-0.1,0.1-0.3,0.1-0.4,0.2
	c-1.5,0.7-2.6,1.7-3.5,3l-2.4-4.8c-3.1,1.5-6.6,2.4-10.2,2.4c-12.8,0-23.2-10.4-23.2-23.2c0-12.8,10.4-23.2,23.2-23.2
	c12.8,0,23.2,10.4,23.2,23.2C106.7,51.4,103.3,57.9,97.9,62.2L97.9,62.2z M83.5,26c10,0,18.1,8.1,18.1,18.1c0,10-8.1,18.1-18.1,18.1
	c-10,0-18.1-8.1-18.1-18.1C65.4,34.1,73.5,26,83.5,26L83.5,26z"/>
<path fill-rule="evenodd" clip-rule="evenodd" fill="#9A1B1F" d="M96.2,69.6l-2.4-4.8c0.7-0.3,0.1,0,0.7-0.3l2.3,4.3
	C96.5,69.2,96.3,69.4,96.2,69.6L96.2,69.6z M84.7,67.2c-0.4,0-0.8,0-1.2,0c-12.8,0-23.2-10.4-23.2-23.2c0-12.8,10.4-23.2,23.2-23.2
	c0.4,0,0.8,0,1.2,0C54,22.7,52.9,65.2,84.7,67.2L84.7,67.2z M84.7,26c9.4,0.6,16.9,8.4,16.9,18c0,9.6-7.5,17.4-16.9,18
	c0.4,0,0.8,0.1,1.2,0c23.2-3.1,21.6-34.2,0-36.1C85.4,25.9,85,26,84.7,26L84.7,26z"/>
<path fill-rule="evenodd" clip-rule="evenodd" fill="#FFFFFF" d="M111,76.2c1.9,5.6,0.4,11.6-3.4,13.3c-3.8,1.7-8.4-1.4-10.2-7.1
	c-1.9-5.6-0.4-11.6,3.4-13.3S109.1,70.5,111,76.2L111,76.2z M89.5,69.8c0.9,3,2.7,4.6,4.7,4.6c-0.6,2.9-0.3,6.1,0.7,8.9
	c0.9,2.6,2.3,5,4.3,6.8c0.1,0.1,0.1,0.1,0.2,0.2c-7.8-0.9-13-5-15.2-11.2c1.2-1.7,2.2-3.4,3.2-5.3l1.6-3L89.5,69.8L89.5,69.8z"/>
<path fill-rule="evenodd" clip-rule="evenodd" fill="#D2D3D4" d="M102.7,89.3c-2.2-1.1-4.2-3.6-5.3-6.8c-1.8-5.4-0.5-11.1,2.9-13.1
	c-2.3,3.3-2.9,8.6-1.2,13.8C99.9,85.6,101.2,87.7,102.7,89.3L102.7,89.3z"/>
<path fill-rule="evenodd" clip-rule="evenodd" fill="#010101" d="M83.5,34.6c0.6,0,1.2,0.1,1.8,0.2c-1,0.5-1.7,1.6-1.7,2.8
	c0,1.7,1.4,3.1,3.1,3.1c1.7,0,3.1-1.4,3.1-3.1c0-0.2,0-0.4,0-0.6c1.9,1.7,3.1,4.2,3.1,7c0,5.2-4.2,9.4-9.4,9.4
	c-5.2,0-9.4-4.2-9.4-9.4C74.1,38.8,78.3,34.6,83.5,34.6L83.5,34.6z"/>
<path fill-rule="evenodd" clip-rule="evenodd" fill="#010101" d="M37.5,41.8c4.5,1.2,7.6,4.9,8.3,9.2c-2.1-3-5.2-5.4-9.1-6.4
	c-3.8-1-7.7-0.6-11.1,1C28.5,42.2,33.1,40.6,37.5,41.8L37.5,41.8z"/>
<path fill-rule="evenodd" clip-rule="evenodd" fill="#0795D1" d="M89.5,69.8c0.7,2.3,1.9,3.8,3.3,4.3c-1.1,0.2-5.1,8.1-4.8,11.1
	c-1.7-1.7-3-3.8-3.8-6.2c1.2-1.7,2.2-3.4,3.2-5.3l1.6-3L89.5,69.8L89.5,69.8z"/>
<path fill-rule="evenodd" clip-rule="evenodd" fill="#FFFFFF" d="M57.4,95.8c3.6,3.1,8,2,12-3.5C65.5,94.3,61.5,95.4,57.4,95.8
	L57.4,95.8z"/>
<path fill-rule="evenodd" clip-rule="evenodd" fill="#FFFFFF" d="M51.3,95.8c-3.6,3.1-8,2-12-3.5C43.2,94.3,47.3,95.4,51.3,95.8
	L51.3,95.8z"/>
<path fill-rule="evenodd" clip-rule="evenodd" fill="#FFFFFF" d="M32.2,90.7c-4.2-0.4-5.9-3.5-7.3-6.7c-2-4.3-2.9-7.4-3.2-9.6
	C25.3,81,29.8,86.1,35,89.7C34.7,90.5,33.9,90.9,32.2,90.7L32.2,90.7z"/>
<path fill-rule="evenodd" clip-rule="evenodd" fill="#0795D1" d="M25.2,84.8c-0.1-0.2-0.2-0.5-0.4-0.7c-2-4.3-2.9-7.4-3.2-9.6
	c2,3.6,4.2,6.7,6.7,9.4l-0.1,0C27.3,84.3,26.2,84.6,25.2,84.8L25.2,84.8z"/>
<path fill-rule="evenodd" clip-rule="evenodd" fill="#BDBEC0" d="M17.9,18.3c-1.2,1.7-2.4,3.4-3.4,5.2c-1.2-4.3-2.4-8.5-5.8-12.1
	c3,1.1,6,3.2,8.6,6.2C17.5,17.8,17.7,18,17.9,18.3L17.9,18.3z"/>
<path fill="#FFFFFF" d="M128.9,81.3c0.9,0.5,2,1.1,3.2,1.6c1.2,0.5,2.4,0.9,3.8,1.3c1.3,0.3,2.7,0.5,4.1,0.5c0.9,0,1.8-0.1,2.7-0.2
	c0.9-0.1,1.8-0.4,2.5-0.8c0.7-0.4,1.3-0.9,1.8-1.6c0.5-0.7,0.7-1.5,0.7-2.6c0-1.9-0.8-3.3-2.3-4.2c-1.5-0.8-3.8-1.6-6.8-2.2
	c-1.9-0.4-3.8-0.9-5.6-1.6c-1.8-0.7-3.4-1.6-4.8-2.7c-1.4-1.1-2.5-2.5-3.4-4.2c-0.8-1.7-1.3-3.7-1.3-6.1s0.5-4.5,1.6-6.3
	c1.1-1.8,2.5-3.3,4.3-4.6c1.8-1.3,3.8-2.2,6.2-2.9c2.3-0.6,4.8-1,7.3-1c2.7,0,5.1,0.2,7.2,0.6c2.1,0.4,3.9,0.9,5.5,1.6
	c2.9,1.2,4.5,2.8,4.6,4.7c0,1-0.3,2.2-1,3.6c-0.6,1.4-1.3,2.7-2.1,3.9c-0.7-0.5-1.5-1.1-2.5-1.7c-1-0.6-2.1-1.1-3.3-1.6
	c-1.2-0.5-2.5-0.9-3.8-1.3c-1.3-0.3-2.6-0.5-4-0.5c-0.7,0-1.5,0.1-2.3,0.2c-0.8,0.1-1.5,0.3-2.2,0.6c-0.6,0.3-1.2,0.7-1.6,1.3
	c-0.4,0.6-0.7,1.3-0.7,2.3c0,2.3,2.4,3.9,7.3,5c2,0.4,4,0.9,6,1.6c2,0.6,3.7,1.5,5.3,2.7c1.6,1.1,2.8,2.6,3.8,4.3
	c1,1.7,1.5,3.9,1.5,6.5c0,2.7-0.5,5-1.6,7.1c-1,2.1-2.5,3.8-4.3,5.2c-1.8,1.4-3.9,2.5-6.4,3.2c-2.4,0.7-5.1,1.1-8,1.1
	c-2.9,0-5.4-0.2-7.5-0.7c-2-0.4-3.7-1-5.1-1.6c-0.9-0.4-2-1-3.1-1.8c-1.1-0.8-1.7-1.8-1.7-3.2c0-1.1,0.3-2.3,1-3.6
	c0.7-1.2,1.4-2.5,2.3-3.9C127.3,80.1,128.1,80.7,128.9,81.3L128.9,81.3z M171.6,27.7c3.9,0,7.1,3.2,7.1,7.1c0,3.9-3.2,7.1-7.1,7.1
	c-3.9,0-7.1-3.2-7.1-7.1C164.6,30.9,167.7,27.7,171.6,27.7L171.6,27.7z M165.2,45.2c0.2-0.1,0.8-0.1,1.7-0.3c0.9-0.1,1.9-0.2,3-0.2
	c1.1,0,2.1,0.1,3.2,0.3c1.1,0.2,2,0.6,2.9,1.2c0.9,0.6,1.6,1.4,2.1,2.4c0.5,1,0.8,2.4,0.8,4.1v40.5c-0.3,0.1-0.9,0.2-1.8,0.3
	c-0.9,0.1-1.9,0.1-3,0.1c-1.3,0-2.5-0.1-3.6-0.4c-1.1-0.2-2-0.7-2.8-1.3c-0.8-0.6-1.4-1.5-1.8-2.6c-0.4-1.1-0.7-2.4-0.7-4.1V45.2
	L165.2,45.2z M185.3,30.2c0.5-0.1,1-0.1,1.5-0.2c0.5-0.1,1-0.1,1.5-0.2c0.5,0,1.1,0,1.6,0c1.1,0,2.1,0.1,3.2,0.3
	c1.1,0.2,2,0.6,2.9,1.2c0.9,0.6,1.6,1.4,2.1,2.5c0.5,1,0.8,2.4,0.8,4.1v7h14v10.2h-14v21.5c0,4.7,1.9,7,5.7,7c0.9,0,1.8-0.2,2.7-0.5
	c0.8-0.3,1.6-0.6,2.3-1c0.7-0.4,1.3-0.8,1.8-1.2c0.5-0.4,0.9-0.7,1.1-0.9c1,1.5,1.8,2.7,2.3,3.8c0.5,1.1,0.8,2.1,0.8,3
	c0,0.9-0.3,1.7-1.1,2.6c-0.7,0.8-1.7,1.6-3,2.3c-1.3,0.7-2.8,1.3-4.6,1.7c-1.8,0.4-3.8,0.7-5.9,0.7c-4.1,0-7.4-0.8-9.7-2.4
	c-2.3-1.6-3.9-3.7-4.9-6.3c-0.5-1.3-0.8-2.7-0.9-4.2c-0.1-1.5-0.2-2.9-0.2-4.4V30.2L185.3,30.2z M230.6,71.2
	c0.3,3.7,1.4,6.7,3.4,9.2c2,2.4,5.2,3.7,9.5,3.7c1.7,0,3.1-0.2,4.4-0.6c1.3-0.4,2.4-0.8,3.4-1.4c1-0.5,1.9-1.1,2.6-1.8
	c0.7-0.6,1.4-1.2,2-1.8c0.8,1,1.6,2.3,2.5,3.9c0.9,1.6,1.3,2.9,1.3,3.9c0,1.5-0.8,2.8-2.5,4c-1.4,1.1-3.4,2-6,2.8
	c-2.6,0.8-5.6,1.2-9.1,1.2c-3.1,0-6.2-0.4-9.3-1.2c-3-0.8-5.7-2.2-8.1-4.2c-2.4-2-4.3-4.7-5.8-8.1c-1.5-3.4-2.2-7.6-2.2-12.8
	c0-4.2,0.7-7.8,2-10.9c1.3-3,3-5.6,5.2-7.6c2.2-2,4.6-3.5,7.4-4.4c2.7-0.9,5.5-1.4,8.4-1.4c3.7,0,6.9,0.6,9.5,1.8
	c2.6,1.2,4.7,2.7,6.4,4.7c1.6,2,2.8,4.2,3.6,6.8c0.7,2.5,1.1,5.2,1.1,8c0,0.4,0,0.9,0,1.4c0,0.5,0,1.1-0.1,1.7
	c0,0.6-0.1,1.2-0.1,1.8c0,0.6-0.1,1-0.2,1.4H230.6L230.6,71.2z M248,63.7c0-3.2-0.6-5.8-1.9-7.8c-1.2-2-3.5-3-6.7-3
	c-2.7,0-4.9,1-6.6,2.9c-1.6,1.9-2.5,4.6-2.5,8H248L248,63.7z"/>
<path fill="#FFFFFF" d="M270.2,81.3c0.9,0.5,2,1.1,3.2,1.6c1.2,0.5,2.4,0.9,3.8,1.3c1.3,0.3,2.7,0.5,4.1,0.5c0.9,0,1.8-0.1,2.7-0.2
	c0.9-0.1,1.8-0.4,2.5-0.8c0.7-0.4,1.3-0.9,1.8-1.6c0.5-0.7,0.7-1.5,0.7-2.6c0-1.9-0.8-3.3-2.3-4.2c-1.5-0.8-3.8-1.6-6.8-2.2
	c-1.9-0.4-3.8-0.9-5.6-1.6c-1.8-0.7-3.4-1.6-4.8-2.7c-1.4-1.1-2.5-2.5-3.4-4.2c-0.8-1.7-1.3-3.7-1.3-6.1s0.5-4.5,1.6-6.3
	c1.1-1.8,2.5-3.3,4.3-4.6c1.8-1.3,3.8-2.2,6.2-2.9c2.3-0.6,4.8-1,7.3-1c2.7,0,5.1,0.2,7.2,0.6c2.1,0.4,3.9,0.9,5.5,1.6
	c2.9,1.2,4.5,2.8,4.6,4.7c0,1-0.3,2.2-1,3.6c-0.6,1.4-1.3,2.7-2.1,3.9c-0.7-0.5-1.5-1.1-2.5-1.7c-1-0.6-2.1-1.1-3.3-1.6
	c-1.2-0.5-2.5-0.9-3.8-1.3c-1.3-0.3-2.6-0.5-4-0.5c-0.7,0-1.5,0.1-2.3,0.2c-0.8,0.1-1.5,0.3-2.2,0.6c-0.6,0.3-1.2,0.7-1.6,1.3
	c-0.4,0.6-0.7,1.3-0.7,2.3c0,2.3,2.4,3.9,7.3,5c2,0.4,4,0.9,6,1.6c2,0.6,3.7,1.5,5.3,2.7c1.6,1.1,2.8,2.6,3.8,4.3
	c1,1.7,1.5,3.9,1.5,6.5c0,2.7-0.5,5-1.6,7.1c-1,2.1-2.5,3.8-4.3,5.2c-1.8,1.4-3.9,2.5-6.4,3.2c-2.4,0.7-5.1,1.1-8,1.1
	c-2.9,0-5.4-0.2-7.5-0.7c-2-0.4-3.7-1-5.1-1.6c-0.9-0.4-2-1-3.1-1.8c-1.1-0.8-1.7-1.8-1.7-3.2c0-1.1,0.3-2.3,1-3.6
	c0.7-1.2,1.4-2.5,2.3-3.9C268.6,80.1,269.3,80.7,270.2,81.3L270.2,81.3z M306.7,45.2c0.3-0.1,0.7-0.1,1.2-0.2
	c0.4-0.1,0.9-0.1,1.4-0.1c0.5,0,1.2-0.1,1.9-0.1c2.2,0,4.1,0.4,5.6,1.1c1.5,0.7,2.5,2,2.9,3.7c1.1-1.3,2.7-2.6,5-3.9
	c2.3-1.3,5.1-2,8.6-2c2.5,0,4.8,0.4,7.1,1.3c2.2,0.8,4.2,2.2,6,4.1c1.7,1.9,3.1,4.3,4.2,7.4c1,3.1,1.6,6.9,1.6,11.3
	c0,5.2-0.6,9.5-1.8,12.9c-1.2,3.4-2.8,6-4.7,8c-1.9,2-4,3.4-6.4,4.2c-2.3,0.8-4.7,1.2-7,1.2c-1.9,0-3.6-0.2-5.1-0.7
	s-2.7-0.9-3.7-1.5c-1-0.5-1.8-1.1-2.3-1.6c-0.5-0.5-0.9-0.9-1-1.1v15.2h-13.5V45.2L306.7,45.2z M320.3,80.4c0.5,0.5,1.5,1.2,2.9,1.9
	c1.4,0.7,3,1.1,4.8,1.1c3.4,0,5.9-1.3,7.5-4c1.6-2.7,2.4-6.4,2.4-11.2c0-2-0.2-3.9-0.5-5.6c-0.3-1.7-0.9-3.2-1.7-4.5
	c-0.8-1.3-1.8-2.3-3.1-3c-1.3-0.7-2.9-1.1-4.8-1.1c-2.8,0-4.8,0.5-5.9,1.6c-1.1,1.1-1.7,2.2-1.7,3.5V80.4L320.3,80.4z M370.6,71.2
	c0.3,3.7,1.4,6.7,3.4,9.2c2,2.4,5.2,3.7,9.5,3.7c1.7,0,3.1-0.2,4.4-0.6c1.3-0.4,2.4-0.8,3.4-1.4c1-0.5,1.9-1.1,2.6-1.8
	c0.7-0.6,1.4-1.2,2-1.8c0.8,1,1.6,2.3,2.5,3.9c0.9,1.6,1.3,2.9,1.3,3.9c0,1.5-0.8,2.8-2.5,4c-1.4,1.1-3.4,2-6,2.8
	c-2.6,0.8-5.6,1.2-9.1,1.2c-3.1,0-6.2-0.4-9.3-1.2c-3-0.8-5.8-2.2-8.1-4.2c-2.4-2-4.3-4.7-5.8-8.1c-1.5-3.4-2.2-7.6-2.2-12.8
	c0-4.2,0.7-7.8,2-10.9c1.3-3,3-5.6,5.2-7.6c2.2-2,4.6-3.5,7.4-4.4c2.7-0.9,5.5-1.4,8.4-1.4c3.7,0,6.9,0.6,9.5,1.8
	c2.6,1.2,4.7,2.7,6.4,4.7c1.6,2,2.8,4.2,3.6,6.8c0.7,2.5,1.1,5.2,1.1,8c0,0.4,0,0.9,0,1.4c0,0.5,0,1.1-0.1,1.7
	c0,0.6-0.1,1.2-0.1,1.8c0,0.6-0.1,1-0.2,1.4H370.6L370.6,71.2z M388.1,63.7c0-3.2-0.6-5.8-1.9-7.8c-1.2-2-3.5-3-6.7-3
	c-2.7,0-4.9,1-6.6,2.9c-1.6,1.9-2.5,4.6-2.5,8H388.1L388.1,63.7z M418.2,71.2c0.3,3.7,1.4,6.7,3.4,9.2c2,2.4,5.2,3.7,9.5,3.7
	c1.7,0,3.1-0.2,4.4-0.6c1.3-0.4,2.4-0.8,3.4-1.4c1-0.5,1.9-1.1,2.6-1.8c0.7-0.6,1.4-1.2,2-1.8c0.8,1,1.6,2.3,2.5,3.9
	c0.9,1.6,1.3,2.9,1.3,3.9c0,1.5-0.8,2.8-2.5,4c-1.4,1.1-3.4,2-6,2.8c-2.6,0.8-5.6,1.2-9.1,1.2c-3.1,0-6.2-0.4-9.3-1.2
	c-3-0.8-5.8-2.2-8.1-4.2c-2.4-2-4.3-4.7-5.8-8.1c-1.5-3.4-2.2-7.6-2.2-12.8c0-4.2,0.7-7.8,2-10.9c1.3-3,3-5.6,5.2-7.6
	c2.2-2,4.6-3.5,7.4-4.4c2.7-0.9,5.5-1.4,8.4-1.4c3.7,0,6.9,0.6,9.5,1.8c2.6,1.2,4.7,2.7,6.4,4.7c1.6,2,2.8,4.2,3.6,6.8
	c0.7,2.5,1.1,5.2,1.1,8c0,0.4,0,0.9,0,1.4c0,0.5,0,1.1-0.1,1.7c0,0.6-0.1,1.2-0.1,1.8c0,0.6-0.1,1-0.2,1.4H418.2L418.2,71.2z
	 M435.6,63.7c0-3.2-0.6-5.8-1.9-7.8c-1.2-2-3.5-3-6.7-3c-2.7,0-4.9,1-6.6,2.9c-1.6,1.9-2.5,4.6-2.5,8H435.6L435.6,63.7z M484.5,57.1
	c-0.5-0.5-1.5-1.2-2.8-1.9c-1.3-0.7-2.8-1.1-4.6-1.1c-3.5,0-6.1,1.3-7.7,3.8c-1.7,2.5-2.5,6.2-2.5,10.9c0,2.3,0.2,4.5,0.5,6.4
	c0.3,1.9,0.9,3.5,1.7,4.9c0.8,1.3,1.9,2.4,3.2,3.1c1.3,0.7,3,1.1,5.1,1.1c1.9,0,3.6-0.4,5-1.2c1.4-0.8,2.1-1.9,2.1-3.4V57.1
	L484.5,57.1z M489.3,92.6c-1.1,0-2-0.4-2.7-1.2c-0.7-0.8-1-1.8-1-3c-0.9,1.1-2.5,2.3-4.8,3.5c-2.2,1.2-5.1,1.8-8.6,1.8
	c-2.5,0-4.9-0.4-7.2-1.2c-2.3-0.8-4.4-2.1-6.2-4c-1.8-1.9-3.2-4.4-4.3-7.5c-1.1-3.1-1.6-7-1.6-11.6c0-4.6,0.6-8.6,1.7-11.8
	c1.1-3.3,2.6-5.9,4.4-8c1.8-2,3.9-3.5,6.3-4.5c2.4-1,4.9-1.5,7.5-1.5c3,0,5.5,0.5,7.4,1.6c1.9,1,3.4,2.1,4.3,3.1V29.9
	c0.5-0.1,1.2-0.2,2.1-0.3c0.9-0.1,1.8-0.1,2.5-0.1c1.1,0,2.2,0.1,3.3,0.3c1.1,0.2,2.1,0.6,3,1.2c0.9,0.6,1.6,1.4,2.1,2.5
	c0.5,1,0.8,2.4,0.8,4.1v55.1H489.3L489.3,92.6z"/>
<path fill="#FFFFFF" d="M506.3,92.2c-1.3-1.4-2-3.2-2-5.3c0-2.1,0.7-3.8,2.1-5.2c1.4-1.4,3.1-2,5.2-2c2.1,0,3.9,0.7,5.2,2
	c1.4,1.4,2.1,3.1,2.1,5.2c0,2.1-0.7,3.9-2,5.3c-1.3,1.4-3.1,2.1-5.3,2.1C509.5,94.3,507.7,93.6,506.3,92.2L506.3,92.2z M524.3,46.1
	c0.2-0.1,0.7-0.1,1.6-0.2c0.9-0.1,1.9-0.1,2.9-0.1s2.1,0.1,3.2,0.3c1.1,0.2,2,0.6,2.9,1.1c0.9,0.6,1.5,1.4,2.1,2.4
	c0.5,1,0.8,2.4,0.8,4v39.9c-0.3,0.1-0.9,0.2-1.8,0.3c-0.9,0.1-1.9,0.1-3,0.1c-1.3,0-2.5-0.1-3.6-0.3c-1.1-0.2-2-0.7-2.7-1.3
	c-0.8-0.6-1.4-1.5-1.8-2.5c-0.4-1.1-0.6-2.4-0.6-4.1V46.1L524.3,46.1z M524.3,35.3c0-2.1,0.7-3.8,2.1-5.2c1.4-1.4,3.1-2,5.1-2
	c2,0,3.7,0.7,5.1,2c1.4,1.4,2.1,3.1,2.1,5.2c0,2.1-0.7,3.8-2.1,5.1c-1.4,1.3-3.1,2-5.1,2c-2,0-3.8-0.7-5.1-2
	C525,39.1,524.3,37.4,524.3,35.3L524.3,35.3z M548.8,86.9c-1.8-2.3-3.2-5-4.1-8c-0.9-3-1.3-6.1-1.3-9.4c0-3.4,0.5-6.5,1.5-9.5
	c1-3,2.5-5.6,4.4-7.9c1.9-2.3,4.4-4.1,7.4-5.4c3-1.3,6.4-2,10.4-2c4.2,0,7.7,0.7,10.6,2c2.9,1.3,5.3,3.1,7.1,5.3
	c1.8,2.2,3.1,4.8,4,7.8c0.8,3,1.2,6.1,1.2,9.4c0,3.3-0.4,6.5-1.2,9.5c-0.8,3-2.2,5.7-4.1,8c-1.9,2.3-4.3,4.2-7.3,5.5
	c-3,1.4-6.6,2.1-10.8,2.1s-7.8-0.7-10.7-2C553,90.9,550.7,89.1,548.8,86.9L548.8,86.9z M561.9,82.9c1.3,0.9,2.9,1.3,4.8,1.3
	c2,0,3.6-0.4,4.9-1.3c1.3-0.9,2.3-2,3-3.4c0.7-1.4,1.2-3,1.5-4.8c0.3-1.8,0.4-3.6,0.4-5.4c0-1.8-0.1-3.5-0.4-5.3
	c-0.3-1.7-0.8-3.3-1.5-4.6c-0.7-1.3-1.7-2.4-3-3.2c-1.3-0.8-2.8-1.2-4.7-1.2c-1.9,0-3.5,0.4-4.8,1.3c-1.3,0.9-2.3,2-3.1,3.3
	c-0.8,1.4-1.3,2.9-1.6,4.6c-0.3,1.7-0.5,3.5-0.5,5.2c0,1.8,0.1,3.6,0.4,5.3c0.3,1.8,0.8,3.4,1.5,4.8
	C559.6,80.9,560.6,82.1,561.9,82.9L561.9,82.9z"/>
<text transform="matrix(1 0 0 1 547.1763 120.2868)" fill="#FFFFFF" font-family="'Verdana'" font-size="18">beta</text>
</svg>
