<?xml version="1.0" encoding="utf-8"?>
<!-- Generator: Adobe Illustrator 17.0.0, SVG Export Plug-In . SVG Version: 6.00 Build 0)  -->
<!DOCTYPE svg PUBLIC "-//W3C//DTD SVG 1.1//EN" "http://www.w3.org/Graphics/SVG/1.1/DTD/svg11.dtd">
<svg version="1.1" xmlns="http://www.w3.org/2000/svg" xmlns:xlink="http://www.w3.org/1999/xlink" x="0px" y="0px"
	 width="70.714px" height="20.15px" viewBox="0 0 70.714 20.15" enable-background="new 0 0 70.714 20.15" xml:space="preserve">
<g id="Layer_3">
	<g id="Layer_3_1_">
		<g>
			<path fill="#FFFFFF" d="M63.788,18.888v-2.5h0.845c0.294,0,0.523,0.058,0.689,0.172c0.165,0.114,0.246,0.286,0.246,0.513
				c0,0.116-0.03,0.219-0.092,0.31c-0.061,0.091-0.15,0.159-0.267,0.205c0.149,0.032,0.262,0.1,0.337,0.206
				c0.075,0.105,0.113,0.227,0.113,0.365c0,0.239-0.079,0.42-0.237,0.543c-0.158,0.123-0.382,0.185-0.671,0.185H63.788z
				 M64.291,17.436h0.36c0.134,0,0.237-0.027,0.309-0.082c0.072-0.054,0.109-0.135,0.109-0.24c0-0.115-0.037-0.201-0.11-0.256
				c-0.072-0.055-0.18-0.082-0.325-0.082h-0.343V17.436z M64.291,17.782v0.719h0.462c0.133,0,0.234-0.029,0.304-0.086
				c0.07-0.058,0.105-0.143,0.105-0.257c0-0.122-0.03-0.215-0.089-0.28c-0.059-0.065-0.153-0.097-0.281-0.097L64.291,17.782
				L64.291,17.782z"/>
			<path fill="#FFFFFF" d="M66.826,18.924c-0.267,0-0.481-0.086-0.641-0.257c-0.16-0.172-0.241-0.39-0.241-0.654v-0.068
				c0-0.276,0.076-0.503,0.228-0.681c0.151-0.179,0.355-0.267,0.61-0.266c0.251,0,0.445,0.075,0.584,0.227
				c0.139,0.151,0.208,0.355,0.208,0.613v0.273h-1.109l-0.003,0.01c0.009,0.122,0.05,0.222,0.122,0.301
				c0.073,0.079,0.172,0.117,0.296,0.117c0.111,0,0.204-0.011,0.276-0.033c0.074-0.022,0.153-0.058,0.241-0.106l0.135,0.309
				c-0.075,0.062-0.174,0.114-0.297,0.154C67.112,18.903,66.976,18.924,66.826,18.924z M66.781,17.382
				c-0.093,0-0.166,0.036-0.219,0.107c-0.054,0.071-0.087,0.164-0.1,0.28l0.005,0.009h0.614v-0.044c0-0.107-0.025-0.191-0.075-0.255
				C66.957,17.414,66.882,17.382,66.781,17.382z"/>
			<path fill="#FFFFFF" d="M68.46,16.576v0.455h0.312v0.352H68.46v0.946c0,0.072,0.015,0.124,0.045,0.155
				c0.03,0.031,0.069,0.047,0.12,0.047c0.026,0,0.048-0.002,0.068-0.004c0.019-0.003,0.041-0.009,0.066-0.016l0.044,0.362
				c-0.051,0.017-0.1,0.03-0.148,0.039c-0.048,0.009-0.1,0.013-0.155,0.013c-0.173,0-0.306-0.048-0.4-0.142
				c-0.093-0.096-0.14-0.246-0.14-0.452v-0.948h-0.272V17.03h0.272v-0.455C67.96,16.576,68.46,16.576,68.46,16.576z"/>
			<path fill="#FFFFFF" d="M70.182,18.888c-0.018-0.043-0.034-0.087-0.047-0.135c-0.014-0.047-0.023-0.095-0.029-0.145
				c-0.051,0.09-0.119,0.166-0.203,0.225c-0.084,0.059-0.185,0.089-0.302,0.089c-0.195,0-0.344-0.05-0.45-0.15
				c-0.105-0.1-0.158-0.236-0.158-0.409c0-0.182,0.071-0.323,0.211-0.423c0.141-0.1,0.344-0.15,0.614-0.15h0.279v-0.148
				c0-0.089-0.023-0.159-0.071-0.208c-0.047-0.049-0.116-0.074-0.208-0.074c-0.081,0-0.145,0.019-0.188,0.059
				c-0.044,0.04-0.065,0.095-0.065,0.165l-0.484-0.002l-0.002-0.01c-0.008-0.157,0.061-0.292,0.204-0.406
				c0.145-0.114,0.334-0.171,0.568-0.171c0.222,0,0.403,0.056,0.54,0.169c0.138,0.113,0.208,0.274,0.208,0.482v0.767
				c0,0.087,0.006,0.169,0.019,0.246c0.013,0.077,0.033,0.152,0.062,0.229L70.182,18.888L70.182,18.888z M69.723,18.553
				c0.088,0,0.167-0.021,0.236-0.065c0.068-0.044,0.114-0.094,0.139-0.151v-0.262h-0.279c-0.107,0-0.187,0.026-0.243,0.08
				c-0.055,0.053-0.082,0.117-0.082,0.194c0,0.061,0.02,0.112,0.062,0.149C69.596,18.534,69.652,18.553,69.723,18.553z"/>
		</g>
	</g>
</g>
<g id="Layer_1">
	<g>
		<path fill-rule="evenodd" clip-rule="evenodd" fill="#010101" d="M16.344,4.243l0.229-0.599l0.002-0.004
			c0.124-0.352,0.273-0.703,0.387-1.057c0.093-0.289,0.171-0.625,0.001-0.902c-0.174-0.284-0.508-0.354-0.816-0.369
			c-0.433-0.021-0.927,0.046-1.357,0.105l-1.448,0.198c-1.239-0.92-2.774-1.465-4.435-1.465c-1.661,0-3.196,0.545-4.435,1.465
			L3.023,1.416C2.594,1.357,2.1,1.29,1.667,1.311C1.359,1.326,1.024,1.396,0.851,1.68c-0.17,0.277-0.092,0.614,0.001,0.902
			c0.114,0.355,0.263,0.705,0.387,1.057l0.002,0.004l0.604,1.578C1.594,5.968,1.457,6.768,1.457,7.599
			c0,1.452,0.42,2.815,1.388,3.916c0.096,0.109,0.195,0.213,0.298,0.313l-0.006,0.021c-0.476,0.052-0.963-0.161-1.241-0.591
			c-0.037-0.057-0.056-0.158-0.074-0.223c-0.029-0.105-0.067-0.201-0.126-0.294c-0.278-0.43-0.852-0.553-1.282-0.275
			c-0.492,0.318-0.497,0.837-0.268,1.32c0.054,0.114,0.118,0.223,0.187,0.329c0.665,1.029,1.885,1.482,3.013,1.222
			c0.048,0.132,0.097,0.258,0.145,0.372c-0.198,0.029-0.398,0.026-0.567-0.006l-0.235-0.045l-0.09,0.222
			c-0.184,0.452-0.264,0.933-0.22,1.42l0.019,0.207l1.046,1.218c-0.017,0.007-0.034,0.014-0.051,0.02l-0.425,0.15l0.289,0.326
			c0.036,0.041,0.073,0.08,0.11,0.12l1.055,1.17l0.028,0.031l0.029,0.031l0.031,0.032l0.029,0.03l0.032,0.032l0.031,0.03
			l0.031,0.029l0.034,0.031L4.7,18.786l0.033,0.029l0.034,0.03l0.034,0.029l0.035,0.028l0.036,0.029l0.036,0.028l0.036,0.028
			l0.037,0.028l0.037,0.027l0.038,0.027l0.038,0.027l0.039,0.027l0.039,0.026l0.04,0.026l0.04,0.026l0.04,0.026l0.041,0.025
			l0.041,0.025l0.042,0.025l0.042,0.024l0.043,0.024l0.055,0.03l0.134,0.074l0.051,0.028l0.182-0.191l0.023-0.022l0.025-0.022
			l0.027-0.021l0.028-0.021l0.029-0.02l0.031-0.019l0.033-0.018l0.034-0.018l0.035-0.017l0.037-0.016l0.038-0.015l0.039-0.014
			l0.039-0.012l0.041-0.011l0.041-0.01l0.042-0.009L6.51,19.02l0.043-0.006l0.043-0.005l0.044-0.004l0.044-0.002l0.044-0.001
			l0.044,0l0.044,0.002l0.044,0.003l0.044,0.005l0.043,0.006l0.043,0.007l0.043,0.009l0.042,0.01l0.042,0.012l0.017,0.006
			l0.494,0.999l0.221,0.028l0.057,0.007l0.058,0.007l0.057,0.006l0.057,0.006l0.057,0.005l0.057,0.005l0.058,0.004l0.058,0.004
			l0.057,0.004l0.057,0.003l0.057,0.003l0.058,0.002l0.058,0.002l0.057,0.002l0.058,0.001l0.057,0.001l0.058,0l0.057,0l0.032,0
			l0.032,0l0.057,0l0.058,0l0.057-0.001l0.057-0.001l0.057-0.002l0.057-0.002l0.058-0.002l0.057-0.003l0.057-0.003l0.058-0.004
			l0.058-0.004l0.058-0.005l0.057-0.005l0.057-0.005l0.057-0.006l0.057-0.006l0.058-0.007l0.057-0.007l0.221-0.028l0.477-0.964
			c0.037-0.039,0.078-0.05,0.118-0.063l0.043-0.009l0.043-0.007l0.043-0.006l0.044-0.005l0.044-0.003l0.044-0.002l0.044,0
			l0.044,0.001l0.044,0.002l0.044,0.004l0.043,0.005l0.043,0.006l0.043,0.008l0.042,0.009l0.042,0.01l0.041,0.011l0.039,0.012
			l0.039,0.014l0.038,0.015l0.037,0.016l0.035,0.017l0.034,0.018l0.033,0.018l0.031,0.019l0.029,0.02l0.028,0.021l0.027,0.021
			l0.025,0.022l0.023,0.022l0.182,0.191l0.05-0.027l0.132-0.073l0.058-0.032l0.043-0.024l0.042-0.024l0.042-0.025l0.042-0.025
			l0.041-0.025l0.041-0.026l0.04-0.026l0.04-0.026l0.039-0.026l0.039-0.027l0.038-0.027l0.038-0.027l0.037-0.027l0.037-0.028
			l0.036-0.028l0.036-0.028l0.036-0.029l0.035-0.029l0.034-0.029l0.034-0.029l0.034-0.03l0.033-0.029l0.033-0.03l0.032-0.03
			l0.031-0.03l0.031-0.031l0.03-0.031l0.03-0.031l0.03-0.032l0.029-0.031l1.056-1.171c0.038-0.039,0.074-0.079,0.11-0.12
			l0.289-0.326l-0.426-0.151c-0.017-0.006-0.034-0.013-0.05-0.02l1.046-1.218l0.019-0.207c0.004-0.048,0.008-0.096,0.01-0.144
			c0.801,0.268,1.709,0.36,2.324,0.096c0.023-0.01,0.041-0.023,0.054-0.039c0.456-0.217,0.734-0.662,0.855-1.14
			c0.132-0.516,0.09-1.081-0.079-1.584c-0.14-0.418-0.376-0.818-0.708-1.112c-0.307-0.272-0.697-0.45-1.114-0.426
			c-0.031,0.002-0.062,0.005-0.093,0.009l-0.278-0.544c0.864-0.777,1.362-1.88,1.362-3.053C17.784,6.115,17.225,4.996,16.344,4.243
			L16.344,4.243z M15.067,11.4c0.056-0.068,0.11-0.136,0.163-0.205l0.333,0.65c-0.06,0.037-0.122,0.059-0.177,0.048
			C15.224,11.86,15.114,11.569,15.067,11.4L15.067,11.4z"/>
		<path fill-rule="evenodd" clip-rule="evenodd" fill="#FFFFFF" d="M1.592,11.455c0.339,0.525,0.923,0.796,1.505,0.761
			c0.005,0.245,0.06,0.514,0.136,0.776c-0.975,0.211-2.022-0.185-2.596-1.073c-0.221-0.341-0.48-0.856-0.026-1.149
			c0.262-0.169,0.612-0.094,0.781,0.168C1.498,11.102,1.48,11.281,1.592,11.455L1.592,11.455z"/>
		<path fill-rule="evenodd" clip-rule="evenodd" fill="#70953D" d="M14.026,16.694l1.111-1.275l-0.004-0.001
			c-0.291-0.054-0.61-0.042-0.891,0.053c-0.28,0.095-0.592,0.313-0.586,0.641C13.659,16.354,13.824,16.552,14.026,16.694
			L14.026,16.694z"/>
		<path fill-rule="evenodd" clip-rule="evenodd" fill="#DBB127" d="M13.561,17.905c-0.341,0.408-0.679,0.758-1.138,1.047
			l0.558-0.703l0,0.001C13.179,18.143,13.374,18.031,13.561,17.905L13.561,17.905z M5.402,18.95
			c-0.447-0.288-0.767-0.639-1.134-1.045c0.186,0.126,0.381,0.237,0.578,0.344L5.402,18.95L5.402,18.95z M5.686,19.118L5.686,19.118
			l-0.758-0.955c0.358-0.393,1.007-0.522,1.538-0.431l0.538,0.998l-0.011-0.002C6.534,18.664,6.016,18.772,5.686,19.118
			L5.686,19.118z M6.638,17.77c0.434,0.128,0.976,0.533,0.732,1.068c-0.066-0.03-0.135-0.054-0.205-0.074L6.638,17.77L6.638,17.77z
			 M10.339,19.056l-0.34,0.736c-0.717,0.091-1.45,0.091-2.168,0l-0.34-0.736C8.421,19.178,9.409,19.178,10.339,19.056L10.339,19.056
			z M10.594,18.787c-0.045,0.015-0.09,0.032-0.134,0.052c-0.221-0.484,0.211-0.891,0.645-1.041L10.594,18.787L10.594,18.787z
			 M12.143,19.116c-0.343-0.36-0.883-0.462-1.359-0.379l-0.015,0.003l0.513-0.992c0.544-0.121,1.242,0.001,1.619,0.413
			L12.143,19.116L12.143,19.116z"/>
		<path fill-rule="evenodd" clip-rule="evenodd" fill="#B92025" d="M3.804,16.694l-1.111-1.276l0.004-0.001
			c0.291-0.054,0.61-0.042,0.891,0.053c0.28,0.095,0.592,0.313,0.586,0.641C4.171,16.354,4.006,16.552,3.804,16.694L3.804,16.694z"
			/>
		<path fill-rule="evenodd" clip-rule="evenodd" fill="#9ACA3C" d="M14.104,17.286c0.089-0.084,0.173-0.171,0.251-0.259
			c-0.658-0.232-1.001-0.754-0.779-1.208c0.217-0.445,0.904-0.67,1.583-0.544c0.007-0.074,0.01-0.149,0.01-0.224
			c-0.52-0.209-0.967-0.488-1.218-0.781c-0.138-0.161-0.256-0.333-0.355-0.515c-0.068-0.042-0.13-0.088-0.185-0.138
			c-0.377,0.456-0.791,0.842-1.229,1.16l-0.008,0.016c-0.102,0.2-0.217,0.403-0.347,0.597c-0.058,0.223-0.175,0.433-0.34,0.623
			L14.104,17.286L14.104,17.286z"/>
		<path fill-rule="evenodd" clip-rule="evenodd" fill="#ED2224" d="M3.613,13.988c-0.243,0.046-0.501,0.049-0.743,0.004
			c-0.173,0.424-0.238,0.857-0.199,1.283c0.679-0.126,1.367,0.1,1.583,0.544c0.222,0.454-0.12,0.976-0.779,1.208
			c0.103,0.117,0.217,0.23,0.339,0.34l2.601-1.277c-0.192-0.199-0.331-0.423-0.401-0.662c-0.028-0.041-0.056-0.083-0.083-0.125
			c-0.194,0.153-0.457,0.182-0.709,0.155c-0.838-0.088-1.231-0.647-1.554-1.35C3.651,14.072,3.633,14.032,3.613,13.988L3.613,13.988
			z"/>
		<path fill-rule="evenodd" clip-rule="evenodd" fill="#FFCD05" d="M8.915,18.99c0.472,0.008,0.947-0.019,1.416-0.081
			c-0.24-0.511,0.094-1.059,0.786-1.269c0.684-0.208,1.492-0.017,1.895,0.427c0.364-0.198,0.684-0.42,0.958-0.66l-2.605-1.267
			c-0.531,0.514-1.43,0.852-2.451,0.852c-0.971,0-1.833-0.306-2.372-0.778l-2.592,1.273c0.253,0.21,0.542,0.405,0.866,0.581
			c0.403-0.444,1.211-0.635,1.895-0.427c0.693,0.211,1.027,0.758,0.786,1.269C7.968,18.971,8.443,18.998,8.915,18.99L8.915,18.99z"
			/>
		<path fill-rule="evenodd" clip-rule="evenodd" fill="#0795D1" d="M4.271,12.687c2.389,3.647,6.883,3.647,9.272,0
			c-1.375,0.817-3.054,1.133-4.636,1.133C7.325,13.821,5.646,13.504,4.271,12.687L4.271,12.687z"/>
		<path fill-rule="evenodd" clip-rule="evenodd" fill="#02527D" d="M4.271,12.687c1.152,1.76,2.794,2.671,4.454,2.733
			c0.104-0.004,0.207-0.011,0.311-0.022c-1.397-0.142-2.76-0.888-3.806-2.238C4.897,13.026,4.576,12.869,4.271,12.687L4.271,12.687z
			"/>
		<path fill-rule="evenodd" clip-rule="evenodd" fill="#FFFFFF" d="M8.907,0.594c1.56,0,3.001,0.51,4.165,1.373l1.111-0.102
			c0.494-0.068,0.99-0.147,1.487-0.182c1.496-0.105,1.061,0.421,0.562,1.834l-0.188,0.491c-0.276-0.195-0.576-0.356-0.896-0.479
			c-0.086-0.132-0.177-0.262-0.271-0.388c0.033-0.04,0.066-0.081,0.101-0.12c0.454-0.52,0.992-0.88,1.516-1.055
			c-0.944-0.077-1.605,0.618-2.08,1.303c0.017,0.021,0.034,0.043,0.05,0.064c-0.254-0.049-0.517-0.075-0.785-0.075
			c-2.267,0-4.105,1.838-4.105,4.105c0,2.267,1.838,4.105,4.105,4.105c0.269,0,0.536-0.026,0.798-0.078
			c-1.28,1.326-3.298,1.984-5.569,1.984c-3.868,0-7.005-1.908-7.005-5.777c0-1.646,0.568-3.159,1.519-4.355
			c-0.448-0.688-1.166-1.421-2.1-1.277c0.524,0.175,1.062,0.535,1.516,1.055c0.035,0.04,0.068,0.08,0.101,0.12
			C2.578,3.624,2.275,4.15,2.038,4.711L1.582,3.518c-0.494-1.4-0.926-1.929,0.522-1.837C2.552,1.71,3,1.772,3.446,1.837
			c0.435,0.063,0.861,0.098,1.3,0.128C5.909,1.104,7.349,0.594,8.907,0.594L8.907,0.594z M13.679,4.708
			c-1.467,0-2.657,1.19-2.657,2.657c0,1.467,1.19,2.657,2.657,2.657c1.467,0,2.657-1.19,2.657-2.657
			C16.336,5.897,15.146,4.708,13.679,4.708L13.679,4.708z"/>
		<path fill-rule="evenodd" clip-rule="evenodd" fill="#E8E8E8" d="M6.444,13.087C3.791,12.422,1.902,10.6,1.902,7.599
			c0-0.648,0.089-1.276,0.253-1.871l0,0c0.254-0.898,0.681-1.75,1.263-2.48l0.003-0.004c-0.448-0.688-1.166-1.421-2.1-1.277
			c0.524,0.175,1.062,0.535,1.516,1.055c0.035,0.04,0.068,0.08,0.101,0.12C2.578,3.624,2.275,4.15,2.038,4.711L1.582,3.518
			c-0.494-1.4-0.926-1.929,0.522-1.837C2.552,1.71,3,1.772,3.446,1.837c0.435,0.063,0.861,0.098,1.3,0.128
			C4.839,1.896,4.933,1.829,5.03,1.765l0,0.001c0.667-0.445,1.415-0.778,2.217-0.973c-2.495,1.14-4.243,3.776-4.243,6.845
			C3.003,10.366,4.385,12.177,6.444,13.087L6.444,13.087z"/>
		<path fill="#010101" d="M9.655,10.725c0.23,0.03,0.545-0.198,0.766-0.358c0.258-0.187,0.224-0.061,0.074,0.123
			c-0.197,0.241-0.409,0.501-0.73,0.553c-0.101,0.016-0.2,0.013-0.289-0.002c-0.116-0.019-0.216-0.056-0.283-0.091
			c-0.139-0.073-0.246-0.109-0.352-0.109c-0.105,0-0.213,0.036-0.352,0.109c-0.067,0.035-0.167,0.072-0.283,0.091
			c-0.089,0.014-0.188,0.018-0.289,0.002c-0.321-0.052-0.534-0.312-0.73-0.553c-0.174-0.213-0.152-0.287,0.074-0.123
			c0.221,0.16,0.536,0.388,0.766,0.358c0.223-0.029,0.415-0.07,0.538-0.155c0.115-0.078,0.169-0.199,0.131-0.394
			c-0.004-0.019-0.007-0.041-0.01-0.066C8.299,9.724,7.886,9.838,7.745,9.606c-0.079-0.13-0.044-0.261,0.048-0.374
			c0.31-0.379,1.787-0.379,2.097,0c0.092,0.113,0.127,0.244,0.048,0.374c-0.136,0.225-0.53,0.124-0.908,0.472
			c-0.005,0.038-0.01,0.073-0.015,0.099c-0.038,0.195,0.009,0.316,0.117,0.394c0.001,0.001,0.002,0.001,0.002,0.002
			C9.251,10.655,9.434,10.696,9.655,10.725L9.655,10.725z"/>
		<path fill-rule="evenodd" clip-rule="evenodd" fill="#ED2224" d="M16.045,10.342l0.357,0.698
			c-0.023,0.009-0.045,0.019-0.068,0.029c-0.241,0.11-0.432,0.284-0.578,0.492l-0.401-0.782c-0.506,0.249-1.075,0.389-1.677,0.389
			c-2.1,0-3.804-1.703-3.804-3.803c0-2.1,1.703-3.804,3.804-3.804c2.1,0,3.804,1.703,3.804,3.804
			C17.483,8.57,16.921,9.645,16.045,10.342L16.045,10.342z M13.679,4.406c1.634,0,2.958,1.325,2.958,2.958
			c0,1.633-1.325,2.958-2.958,2.958c-1.634,0-2.958-1.325-2.958-2.958C10.721,5.731,12.045,4.406,13.679,4.406L13.679,4.406z"/>
		<path fill-rule="evenodd" clip-rule="evenodd" fill="#9A1B1F" d="M15.756,11.561l-0.401-0.782
			c0.107-0.041,0.011,0.005,0.113-0.046l0.377,0.711C15.815,11.482,15.785,11.521,15.756,11.561L15.756,11.561z M13.871,11.163
			c-0.064,0.003-0.128,0.005-0.192,0.005c-2.1,0-3.804-1.703-3.804-3.803c0-2.1,1.703-3.804,3.804-3.804
			c0.064,0,0.128,0.002,0.192,0.005C8.844,3.862,8.66,10.837,13.871,11.163L13.871,11.163z M13.871,4.413
			c1.544,0.099,2.766,1.383,2.766,2.952c0,1.569-1.222,2.853-2.766,2.952c0.063,0.004,0.128,0.015,0.192,0.006
			c3.8-0.504,3.54-5.611,0-5.917C13.998,4.401,13.934,4.408,13.871,4.413L13.871,4.413z"/>
		<path fill-rule="evenodd" clip-rule="evenodd" fill="#FFFFFF" d="M18.194,12.632c0.31,0.923,0.06,1.902-0.557,2.185
			c-0.617,0.283-1.369-0.236-1.678-1.159c-0.31-0.923-0.06-1.902,0.557-2.185C17.132,11.189,17.884,11.709,18.194,12.632
			L18.194,12.632z M14.658,11.59c0.15,0.497,0.442,0.759,0.772,0.75c-0.096,0.482-0.048,0.997,0.107,1.46
			c0.14,0.418,0.376,0.817,0.708,1.112c0.012,0.011,0.024,0.021,0.036,0.031c-1.286-0.144-2.13-0.814-2.485-1.833
			c0.189-0.272,0.366-0.564,0.53-0.876l0.262-0.499L14.658,11.59L14.658,11.59z"/>
		<path fill-rule="evenodd" clip-rule="evenodd" fill="#D2D3D4" d="M16.825,14.776c-0.362-0.187-0.688-0.585-0.866-1.118
			c-0.296-0.882-0.081-1.815,0.477-2.143c-0.383,0.534-0.483,1.413-0.2,2.255C16.372,14.178,16.58,14.521,16.825,14.776
			L16.825,14.776z"/>
		<path fill-rule="evenodd" clip-rule="evenodd" fill="#010101" d="M13.679,5.823c0.103,0,0.204,0.01,0.302,0.03
			C13.815,5.936,13.7,6.108,13.7,6.307c0,0.28,0.227,0.508,0.507,0.508c0.28,0,0.508-0.227,0.508-0.508
			c0-0.031-0.003-0.061-0.008-0.091c0.315,0.282,0.514,0.692,0.514,1.148c0,0.851-0.69,1.542-1.542,1.542
			c-0.851,0-1.542-0.69-1.542-1.542C12.137,6.513,12.828,5.823,13.679,5.823L13.679,5.823z"/>
		<path fill-rule="evenodd" clip-rule="evenodd" fill="#010101" d="M6.151,6.996C6.885,7.193,7.4,7.8,7.515,8.505
			C7.172,8.006,6.658,7.623,6.028,7.454C5.399,7.285,4.761,7.36,4.215,7.621C4.667,7.068,5.417,6.799,6.151,6.996L6.151,6.996z"/>
		<path fill-rule="evenodd" clip-rule="evenodd" fill="#0795D1" d="M14.658,11.59c0.115,0.378,0.311,0.621,0.544,0.711
			c-0.176,0.039-0.836,1.331-0.779,1.822c-0.28-0.279-0.49-0.62-0.627-1.014c0.189-0.272,0.366-0.564,0.53-0.876l0.262-0.499
			L14.658,11.59L14.658,11.59z"/>
		<path fill-rule="evenodd" clip-rule="evenodd" fill="#FFFFFF" d="M9.402,15.844c0.583,0.51,1.307,0.324,1.959-0.567
			C10.732,15.593,10.071,15.782,9.402,15.844L9.402,15.844z"/>
		<path fill-rule="evenodd" clip-rule="evenodd" fill="#FFFFFF" d="M8.412,15.844c-0.583,0.511-1.307,0.324-1.959-0.567
			C7.082,15.593,7.744,15.782,8.412,15.844L8.412,15.844z"/>
		<path fill-rule="evenodd" clip-rule="evenodd" fill="#FFFFFF" d="M5.268,15.015c-0.681-0.072-0.96-0.579-1.197-1.093
			c-0.321-0.697-0.481-1.22-0.521-1.575c0.589,1.082,1.339,1.916,2.178,2.499C5.685,14.975,5.551,15.045,5.268,15.015L5.268,15.015z
			"/>
		<path fill-rule="evenodd" clip-rule="evenodd" fill="#0795D1" d="M4.129,14.044c-0.019-0.041-0.039-0.081-0.057-0.122
			c-0.321-0.697-0.481-1.22-0.521-1.575c0.32,0.589,0.688,1.104,1.092,1.545l-0.016,0.001C4.472,13.963,4.297,14.018,4.129,14.044
			L4.129,14.044z"/>
		<path fill-rule="evenodd" clip-rule="evenodd" fill="#BDBEC0" d="M2.938,3.142C2.735,3.414,2.55,3.699,2.385,3.997
			c-0.19-0.712-0.401-1.389-0.953-1.99C1.92,2.194,2.415,2.539,2.837,3.022C2.871,3.062,2.905,3.102,2.938,3.142L2.938,3.142z"/>
	</g>
	<g>
		<path fill="#FFFFFF" d="M21.66,13.88c0.099,0.057,0.211,0.112,0.336,0.165c0.124,0.053,0.258,0.098,0.4,0.133
			c0.142,0.036,0.288,0.053,0.437,0.053c0.092,0,0.188-0.007,0.288-0.021c0.099-0.014,0.187-0.043,0.261-0.085
			c0.075-0.043,0.137-0.1,0.187-0.171c0.05-0.071,0.075-0.164,0.075-0.277c0-0.206-0.08-0.354-0.24-0.442
			c-0.16-0.089-0.4-0.165-0.72-0.229c-0.206-0.043-0.405-0.099-0.597-0.171c-0.192-0.071-0.363-0.165-0.512-0.283
			c-0.149-0.117-0.268-0.265-0.357-0.442c-0.089-0.178-0.133-0.394-0.133-0.65c0-0.256,0.057-0.48,0.171-0.672
			c0.114-0.192,0.265-0.355,0.453-0.49c0.188-0.135,0.407-0.236,0.656-0.304c0.249-0.068,0.508-0.101,0.778-0.101
			c0.284,0,0.538,0.021,0.762,0.064c0.224,0.043,0.418,0.1,0.581,0.171c0.313,0.128,0.476,0.295,0.49,0.501
			c0,0.107-0.034,0.233-0.101,0.378c-0.067,0.146-0.14,0.282-0.219,0.41c-0.071-0.057-0.158-0.115-0.261-0.176
			c-0.103-0.06-0.218-0.117-0.346-0.171c-0.128-0.053-0.261-0.098-0.4-0.133c-0.139-0.036-0.279-0.053-0.421-0.053
			c-0.078,0-0.16,0.005-0.245,0.016c-0.085,0.011-0.162,0.032-0.229,0.064c-0.068,0.032-0.124,0.078-0.171,0.139
			c-0.046,0.06-0.069,0.14-0.069,0.24c0,0.242,0.259,0.419,0.778,0.533c0.213,0.043,0.425,0.098,0.634,0.165
			c0.21,0.068,0.398,0.162,0.565,0.283c0.167,0.121,0.302,0.274,0.405,0.458c0.103,0.185,0.155,0.416,0.155,0.693
			c0,0.284-0.055,0.536-0.165,0.757c-0.11,0.22-0.261,0.405-0.453,0.554s-0.418,0.263-0.677,0.341
			c-0.259,0.078-0.542,0.117-0.848,0.117c-0.313,0-0.577-0.023-0.794-0.069c-0.217-0.046-0.396-0.101-0.538-0.165
			c-0.1-0.043-0.208-0.105-0.325-0.186c-0.117-0.082-0.176-0.194-0.176-0.336c0-0.121,0.035-0.247,0.107-0.378
			c0.071-0.132,0.153-0.268,0.245-0.41C21.489,13.756,21.568,13.816,21.66,13.88L21.66,13.88z M26.201,8.187
			c0.416,0,0.754,0.337,0.754,0.754c0,0.416-0.337,0.754-0.754,0.754c-0.416,0-0.754-0.337-0.754-0.754
			C25.448,8.525,25.785,8.187,26.201,8.187L26.201,8.187z M25.519,10.042c0.021-0.007,0.08-0.016,0.176-0.027
			C25.791,10.005,25.896,10,26.009,10c0.114,0,0.227,0.011,0.341,0.032c0.114,0.021,0.217,0.062,0.309,0.123
			c0.092,0.06,0.167,0.146,0.224,0.256c0.057,0.11,0.085,0.254,0.085,0.432v4.307c-0.028,0.014-0.092,0.025-0.192,0.032
			c-0.099,0.007-0.206,0.011-0.32,0.011c-0.142,0-0.27-0.012-0.384-0.037c-0.114-0.025-0.211-0.071-0.293-0.139
			c-0.082-0.067-0.146-0.158-0.192-0.272c-0.046-0.114-0.069-0.259-0.069-0.437V10.042L25.519,10.042z M27.651,8.454
			c0.05-0.007,0.103-0.014,0.16-0.021c0.05-0.007,0.103-0.013,0.16-0.016c0.057-0.003,0.114-0.005,0.171-0.005
			c0.114,0,0.227,0.011,0.341,0.032c0.114,0.021,0.217,0.064,0.309,0.128c0.092,0.064,0.167,0.151,0.224,0.261
			c0.057,0.11,0.085,0.254,0.085,0.432v0.746h1.493v1.087h-1.493v2.281c0,0.498,0.202,0.746,0.608,0.746
			c0.1,0,0.194-0.016,0.283-0.048c0.089-0.032,0.169-0.068,0.24-0.107c0.071-0.039,0.133-0.08,0.187-0.123
			c0.053-0.043,0.091-0.075,0.112-0.096c0.107,0.156,0.188,0.291,0.245,0.405c0.057,0.114,0.085,0.22,0.085,0.32
			c0,0.092-0.037,0.183-0.112,0.272c-0.075,0.089-0.179,0.171-0.315,0.245c-0.135,0.075-0.298,0.135-0.49,0.181
			c-0.192,0.046-0.402,0.069-0.629,0.069c-0.441,0-0.784-0.085-1.029-0.256c-0.245-0.171-0.418-0.395-0.517-0.672
			c-0.05-0.142-0.082-0.292-0.096-0.448c-0.014-0.156-0.021-0.313-0.021-0.469V8.454L27.651,8.454z M32.47,12.814
			c0.028,0.391,0.149,0.716,0.362,0.975c0.213,0.259,0.551,0.389,1.013,0.389c0.178,0,0.334-0.019,0.469-0.059
			c0.135-0.039,0.256-0.087,0.362-0.144c0.107-0.057,0.199-0.119,0.277-0.187c0.078-0.067,0.149-0.13,0.213-0.187
			c0.085,0.107,0.174,0.243,0.266,0.41c0.092,0.167,0.139,0.304,0.139,0.41c0,0.156-0.089,0.299-0.267,0.426
			c-0.149,0.114-0.361,0.211-0.634,0.293c-0.274,0.082-0.595,0.123-0.965,0.123c-0.334,0-0.663-0.043-0.986-0.128
			c-0.323-0.085-0.611-0.235-0.864-0.448c-0.252-0.213-0.457-0.499-0.613-0.858c-0.156-0.359-0.235-0.812-0.235-1.359
			c0-0.448,0.069-0.833,0.208-1.157c0.139-0.323,0.323-0.592,0.554-0.805c0.231-0.213,0.492-0.37,0.783-0.469
			c0.291-0.1,0.59-0.149,0.896-0.149c0.398,0,0.736,0.062,1.013,0.187c0.277,0.124,0.503,0.291,0.677,0.501
			c0.174,0.21,0.3,0.45,0.378,0.72c0.078,0.27,0.117,0.554,0.117,0.853c0,0.043,0,0.092,0,0.149c0,0.057-0.002,0.117-0.005,0.181
			c-0.004,0.064-0.007,0.126-0.011,0.187c-0.004,0.06-0.009,0.108-0.016,0.144H32.47L32.47,12.814z M34.325,12.015
			c0-0.341-0.066-0.618-0.197-0.831c-0.132-0.213-0.368-0.32-0.709-0.32c-0.291,0-0.524,0.101-0.698,0.304
			c-0.174,0.203-0.261,0.485-0.261,0.847H34.325L34.325,12.015z"/>
		<path fill="#FFFFFF" d="M36.68,13.88c0.1,0.057,0.211,0.112,0.336,0.165c0.124,0.053,0.258,0.098,0.4,0.133
			c0.142,0.036,0.288,0.053,0.437,0.053c0.092,0,0.188-0.007,0.288-0.021c0.1-0.014,0.187-0.043,0.261-0.085
			c0.075-0.043,0.137-0.1,0.187-0.171c0.05-0.071,0.075-0.164,0.075-0.277c0-0.206-0.08-0.354-0.24-0.442
			c-0.16-0.089-0.4-0.165-0.72-0.229c-0.206-0.043-0.405-0.099-0.597-0.171c-0.192-0.071-0.362-0.165-0.512-0.283
			c-0.149-0.117-0.268-0.265-0.357-0.442c-0.089-0.178-0.133-0.394-0.133-0.65c0-0.256,0.057-0.48,0.171-0.672
			c0.114-0.192,0.265-0.355,0.453-0.49c0.188-0.135,0.407-0.236,0.656-0.304c0.249-0.068,0.508-0.101,0.778-0.101
			c0.284,0,0.538,0.021,0.762,0.064c0.224,0.043,0.418,0.1,0.581,0.171c0.313,0.128,0.476,0.295,0.49,0.501
			c0,0.107-0.034,0.233-0.101,0.378c-0.068,0.146-0.141,0.282-0.219,0.41c-0.071-0.057-0.158-0.115-0.261-0.176
			c-0.103-0.06-0.219-0.117-0.346-0.171c-0.128-0.053-0.261-0.098-0.4-0.133c-0.138-0.036-0.279-0.053-0.421-0.053
			c-0.078,0-0.16,0.005-0.245,0.016c-0.085,0.011-0.162,0.032-0.229,0.064c-0.067,0.032-0.124,0.078-0.171,0.139
			c-0.046,0.06-0.069,0.14-0.069,0.24c0,0.242,0.26,0.419,0.778,0.533c0.213,0.043,0.425,0.098,0.634,0.165
			c0.209,0.068,0.398,0.162,0.565,0.283c0.167,0.121,0.302,0.274,0.405,0.458c0.103,0.185,0.155,0.416,0.155,0.693
			c0,0.284-0.055,0.536-0.165,0.757c-0.11,0.22-0.261,0.405-0.453,0.554c-0.192,0.149-0.418,0.263-0.677,0.341
			c-0.259,0.078-0.542,0.117-0.847,0.117c-0.313,0-0.577-0.023-0.794-0.069c-0.217-0.046-0.396-0.101-0.538-0.165
			c-0.1-0.043-0.208-0.105-0.325-0.186c-0.117-0.082-0.176-0.194-0.176-0.336c0-0.121,0.036-0.247,0.107-0.378
			c0.071-0.132,0.153-0.268,0.245-0.41C36.51,13.756,36.588,13.816,36.68,13.88L36.68,13.88z M40.556,10.042
			c0.036-0.007,0.078-0.014,0.128-0.021c0.043-0.007,0.092-0.012,0.149-0.016C40.89,10.002,40.957,10,41.035,10
			c0.235,0,0.434,0.039,0.597,0.117c0.163,0.078,0.266,0.21,0.309,0.394c0.114-0.135,0.291-0.272,0.533-0.41
			c0.242-0.138,0.547-0.208,0.917-0.208c0.263,0,0.514,0.044,0.752,0.133c0.238,0.089,0.45,0.233,0.634,0.432
			c0.185,0.199,0.332,0.462,0.442,0.789c0.11,0.327,0.165,0.728,0.165,1.205c0,0.554-0.064,1.011-0.192,1.37
			c-0.128,0.359-0.293,0.643-0.496,0.853c-0.202,0.21-0.428,0.357-0.677,0.442c-0.249,0.085-0.498,0.128-0.746,0.128
			c-0.206,0-0.386-0.023-0.538-0.069c-0.153-0.046-0.282-0.098-0.389-0.155c-0.107-0.057-0.188-0.114-0.245-0.171
			c-0.057-0.057-0.092-0.096-0.107-0.117v1.612h-1.439V10.042L40.556,10.042z M42.005,13.784c0.057,0.057,0.158,0.124,0.304,0.203
			c0.146,0.078,0.315,0.117,0.506,0.117c0.363,0,0.629-0.142,0.799-0.426c0.171-0.284,0.256-0.682,0.256-1.194
			c0-0.213-0.018-0.412-0.053-0.597c-0.036-0.185-0.094-0.345-0.176-0.48c-0.082-0.135-0.192-0.24-0.331-0.314
			c-0.138-0.075-0.307-0.112-0.506-0.112c-0.299,0-0.506,0.057-0.624,0.171c-0.117,0.114-0.176,0.238-0.176,0.373V13.784
			L42.005,13.784z M47.357,12.814c0.028,0.391,0.149,0.716,0.363,0.975c0.213,0.259,0.551,0.389,1.013,0.389
			c0.178,0,0.334-0.02,0.469-0.059c0.135-0.039,0.256-0.087,0.363-0.144c0.107-0.057,0.199-0.119,0.277-0.187
			c0.078-0.067,0.149-0.13,0.213-0.187c0.085,0.107,0.174,0.243,0.267,0.41c0.092,0.167,0.138,0.304,0.138,0.41
			c0,0.156-0.089,0.298-0.266,0.426c-0.149,0.114-0.361,0.211-0.634,0.293c-0.274,0.082-0.595,0.123-0.965,0.123
			c-0.334,0-0.663-0.043-0.986-0.128c-0.323-0.085-0.611-0.235-0.864-0.448c-0.252-0.213-0.457-0.499-0.613-0.858
			c-0.157-0.359-0.235-0.812-0.235-1.359c0-0.448,0.069-0.833,0.208-1.157c0.139-0.323,0.323-0.592,0.554-0.805
			c0.231-0.213,0.492-0.37,0.783-0.469c0.291-0.1,0.59-0.149,0.896-0.149c0.398,0,0.735,0.062,1.013,0.187
			c0.277,0.124,0.503,0.291,0.677,0.501c0.174,0.21,0.3,0.45,0.378,0.72c0.078,0.27,0.117,0.554,0.117,0.853
			c0,0.043,0,0.092,0,0.149c0,0.057-0.002,0.117-0.005,0.181c-0.004,0.064-0.007,0.126-0.011,0.187
			c-0.004,0.06-0.009,0.108-0.016,0.144H47.357L47.357,12.814z M49.212,12.015c0-0.341-0.066-0.618-0.197-0.832
			c-0.132-0.213-0.368-0.32-0.709-0.32c-0.292,0-0.524,0.101-0.698,0.304c-0.174,0.202-0.261,0.485-0.261,0.847H49.212
			L49.212,12.015z M52.41,12.814c0.028,0.391,0.149,0.716,0.363,0.975c0.213,0.259,0.551,0.389,1.013,0.389
			c0.178,0,0.334-0.02,0.469-0.059c0.135-0.039,0.256-0.087,0.362-0.144c0.107-0.057,0.199-0.119,0.277-0.187
			c0.078-0.067,0.149-0.13,0.213-0.187c0.085,0.107,0.174,0.243,0.266,0.41c0.092,0.167,0.139,0.304,0.139,0.41
			c0,0.156-0.089,0.298-0.267,0.426c-0.149,0.114-0.361,0.211-0.634,0.293c-0.274,0.082-0.595,0.123-0.965,0.123
			c-0.334,0-0.663-0.043-0.986-0.128c-0.324-0.085-0.611-0.235-0.864-0.448c-0.252-0.213-0.457-0.499-0.613-0.858
			c-0.156-0.359-0.234-0.812-0.234-1.359c0-0.448,0.069-0.833,0.208-1.157c0.139-0.323,0.323-0.592,0.554-0.805
			c0.231-0.213,0.492-0.37,0.784-0.469c0.291-0.1,0.59-0.149,0.895-0.149c0.398,0,0.736,0.062,1.013,0.187
			c0.277,0.124,0.503,0.291,0.677,0.501c0.174,0.21,0.3,0.45,0.379,0.72c0.078,0.27,0.117,0.554,0.117,0.853
			c0,0.043,0,0.092,0,0.149c0,0.057-0.002,0.117-0.005,0.181c-0.004,0.064-0.007,0.126-0.011,0.187
			c-0.004,0.06-0.009,0.108-0.016,0.144H52.41L52.41,12.814z M54.265,12.015c0-0.341-0.066-0.618-0.197-0.832
			c-0.131-0.213-0.368-0.32-0.709-0.32c-0.291,0-0.524,0.101-0.698,0.304c-0.174,0.202-0.261,0.485-0.261,0.847H54.265
			L54.265,12.015z M59.467,11.311c-0.057-0.057-0.154-0.124-0.293-0.203c-0.139-0.078-0.3-0.117-0.485-0.117
			c-0.37,0-0.643,0.135-0.821,0.405c-0.178,0.27-0.266,0.657-0.266,1.162c0,0.249,0.018,0.474,0.053,0.677
			c0.036,0.203,0.096,0.375,0.181,0.517c0.085,0.142,0.199,0.252,0.341,0.33c0.142,0.078,0.324,0.117,0.544,0.117
			c0.206,0,0.382-0.043,0.528-0.128c0.146-0.085,0.218-0.206,0.218-0.362V11.311L59.467,11.311z M59.968,15.085
			c-0.121,0-0.217-0.041-0.288-0.123c-0.071-0.082-0.107-0.187-0.107-0.314c-0.099,0.121-0.268,0.245-0.506,0.373
			c-0.238,0.128-0.542,0.192-0.911,0.192c-0.263,0-0.517-0.043-0.762-0.128c-0.245-0.085-0.464-0.227-0.656-0.426
			c-0.192-0.199-0.345-0.464-0.458-0.794c-0.114-0.33-0.17-0.741-0.17-1.231c0-0.49,0.059-0.91,0.176-1.258
			c0.117-0.348,0.273-0.631,0.469-0.848c0.195-0.217,0.419-0.377,0.672-0.48c0.252-0.103,0.517-0.155,0.794-0.155
			c0.32,0,0.583,0.055,0.789,0.165c0.206,0.11,0.359,0.219,0.458,0.325V8.42c0.05-0.014,0.124-0.025,0.224-0.032
			c0.1-0.007,0.188-0.011,0.267-0.011c0.114,0,0.229,0.011,0.347,0.032c0.117,0.021,0.222,0.064,0.314,0.128
			c0.092,0.064,0.165,0.151,0.218,0.261c0.053,0.11,0.08,0.254,0.08,0.432v5.855H59.968L59.968,15.085z"/>
		<path fill="#FFFFFF" d="M61.781,15.045c-0.14-0.154-0.21-0.343-0.21-0.568c0-0.224,0.074-0.408,0.221-0.552
			c0.147-0.144,0.333-0.215,0.557-0.215c0.224,0,0.41,0.072,0.557,0.215c0.147,0.144,0.221,0.328,0.221,0.552
			c0,0.224-0.07,0.412-0.21,0.562c-0.14,0.151-0.329,0.226-0.568,0.226C62.117,15.266,61.928,15.192,61.781,15.045L61.781,15.045z
			 M63.694,10.137c0.021-0.007,0.079-0.016,0.173-0.026c0.094-0.01,0.198-0.016,0.31-0.016s0.224,0.01,0.336,0.032
			c0.112,0.021,0.214,0.061,0.305,0.121c0.091,0.06,0.165,0.144,0.221,0.252c0.056,0.109,0.084,0.25,0.084,0.426v4.246
			c-0.028,0.014-0.091,0.024-0.189,0.032c-0.098,0.007-0.203,0.01-0.315,0.01c-0.14,0-0.266-0.012-0.378-0.037
			c-0.112-0.025-0.208-0.07-0.289-0.137c-0.081-0.066-0.144-0.156-0.189-0.268c-0.046-0.112-0.068-0.256-0.068-0.431V10.137
			L63.694,10.137z M63.692,8.993c0-0.224,0.074-0.408,0.221-0.552c0.147-0.144,0.329-0.215,0.547-0.215
			c0.21,0,0.391,0.072,0.541,0.215c0.151,0.144,0.226,0.328,0.226,0.552c0,0.224-0.075,0.406-0.226,0.546
			c-0.151,0.14-0.331,0.21-0.541,0.21c-0.217,0-0.4-0.07-0.547-0.21C63.765,9.399,63.692,9.217,63.692,8.993L63.692,8.993z
			 M66.3,14.478c-0.196-0.245-0.34-0.527-0.431-0.846c-0.091-0.319-0.137-0.653-0.137-1.004c0-0.357,0.053-0.695,0.158-1.014
			c0.105-0.319,0.261-0.599,0.468-0.841c0.207-0.242,0.468-0.433,0.783-0.573c0.315-0.14,0.683-0.21,1.103-0.21
			c0.441,0,0.818,0.07,1.13,0.21c0.312,0.14,0.564,0.329,0.757,0.568c0.193,0.238,0.333,0.515,0.42,0.83
			c0.087,0.315,0.131,0.648,0.131,0.998c0,0.35-0.044,0.687-0.131,1.009c-0.088,0.322-0.231,0.606-0.431,0.851
			c-0.2,0.245-0.457,0.441-0.772,0.589c-0.315,0.147-0.697,0.221-1.146,0.221c-0.448,0-0.829-0.072-1.14-0.215
			C66.75,14.907,66.496,14.716,66.3,14.478L66.3,14.478z M67.687,14.057c0.14,0.091,0.312,0.137,0.515,0.137
			c0.21,0,0.384-0.046,0.52-0.137c0.137-0.091,0.244-0.212,0.321-0.363c0.077-0.151,0.13-0.321,0.158-0.51
			c0.028-0.189,0.042-0.382,0.042-0.578c0-0.189-0.014-0.377-0.042-0.562c-0.028-0.186-0.081-0.349-0.158-0.489
			c-0.077-0.14-0.182-0.254-0.315-0.341c-0.133-0.088-0.301-0.131-0.505-0.131c-0.203,0-0.373,0.046-0.51,0.137
			c-0.137,0.091-0.245,0.208-0.326,0.352c-0.081,0.144-0.138,0.307-0.173,0.489c-0.035,0.182-0.053,0.368-0.053,0.557
			c0,0.189,0.016,0.378,0.047,0.568c0.032,0.189,0.086,0.359,0.163,0.51C67.449,13.845,67.554,13.966,67.687,14.057L67.687,14.057z"
			/>
	</g>
</g>
</svg>
